<?xml version="1.0" encoding="utf-8"?>
<!-- Generator: Adobe Illustrator 24.1.3, SVG Export Plug-In . SVG Version: 6.00 Build 0)  -->
<svg version="1.1" id="Livello_1" xmlns="http://www.w3.org/2000/svg" xmlns:xlink="http://www.w3.org/1999/xlink" x="0px" y="0px"
	 viewBox="0 0 498.55 127.96" style="enable-background:new 0 0 498.55 127.96;" xml:space="preserve">
<style type="text/css">
	.st0{fill:#293240;}
</style>
<path class="st0" d="M18.42,95.74v13.73h10.34v-2.68h-7.38v-2.87h6.4v-2.7h-6.4v-2.78h7.28v-2.7L18.42,95.74z M54.59,95.74
	l-3.31,5.52l-3.23-5.52h-3.5l5.23,8.33v5.4h2.99v-5.46l5.21-8.27L54.59,95.74z M74.38,95.74v13.73h10.36v-2.68h-7.38v-2.87h6.4v-2.7
	h-6.4v-2.78h7.28v-2.7L74.38,95.74z M109.94,95.71l-3.05,9.34l-2.82-9.31h-3.19l4.64,13.84h2.6l3.06-8.98l3.07,8.98h2.61l4.63-13.84
	h-3.13l-2.81,9.31l-3.04-9.34L109.94,95.71z M138.24,95.74v13.73h10.35v-2.68h-7.38v-2.87h6.4v-2.7h-6.4v-2.78h7.28v-2.7
	L138.24,95.74z M170.44,95.65l-5.82,13.82h3.05l1.24-3.07h5.74l1.25,3.07h3.13l-5.82-13.82H170.44z M171.77,99.28l1.81,4.45h-3.62
	L171.77,99.28z M195.65,95.74h6.22c1.72,0,3.06,0.49,3.95,1.39c0.77,0.77,1.17,1.85,1.17,3.14v0.04c0,2.22-1.19,3.62-2.91,4.26
	l3.32,4.9h-3.5l-2.91-4.4h-2.35v4.4h-2.99L195.65,95.74L195.65,95.74z M201.66,102.42c1.46,0,2.3-0.79,2.3-1.95v-0.04
	c0-1.29-0.9-1.96-2.35-1.96h-2.97v3.95H201.66z M243.65,107.48l1.76-2.15c1.23,1.02,2.51,1.67,4.06,1.67c1.22,0,1.95-0.49,1.95-1.29
	v-0.04c0-0.76-0.46-1.15-2.72-1.74c-2.74-0.71-4.51-1.47-4.51-4.2v-0.04c0-2.49,1.98-4.14,4.75-4.14c1.98,0,3.67,0.62,5.05,1.74
	l-1.55,2.28c-1.2-0.84-2.38-1.36-3.54-1.36c-1.14,0-1.74,0.54-1.74,1.21v0.04c0,0.9,0.57,1.19,2.92,1.8
	c2.76,0.73,4.31,1.72,4.31,4.12v0.04c0,2.73-2.05,4.26-4.99,4.26C247.35,109.68,245.28,108.95,243.65,107.48 M271.67,95.74h3v13.73
	h-3V95.74z M301.72,95.74v8.46l-6.36-8.46h-2.77v13.73h2.96v-8.72l6.57,8.72h2.54V95.74H301.72z M321.86,102.65v-0.04
	c0-3.9,2.92-7.11,7.09-7.11c2.56,0,4.09,0.87,5.35,2.13l-1.89,2.22c-1.05-0.97-2.12-1.56-3.48-1.56c-2.28,0-3.94,1.93-3.94,4.28
	v0.04c0,2.36,1.61,4.32,3.94,4.32c1.55,0,2.51-0.63,3.57-1.61l1.91,1.94c-1.4,1.52-2.96,2.46-5.57,2.46
	C324.83,109.72,321.86,106.6,321.86,102.65 M351.33,95.74v13.73h10.34v-2.68h-7.38v-2.87h6.41v-2.7h-6.41v-2.78h7.28v-2.7
	L351.33,95.74z M401.96,95.65l-3.9,1.17l0.62,2.47l2.36-0.58v10.76H404V95.65H401.96z M421.71,108.09l1.58-2.3
	c0.99,0.81,1.82,1.17,2.96,1.17c1.68,0,2.56-1.27,2.76-3.11c-0.66,0.57-1.57,0.94-2.76,0.94c-2.95,0-4.85-1.65-4.85-4.43v-0.04
	c0-2.77,2.12-4.81,5.18-4.81c1.83,0,2.89,0.45,3.92,1.49c0.97,0.98,1.61,2.48,1.61,5.18v0.04c0,4.46-2.08,7.49-5.94,7.49
	C424.2,109.71,422.87,109.05,421.71,108.09 M429.08,100.23v-0.04c0-1.21-0.9-2.09-2.39-2.09c-1.47,0-2.31,0.86-2.31,2.08v0.04
	c0,1.22,0.89,2.06,2.37,2.06C428.22,102.28,429.08,101.41,429.08,100.23 M448.44,107.66l1.81-2.18c1.02,0.94,2.04,1.49,3.25,1.49
	c1.39,0,2.26-0.69,2.26-1.9v-0.04c0-1.18-0.99-1.87-2.41-1.87c-0.85,0-1.63,0.23-2.27,0.51l-1.72-1.17l0.39-6.77h8.34v2.64h-5.78
	l-0.16,2.38c0.55-0.14,1.03-0.23,1.79-0.23c2.64,0,4.75,1.29,4.75,4.4v0.03c0,2.9-2.03,4.75-5.16,4.75
	C451.36,109.72,449.76,108.93,448.44,107.66 M477.04,108.24c-1-1-1.61-2.48-1.61-5.2V103c0-4.23,1.9-7.5,5.95-7.5
	c1.84,0,3.04,0.55,4.24,1.52l-1.56,2.33c-0.9-0.69-1.61-1.1-2.78-1.1c-1.68,0-2.54,1.37-2.73,3.18c0.68-0.45,1.47-0.88,2.81-0.88
	c2.7,0,4.77,1.51,4.77,4.38v0.04c0,2.8-2.23,4.75-5.18,4.75C479.19,109.72,477.98,109.21,477.04,108.24 M483.16,105.11v-0.04
	c0-1.15-0.89-2.01-2.37-2.01c-1.47,0-2.32,0.83-2.32,1.99v0.03c0,1.17,0.89,2.05,2.37,2.05
	C482.31,107.13,483.16,106.29,483.16,105.11 M468.28,17.59c12.48,45.99,17.5,63.95,17.75,64.9h-19.4L464,73.62h-28.27l-6.07,8.87
	h-22.52c-22.03,0-30.9-14.65-23.18-36.29h8.38c4.44,0,6.57-1.87,7.9-5.96c1.16-3.57,0.64-6.13-5.58-6.13h-13.33l-17.74,48.38h-89.42
	c-22,0-30.88-14.65-23.17-36.29h8.38c4.43,0,6.58-1.87,7.9-5.96c1.14-3.57,0.65-6.13-5.6-6.13h-13.29l-17.75,48.38H202.5
	c-22,0-30.87-14.65-23.16-36.29h8.39c4.43,0,6.58-1.87,7.9-5.96c1.13-3.57,0.65-6.13-5.58-6.13h-13.32l-17.75,48.38H128.9
	l-2.61-8.87h-28.3l-6.09,8.87H52.47c-24.16,0-39.28-8.87-32.37-36.8c4.26-17.38,18.07-28.1,41.92-28.1h28.92l-6.09,16.68H62.33
	c-7.39,0-18.41,1.2-21.7,14.14c-2.78,11.41-0.17,17.04,15.46,17.04h25.8l30.72-47.86h18.26l12.8,48.38l19.07-48.38h24.16
	c10.19,0,17.27,0,23.17,3.58c6.74,4.25,8.72,11.92,6.43,19.08c-0.84,2.73-3.45,7.84-5.61,10.22c-6.39,6.97-13.79,7.83-16.26,7.83
	c-0.51,6.81,3.12,7.67,10.19,7.67h11.5l18.09-48.38h24.14c10.2,0,17.26,0,23.18,3.58c6.74,4.25,8.72,11.92,6.4,19.08
	c-0.8,2.73-3.45,7.84-5.58,10.22c-6.41,6.97-13.79,7.83-16.27,7.83c-0.5,6.81,3.12,7.67,10.18,7.67h12.35l18.07-48.38h48.81
	l-6.23,16.18h-28.27l-3.46,9.02h23.99l-5.07,14.47h-23.7l-3.29,8.71h39.62l18.07-48.38h24.16c10.19,0,17.27,0,23.18,3.58
	c6.72,4.25,8.7,11.92,6.4,19.08c-0.83,2.73-3.45,7.84-5.58,10.22c-6.42,6.97-13.81,7.83-16.28,7.83c-0.48,6.81,3.13,7.67,10.2,7.67
	h10.19l31.55-48.38H468.28L468.28,17.59z M105.55,60.51h18.89L119.2,39.9h-1.33C117.87,39.9,105.55,60.51,105.55,60.51z
	 M443.3,60.51h18.89l-5.25-20.62h-1.33L443.3,60.51z"/>
</svg>
