<?xml version="1.0" encoding="utf-8"?>
<!-- Generator: Adobe Illustrator 24.1.3, SVG Export Plug-In . SVG Version: 6.00 Build 0)  -->
<svg version="1.1" id="Layer_1" xmlns="http://www.w3.org/2000/svg" xmlns:xlink="http://www.w3.org/1999/xlink" x="0px" y="0px"
	 viewBox="0 0 242.2 64.09" style="enable-background:new 0 0 242.2 64.09;" xml:space="preserve">
<style type="text/css">
	.st0{fill:#293240;}
</style>
<path class="st0" d="M14.85,37.42c0,12.02,9.6,18.5,18.62,18.5c8.12,0,13.14-5.2,14.3-6.54c0.17-0.19,0.36-0.44,0.36-0.44
	l-3.63-3.98c0,0-0.23,0.29-0.42,0.48c-1.05,1.1-5.07,4.83-10.95,4.83c-7.13,0-12.29-5.47-12.29-12.98c0-6.76,4.26-13.58,12.39-13.58
	c4.96,0,8.35,3.07,9.39,4.15c0.24,0.23,0.48,0.54,0.48,0.54l4.02-3.7c0,0-0.23-0.31-0.46-0.57c-1.26-1.45-5.83-6.01-13.47-6.01
	C24.31,18.12,14.85,24.89,14.85,37.42z M160.27,18.88h-2.02v36.03h5.99V30.6c0.65,0.68,23.77,24.5,23.77,24.5h1.93V18.96h-6.11
	v23.88c-0.66-0.68-23.46-23.96-23.46-23.96L160.27,18.88L160.27,18.88z M228.85,19.01h-18.19v35.94h19.9v-5.42h-14.19V38.07h10.4
	v-5.46h-10.4v-8.15h12.68v-5.45L228.85,19.01L228.85,19.01z M105.19,19.01H99.7v35.94h18.06v-5.64h-12.38v-30.3
	C105.38,19.01,105.19,19.01,105.19,19.01z M137.23,19.01h-5.29v35.94h5.49V19.01H137.23z M80.94,19.01H62.76v35.94h19.89v-5.42
	H68.46V38.07h10.41v-5.46H68.46v-8.15h12.68v-5.45C81.14,19.01,80.94,19.01,80.94,19.01z M74.96,5.93l-8.32,6.16l2.25,2.9l8.99-5.31
	l-2.76-3.86L74.96,5.93z"/>
</svg>
