<?xml version="1.0" encoding="utf-8"?>
<!-- Generator: Adobe Illustrator 24.1.3, SVG Export Plug-In . SVG Version: 6.00 Build 0)  -->
<svg version="1.1" id="Слой_1" xmlns="http://www.w3.org/2000/svg" xmlns:xlink="http://www.w3.org/1999/xlink" x="0px" y="0px"
	 viewBox="0 0 595.28 125.89" style="enable-background:new 0 0 595.28 125.89;" xml:space="preserve">
<style type="text/css">
	.st0{fill:#293240;}
</style>
<path class="st0" d="M127.01,12.1H66.94c-0.09,0-1.61,0.06-1.61,0.06c-0.78,0-1.59,0.35-1.59,1.12c0,0.62,0.72,1.13,1.6,1.13
	c8.24,0,11.19,3.18,11.19,9.25v75.82c0,6.07-2.93,9.25-11.18,9.25c-1.1,0-1.6,0.79-1.6,1.41c0,0.77,0.8,1.12,1.58,1.12h61.95
	C200.81,111.28,199.74,12.1,127.01,12.1 M125.69,106.78h-10.45c-6.95-0.48-9.73-3.82-9.73-9.52V15.95h19.9
	c11.19,0,20.52,8.63,20.52,19.13v52.57C145.93,98.15,136.88,106.78,125.69,106.78 M264.66,111.37c3.39,0.13,3.08-2.63,0.54-2.63
	c-7.93,0-10.86-3.19-10.86-9.25l-0.05-75.55c0-6.07,2.94-9.25,11.19-9.25c2.01,0,2.71-2.93-0.84-2.78h-50.26
	c-3.55-0.15-2.85,2.78-0.84,2.78c8.24,0,11.19,3.18,11.19,9.25l-0.05,75.55c0,6.07-2.93,9.25-10.86,9.25
	c-2.54,0-2.86,2.75,0.54,2.63H264.66z M374.29,111.37c4.56,0.28,3.73-2.63,1.76-2.63c-8.24,0-11.19-3.19-11.19-9.25
	c0,0-0.01-71.44,0-71.67c0.41-5.32,2.22-9.13,8.77-11.72c16.91,2.68,30.14,9.93,38.52,17.09v-3.51L397.97,11.9h-95.88l-14.18,17.78
	v3.51c8.37-7.16,21.61-14.41,38.52-17.09c6.55,2.59,8.36,6.4,8.77,11.72c0.01,0.23,0,71.67,0,71.67c0,6.07-2.95,9.25-11.19,9.25
	c-1.96,0-2.82,2.85,1.76,2.63L374.29,111.37L374.29,111.37z M546.37,108.75c-6.72,0-10-2.5-13.95-8.37L478.95,12H437
	c-2.41,0-2.03,2.24-0.4,2.24c2.51,0,5.03,0.4,6.92,1.33c5.02,2.45,8,6.23,11.99,12.24l3.18,5.31c0,0-32.43,63.1-32.73,63.65
	c-2.29,4.24-4.18,7.18-6.26,9.16c-1.64,1.56-4.2,2.81-8.11,2.81c-1.88,0-2.75,2.63,1.04,2.63H437c0.83,0,1.28-0.01,1.95-0.1
	c1.68-0.24,1.99-2.46-0.34-2.52c-4.47-0.13-8.46-4.37-4.28-13.13c0.08-0.18,7.93-16.39,7.93-16.39h45.33
	c2.79,5.24,6.94,12.27,9.73,17.89c0.41,0.88,0.82,1.68,1.18,2.43c2.5,6.06-1.27,9.16-6.25,9.19c-2.02,0.01-2.59,2.63,0.71,2.63
	h53.23C548.61,111.37,548.54,108.75,546.37,108.75 M463.86,38.57l20.81,35.23h-39.41C445.26,73.8,463.86,38.57,463.86,38.57z"/>
</svg>
