<?xml version="1.0" encoding="utf-8"?>
<!-- Generator: Adobe Illustrator 24.1.3, SVG Export Plug-In . SVG Version: 6.00 Build 0)  -->
<svg version="1.1" id="Слой_1" xmlns="http://www.w3.org/2000/svg" xmlns:xlink="http://www.w3.org/1999/xlink" x="0px" y="0px"
	 viewBox="0 0 417 135.89" style="enable-background:new 0 0 417 135.89;" xml:space="preserve">
<style type="text/css">
	.st0{fill-rule:evenodd;clip-rule:evenodd;fill:#293240;}
	.st1{fill-rule:evenodd;clip-rule:evenodd;fill:#FFFFFF;}
</style>
<path class="st0" d="M46.64,14.46H12v101.52h43.08c27.44,0,47.06-19.12,47.06-49.28C102.14,29.41,78.05,14.46,46.64,14.46z"/>
<path class="st1" d="M48.13,85.56h-2.11V46.24h2.11c12.42,0,19.99,6.06,19.99,20.33C68.12,79.9,59.43,85.56,48.13,85.56z"/>
<path class="st0" d="M169.84,63.88l29.3-49.42h-37.12l-16.39,32.58c-1.86,3.64-3.97,7.27-4.72,11.44h-0.75l0.75-44.03h-33.15v101.52
	h33.15l-0.75-42.55h0.75c0.75,4.18,3.73,7.94,5.71,11.85l16.14,30.7h39.48L169.84,63.88z M209.99,14.46h32.65l30.54,56.28h0.99
	c-1.37-8.48-2.86-17.23-2.86-25.85V14.46h32.53v101.52h-32.53L241.4,62.66h-0.99c1.12,7,2.11,13.6,2.11,20.33v32.99h-32.53
	L209.99,14.46L209.99,14.46z M348.53,14.46l10.43,26.53h0.99c0.99-3.23,1.86-6.46,3.11-9.56l6.7-16.96H408l-32.03,57.77V116h-33.28
	V72.22l-32.65-57.77L348.53,14.46C348.53,14.45,348.53,14.46,348.53,14.46z"/>
</svg>
