<?xml version="1.0" encoding="utf-8"?>
<!-- Generator: Adobe Illustrator 24.1.3, SVG Export Plug-In . SVG Version: 6.00 Build 0)  -->
<svg version="1.1" id="Layer_1" xmlns="http://www.w3.org/2000/svg" xmlns:xlink="http://www.w3.org/1999/xlink" x="0px" y="0px"
	 viewBox="0 0 396 126" style="enable-background:new 0 0 396 126;" xml:space="preserve">
<style type="text/css">
	.st0{fill:#293240;}
</style>
<path class="st0" d="M369.32,116.36c-2.46,0-4.46-2-4.46-4.46V13.03c0-2.46,2-4.46,4.46-4.46h9.81c2.46,0,4.46,2,4.46,4.46v98.87
	c0,2.46-2,4.46-4.46,4.46H369.32z M170.26,20.31c0,2.46-2,4.46-4.46,4.46h-49.97v28.01h42.85c2.46,0,4.46,2,4.46,4.46v7.2
	c0,2.46-1.99,4.46-4.46,4.46h-42.85v30.84h49.79c2.46,0,4.46,2,4.46,4.46v7.71c0,2.46-1.99,4.46-4.46,4.46h-64.86
	c-2.46,0-4.46-2-4.46-4.46V13.03c0-2.46,1.99-4.46,4.46-4.46h65.04c2.46,0,4.46,2,4.46,4.46V20.31z M13,13.03
	c0-2.46,2-4.46,4.46-4.46h64.68c2.46,0,4.46,2,4.46,4.46v7.17c0,2.46-2,4.46-4.46,4.46h-50.7v27.88h34.21c2.46,0,4.46,2,4.46,4.46
	v7.76c0,2.46-2,4.46-4.46,4.46H31.43v42.69c0,2.46-1.99,4.46-4.46,4.46h-9.52c-2.46,0-4.46-2-4.46-4.46L13,13.03L13,13.03z
	 M201.59,43.9v68c0,2.46-2,4.46-4.46,4.46h-9.82c-2.46,0-4.46-2-4.46-4.46V13.03c0-2.46,2-4.46,4.46-4.46h9.74
	c3.2,0,4.89,0.5,6.18,2.88l37.91,68.53V13.03c0-2.46,1.99-4.46,4.46-4.46h9.67c2.46,0,4.46,2,4.46,4.46v98.87
	c0,2.46-2,4.46-4.46,4.46h-9.37c-3.2,0-4.89-0.5-6.18-2.88L201.59,43.9z M301.71,8.57h-23.07c-2.46,0-4.46,2-4.46,4.46v98.87
	c0,2.46,2,4.46,4.46,4.46h23.07c42.37,0,51.26-29.04,51.26-53.39C352.97,29.92,332.85,8.57,301.71,8.57z M305.69,100.2H292.9V24.87
	h8.5c21.07,0,33.65,14.27,33.65,38.17C335.06,88.67,317.88,100.2,305.69,100.2z"/>
</svg>
