<?xml version="1.0" encoding="utf-8"?>
<!-- Generator: Adobe Illustrator 24.1.3, SVG Export Plug-In . SVG Version: 6.00 Build 0)  -->
<svg version="1.1" id="Слой_1" xmlns="http://www.w3.org/2000/svg" xmlns:xlink="http://www.w3.org/1999/xlink" x="0px" y="0px"
	 viewBox="0 0 198.07 40.09" style="enable-background:new 0 0 198.07 40.09;" xml:space="preserve">
<style type="text/css">
	.st0{fill:#293240;}
</style>
<g>
	<g>
		<path class="st0" d="M21.14,21.85h-5.23v-3.4h9.07v11.59h-1.82l-0.88-2.67c-1.64,2.05-4.05,3.26-6.99,3.26
			c-6.02,0-9.6-4.35-9.6-11.16c0-6.78,4.2-11.21,10.27-11.21c4.08,0,7.34,1.97,8.63,5.52l-3.2,1.85c-0.82-2.47-2.67-3.96-5.52-3.96
			c-4.26,0-6.22,3.2-6.22,7.81c0,4.49,1.88,7.87,6.08,7.81c2.49-0.03,4.7-1.64,5.4-4.32v-1.12H21.14z"/>
	</g>
	<path class="st0" d="M29.38,8.85h3.93v21.19h-3.93L29.38,8.85z"/>
	<g>
		<path class="st0" d="M51.83,21.85H46.6v-3.4h9.07v11.59h-1.82l-0.88-2.67c-1.64,2.05-4.05,3.26-6.99,3.26
			c-6.02,0-9.6-4.35-9.6-11.16c0-6.78,4.2-11.21,10.27-11.21c4.08,0,7.34,1.97,8.63,5.52l-3.2,1.85c-0.82-2.47-2.67-3.96-5.52-3.96
			c-4.26,0-6.22,3.2-6.22,7.81c0,4.49,1.88,7.87,6.08,7.81c2.49-0.03,4.7-1.64,5.4-4.32v-1.12H51.83z"/>
	</g>
	<path class="st0" d="M60.06,8.85h3.93v21.19h-3.93V8.85z"/>
	<g>
		<g>
			<path class="st0" d="M72.5,29.4h2.69c3.75,0,5.51-1.76,5.51-5.06c0-3.08-1.32-5.26-5.93-5.26H72.5V29.4z M74.45,9.48H72.5v8.92
				h2.21c3.05,0,4.67-1.59,4.67-4.64C79.38,10.99,77.98,9.48,74.45,9.48 M74.57,8.84c4.95,0,7.8,1.57,7.8,4.73
				c0,2.8-2.91,4.48-5.26,5.04v0.03c3.08,0.34,6.68,1.93,6.8,5.15c0.14,3.97-3.33,6.27-8.45,6.27h-8.64v-0.62l2.77-0.08V9.53
				l-2.77-0.08V8.84C66.82,8.84,74.57,8.84,74.57,8.84z M94.16,25.57l0.06-4.61c-1.65,1.71-5.29,2.71-5.29,5.26
				c0,1.62,0.98,2.94,2.52,2.94C92.76,29.15,94.13,28.09,94.16,25.57 M95.25,30.39c-0.5-0.39-1.06-1.34-1.09-2.8
				c-0.64,1.85-2.15,2.8-3.89,2.8c-2.32,0-4.2-1.54-4.2-3.72c0-2.21,1.65-2.74,4.73-4.11c2.29-1.04,3.41-1.76,3.41-3.27
				c0-1.82-1.29-2.88-2.71-2.88c-1.9,0-3.05,1.23-2.71,4.42c-1.29,0.45-2.88-0.06-2.88-1.01c0-0.84,0.78-1.43,1.73-2.1
				c1.57-1.12,3.1-2.04,5.12-2.04c2.01,0,4.08,0.67,3.97,4.17c-0.08,2.15-0.11,4.61-0.11,5.96c0,1.71,0.14,2.69,0.56,3.1l1.9-0.5
				l0.14,0.53L95.25,30.39L95.25,30.39z M109.27,19.03l-3.05-1.34c-0.31,0.25-1.2,1.59-1.2,2.8v8.84l2.97,0.08v0.62h-7.66v-0.62
				l2.18-0.08v-9.99c0-0.45-0.06-0.5-0.45-0.7l-1.73-0.9v-0.2l4.7-2.1v3.72c0.62-2.38,2.29-3.44,3.75-3.44
				C111.34,15.73,110.61,18.75,109.27,19.03 M124.59,24.96c-0.84,3.69-3.08,5.43-6.18,5.43c-3.97,0-7.02-2.96-7.02-7.33
				c0-4.31,3.41-7.33,7.52-7.33c2.43,0,4.76,1.12,4.76,2.99c0,1.12-1.01,1.59-2.38,1.34c-0.48-2.63-1.57-3.72-3.33-3.72
				c-1.99,0-3.66,1.71-3.75,5.2c-0.08,3.8,1.99,7.41,5.31,7.41c1.73,0,3.92-0.89,4.7-4.11C124.22,24.84,124.59,24.96,124.59,24.96z
				 M128.85,20.26h5.88c0.98,0,1.09-0.08,1.09-0.61c0-1.46-0.81-3.44-2.99-3.44C130.86,16.2,129.29,17.57,128.85,20.26
				 M139.14,24.96c-0.84,3.69-3.08,5.43-6.21,5.43c-3.97,0-7.02-2.74-7.02-7.27c0-4.48,3.13-7.39,6.85-7.39
				c2.18,0,5.4,1.03,6.13,5.12h-10.1c-0.03,0.34-0.06,0.67-0.06,1.04c0,3.97,2.01,7.08,5.34,7.08c1.73,0,3.92-0.89,4.7-4.11
				L139.14,24.96L139.14,24.96z"/>
		</g>
	</g>
	<path class="st0" d="M144.72,29.32l2.18,0.09v0.61h-6.88v-0.61l2.18-0.09V8.9l-2.18-0.08V8.2h4.7L144.72,29.32z"/>
	<g>
		<g>
			<path class="st0" d="M159.72,24.79c0-3.19-1.82-8.48-5.26-8.48c-1.68,0-3.75,0.98-3.75,5.01c0,3.19,1.82,8.48,5.26,8.48
				C157.65,29.79,159.72,28.81,159.72,24.79 M162.51,23.16c0,4.08-3.13,7.22-7.33,7.22c-4.36,0-7.27-3.47-7.27-7.44
				c0-4.08,3.13-7.22,7.33-7.22C159.6,15.72,162.51,19.19,162.51,23.16 M177.28,29.32l2.18,0.08v0.61h-6.88V29.4l2.18-0.08v-8.06
				c0-3.08-1.37-4.14-3.1-4.14s-3.08,1.06-3.08,4.14v8.06l2.18,0.08v0.61h-6.88V29.4l2.18-0.08v-9.99c0-0.45,0-0.5-0.45-0.73
				l-1.74-0.87v-0.2l4.7-2.1v3.64c0.62-2.24,2.24-3.36,4.42-3.36c2.38,0,4.28,1.31,4.28,5.2v8.41L177.28,29.32z M188.95,25.57
				l0.06-4.61c-1.65,1.71-5.29,2.71-5.29,5.26c0,1.62,0.98,2.94,2.52,2.94C187.55,29.15,188.92,28.09,188.95,25.57 M190.04,30.38
				c-0.5-0.39-1.06-1.34-1.09-2.8c-0.64,1.85-2.15,2.8-3.89,2.8c-2.32,0-4.2-1.54-4.2-3.72c0-2.21,1.65-2.74,4.73-4.11
				c2.29-1.04,3.41-1.76,3.41-3.27c0-1.82-1.29-2.88-2.71-2.88c-1.9,0-3.05,1.23-2.71,4.42c-1.29,0.45-2.88-0.06-2.88-1.01
				c0-0.84,0.78-1.43,1.73-2.1c1.57-1.12,3.1-2.04,5.12-2.04c2.01,0,4.08,0.67,3.97,4.17c-0.08,2.15-0.11,4.61-0.11,5.96
				c0,1.71,0.14,2.68,0.56,3.1l1.9-0.5l0.14,0.53L190.04,30.38L190.04,30.38z"/>
		</g>
	</g>
</g>
</svg>
