<?xml version="1.0" encoding="utf-8"?>
<!-- Generator: Adobe Illustrator 24.1.3, SVG Export Plug-In . SVG Version: 6.00 Build 0)  -->
<svg version="1.1" id="Layer_1" xmlns="http://www.w3.org/2000/svg" xmlns:xlink="http://www.w3.org/1999/xlink" x="0px" y="0px"
	 viewBox="0 0 443.96 56.97" style="enable-background:new 0 0 443.96 56.97;" xml:space="preserve">
<style type="text/css">
	.st0{fill:#293240;}
</style>
<path class="st0" d="M416.54,24.52l12.85-16.61h10.02L420.3,31.37V48.6h-7.92V31.37l-19.1-23.46h10.02l12.84,16.61L416.54,24.52z
	 M372.5,24.52h-22.85V7.89h-7.9V48.6h7.9v-17h22.85v17h7.89V7.89h-7.89V24.52z M254.24,35.71h-0.19l-25.57-27.8h-6.9V48.6h7.32
	V20.68h0.16L254.9,48.6h6.69V7.91h-7.35L254.24,35.71z M166.46,48.6h34.06v-7.06h-26.16v-9.96h18.78v-7.06h-18.78v-9.65h26.16V7.91
	h-34.06V48.6z M126.87,38.47h-0.21L114.02,7.91h-9.14l18.56,40.69h6.57l18.56-40.69h-9.14L126.87,38.47z M79.13,7.91h7.89V48.6
	h-7.89V7.91z M35.19,33.52h13.53v7.08c-1.9,0.64-5.25,1.48-10.69,1.48c-9.66,0-15-4.68-15-13.83c0-9.14,5.37-13.84,15-13.84
	c9.8,0,14.83,2.93,17.62,5.16V11.4c-3.11-2.46-10.1-4.29-17.62-4.29c-11.23,0-23.82,4.44-23.82,21.12
	c0,16.69,12.58,21.13,23.82,21.13c6.83,0,13.98-1.52,18.44-4.25V26.46H35.19V33.52z M289.19,28.24c0,9.14,5.37,13.82,15,13.82
	c9.8,0,14.84-2.94,17.62-5.16v8.17c-3.11,2.46-10.09,4.29-17.62,4.29c-11.24,0-23.82-4.43-23.82-21.12s12.58-21.12,23.82-21.12
	c7.53,0,14.51,1.84,17.62,4.29v8.17c-2.79-2.23-7.82-5.16-17.62-5.16C294.56,14.42,289.19,19.1,289.19,28.24z"/>
</svg>
