<?xml version="1.0" encoding="utf-8"?>
<!-- Generator: Adobe Illustrator 24.1.3, SVG Export Plug-In . SVG Version: 6.00 Build 0)  -->
<svg version="1.1" id="Livello_1" xmlns="http://www.w3.org/2000/svg" xmlns:xlink="http://www.w3.org/1999/xlink" x="0px" y="0px"
	 viewBox="0 0 1200.77 244.88" style="enable-background:new 0 0 1200.77 244.88;" xml:space="preserve">
<style type="text/css">
	.st0{fill:#2A3241;}
</style>
<g>
	<path class="st0" d="M1035.05,208.4c-4.2-3.69-10.1-8.45-12.61-10.79c-1.22-1.15-1.91-2.4-1.74-4.32
		c1.57-16.87,8.65-92.89,8.84-94.91c0.65-7.23-1.31-12.51-6.76-18.34c-5.67-6.06-12-12.91-13.06-13.96
		c-5.59-5.57-13.23-8.47-21.87-8.5c-11.39-0.05-30.56-0.81-32.32-0.85c-7.76-0.17-12.78,0.98-19.76,5.35
		c-6.01,3.77-13.22,8.37-14.47,9.24c-4.21,2.98-6.61,6.06-7.37,10.54c-1.19,7.06-3.13,18.34-3.38,20.02
		c-0.76,5.08,1.32,7.23,5.53,7.01c1.43-0.07,13.55-0.89,20.49-1.3c4.21-0.23,6.19-1.42,7.89-6.53c0.41-1.23,4.07-11.77,6.06-17.48
		c1.48-4,3.26-5.12,6.76-5.74c4.72-0.84,10.95-1.64,12.2-1.79c3.64-0.43,5.97-0.05,8.99,1.94c1.28,0.84,8.95,6.2,9.95,6.92
		c1.33,0.96,3.89,3.65,3.9,7.51c0,1.54,0.33,23.95,0.33,23.95s-0.07,3.78-4.55,2.34c-6.37-2.08-22.64-7.66-29.84-6.23
		c-4.77,0.95-13.01,4.07-15.38,5.09c-4.99,2.18-12.4,5.49-20.23,9.37c-8.28,4.1-11.03,6.71-12.38,7.92
		c-5.1,4.68-5.34,10.96-5.7,16.77c-0.57,9.44-1.98,29.96-1.93,31.47c0.23,7.01,2.53,13.13,8.74,17.87
		c8.51,6.48,19.92,15.01,21.73,16.42c5.73,4.43,16.6,4.49,21.62,1.93c11.02-5.63,34.38-17.73,34.89-18.02
		c0.59-0.33,1.44-0.27,1.8,0.9c0.24,0.75,0.41,1.31,0.57,1.93c0.31,1.16,1.33,2.63,2.49,3.61c5.2,4.38,16.01,13.69,16.73,14.29
		c3.74,3.21,7.4,3.17,10.72,1.35c8.29-4.51,12.72-7.3,13.4-7.68C1039.3,213.48,1038.1,211.07,1035.05,208.4 M991.87,145.95
		c0,1.47,0.05,20.87,0.08,28.08c0.01,2.95-0.96,5.49-3.59,6.85c-1.89,0.99-15.79,8.14-23.42,12.07c-2.98,1.55-7.1,1.59-9.95,0.19
		c-1.98-0.98-8.41-4.39-12.03-6.16c-3.07-1.47-4.8-4.66-5.41-8.68c-0.32-2.22-1.02-14.59-1.46-21.98c-0.37-2.81,0.53-7.42,3.41-9.73
		c1.55-1.26,7.58-4.46,10.71-6.25c4.16-2.37,9.14-4.3,12.01-5.42c4.24-1.67,8.14-1.23,16.55,1.04c2.12,0.57,8.88,2.33,10.32,3.23
		C991.55,141,991.86,143.87,991.87,145.95"/>
	<path class="st0" d="M748.14,214.04c-1.22-2.01-4.26-6.94-7.11-14.87c-0.46-1.3-1.34-4.86-1.23-6.77
		c1.02-16.78,3.3-91.6,3.41-93.62c0.41-7.2,1.44-12.81-4.12-18.6C733.3,74.16,726.57,67,725.5,65.96c-5.24-5.1-10.4-6.72-19.48-6.74
		c-11.27-0.04-33.4-0.74-35.15-0.78c-7.66-0.17-6.98-0.36-14.05,3.43c-6.85,3.66-16.19,10.77-18.82,12.26
		c-4.37,2.49-5.82,5.67-6.42,10.13c-0.84,6.12-2.8,13.03-3.56,19.55c-0.57,5.05,1.54,7.2,5.69,6.97c1.4-0.08,13.35-0.89,20.18-1.3
		c4.17-0.23,6.54-1.24,8.07-6.33c0.36-1.23,3.95-10.61,5.75-16.29c1.32-3.97,3.49-6.73,6.98-7.21c5.67-0.77,6.77-1.23,10.36-1.65
		c6.87-0.83,8.13-0.07,10.36,1.1c1.36,0.69,5.73,3.95,9.91,6.68c2.78,1.83,5.09,3.8,4.88,9.48c-0.06,1.52,0.51,14.52,0.3,16.95
		c-0.21,2.44,1.62,8.87-3.03,8.31c-5.72-0.69-11.83-4.5-23.39-6.07c-1.95-0.27-6.54-1.02-10.32,0.22
		c-5.49,1.81-15.08,5.53-16.18,6.01c-9.03,3.87-10.87,4.94-22.51,10.88c-7.64,3.88-11.3,8.52-12.27,16.89
		c-1.1,9.45-2.08,33.44-2.18,34.96c-0.52,8.38,3.21,15.12,9.51,19.84c8.61,6.44,18.24,13.75,20.6,15.44
		c5.71,4.07,14.93,5.83,22.59,1.81c10.71-5.6,32.16-16.38,32.63-16.67c0.57-0.32,2.61-1.83,3.01-0.68c0.25,0.76,1.18,3.17,1.37,3.8
		c0.34,1.15,1.81,2.58,2.88,3.66c5.53,5.6,9.98,10.48,14.35,15.06c10.22,10.68,11.62,11.58,24.02,14.51
		c13.42,3.18,14.32,3.39,16.89,3.84c2.57,0.45,4.7,2.08,23.95-0.88c19.25-2.98,20.46-3.41,22.46-3.76
		c1.99-0.35,9.77-1.02,12.95-13.97c3.18-12.93,4.94-20.16,5.39-22.88c0.44-2.7,2.94-8.06-5.11-7.64c-8.04,0.42-11.81,0.68-13.94,0.9
		c-4.46,0.44-7.06,1.28-8.15,9.19c-1.26,9.02-0.63,14.34-8.97,17.95c-8.22,3.55-11.01,4.1-15.04,4.56
		c-7.22,0.85-9.07,1.11-15.94-0.31C756.73,225.26,753.07,222.36,748.14,214.04 M709.86,147.92c-0.16,5.78,0.07,22.52,0,24.88
		c-0.16,4.96-0.26,8.09-3.99,9.79c-1.91,0.85-13.93,7.27-21.34,11.19c-3.62,1.91-7.68,2.83-12.33,0.51
		c-4.33-2.18-6.02-2.7-11.31-5.85c-3.63-2.03-5.63-5.29-5.89-9.35c-0.32-5.06-1.12-17.37-1.34-21.93
		c-0.23-4.52,0.98-7.77,6.46-11.18c2.49-1.53,12.96-6.72,16.48-8.41c4.39-2.12,10.67-2.37,13.21-1.85
		c2.14,0.44,12.39,3.34,15.89,4.38C708.86,141.05,709.95,144.83,709.86,147.92"/>
	<path class="st0" d="M305.31,208.41c-4.2-3.69-10.08-8.45-12.61-10.8c-1.22-1.14-1.92-2.4-1.73-4.32
		c1.57-16.85,8.65-92.88,8.83-94.91c0.65-7.23-1.31-12.51-6.76-18.33c-5.67-6.06-12.01-12.9-13.07-13.95
		c-5.58-5.59-13.23-8.49-21.86-8.52c-11.38-0.03-30.55-0.81-32.33-0.85c-7.76-0.17-12.77,0.98-19.75,5.35
		c-6.01,3.78-13.22,8.37-14.46,9.24c-4.21,2.97-6.62,6.05-7.38,10.54c-1.19,7.05-3.12,18.34-3.37,20.02
		c-0.76,5.09,1.32,7.24,5.53,7.02c1.42-0.08,13.55-0.88,20.48-1.3c4.22-0.23,6.19-1.42,7.89-6.53c0.42-1.25,4.07-11.78,6.06-17.49
		c1.48-4,3.26-5.12,6.76-5.74c4.72-0.84,10.96-1.65,12.19-1.79c3.64-0.43,5.97-0.05,9,1.94c1.27,0.83,8.95,6.21,9.94,6.92
		c1.34,0.94,3.88,3.65,3.9,7.51c0,1.53,0.33,23.95,0.33,23.95s-0.08,3.78-4.55,2.33c-6.37-2.08-22.63-7.65-29.84-6.23
		c-4.77,0.94-13,4.05-15.37,5.08c-4.99,2.18-12.41,5.49-20.24,9.37c-8.28,4.11-11.03,6.71-12.38,7.93
		c-5.11,4.68-5.34,10.95-5.69,16.77c-0.59,9.44-1.99,29.95-1.94,31.47c0.24,7,2.52,13.13,8.74,17.87
		c8.52,6.48,19.92,15.01,21.73,16.41c5.74,4.44,16.61,4.5,21.62,1.94c11.04-5.64,34.4-17.73,34.89-18.02
		c0.59-0.33,1.45-0.26,1.81,0.9c0.25,0.76,0.41,1.31,0.57,1.94c0.3,1.16,1.32,2.63,2.49,3.62c5.2,4.38,16.02,13.69,16.73,14.29
		c3.74,3.2,7.39,3.16,10.72,1.34c8.28-4.52,12.72-7.31,13.4-7.68C310.39,213.02,309.01,211.65,305.31,208.41 M262.13,145.95
		c0,1.49,0.06,20.87,0.09,28.08c0,2.94-0.97,5.49-3.61,6.85c-1.9,0.99-15.79,8.13-23.42,12.07c-2.97,1.53-7.09,1.6-9.94,0.18
		c-1.97-0.98-8.4-4.39-12.03-6.14c-3.06-1.49-4.81-4.67-5.41-8.69c-0.32-2.2-1.02-14.59-1.46-21.97c-0.37-2.82,0.53-7.42,3.41-9.74
		c1.56-1.26,7.59-4.46,10.72-6.26c4.15-2.36,9.14-4.29,12-5.41c4.24-1.66,8.15-1.23,16.56,1.04c2.12,0.58,8.88,2.34,10.3,3.23
		C261.82,141.02,262.12,143.88,262.13,145.95"/>
	<path class="st0" d="M561.48,208.35c-4.21-3.69-10.09-8.45-12.61-10.78c-1.22-1.14-1.92-2.4-1.74-4.33
		c1.57-16.86,8.65-92.88,8.84-94.92c0.64-7.23-1.31-12.51-6.76-18.33c-5.67-6.06-12.01-12.9-13.06-13.96
		c-5.59-5.58-13.24-8.47-21.87-8.51c-11.39-0.05-30.56-0.81-32.33-0.85c-7.75-0.17-12.78,0.98-19.76,5.36
		c-6.01,3.77-13.23,8.35-14.47,9.24c-4.21,2.98-6.61,6.05-7.38,10.54c-1.19,7.04-3.13,18.33-3.37,20.01
		c-0.77,5.08,1.31,7.24,5.52,7.01c1.42-0.07,13.55-0.88,20.48-1.28c4.21-0.24,6.19-1.42,7.9-6.54c0.41-1.24,4.05-11.78,6.05-17.49
		c1.47-3.99,3.26-5.12,6.75-5.73c4.72-0.82,10.96-1.64,12.19-1.79c3.65-0.43,5.97-0.03,9,1.94c1.28,0.83,8.95,6.2,9.95,6.92
		c1.33,0.96,3.88,3.65,3.9,7.51c0.01,1.54,0.34,23.95,0.34,23.95s-0.09,3.79-4.55,2.33c-6.37-2.07-22.64-7.64-29.84-6.22
		c-4.77,0.95-13.01,4.07-15.38,5.09c-4.99,2.17-12.4,5.49-20.22,9.38c-8.28,4.09-11.04,6.7-12.37,7.92
		c-5.12,4.67-5.35,10.96-5.71,16.76c-0.58,9.44-1.99,29.96-1.93,31.48c0.23,7,2.52,13.12,8.74,17.86
		c8.51,6.48,19.92,15.02,21.73,16.42c5.74,4.43,16.6,4.5,21.61,1.94c11.04-5.64,34.4-17.73,34.89-18.02
		c0.59-0.33,1.44-0.26,1.81,0.9c0.24,0.76,0.4,1.3,0.56,1.94c0.31,1.17,1.33,2.63,2.49,3.62c5.21,4.37,16.02,13.68,16.73,14.29
		c3.74,3.21,7.38,3.16,10.72,1.34c8.28-4.51,12.72-7.31,13.41-7.68C565.73,213.43,564.53,211.03,561.48,208.35 M518.3,145.9
		c0.01,1.48,0.06,20.86,0.08,28.08c0.01,2.95-0.96,5.49-3.6,6.85c-1.89,0.99-15.79,8.15-23.42,12.07c-2.97,1.53-7.09,1.58-9.95,0.17
		c-1.97-0.98-8.4-4.39-12.02-6.13c-3.07-1.49-4.81-4.66-5.41-8.69c-0.32-2.21-1.02-14.59-1.46-21.98c-0.37-2.82,0.53-7.42,3.41-9.73
		c1.55-1.26,7.59-4.47,10.72-6.25c4.16-2.36,9.14-4.3,12-5.42c4.24-1.66,8.15-1.23,16.56,1.04c2.11,0.57,8.88,2.33,10.31,3.23
		C517.98,140.96,518.29,143.83,518.3,145.9"/>
	<path class="st0" d="M389.49,208.17c0.98-3.59,31.91-111.56,40.18-140.47c1.55-5.39-0.61-9.44-4.82-9.58c-3.24-0.11-9.94,0-14,0.15
		c-4.01,0.15-7.57,2.98-8.56,6.35c-6.81,23.24-31.18,106.97-32.2,110.09c-1.18,3.63-3.93,3.32-4.55,0.26
		c-0.63-3.06-19.07-107.24-19.73-110.15c-0.8-3.54-1.84-6.18-8.2-6.37c-7.58-0.25-19.06-0.49-22.82-0.54
		c-5.81-0.07-9.39,1.21-8,6.43c1.19,4.55,28.88,115.63,36.11,144.67c1.1,4.38,5.71,6.45,10.13,5.89c3.84-0.49,8.01-1.03,10.15-1.44
		c4.62-0.84,8.42-0.47,12.84,0.57c1.66,0.39,3.63,0.8,5.46,1.18C384.55,215.84,388.36,212.36,389.49,208.17"/>
	<path class="st0" d="M573.64,108.45c0.06,5.42,0.2,74.92,0.24,98.62c0.02,4.91,2.83,7.89,7.23,8.01c4.4,0.11,5.53,0.06,11.07,0.23
		c5.54,0.17,8.07-2.77,8.51-7.67c2.1-24.42,8.44-97.61,8.73-100.9c0.34-3.94-2.22-6.73-6.11-6.68c-6.99,0.07-17.49,0.19-21.31,0.19
		C576.05,100.25,573.58,101.9,573.64,108.45"/>
	<path class="st0" d="M128.7,68.23c-1.62,0-20.25,0.23-27.29,0.47c-7.03,0.26-12.01,1.91-16.31,5.48
		c-2.69,2.24-8.94,10.08-9.67,10.88c-0.54,0.57-1.58,2.47-2.72,2.23c-1.28-0.26-1.31-1.51-1.12-3.7c0.84-9.96,3.43-50.97,4.19-63.96
		c0.4-4.42-1.49-7.86-6.47-7.86c-1.94,0-21.04,0.64-28.99,0.64c-4.33,0-6.93,3.06-6.87,7.29c0.03,2.02,2.22,166.06,2.59,192.07
		c0.03,2.2,1.27,3.38,3.63,3.34c1.82-0.02,15.08-0.15,21.09-0.22c1.8,0,3.07-1.41,3.07-2.71c0-1.08,4.01-66.18,5.05-88.13
		c0.29-7.67,2.97-17.16,6.27-19.87c3.31-2.69,10.4-8.22,13.46-10.44c3.06-2.21,5.35-2.28,7.87-2.3c3.47,0,9.35,0.15,12.32,0.24
		c3.92,0.12,3.96,0.45,7.24,2.77c1.63,1.14,3.97,2.85,6.01,4.41c3.39,2.58,4.97,4.7,4.9,9.55c-0.01,1.03,2.02,78.38,2.37,97.34
		c0,5.21,0.83,9.16,6.1,9.16c1.37,0,9.39,0.08,14.79,0.08c4.95,0,5.29-4.09,5.68-8.65c0.11-1.27,4.02-78.17,5.78-97.96
		c0.67-8.31-0.83-12.34-4.76-17.79c-0.96-1.33-6.9-8.99-11.88-15.67C140.28,68.48,137.98,68.2,128.7,68.23"/>
	<path class="st0" d="M856.13,66.63c-9.64,0-22.92,0.72-27.76,1.01c-7.36,0.43-10.67,2.28-14.09,6.28
		c-3.6,4.22-8.77,9.75-9.68,10.59c-4.88,4.43-5.39,2.61-5.2-2.38c0.11-2.94,0.87-11.43,1.16-15.12c0.5-6.5-3.58-8.11-8.85-8.15
		c-6.35-0.05-14.09-0.11-17.38-0.11c-10.35,0-12.34-0.2-12.34,12.35c0,9.22,0.43,105.53,0.5,135.1c0.01,5.53,3.5,8.72,7.26,8.72
		c3.76,0,12.99-0.15,15.79-0.15c2.78,0,5.95-3.44,6.33-8.93c1.61-23.26,5.58-86.43,5.94-90.22c0.42-4.69,2.54-8.16,5.33-10.37
		c4.99-3.94,11.73-8.87,13.92-10.88c2.38-2.16,5.11-2.85,8.35-2.85c5.3,0,8.82,0.14,12.23,0.28c2.8,0.13,4.98,0.58,7.4,2
		c2.7,1.6,6.56,6.29,7.83,7.58c2.19,2.25,3.27,3.2,3.27,7.44c0,20.91,1.6,91.85,1.6,96.84c0,5.99,2.18,8.99,5.37,9.12
		c4.43,0.19,10.49,0.15,12.61,0.15c3.66,0,5.79-2.57,6.32-7.16c2.49-21.66,8.21-87.98,8.99-95.23c1.28-12.16-0.86-14.73-6.71-22.02
		c-6.29-7.86-11.67-14.44-16.08-19.26C864.87,67.6,860.56,66.63,856.13,66.63"/>
	<path class="st0" d="M571.44,69.53c0,11.72,9.45,21.21,21.12,21.21c11.65,0,21.12-9.5,21.12-21.21c0-11.71-9.47-21.21-21.12-21.21
		C580.89,48.31,571.44,57.82,571.44,69.53"/>
	<path class="st0" d="M1134.1,59.46c8.13,1.69,7.67,1.25,11.55,6c3.4,4.18,4.77,5.74,6.57,8.21c1.66,2.27,2.1,2.69,4.34,5.91
		c1.61,2.32,0.73,4.22-3.68,6.71c-2.31,1.29-13.42,7.22-15.78,8.25c-2.2,0.98-5.17,1.58-6.92-1.88c-3.73-7.4-3.68-8.4-6.81-9.71
		c-3.36-1.41-12.28-5.17-15.09-6.3c-5.48-2.2-9.11-3.23-13.63-0.78c-3.66,1.98-12.34,6.99-14.87,8.4c-3.91,2.18-4.44,3.46-4.11,7.95
		c0.35,4.83,0.61,8.57,0.9,11.1c0.9,7.72,1.98,9.27,11.82,12.06c7.01,1.98,35.53,9.76,44.1,12.05c15.19,4.04,16.21,3.82,19.43,8.67
		c2.81,4.24,11.36,18.65,13.05,21.47c3.09,5.18,2.72,9.71,1.12,15.49c-1.34,4.8-5.31,18.95-6.75,23.95
		c-2.92,10.2-3.72,11.05-9.81,14.1c-5.05,2.53-26.39,11.22-30.27,12.76c-11.2,4.46-8.14,5.32-21.13,1.98
		c-10.78-2.78-26.76-6.98-36.18-9.52c-4.73-1.29-8.88-5.03-14.19-9.85c-2.71-2.44-10.52-9.65-13.94-13.1
		c-1.5-1.5-1.15-4.97,1.04-6.16c3.08-1.69,15.19-8.01,18.56-9.7c4.15-2.09,7.12-3.26,10.78,1.23c2.56,3.12,5.82,6.47,7.9,8.82
		c2.45,2.76,2.19,2.34,5.23,3.91c4.94,2.54,7.07,3.88,14.2,7.34c8.25,4.02,9.05,3.24,15.12,0.48c4.67-2.12,13.35-6.47,17.28-8.68
		c3.29-1.83,9.32-3.48,10.34-9.4c0.82-4.76-1.17-8.5-2.68-12.32c-0.88-2.27-2.5-6.43-3.68-9.03c-2.69-5.88-3.44-6.89-9.79-9.02
		c-3.9-1.31-36.14-9.83-46.79-12.67c-18.45-4.92-18.63-6.14-21.83-15.27c-3.11-8.93-6.89-18.42-8.72-24.67
		c-1.04-3.58,0.39-5.58,5.66-16.1c4.47-8.87,3.76-7.25,5.52-10.6c1.21-2.34,2.93-2.41,12.77-7.06c4.19-1.98,19.99-9.09,23.91-10.78
		c3.93-1.69,6.02-2.24,9.91-1.49C1105.42,53.56,1128.4,58.28,1134.1,59.46"/>
</g>
</svg>
