<?xml version="1.0" encoding="utf-8"?>
<!-- Generator: Adobe Illustrator 24.1.3, SVG Export Plug-In . SVG Version: 6.00 Build 0)  -->
<svg version="1.1" id="Layer_1" xmlns="http://www.w3.org/2000/svg" xmlns:xlink="http://www.w3.org/1999/xlink" x="0px" y="0px"
	 viewBox="0 0 276.66 110" style="enable-background:new 0 0 276.66 110;" xml:space="preserve">
<style type="text/css">
	.st0{fill:#293240;}
</style>
<path class="st0" d="M191.19,88.83c3.36,0,4,2.99,4,5.68c0,2.7-0.64,5.67-4,5.67s-4-2.97-4-5.67
	C187.19,91.82,187.83,88.83,191.19,88.83 M191.19,102.54c5.16,0,7.5-3.49,7.5-8.03s-2.34-8.03-7.5-8.03c-5.17,0-7.5,3.49-7.5,8.03
	S186.03,102.54,191.19,102.54 M155.41,93.13h2.89c1.21,0,2.27-0.74,2.27-1.92c0-1.12-0.79-2-2.13-2h-3.02L155.41,93.13L155.41,93.13
	z M155.41,99.82h2.94c1.39,0,2.69-0.58,2.69-2.23c0-1.72-1.24-2.15-2.69-2.15h-2.94C155.41,95.44,155.41,99.82,155.41,99.82z
	 M158.89,102.15h-6.75V86.87h6.59c3.21,0,5.29,1.26,5.29,3.96c0,1.87-1.65,3.19-2.92,3.34c1.79,0.14,3.61,1.47,3.61,3.76
	C164.72,100.68,161.97,102.15,158.89,102.15 M107.25,88.91c3.28,0,3.89,2.98,3.89,5.61c0,2.62-0.61,5.6-3.89,5.6
	c-3.27,0-3.89-2.98-3.89-5.6C103.36,91.89,103.98,88.91,107.25,88.91 M107.25,102.47c5.12,0,7.43-3.45,7.43-7.95
	s-2.32-7.96-7.43-7.96c-5.12,0-7.43,3.45-7.43,7.96C99.82,99.02,102.13,102.47,107.25,102.47 M261.89,91.2h-3.23
	c0-1.48-0.87-2.61-2.66-2.61c-1.77,0-2.57,0.9-2.57,1.95c0,1.15,0.78,1.59,2.6,2.17c0.79,0.23,1.56,0.43,2.37,0.67
	c2.35,0.68,4.14,1.99,4.14,4.35c0,3.02-2.9,4.76-6.07,4.76c-4.13,0-6.57-1.9-6.57-5.23h3.24c0,1.68,0.87,3.09,3.33,3.09
	c0.98,0,2.57-0.52,2.57-2.18c0-1.23-0.7-1.77-2.78-2.34c-0.56-0.16-1.7-0.53-2.38-0.71c-2.12-0.61-3.67-1.78-3.67-3.93
	c0-3,3.05-4.7,5.86-4.7C258.89,86.5,261.89,88.18,261.89,91.2 M229.78,91.2c0-3.02-2.98-4.7-5.8-4.7c-2.83,0-5.87,1.7-5.87,4.7
	c0,2.15,1.55,3.32,3.68,3.93c0.67,0.18,1.8,0.55,2.37,0.71c2.07,0.57,2.79,1.11,2.79,2.34c0,1.67-1.61,2.18-2.57,2.18
	c-2.46,0-3.34-1.42-3.34-3.09h-3.25c0,3.33,2.45,5.23,6.58,5.23c3.15,0,6.05-1.74,6.05-4.76c0-2.36-1.79-3.67-4.13-4.35
	c-0.8-0.23-1.58-0.43-2.37-0.67c-1.81-0.58-2.6-1.03-2.6-2.17c0-1.06,0.8-1.95,2.57-1.95c1.78,0,2.67,1.13,2.67,2.61h3.22
	L229.78,91.2z M78.11,96.5h-2.96v-2.49h6.22v7.14c-1.16,0.51-3.18,1.16-6.28,1.16c-3.65,0-7.73-1.85-7.73-7.8
	c0-5.96,4.26-7.81,7.39-7.81c3.98,0,6.61,1.92,6.61,4.89h-3.32c0-1.34-1.21-2.57-3.14-2.57c-2.87,0-4.07,2.09-4.07,5.49
	c0,3.37,1.31,5.47,4.41,5.47c1.25,0,2.06-0.19,2.88-0.46V96.5H78.11z M45.66,87.02v8.13c0,2.53-0.08,4.79-3.27,4.79
	s-3.27-2.26-3.27-4.79v-8.13h-3.36v9.38c0,3.98,2.95,5.91,6.62,5.91c3.68,0,6.62-1.93,6.62-5.91v-9.38
	C49,87.02,45.66,87.02,45.66,87.02z M7.33,102H4.07V87.02h3.26v5.92h6.22v-5.92h3.3V102H13.6v-6.57H7.33V102z M124.74,53.25
	c0,13.85-7.97,25.41-27.35,25.41c-19.39,0-27.92-11.55-27.92-25.41V9.29h14.02v43.09c0,8.31,2.93,16.16,13.9,16.16
	s13.33-7.85,13.33-16.16V9.29h14.02V53.25z M2.67,76.74V9.29h13.82v25.89h27.8V9.29H58.1v67.45H44.28V45.51h-27.8v31.23H2.67z
	 M195.3,26.6l-11.96,4.92c-1.43-5.51-5.73-15.82-17.02-15.82c-13.58,0-19.22,14.86-19.22,26.83c0,12.73,4.99,26.83,19.14,26.84
	c9.57,0,16.81-9.35,16.81-19.38H166.8v-9.97h29.07v36.9H184.2v-5.89c-4.5,5.12-13.9,7.63-18.8,7.63
	c-21.15,0-33.04-13.07-33.04-36.12c0-21.29,13.58-36.12,33.95-36.12C180.2,6.42,190.14,13.47,195.3,26.6 M257.6,42.54
	c0,12.28-5.79,27.64-19.72,27.64s-19.71-15.36-19.71-27.64s5.78-27.65,19.71-27.65C251.81,14.88,257.6,30.25,257.6,42.54
	 M272.67,42.54c0-21.29-13.9-37.05-34.78-37.05s-34.78,15.76-34.78,37.05c0,21.44,13.9,37.05,34.78,37.05
	C258.77,79.58,272.67,63.98,272.67,42.54"/>
</svg>
