<?xml version="1.0" encoding="utf-8"?>
<!-- Generator: Adobe Illustrator 24.1.3, SVG Export Plug-In . SVG Version: 6.00 Build 0)  -->
<svg version="1.1" id="Layer_1" xmlns="http://www.w3.org/2000/svg" xmlns:xlink="http://www.w3.org/1999/xlink" x="0px" y="0px"
	 viewBox="0 0 899.73 155.75" style="enable-background:new 0 0 899.73 155.75;" xml:space="preserve">
<style type="text/css">
	.st0{fill:#293240;}
</style>
<path class="st0" d="M532.85,118.63c-8.95,7.53-20.08,11.57-32.19,11.57c-28.37,0-50.52-22.92-50.52-52.16
	c0-28.81,21.61-51.94,49.21-52.6c10.37,0.33,17.35,2.51,24.99,7.75v10.04h5.24V18.89h-5.24v4.58c-7.75-3.06-15.71-4.69-23.68-4.69
	c-34.16,0-61.87,26.52-61.87,59.04s27.72,58.93,61.87,58.93c13.31,0,25.97-5.02,35.79-14.19l0.87-0.87l-3.6-3.93L532.85,118.63z
	 M382.48,25.77h5.13l-18.88,47.69l-23.78-47.69h5.01v-5.24h-22.47v5.24h5.23l27.72,56.74v47.58h-7.09v5.24h26.84v-5.24h-7.96V82.73
	l22.69-56.96h5.02v-5.24h-17.46L382.48,25.77z M124.63,25.77h4.91v-5.24h-21.61v5.24h5.35v104.32h-5.35v5.24h21.72v-5.24h-5.02
	V25.77z M277.4,80.55l-25.75-60.02h-13.54v5.24h5.68v104.32h-5.68v5.24h18.01v-5.24h-5.24V44.87l24.66,58.48l24.45-61.54v88.28
	h-5.68v5.24h22.15v-5.24h-5.02V25.77h5.02v-5.24H301.3L277.4,80.55z M184.64,80.55l-25.75-60.02h-13.53v5.24h5.78v104.32h-5.78v5.24
	h17.9v-5.24h-5.13V44.87l24.66,58.48l24.44-61.54v88.28h-4.47l-0.66,0.11l-0.43,0.76v4.37h21.93v-5.24h-4.91V25.77h5.02v-5.24
	h-15.17L184.64,80.55z M607.82,25.77h5.13v-5.24h-22.37v5.24h5.67v25.21h-33.6V25.77h5.01v-5.24h-22.15v5.24h5.57v104.32h-5.57v5.24
	h22.15v-5.24h-5.01V57.31h33.6v72.78h-5.67v5.24h22.37v-5.24h-5.13V25.77z M69.85,25.77h5.67v79.99c0,19.31-12.99,24.66-19.86,24.88
	c-6.33-0.11-18.66-5.02-19.75-22.37l-0.11-1.31l-11.13,1.53l0.22,1.2c0.76,5.02,2.29,9.49,4.69,13.64
	c3.27,5.46,12.88,13.53,26.08,13.53c16.26,0,24.55-11.24,26.08-13.53c5.02-7.86,5.46-17.13,5.46-27.61V25.66h5.02v-5.13H69.85
	C69.85,20.53,69.85,25.77,69.85,25.77z M681.26,18.89c-34.16,0-61.87,26.52-61.87,59.04s27.72,59.04,61.87,59.04
	s61.87-26.41,61.87-59.04S715.31,18.89,681.26,18.89 M680.93,130.2c-28.15,0-50.2-22.92-50.2-52.27c0-14.08,5.24-27.28,14.73-37.1
	s22.15-15.28,35.79-15.28c27.94,0,50.52,23.68,50.52,52.82C731.79,107.39,709.42,130.2,680.93,130.2 M813.19,18.89
	c-34.16,0-61.87,26.52-61.87,59.04s27.72,59.04,61.87,59.04s61.87-26.41,61.87-59.04S847.35,18.89,813.19,18.89 M813.41,130.2
	c-28.04-0.11-50.85-23.57-50.85-52.27c0-14.08,5.24-27.28,14.73-37.1c9.49-9.93,22.26-15.28,35.79-15.28
	c27.94,0,50.52,23.68,50.52,52.92C863.71,107.28,841.67,129.98,813.41,130.2"/>
</svg>
