<?xml version="1.0" encoding="utf-8"?>
<!-- Generator: Adobe Illustrator 24.1.3, SVG Export Plug-In . SVG Version: 6.00 Build 0)  -->
<svg version="1.1" id="Layer_1" xmlns="http://www.w3.org/2000/svg" xmlns:xlink="http://www.w3.org/1999/xlink" x="0px" y="0px"
	 viewBox="0 0 773.12 148.53" style="enable-background:new 0 0 773.12 148.53;" xml:space="preserve">
<style type="text/css">
	.st0{fill:#2A3241;}
</style>
<path class="st0" d="M240.02,107.68l-13.26-5.83V60.03l13.12,7.27l6.88-10l-17.28-9.74c-5.26,5.03-10.59,8.75-15.98,11.17v37.8
	c0,3.68-0.36,6.38-1.07,8.11c-0.5,1.24-1.52,2.39-3.09,3.46v1.3c4.32,0.87,7.97,1.84,10.94,2.94c2.97,1.1,6.55,2.8,10.75,5.12
	l16.24-11.95l-0.48-2.8L240.02,107.68z M272.44,63.66v-1.47c0-3.34-0.56-5.97-1.68-7.89c-1.12-1.92-3.57-4.16-7.35-6.75
	l-13.83,11.43l1.82,2.08c0.39-0.37,0.67-0.64,0.85-0.82c1.18-1.19,2.14-1.78,2.88-1.78c0.91,0,1.77,0.62,2.55,1.84
	c1,1.58,1.51,4.57,1.51,8.95v31.46c0,2.59-0.18,4.6-0.55,6.02c-0.37,1.43-1.05,2.98-2.05,4.64c-0.37,0.62-1.3,1.67-2.81,3.16
	c-3.15,3.07-4.72,6.23-4.72,9.48c0,3.29,1.36,6.13,4.1,8.53c2.73,2.39,6.62,3.59,11.69,3.59c4.84,0,8.85-1.05,12.03-3.14
	c2.07-1.3,3.1-2.62,3.1-3.96c0-0.75-0.26-1.36-0.79-1.82c-0.53-0.46-1.23-0.69-2.11-0.69c-0.79,0-1.47,0.21-2.04,0.63
	c-0.57,0.41-1.25,1.3-2.04,2.66c-0.79,1.36-1.6,2.25-2.44,2.67c-1.71,0.87-3.89,1.31-6.52,1.31c-3.65,0-6.58-0.95-8.79-2.85
	c-2.21-1.9-3.32-3.97-3.32-6.19c0-1.31,0.31-2.49,0.93-3.54c0.83-1.44,2.24-2.93,4.22-4.45c0.92-0.74,3.71-2.51,8.38-5.3
	c10.68-6.31,18.42-11.4,23.22-15.3c4.8-3.89,8.31-8.03,10.56-12.41c2.24-4.38,3.36-8.77,3.36-13.17c0-8.18-3.42-15.86-10.26-23.04
	L272.44,63.66z M285.66,89.93c-2.62,4.84-7.02,9.48-13.22,13.92V66.93l10.08-8.17c4.71,5.65,7.06,11.43,7.06,17.34
	C289.58,80.48,288.27,85.09,285.66,89.93z M203.75,25.21h-8.31l-3.38,14.03h2.86L203.75,25.21z M201.21,106.7
	c-0.4,0.23-0.83,0.35-1.31,0.35c-0.67,0-1.33-0.57-1.96-1.71c-0.63-1.14-0.95-3.6-0.95-7.38V62.1l4.94-5.07l-11.56-9.48l-11.56,9.48
	l4.94,5.07v36.67c0,5.52,0.51,9.39,1.54,11.6c1.03,2.21,3.33,4.57,6.91,7.06l14.16-11.43l-1.69-2.08
	C202.91,105.46,201.76,106.38,201.21,106.7z M74.62,79.33c1.04,9.38,3.23,24.56,3.23,29.41c0,3.55-1.06,6.4-3.18,8.57
	c-2.12,2.16-4.88,3.25-8.28,3.25c-1.75,0-4.43-0.61-8.05-1.83c-2.53-0.86-4.82-1.29-6.87-1.29c-4.89,0-8.81,1.61-11.78,4.85
	c-1.83,2.05-3.32,5.24-4.45,9.57l2.47,1.17c0.74-1.87,1.53-3.09,2.37-3.67c1.23-0.84,2.81-1.27,4.73-1.27
	c2.28,0,5.23,0.74,8.88,2.24c2.67,1.04,4.61,1.7,5.82,2c1.2,0.29,2.6,0.44,4.18,0.44c5.7,0,12.29-2.47,19.79-7.41
	c8.82-5.95,15.18-12.85,19.06-20.72c2.94-5.99,4.41-15.04,4.41-27.15c0-3.93-0.03-7.74-0.09-11.41c-0.12-6.95-0.17-11.78-0.17-14.5
	c0-5.42,1.04-10.44,3.14-15.05c2.1-4.61,5.98-10,11.67-16.17l-2.47-2.16c-3.17,2.27-6.18,3.87-9.02,4.81
	c-2.84,0.95-6.29,1.42-10.32,1.42c-4.3,0-10.22-0.82-17.77-2.45c-9.42-2-16.11-3-20.05-3c-6.3,0-11.62,1.98-15.95,5.95
	C41.57,28.89,39.4,33.25,39.4,38c0,3.27,0.88,5.89,2.63,7.88c1.75,1.98,3.78,2.98,6.07,2.98c1.77,0,3.23-0.58,4.38-1.76
	c1.14-1.18,1.72-2.63,1.72-4.38c0-1.57-0.52-2.89-1.57-3.95c-1.05-1.06-2.31-1.6-3.79-1.6c-0.7,0-1.49,0.22-2.39,0.65
	c-0.89,0.43-1.56,0.65-1.99,0.65c-0.48,0-0.89-0.17-1.21-0.53c-0.32-0.36-0.49-0.82-0.49-1.4c0-1.87,1.06-3.7,3.2-5.5
	c2.13-1.8,5.04-2.7,8.74-2.7c2.83,0,6.87,0.91,12.14,2.73c5.27,1.82,10.05,2.73,14.36,2.73c4.18,0,9.38-0.99,15.6-2.96
	c-6.78,4.45-11.68,8.27-14.7,11.46c-3.02,3.19-5.1,6.28-6.22,9.25c-1.13,2.97-1.77,6.96-1.94,11.95L74.62,79.33z M98.16,42.6
	c-2.98,6.83-4.47,14.71-4.47,23.63l0.26,29.81c0,5.69-0.84,10.38-2.51,14.08c-1.68,3.7-3.97,6.71-6.89,9.02
	c-2.11,1.66-5.54,3.5-10.31,5.52c4.08-3.28,6.73-6.37,7.98-9.26c1.76-3.98,2.64-9.54,2.64-16.68L84.6,69.65
	c0-8.66,0.97-15.5,2.92-20.52c1.95-5.01,4.84-9.42,8.69-13.23c2.89-2.8,7.4-5.71,13.54-8.73C104.05,32.73,100.19,37.88,98.16,42.6z
	 M172.5,106.53c-0.85,0-1.64-0.59-2.35-1.77c-1.12-1.7-1.68-4.54-1.68-8.52v-34.4l5.2-4.81l-11.82-9.48l-11.56,9.48l4.94,4.81v35.79
	l-11.87,8.93c-2.55-1.82-4.15-3.33-4.81-4.52c-0.66-1.19-0.99-3.07-0.99-5.63V61.84l4.94-4.81l-12.08-9.48l-15.46,12.73l1.69,2.08
	c1.84-1.56,3.22-2.34,4.14-2.34c1.22,0,2.2,0.61,2.91,1.84c0.41,0.7,0.61,2.19,0.61,4.46v32.41c0,4.12,0.65,7.43,1.96,9.94
	c1.31,2.52,4.07,5.44,8.3,8.76c7.05-6.15,13.93-11.52,20.66-16.11c0.08,4.3,0.65,7.44,1.71,9.42c1.05,1.98,3.3,4.2,6.73,6.69
	l14.16-10.65l-1.69-2.08C174.33,105.92,173.13,106.53,172.5,106.53z M423.21,58.73v36.15c0,3.56-0.3,6.08-0.91,7.57
	c-0.43,1.15-1.48,2.41-3.12,3.82l0.66,1.3c3.97,0,7.52,0.58,10.66,1.73c4.15,1.51,9.38,4.22,15.71,8.14
	c2.05-1.86,4.19-3.42,6.42-4.68c2.93-1.69,7.67-3.85,14.23-6.49V57.43c-9.17-2.34-16.83-5.63-22.99-9.87
	C438.14,52.36,431.26,56.09,423.21,58.73z M453.61,106.79l-17.15-7.01V58.73c2.23,0.4,4.14,0.89,5.71,1.47
	c2.23,0.8,6.04,2.48,11.43,5.02V106.79z M628.42,106.53c-0.86,0-1.64-0.59-2.36-1.77c-1.12-1.7-1.68-4.54-1.68-8.52v-34.4l5.2-4.81
	l-11.82-9.48l-11.56,9.48l4.94,4.81v35.79l-11.87,8.93c-2.55-1.82-4.15-3.33-4.81-4.52c-0.66-1.19-0.98-3.07-0.98-5.63V61.84
	l4.93-4.81l-12.08-9.48l-15.46,12.73l1.69,2.08c1.84-1.56,3.22-2.34,4.14-2.34c1.23,0,2.2,0.61,2.91,1.84
	c0.41,0.7,0.61,2.19,0.61,4.46v32.41c0,4.12,0.65,7.43,1.96,9.94c1.31,2.52,4.07,5.44,8.3,8.76c7.05-6.15,13.93-11.52,20.65-16.11
	c0.09,4.3,0.65,7.44,1.71,9.42c1.05,1.98,3.3,4.2,6.73,6.69l14.16-10.65l-1.69-2.08C630.26,105.92,629.05,106.53,628.42,106.53z
	 M662.94,58l8.18,10.08l10-8.7l-10-11.82l-14.68,12.73c0-2.29-0.44-4.09-1.32-5.39c-1.36-2.08-3.91-4.52-7.64-7.34l-13.64,11.95
	l1.69,2.08c1.72-2.08,3.07-3.12,4.06-3.12c0.9,0,1.72,0.57,2.48,1.7c0.75,1.13,1.13,3.4,1.13,6.81V94.1c0,3.95-0.29,6.61-0.89,8.01
	c-0.59,1.4-1.85,2.78-3.78,4.16v1.3c2.89,0.76,5.54,1.83,7.98,3.19c2.43,1.36,5.44,3.59,9.04,6.69l17.02-13.51l-1.56-2.08
	l-6.75,5.46l-7.8-5.46V63.63L662.94,58z M729.61,68.96l-18.45-21.4c-7.36,3.77-12.04,6.12-14.04,7.05
	c-2.75,1.24-6.21,2.62-10.38,4.12v37.7c0,4.31-0.25,7.11-0.74,8.4c-0.49,1.3-1.46,2.38-2.9,3.26v1.3c5.12,1.04,9.07,2.06,11.85,3.07
	c2.78,1,6.32,2.67,10.62,4.99l21.43-15.07l-1.56-2.08l-10.28,7.27l-15.18-5.72V89.64L729.61,68.96z M699.99,55.49l0.92-0.29
	l16.53,17.87l-17.46,12.19V55.49z M555.33,32.23h-1.88l-18.12,22.58v2.88h6.23v37.82c0,3.08-0.38,5.44-1.14,7.06
	c-0.58,1.28-1.76,2.51-3.54,3.7v1.3c6.34,1.73,12.01,5.02,17.02,9.87l13.9-11.43l-1.56-2.08l-4.16,3.38l-7.28-5.72v-43.9h13.25
	v-7.27h-13.25L555.33,32.23z M527.73,106.53c-0.85,0-1.64-0.59-2.35-1.77c-1.12-1.7-1.68-4.54-1.68-8.52v-34.4l5.2-4.81l-11.82-9.48
	l-11.56,9.48l4.93,4.81v35.79l-11.87,8.93c-2.55-1.82-4.15-3.33-4.81-4.52c-0.66-1.19-0.99-3.07-0.99-5.63V61.84l4.94-4.81
	l-12.08-9.48l-15.46,12.73l1.69,2.08c1.84-1.56,3.22-2.34,4.14-2.34c1.23,0,2.2,0.61,2.91,1.84c0.41,0.7,0.61,2.19,0.61,4.46v32.41
	c0,4.12,0.65,7.43,1.96,9.94c1.31,2.52,4.07,5.44,8.3,8.76c7.05-6.15,13.93-11.52,20.65-16.11c0.09,4.3,0.65,7.44,1.71,9.42
	c1.05,1.98,3.3,4.2,6.73,6.69l14.16-10.65l-1.69-2.08C529.56,105.92,528.35,106.53,527.73,106.53z M399.46,102.77
	c-5.17,2.16-10.9,3.25-17.18,3.25l-2.48-0.07l-0.78-74.55c9.07,4.46,17.21,7.07,24.42,7.84l10.91-10l-1.17-2.47h-1.49
	c-5.01,0-9.38-0.4-13.09-1.21c-3.72-0.8-8.82-2.57-15.29-5.29L355.12,43.4v29.44c0,6.57-0.26,10.59-0.78,12.06
	c-0.53,1.47-2.09,3.28-4.7,5.42c-6.05-7.8-9.07-16.31-9.07-25.51c0-7.58,2.06-14.6,6.18-21.06c3.2-5.01,8.07-9.72,14.6-14.13
	l-1.69-1.82c-9.92,5.98-17.09,12.13-21.53,18.45c-5.65,8.07-8.48,16.84-8.48,26.3c0,7.68,2.01,15.13,6.03,22.38
	c4.01,7.24,9.57,12.8,16.66,16.68c7.1,3.88,14.66,5.82,22.69,5.82c5.41,0,10.87-0.93,16.37-2.78c5.5-1.86,10.2-4.34,14.11-7.44
	c3.91-3.1,7.89-7.44,11.95-13.03l-1.95-1.95C409.98,97.1,404.62,100.61,399.46,102.77z M362.62,101.35c-4-2.06-7.74-5.02-11.24-8.89
	c5.72-4.74,10.19-8.96,13.38-12.66c1.57-1.83,2.58-3.55,3.02-5.16c0.39-1.22,0.59-3.68,0.59-7.38V37.49l7.54-6.18l0.78,74.18
	C371.3,104.8,366.62,103.42,362.62,101.35z M734.15,48.5c0.31-0.13,0.58-0.32,0.82-0.55c0.24-0.23,0.42-0.51,0.56-0.84
	c0.14-0.33,0.2-0.72,0.2-1.16c0-0.92-0.27-1.61-0.79-2.1c-0.53-0.48-1.37-0.72-2.53-0.72h-3.92v10.19h1.26V48.8h2.11l2.87,4.52h1.47
	l-3.03-4.52C733.51,48.73,733.84,48.63,734.15,48.5z M731.41,47.72h-1.66v-3.51h2.3c0.31,0,0.62,0.02,0.9,0.07
	c0.28,0.05,0.54,0.14,0.77,0.27c0.23,0.13,0.41,0.31,0.54,0.53c0.13,0.22,0.2,0.51,0.2,0.87c0,0.42-0.09,0.76-0.26,1
	c-0.18,0.24-0.41,0.42-0.69,0.53c-0.29,0.11-0.61,0.18-0.98,0.2C732.16,47.71,731.79,47.72,731.41,47.72z M739.82,44.78
	c-0.45-1.07-1.07-2.01-1.86-2.81c-0.79-0.8-1.72-1.42-2.8-1.87c-1.07-0.45-2.23-0.67-3.48-0.67c-1.25,0-2.41,0.23-3.48,0.67
	c-1.07,0.45-2.01,1.07-2.8,1.87c-0.79,0.8-1.41,1.73-1.86,2.81c-0.45,1.07-0.67,2.22-0.67,3.46c0,1.25,0.22,2.4,0.67,3.47
	c0.45,1.07,1.07,1.99,1.86,2.78c0.79,0.79,1.72,1.41,2.8,1.86c1.07,0.45,2.23,0.67,3.48,0.67c1.25,0,2.41-0.23,3.48-0.67
	c1.07-0.45,2.01-1.07,2.8-1.86c0.79-0.79,1.41-1.72,1.86-2.78c0.45-1.06,0.68-2.22,0.68-3.47C740.5,47.01,740.28,45.85,739.82,44.78
	z M738.55,51.2c-0.38,0.92-0.9,1.71-1.56,2.39c-0.66,0.68-1.45,1.21-2.35,1.61c-0.91,0.39-1.89,0.59-2.94,0.59
	c-1.07,0-2.06-0.2-2.97-0.59c-0.91-0.39-1.69-0.93-2.35-1.61c-0.66-0.68-1.18-1.47-1.55-2.39c-0.37-0.91-0.55-1.9-0.55-2.96
	c0-1.06,0.18-2.04,0.55-2.96c0.37-0.91,0.89-1.71,1.55-2.39c0.66-0.68,1.45-1.21,2.35-1.61c0.9-0.39,1.89-0.59,2.97-0.59
	c1.06,0,2.04,0.2,2.94,0.59c0.91,0.39,1.69,0.93,2.35,1.61c0.66,0.68,1.18,1.47,1.56,2.39c0.38,0.92,0.57,1.9,0.57,2.96
	C739.11,49.3,738.93,50.28,738.55,51.2z"/>
</svg>
