<?xml version="1.0" encoding="utf-8"?>
<!-- Generator: Adobe Illustrator 24.1.3, SVG Export Plug-In . SVG Version: 6.00 Build 0)  -->
<svg version="1.1" id="Layer_1" xmlns="http://www.w3.org/2000/svg" xmlns:xlink="http://www.w3.org/1999/xlink" x="0px" y="0px"
	 viewBox="0 0 853.14 383.74" style="enable-background:new 0 0 853.14 383.74;" xml:space="preserve">
<style type="text/css">
	.st0{fill:#2D333C;}
</style>
<path class="st0" d="M748.59,40.51c2.08-0.3,3.86-0.59,5.64-1.19c1.78-0.59,2.97-1.78,3.86-3.27c0.89-1.49,1.49-3.56,1.49-6.24
	c0-2.38-0.59-4.16-1.19-5.35c-0.89-1.19-2.08-2.38-3.27-2.97c-1.49-0.59-2.97-1.19-4.75-1.49c-0.89,0-1.49-0.3-2.38-0.3h-16.93
	v21.39h10.99C744.43,40.51,746.51,40.51,748.59,40.51z M709.08,79.43c4.16,4.46,9.21,8.02,15.15,10.4
	c5.94,2.38,12.18,3.86,19.01,3.86c6.83,0,12.77-1.19,18.72-3.86c5.64-2.38,10.69-5.94,15.15-10.4c4.16-4.46,7.72-9.51,10.1-15.74
	c2.38-5.94,3.56-12.48,3.56-19.61c0-6.83-1.19-13.37-3.56-19.31c-0.89-2.08-1.78-3.86-2.67-5.64H768.2
	c1.78,2.97,2.67,6.54,2.67,10.69c0,5.94-1.78,10.4-5.05,13.37c-3.27,2.97-7.72,4.46-12.77,5.05l19.31,29.71h-11.29l-18.42-29.11
	h-10.99v29.11h-10.99V19.13h-18.72c-0.89,1.78-1.78,3.56-2.67,5.64c-2.38,5.94-3.56,12.48-3.56,19.31c0,7.13,1.19,13.67,3.56,19.61
	C701.36,69.92,704.63,74.97,709.08,79.43z M302.4,134.69c-14.56,0-22.28,11.29-22.58,23.17h46.94
	C327.05,144.19,318.14,134.69,302.4,134.69z M795.23,19.42c0.3,0.59,0.89,1.49,1.19,2.08c2.97,7.13,4.75,14.56,4.75,22.58
	c0,8.32-1.49,16.04-4.75,23.17c-2.97,7.13-7.13,13.07-12.48,18.42c-5.35,5.05-11.29,9.21-18.42,12.18
	c-7.13,2.97-14.56,4.46-22.28,4.46c-8.02,0-15.45-1.49-22.58-4.46c-7.13-2.97-13.37-6.83-18.42-12.18
	c-5.35-5.05-9.51-11.29-12.48-18.42c-2.97-7.13-4.75-14.85-4.75-23.17c0-8.02,1.49-15.74,4.75-22.58c0.3-0.89,0.59-1.49,1.19-2.08
	H5.63l81.1,345.19c169.92-109.32,333.31-4.16,339.85-0.3l0,0l0,0l0,0l0,0l0,0c6.54-3.86,169.92-109.02,339.85,0.3l81.1-345.19
	H795.23z M228.13,228.86H117.62V113.59h49.91v83.77h60.9v31.49H228.13z M377.26,181.03h-97.14c0,15.15,12.77,26.44,29.71,26.44
	c10.1,0,19.31-3.27,25.84-12.48h38.62c-12.77,29.11-37.13,37.43-70.7,37.43c-43.67,0-74.27-23.47-74.27-60.9
	c0-39.81,30.3-60.9,74.27-60.9c49.31,0,73.97,31.79,73.97,62.68C377.26,175.68,377.55,178.35,377.26,181.03z M467.27,229.15h-41.89
	L362.7,113.59h56.44l35.95,70.11l0.89,2.08l0.89-2.08l33.57-70.11h34.16L467.27,229.15z M577.78,228.86h-48.13V113.3h48.13V228.86z
	 M613.72,127.85l-14.56,15.74h-5.94l6.54-17.23h-13.37v-22.87h27.03v24.36H613.72z M676.7,232.12c-51.39,0-60.6-29.71-60.6-36.84
	h37.13c0,4.46,5.94,9.51,10.69,11.59c4.16,1.78,8.61,2.08,12.77,2.08c10.4,0,19.01-2.67,19.01-8.61c0-7.43-8.91-8.91-18.42-10.4
	c-26.44-3.86-63.28-8.32-63.28-37.73c0-27.63,30-41.59,61.79-41.59c51.1,0,64.46,28.22,64.46,36.54h-37.43
	c0-2.38-1.78-7.13-7.13-9.8c-3.86-2.08-9.51-3.56-14.85-3.56c-13.96,0-21.98,2.97-21.98,9.51c0,5.35,7.13,8.02,17.53,9.8
	c26.74,4.46,68.03,6.24,68.03,38.92C744.43,208.06,730.17,232.12,676.7,232.12z"/>
</svg>
