<?xml version="1.0" encoding="utf-8"?>
<!-- Generator: Adobe Illustrator 24.1.3, SVG Export Plug-In . SVG Version: 6.00 Build 0)  -->
<svg version="1.1" id="Layer_1" xmlns="http://www.w3.org/2000/svg" xmlns:xlink="http://www.w3.org/1999/xlink" x="0px" y="0px"
	 viewBox="0 0 771.75 437.23" style="enable-background:new 0 0 771.75 437.23;" xml:space="preserve">
<style type="text/css">
	.st0{fill:#2D333C;}
</style>
<g>
	<g>
		<polygon class="st0" points="518.35,413.23 543.88,413.23 543.88,231.73 518.35,231.73 518.35,413.23 		"/>
		<path class="st0" d="M293.29,267.79v17.08h24.32v-21.22c-2.56-27.46-21.57-34.04-35.67-34.04c-14.1,0-36.41,7.13-36.41,38.07
			s0.23,36.68,28,56.01c17.39,12.08,21.96,19.75,22.5,30.17c0,0,0.43,15.49,0,22.97c-1.32,24.44-25.76,18.51-25.79,1.82
			c0-9.14,0-26.65,0-26.65h-24.75v26.45c0,23.24,15.49,36.79,37.69,37.14c12.82,0.19,37.69-4.96,38.23-36.6v-31.95
			c-1.24-23.24-15.49-32.22-26.53-40.44c-11.04-8.21-24.63-13.79-25.33-26.57V267.6c0-22.7,23.55-22.35,23.63,0"/>
	</g>
	<polygon class="st0" points="57.07,413.3 57.07,301.41 76.08,413.3 93.47,413.3 112.68,301.41 112.68,413.3 138.21,413.3 
		138.21,231.81 109.97,231.81 84.88,332.39 59.78,231.81 31.54,231.81 31.54,413.3 57.07,413.3 	"/>
	<polygon class="st0" points="425.4,231.69 450.92,231.69 450.92,310.01 476.64,310.01 476.64,231.69 502.16,231.69 502.16,413.23 
		476.64,413.23 476.64,332.66 450.92,332.66 450.92,413.23 425.4,413.23 425.4,231.69 	"/>
	<path class="st0" d="M682.07,368.14c0,16.96,7.4,22.58,13.67,22.58c6.27,0,13.67-5.58,13.67-22.58v-91.25
		c0-17.08-7.4-22.58-13.67-22.58c-6.27,0-13.67,5.54-13.67,22.58V368.14z M656.55,276.89c0-17.16,8.13-47.33,39.2-47.33
		c31.06,0,39.08,29.16,39.08,47.33v91.25c0,18.13-8.37,47.41-39.08,47.41c-30.71,0-39.2-29.28-39.2-47.41V276.89z"/>
	<path class="st0" d="M178.57,368.14c0,16.96,7.4,22.58,13.67,22.58c6.27,0,13.67-5.58,13.67-22.58v-91.25
		c0-17.08-7.4-22.58-13.67-22.58c-6.27,0-13.67,5.54-13.67,22.58V368.14z M153.04,276.89c0-17.16,8.13-47.33,39.2-47.33
		s39.12,29.16,39.12,47.33v91.25c0,18.13-8.37,47.41-39.12,47.41s-39.2-29.28-39.2-47.41V276.89z"/>
	<path class="st0" d="M411.15,351.68v16.46c0,21.77-6.82,47.41-37.57,47.41c-30.75,0-39.2-29.28-39.2-47.41v-91.25
		c0-17.16,8.13-47.33,39.2-47.33s36.21,25.21,36.21,47.33v14.56h-23.24v-14.56c0-15.49-4.8-22.58-12.94-22.58
		c-6.12,0-13.67,4.8-13.67,22.58v91.25c0,13.94,5.19,22.58,13.67,22.58c7.17,0,12.94-5.42,12.94-22.58v-16.46H411.15z"/>
	<polygon class="st0" points="477.26,205.47 408.28,205.47 408.28,26.38 435.08,26.38 435.08,178.67 477.26,178.67 477.26,205.47 	
		"/>
	<path class="st0" d="M511.34,159.61c0,13.4,4.54,20.1,13.63,20.1c9.09,0,13.63-6.7,13.63-20.1l-0.23-91.79
		c0-13.4-4.47-20.1-13.4-20.1c-8.93,0-13.48,6.7-13.63,20.1V159.61z M485.55,67.28c-0.59-11.53,2.63-22.94,9.18-32.46
		c7.05-8.88,17.97-13.77,29.28-13.13c11.59-0.64,22.8,4.23,30.25,13.13c6.96,9.35,10.47,20.82,9.92,32.46v92.95
		c0.58,11.49-2.73,22.85-9.41,32.22c-15.02,16.44-40.52,17.59-56.96,2.57c-0.89-0.82-1.75-1.67-2.57-2.57
		c-6.46-7.93-9.68-18.67-9.68-32.22L485.55,67.28L485.55,67.28z"/>
	<polyline class="st0" points="611.42,151.75 630.79,27.46 657.32,27.46 624.59,206.56 597.79,206.56 565.29,27.46 591.59,27.46 
		610.92,151.75 	"/>
	<polygon class="st0" points="740.2,179.56 692.33,179.56 692.33,126.96 726.8,126.96 726.8,100.2 692.33,100.2 692.33,54.03 
		737.22,54.03 737.22,27.27 665.53,27.27 665.53,206.36 740.2,206.36 740.2,179.56 	"/>
	<polygon class="st0" points="586.91,413.69 586.91,301.83 618.4,413.69 640.74,413.69 640.74,234.6 615.68,234.6 615.68,327.86 
		588.65,234.6 561.62,234.6 561.62,413.69 586.91,413.69 	"/>
</g>
</svg>
