<?xml version="1.0" encoding="utf-8"?>
<!-- Generator: Adobe Illustrator 24.1.3, SVG Export Plug-In . SVG Version: 6.00 Build 0)  -->
<svg version="1.1" id="Layer_1" xmlns="http://www.w3.org/2000/svg" xmlns:xlink="http://www.w3.org/1999/xlink" x="0px" y="0px"
	 viewBox="0 0 56.96 41.86" style="enable-background:new 0 0 56.96 41.86;" xml:space="preserve">
<style type="text/css">
	.st0{fill:#293240;}
</style>
<g>
	<path class="st0" d="M28.48,1.09c-15.54,0-27.73,5.98-27.73,14.35s12.18,14.58,27.73,14.58c15.54,0,27.73-6.21,27.73-14.58
		C56.21,7.06,44.03,1.09,28.48,1.09z M28.43,28.36c-13.78,0-25.96-5.52-25.96-12.92S14.65,2.68,28.43,2.68s25.96,5.3,25.96,12.7
		S42.2,28.36,28.43,28.36z"/>
	<polygon class="st0" points="28.43,12.7 24.44,5.76 17.15,5.76 17.15,9.06 18.97,9.06 18.97,21.81 17.15,21.81 17.15,25.11 
		23.76,25.11 23.76,21.81 21.88,21.81 21.88,14.58 27,23.23 31.78,12.3 31.78,21.81 30.3,21.81 30.3,25.11 39.76,25.11 39.76,21.81 
		37.93,21.81 37.93,9.06 39.76,9.06 39.76,5.76 31.78,5.76 	"/>
	<polygon class="st0" points="12.2,38.27 9.86,34 8.67,34 8.67,40.54 10.09,40.54 10.09,37.18 11.97,40.54 12.48,40.54 14.3,37.18 
		14.3,40.54 15.73,40.54 15.73,34 14.53,34 	"/>
	<rect x="17.15" y="34" class="st0" width="1.48" height="6.55"/>
	<path class="st0" d="M21.37,35.7c0-0.4,0.34-0.63,0.85-0.63c0.63,0,1.2,0.28,1.37,1.02h1.25c-0.11-1.31-1.14-2.16-2.62-2.16
		c-1.31,0-2.33,0.8-2.33,1.82c0.06,2.51,3.64,1.59,3.64,2.96c0,0.51-0.46,0.85-1.02,0.85c-0.74,0-1.54-0.34-1.65-1.37H19.6
		c0.06,1.77,1.37,2.56,2.85,2.56s2.56-0.8,2.56-2.05C25.01,36.16,21.37,36.96,21.37,35.7z"/>
	<path class="st0" d="M27.4,35.7c0-0.4,0.34-0.63,0.85-0.63c0.63,0,1.2,0.28,1.37,1.02h1.25c-0.11-1.31-1.14-2.16-2.62-2.16
		c-1.31,0-2.33,0.8-2.33,1.82c0.06,2.51,3.64,1.59,3.64,2.96c0,0.51-0.46,0.85-1.02,0.85c-0.74,0-1.54-0.34-1.65-1.37h-1.25
		c0.06,1.77,1.37,2.56,2.85,2.56s2.56-0.8,2.56-2.05C31.1,36.16,27.4,36.96,27.4,35.7z"/>
	<path class="st0" d="M35.26,33.83c-2.11,0-3.47,1.59-3.47,3.42c0,1.82,1.37,3.42,3.47,3.42s3.47-1.59,3.47-3.42
		C38.73,35.42,37.36,33.83,35.26,33.83z M35.26,39.41c-1.2,0-1.99-0.85-1.99-2.11c0-1.25,0.8-2.11,1.99-2.11s1.99,0.85,1.99,2.11
		C37.25,38.55,36.45,39.41,35.26,39.41z"/>
	<polygon class="st0" points="43.97,38.04 40.95,34 39.76,34 39.76,40.54 41.18,40.54 41.18,36.56 44.2,40.54 45.39,40.54 45.39,34 
		43.97,34 	"/>
	<rect x="46.82" y="34" class="st0" width="1.48" height="6.55"/>
</g>
</svg>
