<?xml version="1.0" encoding="utf-8"?>
<!-- Generator: Adobe Illustrator 24.1.3, SVG Export Plug-In . SVG Version: 6.00 Build 0)  -->
<svg version="1.1" id="Layer_1" xmlns="http://www.w3.org/2000/svg" xmlns:xlink="http://www.w3.org/1999/xlink" x="0px" y="0px"
	 viewBox="0 0 722.91 544.21" style="enable-background:new 0 0 722.91 544.21;" xml:space="preserve">
<style type="text/css">
	.st0{fill:#293240;}
</style>
<path class="st0" d="M361.45,18.54c-198.63,0-354.33,76.4-354.33,183.35s155.7,186.26,354.33,186.26s354.33-79.31,354.33-186.26
	S560.08,18.54,361.45,18.54z M360.73,367.05c-176.07,0-331.78-70.58-331.78-165.16S184.65,38.91,360.73,38.91
	S692.5,106.58,692.5,201.16S536.8,367.05,360.73,367.05L360.73,367.05z"/>
<path class="st0" d="M360.73,166.97L309.8,78.2h-93.13v42.2h23.28v162.98h-23.28v42.2h84.4v-42.2h-24.01v-92.4l65.48,110.59
	l61.11-139.69v121.5h-18.91v42.2h120.78v-42.2h-23.29V120.4h23.29V78.2H403.65L360.73,166.97z M153.37,493.65l-29.83-54.57h-15.28
	v83.67h18.19v-42.92l24.01,42.92h6.55l23.28-42.92v42.92h18.19v-83.67H183.2L153.37,493.65z M216.67,439.08h18.92v83.67h-18.92
	V439.08z M270.51,460.91c0-5.09,4.37-8,10.91-8c8,0,15.28,3.64,17.46,13.1h16.01c-1.46-16.73-14.55-27.65-33.47-27.65
	c-16.73,0-29.83,10.19-29.83,23.28c0.73,32.01,46.56,20.37,46.56,37.83c0,6.55-5.82,10.91-13.1,10.91c-9.46,0-19.64-4.37-21.1-17.46
	h-16.01c0.73,22.55,17.46,32.74,36.38,32.74s32.74-10.19,32.74-26.19C317.07,466.73,270.51,476.92,270.51,460.91L270.51,460.91z
	 M347.63,460.91c0-5.09,4.37-8,10.91-8c8,0,15.28,3.64,17.46,13.1h16.01c-1.46-16.73-14.55-27.65-33.47-27.65
	c-16.73,0-29.83,10.19-29.83,23.28c0.73,32.01,46.57,20.37,46.57,37.83c0,6.55-5.82,10.91-13.1,10.91c-9.46,0-19.64-4.37-21.1-17.46
	h-16.01c0.73,22.55,17.46,32.74,36.38,32.74s32.74-10.19,32.74-26.19C394.92,466.73,347.63,476.92,347.63,460.91L347.63,460.91z
	 M448.04,436.9c-26.92,0-44.38,20.37-44.38,43.65s17.46,43.65,44.38,43.65s44.38-20.37,44.38-43.65S474.96,436.9,448.04,436.9
	L448.04,436.9z M448.04,508.2c-15.28,0-25.47-10.91-25.47-26.92s10.19-26.92,25.47-26.92s25.47,10.91,25.47,26.92
	C473.5,497.29,463.32,508.2,448.04,508.2z M559.36,490.74l-38.57-51.66h-15.27v83.67h18.18v-50.93l38.57,50.93h15.28v-83.67h-18.19
	L559.36,490.74z M595.74,439.08h18.92v83.67h-18.92V439.08z"/>
</svg>
