<?xml version="1.0" encoding="utf-8"?>
<!-- Generator: Adobe Illustrator 24.1.3, SVG Export Plug-In . SVG Version: 6.00 Build 0)  -->
<svg version="1.1" id="Layer_1" xmlns="http://www.w3.org/2000/svg" xmlns:xlink="http://www.w3.org/1999/xlink" x="0px" y="0px"
	 viewBox="0 0 1115 131" style="enable-background:new 0 0 1115 131;" xml:space="preserve">
<style type="text/css">
	.st0{fill:#293240;}
</style>
<path class="st0" d="M380.11,89.72c-13.89,0-24.96-7.67-24.96-22.92c0-13.6,10.3-23.11,24.57-23.11c11.07,0,17.85,3.23,24.75,9.63
	l8.56-8.56c-9.13-8.26-19.23-12.43-33.31-12.43c-20.3,0-37.59,13.4-37.59,34.48c0,21.75,14.86,34.67,37.88,34.67
	c12.72,0,24.47-4.08,35.55-14.28l-9.03-8.35C398.66,86.13,391.18,89.72,380.11,89.72z M738.27,89.72
	c-13.89,0-24.96-7.67-24.96-22.92c0-13.6,10.3-23.11,24.57-23.11c11.07,0,17.85,3.23,24.75,9.63l8.56-8.56
	c-9.13-8.26-19.23-12.43-33.31-12.43c-20.3,0-37.59,13.4-37.59,34.48c0,21.75,14.86,34.67,37.88,34.67
	c12.72,0,24.47-4.08,35.55-14.28l-9.03-8.35C756.82,86.13,749.34,89.72,738.27,89.72L738.27,89.72z M1054.56,60.01
	c-15.44-1.26-19.91-3.4-19.91-7.96c0-4.57,4.86-8.64,15.73-8.55c11.95,0.1,20.22,2.98,28.13,8.08l8.48-8.76
	c-9.61-6.8-20.59-10.49-35.74-10.49c-18.55,0-29.13,9.13-29.13,20.1c0,12.04,9.03,16.7,28.84,18.55
	c17.29,1.65,24.57,2.62,24.57,8.84c0,5.63-6.6,10.1-19.13,10.1c-12.34,0-23.7-4.18-31.08-10.98l-8.74,9.71
	c11.26,9.03,23.7,12.82,40.69,12.82c19.62,0,31.27-9.71,31.27-21.66C1088.55,66.42,1077.87,62.05,1054.56,60.01L1054.56,60.01z
	 M547.07,67.58v4.45c0,11.64-5.14,16.95-18.23,16.95c-11.56,0-17.46-4.28-17.46-15.84v-7.53h-12.5c0,0-0.02,5.7-0.02,10.24
	c0,17.11,11.2,25.63,29.38,25.63c22.09,0,32.02-8.39,32.02-30.47V33.69h-13.18v33.89H547.07z M165.9,33.69l-33.02,66.43h13.47
	l7.62-15.45h34.91l7.56,15.45h13.86l-33.22-66.43C177.08,33.69,165.9,33.69,165.9,33.69z M159.69,73.07l11.79-23.91l11.71,23.91
	H159.69z M626.82,33.69l-33.02,66.43h13.47l7.62-15.45h34.91l7.56,15.45h13.86L638,33.69H626.82z M620.61,73.07l11.79-23.91
	l11.71,23.91H620.61z M63.14,71.97L40.29,33.69H26.45v66.43h11.74V53.74l24.58,39.92l24.3-39.33v45.79h12.26V33.69H86.49
	L63.14,71.97z M843.81,32.33c-21.27,0-38.95,13.6-38.95,33.99c-0.19,22.63,16.12,35.35,38.65,35.16
	c21.37,0.19,39.24-13.4,39.04-35.16C882.56,46.51,865.08,32.33,843.81,32.33z M843.52,89.73c-14.18,0-25.84-7.96-25.64-23.41
	c0-14.47,10.88-22.63,26.03-22.63s25.64,8.45,25.64,22.63C869.74,81.76,857.7,89.73,843.52,89.73z M975.65,64.67
	c5.6-2.82,7.89-7.34,7.89-13.4c0-10.39-8.45-17.58-25.06-17.58h-38.46v66.43h37.2c16.12,0,29.72-4.56,29.72-20.69
	C986.94,71.9,982.94,67.17,975.65,64.67z M931.48,44.28h26.32c9.71,0,13.6,2.72,13.6,7.77c0,4.66-3.69,8.45-13.89,8.45h-26.03
	L931.48,44.28L931.48,44.28z M959.36,88.85h-27.87V70.98h27.68c11.07,0,15.64,2.62,15.64,8.55C974.8,85.26,971.3,88.85,959.36,88.85
	z M306.17,54.59c0-12.01-7.81-20.91-26.22-20.91h-36.61v66.43h12.27v-24.4h23.28l13.62,24.4h14.53l-15.61-26.64
	C299.18,71,306.17,65.19,306.17,54.59z M277.49,63.47h-21.85v-17.7h21.85c10.88,0,14.94,2.29,14.94,8.84
	C292.43,60.5,288.46,63.47,277.49,63.47z"/>
</svg>
