<?xml version="1.0" encoding="utf-8"?>
<!-- Generator: Adobe Illustrator 24.1.3, SVG Export Plug-In . SVG Version: 6.00 Build 0)  -->
<svg version="1.1" id="Layer_1" xmlns="http://www.w3.org/2000/svg" xmlns:xlink="http://www.w3.org/1999/xlink" x="0px" y="0px"
	 viewBox="0 0 635.89 158.14" style="enable-background:new 0 0 635.89 158.14;" xml:space="preserve">
<style type="text/css">
	.st0{clip-path:url(#SVGID_2_);fill:#293240;}
</style>
<g>
	<defs>
		<rect id="SVGID_1_" x="-103" y="-487.86" width="841.89" height="1133.86"/>
	</defs>
	<clipPath id="SVGID_2_">
		<use xlink:href="#SVGID_1_"  style="overflow:visible;"/>
	</clipPath>
	<path class="st0" d="M603.15,126.38c4.42,0,7.91-3.48,7.91-7.91c0-4.42-3.48-7.91-7.91-7.91c-4.42,0-7.91,3.48-7.91,7.91
		C595.25,122.89,598.73,126.38,603.15,126.38 M596.17,94.08c0-20.24-11.79-33.1-32.3-33.1c-18.23,0-32.03,15.01-32.03,33.1
		c0,18.49,13.27,32.57,32.03,32.57C582.1,126.65,596.17,112.31,596.17,94.08 M544.71,89.39c0-11.93,4.56-24.39,18.23-24.39
		c16.22,0,20.37,19.97,20.37,34.31c0,9.92-4.96,23.32-16.89,23.32C550.07,122.63,544.71,102.39,544.71,89.39 M531.15,31.63h-2.68
		c-1.07,10.18-12.46-0.94-30.82-0.94c-28.41,0-50.39,20.51-50.39,49.32c0,31.63,23.99,47.44,50.66,47.44
		c9.38,0,24.93-2.95,37.93-21.04l-2.28-2.14c-8.44,10.45-18.76,18.23-34.44,18.23c-21.31,0-35.51-16.89-35.51-44.63
		c0-21.17,11.12-42.21,35.38-42.21c16.08,0,28.14,10.45,31.76,25.86h2.68C533.44,61.52,531.15,31.63,531.15,31.63z M384.94,47.31
		c0-5.9,3.35-11.79,10.45-11.79c8.31,0,10.32,5.9,10.32,10.86c0,10.18-7.51,15.68-16.08,20.77
		C386.68,60.44,384.94,53.61,384.94,47.31 M415.09,65.53v2.68c4.69,0,7.91,1.47,7.91,6.57c0,7.5-8.71,20.5-12.87,26
		c-6.97-8.04-15.54-22.25-18.9-29.62c14.07-8.31,22.25-14.2,22.25-25.06c0-9.25-7.51-14.61-16.75-14.61
		c-14.74,0-23.59,9.11-23.59,23.05c0,6.16,2.01,12.6,4.69,18.36c-14.21,6.84-28.81,16.08-28.81,32.7
		c0,13.94,11.93,21.04,24.52,21.04c13.13,0,22.11-4.29,30.82-12.73c6.83,7.1,15.14,12.73,25.06,12.73c8.04,0,15.81-7.64,20.1-13.8
		l-2.01-1.74c0,0.13-0.13,0.13-0.13,0.27c-3.49,4.69-7.64,6.16-11.93,6.16c-7.91,0-16.48-6.57-22.51-13.4
		c3.62-3.62,10.72-15.68,13.4-20.5c3.75-6.7,6.97-15.28,16.08-15.41v-2.68L415.09,65.53L415.09,65.53z M362.83,98.77
		c0-10.59,7.51-16.89,16.75-21.98c5.23,10.99,13.27,25.46,21.84,34.04c-5.36,4.96-11.66,8.31-18.49,8.31
		C371,119.14,362.83,110.56,362.83,98.77 M251.3,35.52c9.11,0,12.2,2.68,22.65,17.15l19.57,27.07l-24.66,29.21
		c-7.91,9.38-12.06,13.13-19.03,13.67v2.68h31.9v-2.68c-5.63,0-10.32-0.94-10.32-4.29c0-2.68,2.14-5.49,8.85-13.67l17.02-20.64
		l12.6,17.56c5.36,7.5,10.32,14.74,10.32,16.62c0,3.22-4.15,4.15-11.12,4.42v2.68h41.81v-2.68c-7.37,0-12.06-5.9-19.3-15.68
		l-25.06-33.91l20.91-24.39c7.77-9.11,11.79-13.13,20.37-13.13h0.94v-2.68h-33.77v2.68c2.41,0,9.92,0.13,9.92,4.02
		c0,3.62-6.84,11.66-14.47,20.51l-7.1,8.04L291.5,52.13c-4.56-6.17-8.04-10.32-8.04-13.13c0-3.48,5.76-3.48,10.32-3.48v-2.68H251.3
		V35.52z M144.06,125.31h30.69v-2.68h-1.07c-8.44,0-9.65-2.81-9.65-5.63c0-3.75,6.83-17.69,8.31-22.11h40.34
		c2.28,4.96,9.25,17.42,9.25,21.98c0,2.55-1.74,5.76-9.38,5.76h-1.34v2.68h39.54v-2.68c-7.91,0-11.53-5.23-14.34-11.26l-37.4-79.87
		h-3.35l-38.06,79.47c-3.89,8.17-5.76,11.26-13.53,11.66v2.68L144.06,125.31z M192.44,50.79l17.69,38.46h-35.11L192.44,50.79z
		 M24.83,35.52c12.19,0,12.86,5.23,12.86,17.42v50.93c0,13.54,0,18.36-12.86,18.76v2.68h31.76v-2.68
		c-12.87-0.4-12.87-5.23-12.87-18.76V50.26h0.27l35.65,75.05h2.28l35.38-78.13h0.27v59.37c0,10.05-0.54,16.08-13,16.08v2.68h40.61
		v-2.68c-13-0.4-13.8-4.56-13.8-16.08V48.78c0-10.45,3.22-13.27,13.8-13.27v-2.68h-27.21l-33.1,70.49L51.63,32.84h-26.8L24.83,35.52
		L24.83,35.52z"/>
</g>
</svg>
