<?xml version="1.0" encoding="utf-8"?>
<!-- Generator: Adobe Illustrator 24.1.3, SVG Export Plug-In . SVG Version: 6.00 Build 0)  -->
<svg version="1.1" id="Livello_1" xmlns="http://www.w3.org/2000/svg" xmlns:xlink="http://www.w3.org/1999/xlink" x="0px" y="0px"
	 viewBox="0 0 171.2 40.75" style="enable-background:new 0 0 171.2 40.75;" xml:space="preserve">
<style type="text/css">
	.st0{fill:#2A3241;stroke:#2A3241;stroke-width:0.3973;stroke-miterlimit:3.8636;}
	.st1{fill-rule:evenodd;clip-rule:evenodd;fill:#2A3241;stroke:#2A3241;stroke-width:0.3973;stroke-miterlimit:3.8636;}
</style>
<g>
	<g>
		<path class="st0" d="M41.04,4.17c0.08,0.32-0.24,0.65-0.57,0.73c-1.21,0.4-2.91,0.16-3.64,1.54l-0.08,2.02l0.32,25.92
			c0.49,2.03,2.83,1.7,4.13,2.67c0.16,0.16,0.08,0.49-0.08,0.73c-0.57,0.49-1.54,0.16-2.26,0.24c-3.72-0.16-7.6,0-11.32,0
			c-0.24,0-0.65-0.08-0.73-0.49c0.24-1.46,1.94-0.97,2.91-1.54c0.97-0.32,0.97-1.38,1.05-2.19c0.16-6.72,0.16-13.69-0.16-20.33
			c-0.16-0.16,0.08-0.57-0.24-0.57l-0.4,0.65c-2.91,7.61-5.74,15.39-8.74,23.01c-0.16,0.32-0.4,0.81-0.89,0.89
			c-0.65,0-0.65-0.73-0.97-1.13c-2.99-7.78-6.31-15.39-9.79-22.92c-0.16-0.08-0.24-0.08-0.4,0.08c-0.4,6.64-0.57,13.93,0.08,20.66
			c0.16,0.73,0.4,1.38,1.13,1.7c1.13,0.81,2.83,0.32,3.8,1.38c0.08,0.32,0,0.73-0.4,0.89c-1.86,0.16-3.96,0-5.9,0l-6.07,0.16
			C1.4,38.19,1,38.19,0.75,37.78c-0.16-0.41,0.16-0.73,0.49-0.89c1.46-0.57,3.48-0.32,4.29-1.94l0.24-1.38
			c0.08-8.75,0.57-17.42,1.54-25.84c-0.08-0.49,0-1.05-0.4-1.38C5.53,5.54,3.83,5.46,2.37,4.81c-0.16-0.16-0.16-0.49,0-0.73
			C3.1,3.6,4.07,3.84,4.96,3.76l5.82,0.08c0.65,0,1.13,0.41,1.54,0.89c3.32,7.05,6.39,14.26,9.71,21.3c0.16,0.16,0.24,0.49,0.57,0.4
			l0.32-0.49c2.59-6.97,5.18-13.93,7.68-20.98c0.49-1.22,1.7-1.46,2.91-1.3c2.43,0.16,4.69-0.16,7.04,0
			C40.71,3.76,40.96,3.92,41.04,4.17z"/>
		<path class="st0" d="M142.55,15.67c0.16,0.89-0.08,2.11,0.32,3c0.16,0.24,0.4,0,0.57-0.08c1.7-1.62,3.72-3.32,6.15-2.43
			c0.81,0.24,1.54,1.22,1.7,2.11c0.08,0.89-0.16,1.78-0.65,2.43c-0.49,0.57-1.21,0.89-1.94,0.89c-1.86,0-3.56-3.4-5.26-0.81
			c-0.4,0.49-0.49,1.05-0.57,1.7l-0.16,11.1c0.08,0.65,0.24,1.3,0.97,1.62c0.97,0.49,2.18,0.65,3.4,0.89
			c0.32,0.08,0.57,0.49,0.32,0.81l-0.4,0.32l-4.04-0.16l-7.12,0.57c-0.4,0-0.89,0-0.97-0.41c-0.08-0.73,0.73-0.73,1.13-0.97
			c0.65-0.16,1.38-0.41,1.86-1.05c0.32-0.73,0.4-1.54,0.4-2.43l0.16-9.72c0.16-1.46-0.81-2.59-2.02-3.24
			c-0.24-0.24-0.24-0.49,0-0.81c1.78-1.05,3.56-2.27,5.26-3.81C141.99,14.94,142.47,15.26,142.55,15.67z"/>
		<path class="st0" d="M160.92,26.28c-2.27,0.49-4.53,2.51-4.85,4.78c-0.16,1.3-0.08,2.67,1.05,3.56c0.49,0.32,1.05,0.49,1.7,0.41
			c0.97-0.32,2.18-0.89,2.51-2.03c0.49-1.94,0.73-4.13,0.4-6.24C161.64,26.44,161.24,26.28,160.92,26.28z M165.53,17.94
			c0.65,1.21,0.49,2.84,0.49,4.29l0.08,11.5c0.16,0.57,0.32,1.13,0.97,1.3c0.32,0.16,0.89,0,0.97,0.49
			c-0.24,0.89-1.13,1.54-1.86,1.78c-1.38,0.24-2.59-0.16-3.48-1.13c-0.48-0.32-0.73-1.3-1.46-0.97c-2.18,1.38-4.29,3.48-7.2,2.75
			c-1.21-0.41-2.18-1.62-2.43-2.92c-0.49-2.43,0.4-4.78,2.51-6.32c1.86-1.78,4.21-2.51,6.47-3.65c0.49-0.24,0.97-0.73,1.13-1.22
			c0.16-2.02,0.24-4.21-0.89-5.83c-0.89-0.81-2.18-0.81-3.24-0.65c-3.48,0.97-1.7,7.21-6.31,5.83c-0.41-0.24-0.57-0.73-0.49-1.21
			c0.89-3.08,4.13-5.43,7.04-6.08C160.59,15.26,163.83,15.42,165.53,17.94z"/>
		<path class="st0" d="M127.73,26.28c-2.26,0.49-4.53,2.51-4.85,4.78c-0.16,1.3-0.08,2.67,1.05,3.56c0.49,0.32,1.05,0.49,1.7,0.41
			c0.97-0.32,2.18-0.89,2.51-2.03c0.49-1.94,0.73-4.13,0.41-6.24C128.45,26.44,128.05,26.28,127.73,26.28z M132.34,17.94
			c0.65,1.21,0.49,2.84,0.49,4.29l0.08,11.5c0.16,0.57,0.32,1.13,0.97,1.3c0.32,0.16,0.89,0,0.97,0.49
			c-0.24,0.89-1.13,1.54-1.86,1.78c-1.38,0.24-2.59-0.16-3.48-1.13c-0.49-0.32-0.73-1.3-1.46-0.97c-2.18,1.38-4.29,3.48-7.2,2.75
			c-1.21-0.41-2.18-1.62-2.43-2.92c-0.49-2.43,0.4-4.78,2.51-6.32c1.86-1.78,4.21-2.51,6.47-3.65c0.49-0.24,0.97-0.73,1.13-1.22
			c0.16-2.02,0.24-4.21-0.89-5.83c-0.89-0.81-2.18-0.81-3.24-0.65c-3.48,0.97-1.7,7.21-6.31,5.83c-0.4-0.24-0.57-0.73-0.48-1.21
			c0.89-3.08,4.13-5.43,7.04-6.08C127.4,15.26,130.64,15.42,132.34,17.94z"/>
		<path class="st1" d="M50.1,26.93c-1.21,0.4-2.51,0.97-3.4,2.02c-1.21,1.3-1.7,3.32-1.13,5.02c0.32,0.65,0.89,1.46,1.7,1.46
			c1.38,0.16,2.59-0.57,3.24-1.7c0.57-1.94,0.57-4.21,0.49-6.32C50.91,27.01,50.5,26.85,50.1,26.93z M56.01,37.54
			c-1.05,0.49-2.51,0.32-3.4-0.32c-0.89-0.32-1.05-1.78-2.1-1.46c-2.35,1.54-5.02,3.89-8.01,2.19c-1.78-1.13-1.78-3.4-1.46-5.26
			c1.38-3.89,5.58-5.67,8.9-7.13c1.94-1.13,0.97-3.56,0.89-5.35c-0.16-0.97-0.89-1.86-1.86-2.19c-1.05-0.24-2.26-0.08-3.07,0.57
			c-1.78,1.7-1.29,5.75-4.77,5.35c-0.4-0.08-0.81-0.4-0.89-0.89c0.16-2.35,2.18-4.21,4.13-5.43c2.67-1.62,7.12-2.19,9.79,0.08
			c1.78,1.94,0.97,5.18,1.13,7.78l0.08,8.83c0.08,0.57,0.4,1.05,0.89,1.21c0.4,0,0.89,0.08,0.97,0.57c0,0.18-0.16,0.45-0.33,0.7
			C56.63,37.15,56.01,37.54,56.01,37.54z"/>
		<path class="st1" d="M57.65,36.49c1.32,0,2.39-1.05,3.44-2.19c1.7-1.7,3.48-3.56,4.61-5.51l-0.08-0.65
			c-1.78-2.75-3.4-5.59-5.66-8.1c-0.81-0.81-1.94-1.13-2.83-1.7c-0.08-0.16-0.32-0.49-0.08-0.65l0.4-0.24
			c3.07,0.16,5.82-0.24,8.9-0.08c0.4,0.08,0.81,0.08,1.05,0.49c0,1.13-2.18,0.89-1.46,2.27c0.97,1.54,1.86,3,2.91,4.46
			c0.16,0.24,0.49,0,0.65-0.08c0.97-1.62,2.75-3,2.75-4.94c-0.08-0.97-2.26-1.05-0.97-2.03c2.43-0.08,4.85,0.08,7.28-0.08
			c0.24,0,0.49,0.24,0.57,0.49c-0.24,1.21-1.7,0.89-2.51,1.46c-2.51,1.7-4.45,3.97-6.15,6.4c-0.24,1.54,1.05,2.67,1.78,3.89
			c1.7,2.19,3.07,4.54,5.26,6.48c1.7,0.49,3.64,0,5.02-0.97c0.57-0.73,0.49-1.78,0.65-2.67c-0.08-5.83,0.32-11.42,0.73-17.17
			c0.24-2.92,0.73-5.75,0.73-8.75c-0.57-1.46-2.35-1.22-3.56-1.7c-0.57-0.16-1.21-0.16-1.46-0.73c-0.08-0.32,0.16-0.57,0.4-0.73
			c2.67-0.16,5.58-0.08,8.25-0.08c0.57,0.16,1.21,0.49,1.46,1.05l9.71,21.3c0.08,0.16,0.32,0.49,0.57,0.32l0.24-0.32l7.77-21.14
			c0.24-0.49,0.73-1.05,1.38-1.21c2.1-0.16,4.29-0.08,6.55-0.24c0.81,0.16,2.1-0.32,2.59,0.57c0.08,0.32-0.16,0.65-0.48,0.73
			c-1.29,0.57-3.16,0.16-3.8,1.7c-0.08,9.32,0.16,18.31,0.24,27.7c0.08,0.57,0.32,1.13,0.89,1.54c0.97,0.49,2.1,0.81,3.24,1.13
			c0.32,0.16,0.24,0.65,0.16,0.89l-0.49,0.32c-4.53-0.16-9.14,0.16-13.59,0c-0.24,0-0.49-0.16-0.49-0.41
			c0.08-1.46,1.86-0.97,2.75-1.54c0.4-0.08,0.81-0.49,1.05-0.89c0.24-3.08,0.24-6.16,0.24-9.32c0.08-4.46-0.08-8.67-0.24-12.96
			c0-0.08-0.08-0.16-0.16-0.16c-0.49,0.32-0.57,1.05-0.89,1.54l-4.69,12.8c-0.07,0.33-0.17,0.46-0.32,0.89l-3.32,8.51
			c-0.24,0.32-0.32,0.89-0.81,0.97c-0.41,0.08-0.73-0.16-0.89-0.57c-3.07-7.94-6.47-15.8-9.95-23.57c-0.4-0.16-0.32,0.32-0.4,0.57
			c-0.49,6.8-0.49,13.93,0.08,20.9c0.89,1.7,2.91,1.62,4.53,2.03c0.32,0.24,0.41,0.65,0.32,0.97c-0.4,0.65-1.21,0.32-1.86,0.4
			c-5.58-0.24-11.24,0.16-16.99,0.08c-1.21-0.16-2.43,0.24-3.48-0.24c-0.24-0.16-0.24-0.49-0.16-0.73c0.4-0.65,1.38-0.73,1.38-1.54
			c0.08-1.05-0.73-1.62-1.13-2.51c-0.65-0.89-1.21-1.78-2.1-2.51c-0.32-0.08-0.57,0.08-0.81,0.24c-0.89,1.22-1.78,2.35-2.35,3.56
			c-0.16,0.4-0.24,0.89,0,1.29c0.32,0.81,1.78,0.97,1.38,2.03c-1.05,0.49-2.18,0.16-3.4,0.24l-4.41,0.16c-0.4,0-0.66-0.55-0.46-1.01
			C57.2,36.73,57.36,36.49,57.65,36.49z"/>
	</g>
</g>
</svg>
