<?xml version="1.0" encoding="utf-8"?>
<!-- Generator: Adobe Illustrator 24.1.3, SVG Export Plug-In . SVG Version: 6.00 Build 0)  -->
<svg version="1.1" id="Livello_1" xmlns="http://www.w3.org/2000/svg" xmlns:xlink="http://www.w3.org/1999/xlink" x="0px" y="0px"
	 viewBox="0 0 460.43 119.55" style="enable-background:new 0 0 460.43 119.55;" xml:space="preserve">
<style type="text/css">
	.st0{fill:#293240;}
</style>
<path class="st0" d="M76.01,20.43L62.8,48.22L46.87,20.43H18.34v10.8h7.25v52.46h-7.25v10.89h26.04V83.61h-6.83V54.23L57.54,88.8
	l19.54-42.99v37.73h-6.92v11.04h37.28V83.54h-7.34V31.23h7.19v-10.8H76.01z M111.95,31.38h7.66v52.16h-7.36v11.08h37.27V83.54h-7.34
	V31.23h7.49v-10.8h-37.72L111.95,31.38z M405.81,20.43v10.95h7.67v52.16h-7.36v11.08h37.27V83.54h-7.34V31.23h7.49v-10.8H405.81z
	 M304.18,17.71c-18.28,0-32.31,17.79-32.31,39.75c0,21.95,14.04,38.56,32.31,38.56c18.28,0,32.46-16.61,32.46-38.56
	C336.64,35.5,322.45,17.71,304.18,17.71 M304.33,82.03c-3.92,0-8.57-9.02-8.57-25.25c0-14.88,4.65-24.8,8.57-24.8
	s8.87,8.72,8.87,24.8C313.19,74.07,308.24,82.03,304.33,82.03 M375.27,31.23h7.36v22.28l-19.09-33.08h-26.18v10.8h6.8v52.19h-6.8
	V94.7h26.33V83.42h-7.66V53.51l22.5,41.19h15.97V31.23h6.92v-10.8h-26.15V31.23z M268.18,66.27c0,0-2.8-8.85-14.45-13.48
	c0,0-18.55-7.33-19.09-14.56c0,0-0.75-8.09,8.63-7.44c0,0,10.79,0.22,11,11.11v1.62h11.65v-23.2h-11.33v3.9
	c-4.66-4.91-12.51-6.24-16.17-6.34c-0.29-0.01-0.59-0.01-0.88-0.01h-0.1c-4.81,0.03-9.98,1.21-14.56,4.73c0,0-13.59,8.85-8.52,24.92
	c0,0,2.16,8.41,12.4,13.7c0,0,10.25,5.72,13.92,7.12c0,0,10.68,4.96,4.85,11.76c0,0-5.07,5.18-13.48-1.4c0,0-6.15-4.21-7.98-11
	h-9.28v26.86h10.79v-3.78c0,0,16.83,12.19,33.12,2.05C258.69,92.81,275.19,82.99,268.18,66.27 M207.77,66.27
	c0,0-2.8-8.85-14.45-13.48c0,0-18.55-7.33-19.09-14.56c0,0-0.75-8.09,8.63-7.44c0,0,10.79,0.22,11,11.11v1.62h11.65v-23.2h-11.33
	v3.9c-4.66-4.91-12.51-6.24-16.17-6.34c-0.29-0.01-0.59-0.01-0.88-0.01h-0.1c-4.81,0.03-9.98,1.21-14.56,4.73
	c0,0-13.59,8.85-8.52,24.92c0,0,2.16,8.41,12.4,13.7c0,0,10.25,5.72,13.92,7.12c0,0,10.68,4.96,4.85,11.76c0,0-5.07,5.18-13.48-1.4
	c0,0-6.15-4.21-7.98-11h-9.28v26.86h10.79v-3.78c0,0,16.83,12.19,33.12,2.05C198.28,92.81,214.79,82.99,207.77,66.27"/>
</svg>
