<?xml version="1.0" encoding="utf-8"?>
<!-- Generator: Adobe Illustrator 24.1.3, SVG Export Plug-In . SVG Version: 6.00 Build 0)  -->
<svg version="1.1" id="Layer_1" xmlns="http://www.w3.org/2000/svg" xmlns:xlink="http://www.w3.org/1999/xlink" x="0px" y="0px"
	 viewBox="0 0 516 128" style="enable-background:new 0 0 516 128;" xml:space="preserve">
<style type="text/css">
	.st0{fill:#293240;}
	.st1{fill-rule:evenodd;clip-rule:evenodd;fill:#293240;}
</style>
<path class="st0" d="M30,109.31V19h11.79l35.25,78.52L110.4,19h12.29v90.31h-7.65V27.03l-35.12,82.28h-5.89L37.78,28.78v80.52H30
	V109.31z M172.16,109.31V70.55L139.17,19h9.91l27.47,43.52L203.64,19h8.65l-31.98,50.92v39.38L172.16,109.31
	C172.16,109.3,172.16,109.31,172.16,109.31z M230.08,109.31V19h8.03v40.01L282.9,19h10.38l-46.29,41.26l50.06,49.04h-10.64
	l-48.3-47.41v47.41L230.08,109.31L230.08,109.31L230.08,109.31z M318.18,109.31V19h8.15v90.31H318.18z M373.26,109.31V26.27h-28.85
	V19h65.97v7.27h-28.72v83.03L373.26,109.31C373.26,109.3,373.26,109.31,373.26,109.31z M405.19,109.31L440.31,19h9.91l35.49,90.31
	h-8.91l-9.53-24.71h-44.15l-9.53,24.71H405.19z M425.51,77.82h39.26l-19.69-51.55L425.51,77.82z"/>
<path class="st0" d="M30,109.31h7.78V28.78l36.24,80.53h5.9l35.12-82.28v82.28h7.65V19H110.4L77.04,97.52L41.79,19H30V109.31z
	 M172.16,109.31h8.15V69.92L212.29,19h-8.65l-27.09,43.52L149.08,19h-9.91l32.99,51.55V109.31z M230.08,109.31h8.03V61.9l48.3,47.41
	h10.63l-50.05-49.05L293.28,19H282.9l-44.79,40.01V19h-8.03L230.08,109.31L230.08,109.31z M318.18,109.31h8.15V19h-8.15V109.31z
	 M373.26,109.31h8.4V26.27h28.72V19h-65.97v7.27h28.85V109.31z"/>
<path class="st1" d="M405.19,109.31h8.4l9.53-24.71h44.15l9.53,24.71h8.91L450.22,19h-9.91L405.19,109.31z M425.51,77.82
	l19.57-51.55l19.69,51.55H425.51z"/>
</svg>
