<?xml version="1.0" encoding="utf-8"?>
<!-- Generator: Adobe Illustrator 24.1.3, SVG Export Plug-In . SVG Version: 6.00 Build 0)  -->
<svg version="1.1" id="Layer_1" xmlns="http://www.w3.org/2000/svg" xmlns:xlink="http://www.w3.org/1999/xlink" x="0px" y="0px"
	 viewBox="0 0 119.21 27.09" style="enable-background:new 0 0 119.21 27.09;" xml:space="preserve">
<style type="text/css">
	.st0{fill:#293240;}
</style>
<g>
	<path class="st0" d="M1,4.68h2.67v1.3h0.04C4.38,4.9,5.49,4.4,6.75,4.4c3.21,0,4.65,2.6,4.65,5.5c0,2.73-1.5,5.28-4.49,5.28
		c-1.23,0-2.39-0.53-3.06-1.54H3.81v4.86H1V4.68L1,4.68z M8.59,9.82c0-1.62-0.65-3.3-2.45-3.3c-1.84,0-2.43,1.64-2.43,3.3
		s0.63,3.24,2.45,3.24C8,13.06,8.59,11.49,8.59,9.82L8.59,9.82z"/>
	<path class="st0" d="M15.96,3.1h-2.81V0.79h2.81L15.96,3.1L15.96,3.1z M13.16,4.68h2.81V14.9h-2.81V4.68L13.16,4.68z"/>
	<path class="st0" d="M20.49,10.48c0.08,1.78,0.95,2.59,2.51,2.59c1.13,0,2.04-0.69,2.21-1.32h2.47c-0.79,2.41-2.47,3.44-4.78,3.44
		c-3.22,0-5.22-2.22-5.22-5.38c0-3.07,2.12-5.4,5.22-5.4c3.48,0,5.16,2.93,4.96,6.07L20.49,10.48L20.49,10.48z M25.06,8.7
		c-0.25-1.43-0.87-2.18-2.23-2.18c-1.78,0-2.29,1.38-2.33,2.18H25.06L25.06,8.7z"/>
	<path class="st0" d="M29.53,4.68h2.67v1.89h0.04c0.52-1.28,1.9-2.18,3.26-2.18c0.2,0,0.43,0.04,0.61,0.1V7.1
		C35.85,7.04,35.44,7,35.1,7c-2.06,0-2.77,1.48-2.77,3.28v4.61h-2.81L29.53,4.68L29.53,4.68z"/>
	<path class="st0" d="M37.22,4.68h2.67v1.89h0.04c0.51-1.28,1.9-2.18,3.27-2.18c0.19,0,0.43,0.04,0.61,0.1V7.1
		C43.55,7.04,43.14,7,42.8,7c-2.05,0-2.77,1.48-2.77,3.28v4.61h-2.81V4.68L37.22,4.68z"/>
	<path class="st0" d="M46.87,10.48c0.08,1.78,0.95,2.59,2.51,2.59c1.13,0,2.04-0.69,2.21-1.32h2.47c-0.79,2.41-2.47,3.44-4.79,3.44
		c-3.22,0-5.22-2.22-5.22-5.38c0-3.07,2.12-5.4,5.22-5.4c3.48,0,5.16,2.93,4.96,6.07L46.87,10.48L46.87,10.48z M51.44,8.7
		c-0.25-1.43-0.87-2.18-2.23-2.18c-1.78,0-2.29,1.38-2.33,2.18H51.44L51.44,8.7z"/>
	<path class="st0" d="M68.36,8.28c-0.18-1.15-0.91-1.76-2.07-1.76c-1.8,0-2.39,1.82-2.39,3.32c0,1.46,0.57,3.22,2.33,3.22
		c1.31,0,2.06-0.83,2.24-2.07h2.71c-0.36,2.71-2.23,4.19-4.92,4.19c-3.08,0-5.16-2.18-5.16-5.24c0-3.18,1.9-5.54,5.22-5.54
		c2.42,0,4.63,1.27,4.81,3.88L68.36,8.28L68.36,8.28z"/>
	<path class="st0" d="M72.63,7.83c0.16-2.63,2.51-3.42,4.81-3.42c2.03,0,4.48,0.46,4.48,2.91v5.32c0,0.93,0.1,1.86,0.36,2.27h-2.85
		c-0.1-0.32-0.18-0.65-0.2-0.99c-0.89,0.93-2.2,1.26-3.44,1.26c-1.94,0-3.48-0.97-3.48-3.06c0-2.31,1.74-2.87,3.48-3.1
		c1.72-0.26,3.32-0.2,3.32-1.35c0-1.21-0.83-1.38-1.82-1.38c-1.07,0-1.76,0.44-1.86,1.54L72.63,7.83L72.63,7.83z M79.12,9.9
		c-0.47,0.42-1.46,0.44-2.33,0.6c-0.87,0.18-1.66,0.47-1.66,1.5c0,1.05,0.81,1.3,1.72,1.3c2.2,0,2.27-1.74,2.27-2.35L79.12,9.9
		L79.12,9.9z"/>
	<path class="st0" d="M84.1,4.68h2.67v1.89h0.04c0.51-1.28,1.9-2.18,3.26-2.18c0.2,0,0.43,0.04,0.61,0.1V7.1
		C90.42,7.04,90.01,7,89.67,7c-2.06,0-2.77,1.48-2.77,3.28v4.61h-2.8V4.68L84.1,4.68z"/>
	<path class="st0" d="M98.73,13.6h-0.04c-0.65,1.11-1.8,1.58-3.1,1.58c-3.08,0-4.59-2.65-4.59-5.48c0-2.75,1.52-5.3,4.53-5.3
		c1.21,0,2.39,0.52,3.04,1.52h-0.02h0.04V0.79h2.81V14.9h-2.67V13.6L98.73,13.6z M96.28,6.52c-1.84,0-2.47,1.58-2.47,3.26
		c0,1.6,0.73,3.28,2.47,3.28c1.85,0,2.41-1.62,2.41-3.3C98.69,8.1,98.1,6.52,96.28,6.52L96.28,6.52z"/>
	<path class="st0" d="M106.41,3.1h-2.81V0.79h2.81V3.1L106.41,3.1z M103.59,4.68h2.81V14.9h-2.81V4.68L103.59,4.68z"/>
	<path class="st0" d="M108.62,4.68h2.67V6.1h0.06c0.71-1.15,1.94-1.7,3.12-1.7c2.99,0,3.74,1.68,3.74,4.21v6.29h-2.81V9.13
		c0-1.68-0.49-2.51-1.8-2.51c-1.52,0-2.17,0.85-2.17,2.92v5.36h-2.81V4.68L108.62,4.68z"/>
	<path class="st0" d="M49.12,20.93h2.37c1.31,0,1.81,0.83,1.81,1.68s-0.51,1.69-1.81,1.69h-1.21v1.88h-1.16V20.93L49.12,20.93z
		 M50.27,23.4h0.9c0.54,0,1.02-0.12,1.02-0.79s-0.48-0.79-1.02-0.79h-0.9V23.4L50.27,23.4z"/>
	<path class="st0" d="M54.92,20.93h1.18l1.96,5.25h-1.2l-0.4-1.17H54.5l-0.41,1.17h-1.17L54.92,20.93L54.92,20.93z M54.8,24.15h1.36
		l-0.66-1.93h-0.02L54.8,24.15L54.8,24.15z"/>
	<path class="st0" d="M58.52,20.93h2.83c0.94,0,1.54,0.65,1.54,1.45c0,0.62-0.25,1.08-0.83,1.32v0.01c0.57,0.15,0.73,0.7,0.76,1.23
		c0.02,0.33,0.02,0.95,0.22,1.24h-1.15c-0.14-0.33-0.13-0.84-0.18-1.26c-0.08-0.55-0.29-0.79-0.88-0.79h-1.15v2.05h-1.16
		L58.52,20.93L58.52,20.93z M59.67,23.3h1.26c0.51,0,0.79-0.22,0.79-0.75c0-0.51-0.28-0.73-0.79-0.73h-1.26V23.3L59.67,23.3z"/>
	<polygon class="st0" points="63.83,20.93 64.98,20.93 64.98,26.18 63.83,26.18 	"/>
	<path class="st0" d="M66.79,24.43c0,0.7,0.55,0.97,1.16,0.97c0.4,0,1.02-0.12,1.02-0.66c0-0.57-0.78-0.66-1.56-0.87
		c-0.78-0.21-1.57-0.51-1.57-1.49c0-1.08,1.02-1.59,1.97-1.59c1.1,0,2.1,0.48,2.1,1.69h-1.12c-0.04-0.63-0.48-0.8-1.04-0.8
		c-0.37,0-0.79,0.15-0.79,0.6c0,0.41,0.25,0.46,1.57,0.79c0.38,0.1,1.56,0.34,1.56,1.53c0,0.96-0.75,1.68-2.18,1.68
		c-1.16,0-2.25-0.57-2.24-1.87h1.12V24.43z"/>
</g>
</svg>
