<?xml version="1.0" encoding="utf-8"?>
<!-- Generator: Adobe Illustrator 24.1.3, SVG Export Plug-In . SVG Version: 6.00 Build 0)  -->
<svg version="1.1" id="Layer_1" xmlns="http://www.w3.org/2000/svg" xmlns:xlink="http://www.w3.org/1999/xlink" x="0px" y="0px"
	 viewBox="0 0 612 147.96" style="enable-background:new 0 0 612 147.96;" xml:space="preserve">
<style type="text/css">
	.st0{fill:#293240;}
</style>
<path class="st0" d="M12.93,30.34h13.31v6.51h0.2c3.35-5.42,8.87-7.89,15.18-7.89c15.97,0,23.17,12.91,23.17,27.41
	c0,13.61-7.49,26.32-22.38,26.32c-6.11,0-11.93-2.66-15.28-7.69h-0.2v24.25h-14C12.93,99.25,12.93,30.34,12.93,30.34z M50.78,55.97
	c0-8.08-3.25-16.46-12.22-16.46c-9.17,0-12.12,8.18-12.12,16.46s3.15,16.17,12.22,16.17C47.82,72.13,50.78,64.25,50.78,55.97z
	 M87.55,22.45h-14V10.92h14V22.45z M73.55,30.34h14V81.3h-14V30.34z M110.13,59.22c0.39,8.87,4.73,12.91,12.52,12.91
	c5.62,0,10.15-3.45,11.04-6.6h12.32c-3.94,12.03-12.32,17.15-23.86,17.15c-16.07,0-26.03-11.04-26.03-26.81
	c0-15.28,10.55-26.91,26.03-26.91c17.35,0,25.73,14.59,24.74,30.26C146.89,59.22,110.13,59.22,110.13,59.22z M132.9,50.35
	c-1.28-7.1-4.34-10.84-11.14-10.84c-8.87,0-11.43,6.9-11.63,10.84H132.9z M155.18,30.34h13.31v9.46h0.2
	c2.56-6.41,9.46-10.85,16.26-10.85c0.99,0,2.17,0.2,3.06,0.49v13.01c-1.28-0.3-3.35-0.49-5.03-0.49c-10.25,0-13.8,7.39-13.8,16.36
	V81.3h-14L155.18,30.34L155.18,30.34z M193.52,30.34h13.31v9.46h0.2c2.56-6.41,9.46-10.85,16.26-10.85c0.99,0,2.17,0.2,3.06,0.49
	v13.01c-1.28-0.3-3.35-0.49-5.03-0.49c-10.25,0-13.8,7.39-13.8,16.36V81.3h-14L193.52,30.34L193.52,30.34z M241.65,59.22
	c0.4,8.87,4.73,12.91,12.52,12.91c5.62,0,10.15-3.45,11.04-6.6h12.32c-3.94,12.03-12.32,17.15-23.86,17.15
	c-16.07,0-26.03-11.04-26.03-26.81c0-15.28,10.55-26.91,26.03-26.91c17.35,0,25.73,14.59,24.74,30.26L241.65,59.22L241.65,59.22z
	 M264.42,50.35c-1.28-7.1-4.34-10.84-11.14-10.84c-8.87,0-11.43,6.9-11.63,10.84H264.42z M348.81,48.28
	c-0.89-5.72-4.54-8.77-10.35-8.77c-8.97,0-11.93,9.07-11.93,16.56c0,7.3,2.86,16.07,11.63,16.07c6.51,0,10.25-4.14,11.14-10.35
	h13.51c-1.77,13.51-11.14,20.9-24.55,20.9c-15.38,0-25.73-10.84-25.73-26.12c0-15.87,9.46-27.6,26.02-27.6
	c12.03,0,23.07,6.31,23.95,19.32h-13.69L348.81,48.28L348.81,48.28z M370.1,46.01c0.79-13.11,12.52-17.05,23.96-17.05
	c10.15,0,22.38,2.27,22.38,14.49v26.52c0,4.63,0.49,9.27,1.77,11.34h-14.2c-0.49-1.58-0.89-3.25-0.99-4.93
	c-4.44,4.63-10.95,6.31-17.16,6.31c-9.66,0-17.35-4.83-17.35-15.28c0-11.53,8.68-14.29,17.35-15.48c8.58-1.28,16.56-0.99,16.56-6.7
	c0-6.01-4.14-6.9-9.07-6.9c-5.32,0-8.77,2.17-9.27,7.69L370.1,46.01C370.1,46.02,370.1,46.01,370.1,46.01z M402.43,56.36
	c-2.36,2.07-7.3,2.17-11.63,2.96c-4.34,0.89-8.28,2.37-8.28,7.49c0,5.22,4.04,6.51,8.57,6.51c10.94,0,11.34-8.68,11.34-11.73V56.36z
	 M427.28,30.34h13.31v9.46h0.2c2.56-6.41,9.47-10.85,16.27-10.85c0.99,0,2.17,0.2,3.06,0.49v13.01c-1.28-0.3-3.35-0.49-5.03-0.49
	c-10.26,0-13.8,7.39-13.8,16.36V81.3h-14V30.34H427.28z M500.24,74.8h-0.2c-3.25,5.52-8.97,7.89-15.48,7.89
	c-15.38,0-22.87-13.21-22.87-27.31c0-13.7,7.59-26.42,22.58-26.42c6.01,0,11.93,2.56,15.18,7.59h-0.1h0.2V10.92h14V81.3h-13.31
	L500.24,74.8L500.24,74.8z M488.02,39.51c-9.17,0-12.32,7.89-12.32,16.27c0,7.98,3.65,16.36,12.32,16.36
	c9.27,0,12.03-8.08,12.03-16.46C500.04,47.39,497.09,39.51,488.02,39.51z M538.49,22.45h-14V10.92h14V22.45z M524.49,30.34h14V81.3
	h-14V30.34z M549.53,30.34h13.31v7.1h0.3c3.55-5.72,9.66-8.48,15.58-8.48c14.89,0,18.63,8.38,18.63,21V81.3h-14V52.52
	c0-8.38-2.47-12.52-8.97-12.52c-7.59,0-10.84,4.24-10.84,14.59V81.3h-14V30.34H549.53z M252.86,111.33h11.81
	c6.53,0,9.06,4.14,9.06,8.4c0,4.25-2.53,8.4-9.06,8.4h-6.05v9.39h-5.76L252.86,111.33L252.86,111.33z M258.62,123.65h4.47
	c2.68,0,5.06-0.59,5.06-3.92c0-3.34-2.38-3.93-5.06-3.93h-4.47V123.65z M281.76,111.33h5.9l9.79,26.18h-5.98l-1.98-5.83h-9.79
	l-2.05,5.83h-5.83C271.82,137.51,281.76,111.33,281.76,111.33z M281.21,127.4H288l-3.3-9.61h-0.07L281.21,127.4L281.21,127.4z
	 M299.73,111.33h14.12c4.69,0,7.66,3.27,7.66,7.22c0,3.08-1.24,5.39-4.14,6.56v0.07c2.83,0.73,3.63,3.48,3.81,6.13
	c0.11,1.65,0.08,4.73,1.1,6.2h-5.76c-0.7-1.65-0.62-4.18-0.92-6.27c-0.41-2.75-1.47-3.96-4.36-3.96h-5.76v10.23h-5.76v-26.18
	L299.73,111.33L299.73,111.33z M305.48,123.18h6.31c2.57,0,3.96-1.1,3.96-3.74c0-2.53-1.39-3.63-3.96-3.63h-6.31
	C305.48,115.81,305.48,123.18,305.48,123.18z M326.2,111.33h5.76v26.19h-5.76V111.33z M340.94,128.82c0,3.48,2.71,4.84,5.79,4.84
	c2.02,0,5.1-0.59,5.1-3.27c0-2.82-3.92-3.3-7.77-4.33c-3.89-1.03-7.81-2.53-7.81-7.45c0-5.35,5.06-7.92,9.79-7.92
	c5.46,0,10.49,2.38,10.49,8.44h-5.57c-0.18-3.15-2.42-3.96-5.17-3.96c-1.83,0-3.96,0.77-3.96,2.97c0,2.02,1.25,2.27,7.81,3.96
	c1.91,0.48,7.78,1.69,7.78,7.63c0,4.81-3.78,8.4-10.89,8.4c-5.8,0-11.22-2.86-11.15-9.32h5.56V128.82L340.94,128.82z"/>
</svg>
