<?xml version="1.0" encoding="utf-8"?>
<!-- Generator: Adobe Illustrator 24.1.3, SVG Export Plug-In . SVG Version: 6.00 Build 0)  -->
<svg version="1.1" id="Layer_1" xmlns="http://www.w3.org/2000/svg" xmlns:xlink="http://www.w3.org/1999/xlink" x="0px" y="0px"
	 viewBox="0 0 595.28 160" style="enable-background:new 0 0 595.28 160;" xml:space="preserve">
<style type="text/css">
	.st0{fill:#293240;}
</style>
<path class="st0" d="M63.8,44.28l14.77-14.76l14.76,14.77L78.56,59.05L63.8,44.28z"/>
<path class="st0" d="M80.93,61.41L95.7,46.65l14.76,14.77L95.69,76.18L80.93,61.41z"/>
<path class="st0" d="M98.05,78.54l14.77-14.76l14.76,14.76l-14.76,14.77L98.05,78.54z"/>
<path class="st0" d="M46.67,61.42l14.77-14.76L76.2,61.42L61.43,76.18L46.67,61.42z"/>
<path class="st0" d="M63.79,78.53l14.77-14.76l14.76,14.77L78.55,93.3L63.79,78.53z"/>
<path class="st0" d="M80.92,95.67l14.77-14.76l14.76,14.76l-14.76,14.77L80.92,95.67z"/>
<path class="st0" d="M29.53,78.54l14.76-14.77l14.77,14.76L44.3,93.3L29.53,78.54z"/>
<path class="st0" d="M46.66,95.67l14.77-14.76L76.2,95.67l-14.77,14.77L46.66,95.67z"/>
<path class="st0" d="M63.79,112.79l14.77-14.76l14.76,14.77l-14.77,14.76L63.79,112.79z"/>
<g>
	<path class="st0" d="M277.61,36.78h15.91v83.49h-15.91V36.78z M179.89,78.64c-2.75,1.68-6.22,2.63-11.13,2.63h-14.47V50.78h14.6
		c4.17,0,7.77,0.83,10.28,2.27c4.42,2.38,7.06,6.82,7.06,12.68C186.22,71.46,183.96,76.01,179.89,78.64 M188.5,40.62
		c-4.91-2.41-10.53-3.84-19.15-3.84h-31.34v83.49h16.27V95.26h15.06c7.42,0,13.52-1.31,19.03-4.18c8.37-4.43,14.7-12.54,14.7-25.48
		C203.09,54.37,198.07,45.39,188.5,40.62 M325.82,107.83c-6.35,0-10.42-2.5-10.42-7.77c0-7.9,6.94-9.45,13.03-9.45h14.12
		C342.32,100.53,336.81,107.83,325.82,107.83 M328.56,55.44c-8.5,0-14.84,1.56-23.34,4.92v15.78c8.14-4.67,14.71-7.66,22.73-7.66
		c10.17,0,14.36,4.79,14.48,10.88h-16.87c-13.74,0-26.19,6.47-26.19,21.31c0,10.88,7.66,20.7,23.32,20.7
		c8.62,0,14.47-3.84,19.63-9.09v8.01h15.67V81.51C357.98,64.9,346.85,55.44,328.56,55.44 M404.14,55.68
		c-9.8,0-15.06,2.37-21.05,8.96v-8.11h-15.78v63.74h15.78V88.21c0-11.96,5.27-17.46,21.05-17.46V55.68z M437.45,107.72
		c-10.52,0-17.35-8.62-17.35-19.28c0-10.64,6.83-19.25,17.35-19.25c10.53,0,17.23,8.6,17.23,19.25S447.74,107.72,437.45,107.72
		 M437.45,55.44c-19.62,0-33.6,14.85-33.6,33c0,18.91,14.47,32.91,33.6,32.91c19.14,0,33.49-14.24,33.49-32.91
		C470.94,69.91,456.83,55.44,437.45,55.44 M477.04,36.78h16.15v13.04h-16.15V36.78z M477.16,56.53h15.92v63.74h-15.92V56.53z
		 M532.89,107.72c-9.81,0-17.34-7.91-17.34-19.28c0-10.64,6.94-19.36,17.34-19.36c10.52,0,17.58,8.72,17.58,19.36
		C550.46,99.09,543.65,107.72,532.89,107.72 M549.86,36.78v27.75c-4.9-5.26-10.41-9.09-19.38-9.09c-19.13,0-31.2,15.31-31.2,33
		c0,17.6,11.95,32.91,31.2,32.91c8.6,0,14.47-3.84,19.63-9.09v8.01h15.67V36.78H549.86z M237.89,107.72
		c-10.41,0-17.34-8.5-17.34-19.28c0-10.64,6.82-19.25,17.34-19.25c10.53,0,17.23,8.6,17.23,19.25S248.18,107.72,237.89,107.72
		 M237.89,55.44c-19.61,0-33.61,14.85-33.61,33c0,18.91,14.48,32.91,33.61,32.91c19.15,0,33.48-14.24,33.48-32.91
		C271.37,70.02,257.38,55.44,237.89,55.44"/>
</g>
</svg>
