<?xml version="1.0" encoding="utf-8"?>
<!-- Generator: Adobe Illustrator 24.1.3, SVG Export Plug-In . SVG Version: 6.00 Build 0)  -->
<svg version="1.1" id="Layer_1" xmlns="http://www.w3.org/2000/svg" xmlns:xlink="http://www.w3.org/1999/xlink" x="0px" y="0px"
	 viewBox="0 0 1644.09 595.28" style="enable-background:new 0 0 1644.09 595.28;" xml:space="preserve">
<style type="text/css">
	.st0{fill:#293240;}
</style>
<path class="st0" d="M176.99,100.38c-11.81-20.47-25.98-32.28-51.18-32.28C99.43,68.1,76.6,87,76.6,114.16
	c0,25.59,26.38,37.4,46.45,46.45l19.69,8.67C181.32,186.2,214,205.5,214,252.74c0,51.97-41.73,91.73-93.31,91.73
	c-47.64,0-83.07-30.71-92.52-76.77l32.28-9.05c4.33,30.32,27.56,55.12,59.45,55.12s61.02-24.41,61.02-57.87
	c0-34.65-27.17-46.46-54.72-59.06l-18.11-7.87c-34.65-15.75-64.57-33.47-64.57-75.98c0-46.06,38.97-75.59,83.07-75.59
	c33.07,0,61.02,16.93,76.77,46.06L176.99,100.38L176.99,100.38z M376.98,255.1l-35.82,84.25h-36.22L441.95,28.33l133.46,311.02
	H538.8l-35.04-84.25L376.98,255.1L376.98,255.1z M441.16,105.49l-50.79,118.9h100.39C490.76,224.39,441.16,105.49,441.16,105.49z
	 M719.06,73.21v88.19h98.82v30.71h-98.82v147.24h-33.07V42.5h135.04v30.71C821.03,73.21,719.06,73.21,719.06,73.21z M973.97,339.35
	H940.9V42.5h33.07L973.97,339.35L973.97,339.35z M1147.71,308.64h81.89v30.71h-114.96V42.5h33.07V308.64L1147.71,308.64z
	 M1615.58,191.32c0,85.43-70.08,153.15-154.72,153.15c-84.65,0-154.73-67.72-154.73-153.15c0-85.04,70.08-153.93,154.73-153.93
	C1545.5,37.39,1615.58,106.28,1615.58,191.32 M1339.2,190.93c0,66.93,54.33,122.84,121.65,122.84c67.32,0,121.65-55.9,121.65-122.84
	c0-67.32-53.54-122.83-121.65-122.83C1392.74,68.09,1339.2,123.61,1339.2,190.93 M216.13,521.25h-0.17l-14.34,42.81h-8.34
	l23.94-67.57l14.18,51.07l30.35-51.07l2.54,67.57h-8.34l-0.79-42.81h-0.17l-26.43,44.19L216.13,521.25L216.13,521.25z
	 M297.99,547.81l-9.97,16.25h-8.68l41.65-67.57l20.25,67.57h-8.68l-4.82-16.25H297.99z M318.19,514.2l-15.67,26.22h23.04
	L318.19,514.2z M369.68,499.24h13.42c19.86,0,34.7,10.49,31.29,32.06c-3.5,22.09-21.35,32.76-41.81,32.76h-13.15L369.68,499.24
	L369.68,499.24z M368.67,556.67h2.84c16.51,0,31.76-6.19,34.74-25.02c2.99-18.91-10.31-25.02-26.82-25.02h-2.84L368.67,556.67
	L368.67,556.67z M443.45,499.24h34.82l-1.17,7.39h-26.74l-2.87,18.14h25.96l-1.17,7.39h-25.96l-3.88,24.5h26.74l-1.17,7.39h-34.82
	L443.45,499.24L443.45,499.24z M543.32,564.06h-8.08l10.26-64.82h8.08L543.32,564.06z M581.6,496.14l40.59,50.98l7.58-47.88h8.08
	l-10.69,67.48l-40.59-50.98l-7.65,48.31h-8.08L581.6,496.14L581.6,496.14z M704.45,564.06h-8.08l10.26-64.82h8.08L704.45,564.06z
	 M745.68,564.06h-8.08l9.09-57.43H731.3l1.17-7.39h38.86l-1.17,7.39h-15.39L745.68,564.06z M787.17,547.81l-9.97,16.25h-8.68
	l41.65-67.57l20.25,67.57h-8.68l-4.82-16.25H787.17L787.17,547.81z M807.37,514.2l-15.67,26.22h23.04L807.37,514.2z M858.18,556.67
	h19.69l-1.17,7.39h-27.77l10.26-64.82h8.08L858.18,556.67z M891.61,499.24h9.29l11.52,27.68l20.29-27.68H942l-26.95,36.62
	l-4.46,28.2h-8.08l4.46-28.2L891.61,499.24L891.61,499.24z M1004.41,499.24h13.41c19.86,0,34.7,10.49,31.28,32.06
	c-3.5,22.09-21.35,32.76-41.81,32.76h-13.15L1004.41,499.24L1004.41,499.24z M1003.4,556.67h2.84c16.51,0,31.76-6.19,34.74-25.02
	c2.99-18.91-10.31-25.02-26.82-25.02h-2.84L1003.4,556.67L1003.4,556.67z M1076.43,547.81l-9.97,16.25h-8.68l41.65-67.57
	l20.25,67.57H1111l-4.82-16.25H1076.43L1076.43,547.81z M1096.63,514.2l-15.67,26.22H1104L1096.63,514.2L1096.63,514.2z
	 M1147.44,556.67h19.69l-1.17,7.39h-27.77l10.26-64.82h8.08L1147.44,556.67L1147.44,556.67z M1242.28,506.63l5.64-7.39h14.53
	l-10.26,64.82h-7.74l9.09-57.43L1242.28,506.63L1242.28,506.63z M1291.31,561.39l20.97-23.3l-0.15-0.17
	c-2.04,0.95-4.23,1.2-6.47,1.2c-10.74,0-17.3-9.63-15.67-19.94c1.88-11.86,13-21.32,24.78-21.32c11.18,0,20.11,9.29,18.3,20.72
	c-1.02,6.45-5.18,12.04-9.76,17.11l-26.8,29.75L1291.31,561.39z M1325.33,518.66c1.09-6.88-4.04-13.58-11.09-13.58
	c-7.74,0-15.25,6.19-16.42,13.58c-1.23,7.74,4.9,13.58,11.6,13.58C1317.68,532.25,1324.21,525.71,1325.33,518.66 M1368.8,526.4
	c6.96,0,13.13-2.58,14.37-10.4c1.03-6.53-3.06-11.09-9.51-11.09c-5.84,0-10.47,3.7-12.21,9.28h-7.99
	c3.23-10.66,10.92-16.33,21.58-16.33c10.32,0,17.69,6.62,15.98,17.45c-1.01,6.36-4.58,11.52-10.57,14.62
	c5.88,3.01,7.76,9.11,6.65,16.08c-1.92,12.12-12.19,19.43-23.8,19.43c-10.14,0-18.2-6.71-17.02-17.37h7.82
	c-0.23,6.36,4.73,10.32,10.92,10.32c7.22,0,13.28-5.67,14.4-12.72c1.31-8.26-3.59-13.15-11.68-12.55L1368.8,526.4L1368.8,526.4z
	 M1450.89,547.55l-1.12,7.05h-7.4l-1.5,9.46h-7.74l1.5-9.46h-31.98l48.92-58.12l-8.09,51.07H1450.89L1450.89,547.55z
	 M1439.99,520.81h-0.17l-22.46,26.74h18.4L1439.99,520.81z"/>
</svg>
