<?xml version="1.0" encoding="utf-8"?>
<!-- Generator: Adobe Illustrator 24.1.3, SVG Export Plug-In . SVG Version: 6.00 Build 0)  -->
<svg version="1.1" id="Layer_1" xmlns="http://www.w3.org/2000/svg" xmlns:xlink="http://www.w3.org/1999/xlink" x="0px" y="0px"
	 viewBox="0 0 612 290" style="enable-background:new 0 0 612 290;" xml:space="preserve">
<style type="text/css">
	.st0{fill:#93C702;}
	.st1{fill:#293240;}
	.st2{fill:#FFFFFF;}
</style>
<polygon class="st0" points="606.75,200.2 72.2,200.2 3.88,280.13 538.44,280.13 "/>
<polygon class="st1" points="62.02,10.62 62.02,45.91 125.72,45.91 125.72,163.68 166.27,163.68 166.27,45.91 211.39,45.91 
	246.68,10.62 "/>
<polygon class="st1" points="508.06,10.62 508.06,122.82 412.02,10.62 364.66,58.02 364.66,163.68 406.67,163.68 406.67,69.05 
	492.8,163.68 548.61,163.68 548.61,10.62 "/>
<polygon class="st1" points="278.03,45.86 360.06,45.86 395.3,10.62 263.13,10.62 227.53,46.21 227.53,163.68 267.88,163.68 
	267.88,107.07 308.05,107.07 341.36,73.75 267.88,73.75 267.88,56.09 "/>
<path class="st2" d="M221.97,254.69c-2.4-1.3-4.29-3.1-5.66-5.4c-1.37-2.3-2.05-4.88-2.05-7.73c0-2.85,0.68-5.42,2.05-7.73
	c1.37-2.3,3.25-4.1,5.66-5.4c2.4-1.3,5.09-1.95,8.08-1.95c2.99,0,5.68,0.65,8.08,1.95c2.4,1.3,4.29,3.09,5.66,5.38
	c1.37,2.29,2.05,4.87,2.05,7.75c0,2.88-0.68,5.46-2.05,7.75c-1.37,2.29-3.25,4.08-5.66,5.38c-2.4,1.3-5.09,1.95-8.08,1.95
	C227.06,256.64,224.37,255.99,221.97,254.69z M235.33,250.55c1.56-0.88,2.79-2.11,3.68-3.68c0.89-1.58,1.34-3.34,1.34-5.3
	c0-1.95-0.45-3.72-1.34-5.3c-0.89-1.58-2.12-2.81-3.68-3.69c-1.57-0.88-3.32-1.32-5.28-1.32c-1.95,0-3.71,0.44-5.28,1.32
	c-1.56,0.88-2.79,2.11-3.68,3.69c-0.89,1.58-1.34,3.35-1.34,5.3c0,1.95,0.45,3.72,1.34,5.3c0.89,1.58,2.12,2.8,3.68,3.68
	c1.56,0.88,3.32,1.32,5.28,1.32C232,251.87,233.76,251.43,235.33,250.55z"/>
<path class="st2" d="M274.27,228.16c1.88,0.84,3.33,2.04,4.33,3.6c1,1.56,1.51,3.42,1.51,5.57c0,2.12-0.5,3.97-1.51,5.55
	c-1.01,1.58-2.45,2.78-4.33,3.62c-1.89,0.84-4.1,1.26-6.64,1.26h-6.62v8.46h-5.44v-29.31h12.06
	C270.17,226.91,272.38,227.33,274.27,228.16z M272.78,241.65c1.23-1,1.84-2.44,1.84-4.31c0-1.87-0.61-3.31-1.84-4.31
	c-1.23-1-3.03-1.51-5.4-1.51h-6.37v11.64h6.37C269.75,243.16,271.55,242.65,272.78,241.65z"/>
<path class="st2" d="M296.16,231.51h-9.72v-4.61h24.88v4.61h-9.72v24.71h-5.45V231.51z"/>
<path class="st2" d="M319.38,226.91h5.44v29.31h-5.44V226.91z"/>
<path class="st2" d="M342.25,254.69c-2.39-1.3-4.26-3.09-5.61-5.38c-1.36-2.29-2.03-4.87-2.03-7.75c0-2.87,0.68-5.46,2.05-7.75
	c1.37-2.29,3.25-4.08,5.63-5.38c2.39-1.3,5.06-1.95,8.02-1.95c2.4,0,4.59,0.42,6.58,1.26c1.98,0.84,3.65,2.05,5.03,3.64l-3.52,3.31
	c-2.12-2.29-4.73-3.43-7.83-3.43c-2.01,0-3.81,0.44-5.4,1.32c-1.59,0.88-2.83,2.1-3.73,3.67c-0.89,1.56-1.34,3.34-1.34,5.32
	c0,1.98,0.45,3.76,1.34,5.32c0.89,1.56,2.14,2.78,3.73,3.66c1.59,0.88,3.39,1.32,5.4,1.32c3.1,0,5.71-1.16,7.83-3.48l3.52,3.35
	c-1.37,1.59-3.05,2.81-5.05,3.64c-2,0.84-4.2,1.26-6.6,1.26C347.31,256.64,344.64,255.99,342.25,254.69z"/>
<path class="st2" d="M374.15,255.68c-2.11-0.64-3.78-1.5-5-2.56l1.88-4.23c1.2,0.95,2.67,1.72,4.42,2.33c1.75,0.6,3.5,0.9,5.25,0.9
	c2.18,0,3.81-0.35,4.88-1.05c1.07-0.7,1.61-1.62,1.61-2.77c0-0.84-0.3-1.53-0.9-2.07c-0.6-0.55-1.36-0.97-2.28-1.28
	c-0.92-0.31-2.18-0.66-3.77-1.05c-2.23-0.53-4.04-1.06-5.42-1.59c-1.38-0.53-2.57-1.36-3.56-2.49c-0.99-1.13-1.49-2.66-1.49-4.58
	c0-1.62,0.44-3.09,1.32-4.42c0.88-1.33,2.21-2.38,3.98-3.16c1.77-0.78,3.94-1.17,6.51-1.17c1.78,0,3.54,0.23,5.28,0.67
	c1.73,0.45,3.23,1.09,4.48,1.93l-1.72,4.23c-1.29-0.75-2.62-1.33-4.02-1.72c-1.4-0.39-2.75-0.58-4.06-0.58
	c-2.15,0-3.75,0.36-4.79,1.09c-1.05,0.73-1.57,1.69-1.57,2.89c0,0.84,0.3,1.52,0.9,2.05c0.6,0.53,1.36,0.95,2.28,1.26
	c0.92,0.31,2.18,0.66,3.77,1.05c2.18,0.5,3.96,1.03,5.36,1.57c1.4,0.55,2.59,1.38,3.58,2.49c0.99,1.12,1.49,2.63,1.49,4.52
	c0,1.62-0.44,3.09-1.32,4.4c-0.88,1.31-2.21,2.36-4,3.14c-1.79,0.78-3.96,1.17-6.54,1.17C378.45,256.64,376.26,256.32,374.15,255.68
	z"/>
</svg>
