<?xml version="1.0" encoding="utf-8"?>
<!-- Generator: Adobe Illustrator 24.1.3, SVG Export Plug-In . SVG Version: 6.00 Build 0)  -->
<svg version="1.1" id="Layer_1" xmlns="http://www.w3.org/2000/svg" xmlns:xlink="http://www.w3.org/1999/xlink" x="0px" y="0px"
	 viewBox="0 0 613.96 299.89" style="enable-background:new 0 0 613.96 299.89;" xml:space="preserve">
<style type="text/css">
	.st0{fill:#AFD805;}
	.st1{fill:#FFFFFF;}
</style>
<g>
	<polygon class="st0" points="608.41,204.77 73.86,204.77 5.54,284.7 540.1,284.7 	"/>
	<g>
		<polygon class="st1" points="63.68,15.19 63.68,50.48 127.38,50.48 127.38,168.25 167.93,168.25 167.93,50.48 213.05,50.48 
			248.35,15.19 		"/>
		<polygon class="st1" points="509.72,15.19 509.72,127.39 413.68,15.19 366.32,62.59 366.32,168.25 408.33,168.25 408.33,73.62 
			494.46,168.25 550.27,168.25 550.27,15.19 		"/>
		<polygon class="st1" points="279.69,50.43 361.72,50.43 396.96,15.19 264.79,15.19 229.19,50.78 229.19,168.25 269.54,168.25 
			269.54,111.63 309.71,111.63 343.02,78.32 269.54,78.32 269.54,60.66 		"/>
	</g>
	<g>
		<path class="st1" d="M223.63,259.26c-2.4-1.3-4.29-3.1-5.66-5.4c-1.37-2.3-2.05-4.88-2.05-7.73c0-2.85,0.68-5.42,2.05-7.73
			c1.37-2.3,3.25-4.1,5.66-5.4c2.4-1.3,5.09-1.95,8.08-1.95c2.99,0,5.68,0.65,8.08,1.95c2.4,1.3,4.29,3.09,5.66,5.38
			c1.37,2.29,2.05,4.87,2.05,7.75c0,2.88-0.68,5.46-2.05,7.75c-1.37,2.29-3.25,4.08-5.66,5.38c-2.4,1.3-5.09,1.95-8.08,1.95
			C228.73,261.21,226.03,260.56,223.63,259.26z M236.99,255.11c1.56-0.88,2.79-2.11,3.68-3.68s1.34-3.34,1.34-5.3
			c0-1.95-0.45-3.72-1.34-5.3c-0.89-1.58-2.12-2.81-3.68-3.69c-1.57-0.88-3.32-1.32-5.28-1.32c-1.95,0-3.71,0.44-5.28,1.32
			s-2.79,2.11-3.68,3.69c-0.89,1.58-1.34,3.34-1.34,5.3c0,1.95,0.45,3.72,1.34,5.3c0.89,1.58,2.12,2.8,3.68,3.68
			c1.56,0.88,3.32,1.32,5.28,1.32C233.67,256.43,235.42,256,236.99,255.11z"/>
		<path class="st1" d="M275.93,232.73c1.88,0.84,3.33,2.04,4.33,3.6c1,1.56,1.51,3.42,1.51,5.57c0,2.12-0.5,3.97-1.51,5.55
			c-1,1.58-2.45,2.78-4.33,3.62c-1.89,0.84-4.1,1.26-6.64,1.26h-6.62v8.46h-5.44v-29.31h12.06
			C271.83,231.48,274.04,231.89,275.93,232.73z M274.44,246.22c1.23-1,1.84-2.44,1.84-4.31c0-1.87-0.61-3.31-1.84-4.31
			c-1.23-1-3.03-1.51-5.4-1.51h-6.37v11.64h6.37C271.41,247.72,273.21,247.22,274.44,246.22z"/>
		<path class="st1" d="M297.82,236.08h-9.72v-4.61h24.88v4.61h-9.72v24.71h-5.45V236.08z"/>
		<path class="st1" d="M321.04,231.48h5.44v29.31h-5.44V231.48z"/>
		<path class="st1" d="M343.91,259.26c-2.39-1.3-4.26-3.09-5.61-5.38c-1.36-2.29-2.03-4.87-2.03-7.75c0-2.87,0.68-5.46,2.05-7.75
			c1.37-2.29,3.25-4.08,5.63-5.38c2.39-1.3,5.06-1.95,8.02-1.95c2.4,0,4.59,0.42,6.58,1.26c1.98,0.84,3.65,2.05,5.02,3.64
			l-3.52,3.31c-2.12-2.29-4.73-3.43-7.83-3.43c-2.01,0-3.81,0.44-5.4,1.32c-1.59,0.88-2.83,2.1-3.72,3.67
			c-0.89,1.56-1.34,3.34-1.34,5.32c0,1.98,0.45,3.76,1.34,5.32c0.89,1.56,2.14,2.78,3.72,3.66c1.59,0.88,3.39,1.32,5.4,1.32
			c3.1,0,5.71-1.16,7.83-3.48l3.52,3.35c-1.37,1.59-3.05,2.81-5.05,3.64c-2,0.84-4.19,1.26-6.6,1.26
			C348.97,261.21,346.3,260.56,343.91,259.26z"/>
		<path class="st1" d="M375.81,260.25c-2.11-0.64-3.78-1.5-5-2.56l1.88-4.23c1.2,0.95,2.67,1.72,4.42,2.33
			c1.75,0.6,3.5,0.9,5.26,0.9c2.18,0,3.81-0.35,4.88-1.05c1.07-0.7,1.61-1.62,1.61-2.77c0-0.84-0.3-1.53-0.9-2.07
			c-0.6-0.55-1.36-0.97-2.28-1.28c-0.92-0.31-2.18-0.66-3.77-1.05c-2.23-0.53-4.04-1.06-5.42-1.59c-1.38-0.53-2.57-1.36-3.56-2.49
			c-0.99-1.13-1.49-2.66-1.49-4.58c0-1.62,0.44-3.09,1.32-4.42c0.88-1.33,2.21-2.38,3.98-3.16c1.77-0.78,3.94-1.17,6.51-1.17
			c1.78,0,3.54,0.22,5.28,0.67c1.73,0.45,3.23,1.09,4.48,1.93l-1.72,4.23c-1.29-0.75-2.62-1.33-4.02-1.72
			c-1.4-0.39-2.75-0.58-4.06-0.58c-2.15,0-3.75,0.36-4.79,1.09c-1.05,0.73-1.57,1.69-1.57,2.89c0,0.84,0.3,1.52,0.9,2.05
			c0.6,0.53,1.36,0.95,2.28,1.26c0.92,0.31,2.18,0.66,3.77,1.05c2.18,0.5,3.96,1.03,5.36,1.57c1.4,0.55,2.59,1.38,3.58,2.49
			c0.99,1.12,1.49,2.63,1.49,4.52c0,1.62-0.44,3.09-1.32,4.4c-0.88,1.31-2.21,2.36-4,3.14c-1.79,0.78-3.96,1.17-6.53,1.17
			C380.11,261.21,377.92,260.89,375.81,260.25z"/>
	</g>
</g>
</svg>
