<?xml version="1.0" encoding="utf-8"?>
<!-- Generator: Adobe Illustrator 24.1.3, SVG Export Plug-In . SVG Version: 6.00 Build 0)  -->
<svg version="1.1" id="Logo" xmlns="http://www.w3.org/2000/svg" xmlns:xlink="http://www.w3.org/1999/xlink" x="0px" y="0px"
	 viewBox="0 0 212.6 25.51" style="enable-background:new 0 0 212.6 25.51;" xml:space="preserve">
<style type="text/css">
	.st0{fill-rule:evenodd;clip-rule:evenodd;fill:#293240;}
	.st1{fill:#293240;}
</style>
<path class="st0" d="M101.16,10.04h8.3v5.41h-8.3V10.04z"/>
<path class="st0" d="M92.87,7.36h16.59v2.69H92.87V7.36z M92.87,15.44h16.59v2.7H92.87V15.44z"/>
<path class="st1" d="M15.73,8.75H12v9.4h-1.55v-9.4H6.71V7.36h9.02C15.73,7.36,15.73,8.75,15.73,8.75z M27.2,7.22
	c3.56,0,5.81,2.53,5.81,5.54c0,2.91-2.18,5.54-5.84,5.54c-3.53,0-5.76-2.61-5.76-5.54C21.41,9.77,23.7,7.22,27.2,7.22z M27.2,16.87
	c2.42,0,4.21-1.76,4.21-4.11c0-2.37-1.79-4.11-4.21-4.11c-2.4,0-4.19,1.74-4.19,4.11C23,15.11,24.79,16.87,27.2,16.87z M50.34,18.15
	h-1.55v-8.4h-0.03l-3.32,4.18h-0.25l-3.32-4.18h-0.03v8.4h-1.55V7.36h1.46l3.58,4.43l3.59-4.43h1.44v10.79H50.34z M69.17,18.15
	h-1.55v-8.4h-0.03l-3.32,4.18h-0.25L60.7,9.75h-0.03v8.4H59.1V7.36h1.46l3.58,4.43l3.59-4.43h1.44V18.15z M83.58,7.36h1.87l-4,5.09
	v5.69H79.9v-5.71l-4-5.08h1.87l2.89,3.72C80.66,11.07,83.58,7.36,83.58,7.36z M127.38,18.15h-1.55v-4.7h-6.04v4.7h-1.55V7.36h1.55
	v4.7h6.04v-4.7h1.55V18.15z M135.36,18.15h-1.55V7.36h1.55V18.15z M143.27,16.76h4.87v1.39h-6.42V7.36h1.55V16.76z M158.35,8.75
	h-4.21v2.99h4.21v1.39h-4.21v5.01h-1.55V7.36h5.76L158.35,8.75L158.35,8.75z M165.33,18.15h-1.55V7.36h1.55V18.15z M180.09,17.41
	c-1.44,0.63-2.61,0.89-4.11,0.89c-3.31,0-5.74-2.31-5.74-5.47c0-3.18,2.5-5.6,5.79-5.6c1.27,0,2.15,0.21,3.84,0.92V9.7
	c-1.27-0.7-2.58-1.06-3.88-1.06c-2.34,0-4.16,1.79-4.16,4.13c0,2.4,1.8,4.1,4.37,4.1c0.84,0,1.6-0.19,2.34-0.43v-2.21h-2.07v-1.39
	h3.62L180.09,17.41L180.09,17.41z M192.11,8.75h-4.57v3.26h4.41v1.39h-4.41v3.35h4.71v1.39h-6.27V7.36h6.12v1.39H192.11z
	 M200.27,7.36c2.18,0,3.54,1.16,3.54,3.02c0,1.25-0.65,2.18-1.8,2.64c0.98,0.65,1.58,1.64,2.4,2.99c0.46,0.74,0.73,1.11,1.47,2.13
	h-1.85l-1.42-2.21c-1.42-2.21-2.07-2.47-2.86-2.47h-0.65v4.68h-1.55V7.36H200.27L200.27,7.36z M199.1,12.08h1
	c1.66,0,2.14-0.85,2.12-1.76c-0.02-1.01-0.62-1.63-2.12-1.63h-1V12.08z"/>
</svg>
