<?xml version="1.0" encoding="utf-8"?>
<!-- Generator: Adobe Illustrator 24.1.3, SVG Export Plug-In . SVG Version: 6.00 Build 0)  -->
<svg version="1.1" id="Слой_1" xmlns="http://www.w3.org/2000/svg" xmlns:xlink="http://www.w3.org/1999/xlink" x="0px" y="0px"
	 viewBox="0 0 595.28 39.89" style="enable-background:new 0 0 595.28 39.89;" xml:space="preserve">
<style type="text/css">
	.st0{fill-rule:evenodd;clip-rule:evenodd;fill:#293240;}
</style>
<path class="st0" d="M62.18,12.16h1.77l-7.33,16.08h-0.59L48.7,12.16h1.79l5.83,12.92L62.18,12.16z M84.54,28.09h1.64V12.16h-1.64
	V28.09z M107.51,20.1c0-4.76,3.75-8.09,8.26-8.09c2.77,0,5.1,1.23,6.55,3.16l-1.25,1c-1.08-1.57-2.92-2.6-5.29-2.6
	c-3.9,0-6.45,2.77-6.45,6.55s2.55,6.55,6.45,6.55c2.35,0,4.17-1.01,5.27-2.55l1.23,1.03c-1.45,1.89-3.75,3.09-6.5,3.09
	C111.22,28.24,107.51,24.86,107.51,20.1z M148.7,28.09h-1.64V13.66h-5.59v-1.5h12.82v1.5h-5.59L148.7,28.09L148.7,28.09z
	 M188.17,20.13c0-3.78-2.55-6.55-6.45-6.55s-6.45,2.77-6.45,6.55s2.55,6.55,6.45,6.55C185.62,26.67,188.17,23.9,188.17,20.13z
	 M173.46,20.13c0-4.68,3.65-8.12,8.26-8.12s8.26,3.43,8.26,8.12c0,4.73-3.73,8.11-8.26,8.11S173.46,24.86,173.46,20.13z
	 M216.22,13.65h-3.26v5.76h3.31c2.53,0,3.46-1.45,3.46-2.94C219.72,14.88,218.69,13.65,216.22,13.65L216.22,13.65z M217.79,20.76
	l5.15,7.33h-1.96l-5.05-7.18h-2.97v7.18h-1.64V12.16h5.35c2.42,0,4.78,1.3,4.78,4.31C221.44,18.31,220.31,20.22,217.79,20.76
	L217.79,20.76z M244.61,28.09h1.64V12.16h-1.64V28.09z M270.35,28.09h-1.79l7.36-16.08h0.58l7.33,16.08h-1.79l-5.83-12.92
	L270.35,28.09L270.35,28.09z M307.79,26.6h3.31c2.21,0,3.46-1.52,3.46-3.07c0-1.64-1.11-2.94-3.51-2.94h-3.26L307.79,26.6
	L307.79,26.6z M310.85,13.66h-3.06v5.44h2.87c1.69,0,3.28-0.91,3.28-2.77C313.94,14.56,312.52,13.66,310.85,13.66z M306.14,28.09
	V12.16h4.73c3.06,0,4.8,2.04,4.8,4.17c0,1.55-0.91,3.16-2.45,3.41c1.89,0.34,3.04,1.84,3.04,3.8c0,2.23-1.33,4.56-5.59,4.56
	L306.14,28.09C306.14,28.1,306.14,28.09,306.14,28.09z M349.76,28.09h-9V12.16h9v1.5h-7.35v5.44h6.81v1.49h-6.81v6.01h7.35V28.09z
	 M371.77,20.1c0-4.76,3.76-8.09,8.26-8.09c2.77,0,5.1,1.23,6.55,3.16l-1.25,1c-1.08-1.57-2.92-2.6-5.3-2.6
	c-3.9,0-6.45,2.77-6.45,6.55s2.55,6.55,6.45,6.55c2.35,0,4.17-1.01,5.27-2.55l1.23,1.03c-1.45,1.89-3.75,3.09-6.5,3.09
	C375.48,28.24,371.77,24.86,371.77,20.1z M420.73,28.09h-2.11l-7.25-7.74l-1.64,1.62v6.12h-1.64V12.16h1.64v7.65l7.72-7.65h2.16
	l-7.14,7.08L420.73,28.09z M455.06,28.09h-1.65v-7.5h-9.7v7.5h-1.65V12.16h1.65v6.94h9.7v-6.94h1.65V28.09z M478.3,28.09h-1.79
	l7.36-16.08h0.58l7.33,16.08h-1.79l-5.83-12.92L478.3,28.09L478.3,28.09z M521.33,25.08l5.56-13.07h0.59L534,28.09h-1.72l-5.1-12.85
	l-5.51,13.02h-0.61l-5.57-13.02l-5.1,12.85h-1.74l6.52-16.08h0.56L521.33,25.08z"/>
</svg>
