<svg version="1.1" id="Layer_1" x="0" y="0" viewBox="0 0 512 512" xml:space="preserve"><style>.st6{fill:#fff}</style><g id="PDF"><linearGradient id="SVGID_1_" gradientUnits="userSpaceOnUse" x1="-199.125" y1="-638.077" x2="-199.125" y2="-635.511" gradientTransform="matrix(8 0 0 8 1869 4848.724)"><stop offset="0" stop-color="#f3f7ff"/><stop offset=".99" stop-color="#b5d1ff"/></linearGradient><path d="M448 512H104c-4.42 0-8-3.58-8-8V8c0-4.42 3.58-8 8-8h261.3c2.12 0 4.16.84 5.66 2.34l82.7 82.7A7.99 7.99 0 01456 90.7V504c0 4.42-3.58 8-8 8z" fill="url(#SVGID_1_)"/><linearGradient id="SVGID_2_" gradientUnits="userSpaceOnUse" x1="-223.229" y1="-575.641" x2="-223.229" y2="-486.392" gradientTransform="matrix(8 0 0 8 1869 4848.724)"><stop offset="0" stop-color="#ff5252"/><stop offset="1" stop-color="#d50000"/></linearGradient><path d="M56 263.57l32-14.14 22.34 34.28H56v-20.14z" fill="url(#SVGID_2_)"/><linearGradient id="SVGID_3_" gradientUnits="userSpaceOnUse" x1="-200.125" y1="-611.519" x2="-200.125" y2="-452.114" gradientTransform="matrix(8 0 0 8 1869 4848.724)"><stop offset="0" stop-color="#f3f7ff"/><stop offset=".99" stop-color="#b5d1ff"/></linearGradient><path d="M440 512H96c-4.42 0-8-3.58-8-8V8c0-4.42 3.58-8 8-8h264.61L448 87.39V504c0 4.42-3.58 8-8 8z" fill="url(#SVGID_3_)"/><linearGradient id="SVGID_4_" gradientUnits="userSpaceOnUse" x1="-183.087" y1="-629.519" x2="-183.087" y2="-610.09" gradientTransform="matrix(8 0 0 8 1869 4848.724)"><stop offset="0" stop-color="#f3f7ff"/><stop offset=".99" stop-color="#b5d1ff"/></linearGradient><path d="M360.61 0v79.39c0 4.42 3.58 8 8 8H448l-39.2-47.2L360.61 0z" fill="url(#SVGID_4_)"/><linearGradient id="SVGID_5_" gradientUnits="userSpaceOnUse" x1="-206.229" y1="-573.572" x2="-206.229" y2="-521.139" gradientTransform="matrix(8 0 0 8 1869 4848.724)"><stop offset="0" stop-color="#ff5252"/><stop offset="1" stop-color="#d50000"/></linearGradient><path d="M368.18 420H70.16C62.34 420 56 413.67 56 405.86V277.71h312.18c7.82 0 14.16 6.34 14.16 14.16v113.97c0 7.82-6.34 14.16-14.16 14.16z" fill="url(#SVGID_5_)"/><linearGradient id="SVGID_6_" gradientUnits="userSpaceOnUse" x1="-224.625" y1="-589.769" x2="-224.625" y2="-562.431" gradientTransform="matrix(8 0 0 8 1869 4848.724)"><stop offset="0" stop-color="#ff5252"/><stop offset="1" stop-color="#d50000"/></linearGradient><path d="M88 249.43H70.14c-7.81 0-14.14 6.32-14.14 14.13v.01c0 7.81 6.32 14.14 14.13 14.14H88v-28.28z" fill="url(#SVGID_6_)"/><path class="st6" d="M120 376.28v-54.83c0-3.84 3.1-6.95 6.94-6.95h.01c10.62-.41 21.25-.06 31.82 1.03 8.82 2.56 14.62 10.96 13.88 20.11.65 9.72-5.84 18.47-15.33 20.67-7.04.84-14.12 1.17-21.21.98-1.23 0-2.23 1-2.23 2.23v16.75c0 3.83-3.11 6.94-6.94 6.94-3.83.01-6.94-3.1-6.94-6.93zm13.87-47.92v15.03c0 1.23 1 2.23 2.23 2.23 5.47.38 10.96.01 16.33-1.08 4.81-1.91 7.16-7.37 5.25-12.18a9.368 9.368 0 00-7.12-5.77 136.8 136.8 0 00-14.46-.47c-1.23 0-2.22 1.01-2.23 2.24.01 0 .01 0 0 0zM184 321.45c0-3.84 3.1-6.95 6.94-6.95h.01c10.51-.63 21.06-.19 31.49 1.31a25.927 25.927 0 0116.93 17.46 51.056 51.056 0 012.25 16.24c.11 4.96-.61 9.9-2.11 14.62a25.057 25.057 0 01-17.11 17.6 167.81 167.81 0 01-31.44 1.46c-3.83 0-6.93-3.09-6.94-6.92v-54.82H184zm13.87 6.91v41.05c0 1.23 1 2.23 2.23 2.23 5.52.3 11.05.08 16.52-.66 4.72-.99 8.37-4.75 9.23-9.5 1.06-4.11 1.54-8.34 1.41-12.58.15-4.12-.33-8.25-1.41-12.23-1.24-5.05-5.3-8.91-10.4-9.9-5.11-.56-10.25-.78-15.39-.66-1.22.03-2.2 1.03-2.19 2.25zM253.46 376.28v-54.83c0-3.84 3.11-6.95 6.95-6.95h34.34c3.21 0 5.82 2.6 5.82 5.82 0 3.21-2.6 5.81-5.81 5.81H269.6c-1.23 0-2.23 1-2.23 2.23V340.16c0 1.23.99 2.24 2.22 2.24H290.24c3.21 0 5.81 2.6 5.82 5.81 0 3.21-2.61 5.81-5.82 5.82H269.6c-1.23 0-2.23 1-2.23 2.23v20c0 3.83-3.11 6.94-6.94 6.94-3.84 0-6.96-3.09-6.97-6.92z"/></g></svg>