<?xml version="1.0" encoding="utf-8"?>
<!-- Generator: Adobe Illustrator 24.1.3, SVG Export Plug-In . SVG Version: 6.00 Build 0)  -->
<svg version="1.1" id="Layer_1" xmlns="http://www.w3.org/2000/svg" xmlns:xlink="http://www.w3.org/1999/xlink" x="0px" y="0px"
	 viewBox="0 0 595.28 261.79" style="enable-background:new 0 0 595.28 261.79;" xml:space="preserve">
<style type="text/css">
	.st0{fill:#13110C;}
</style>
<g>
	<path d="M256.53,66c1.79,3.64,2.86,4,10.8,4.42c-2.68,1.01-8.77,3.27-11.46,4.35c0.47,0.95,3.65,4.58,6.92,7.64
		c1.15,1.07,2.92,1.73,5.72,1.71c3.31-0.01,6.33-0.05,6.33-0.05s-5.36,4.53-7.09,6.03c3.52,2.11,6.08,3.64,8.65,4.95
		c3.44,1.76,5.02,1.2,11.1-2.39c-0.79,2.2-4.52,12.49-4.96,13.73h12.94l2.24-6.83c0,0,0.03,6.69,0,6.83h7.68
		c-0.03-0.15,0-6.83,0-6.83l2.23,6.83h13c-0.43-1.24-4.17-11.53-4.95-13.73c6.09,3.59,7.65,4.15,11.09,2.39
		c2.57-1.31,5.11-2.84,8.65-4.95c-1.74-1.5-7.1-6.03-7.1-6.03s3.01,0.04,6.34,0.05c2.79,0.01,4.57-0.65,5.71-1.71
		c3.27-3.06,6.45-6.69,6.92-7.64c-2.68-1.08-8.77-3.34-11.45-4.35c7.93-0.42,9.01-0.78,10.79-4.42c1.49-3.02,3.24-6.66,4.77-11.1
		c-4.18,0.24-9.84,0.78-13.04,0.76c4.44-3.26,8.02-4.63,8.43-8.07c0.9-7.26,1.08-16.15,1.08-16.15l-15.85,10.69
		c0,0,2.16-2.88,3.87-5.49c3.28-5.02,4.23-8.59-3.87-22.13c-0.29,0.46-8.07,13.48-8.04,13.49c2.24-6.34,2.88-10.9,1.95-13.86
		c-0.96-2.98-7.99-6.86-11.67-7.81c-0.02,0.59-3.43,34.49-3.43,34.49h-0.02c7.67,3.51,13.01,11.25,13.01,20.23
		c0,12.29-9.96,22.25-22.24,22.25c-12.29,0-22.24-9.96-22.24-22.25c0-8.97,5.32-16.71,12.97-20.22l0.02-0.01
		c0,0-3.41-33.9-3.43-34.49c-3.67,0.95-10.71,4.83-11.67,7.81c-0.94,2.96-0.29,7.52,1.94,13.86c0.03-0.01-7.8-13.15-8.02-13.49
		c-8.12,13.54-7.17,17.12-3.89,22.13c1.71,2.6,3.89,5.49,3.89,5.49l-15.86-10.69c0,0,0.18,8.89,1.07,16.15
		c0.42,3.44,3.99,4.81,8.44,8.07c-3.2,0.03-8.86-0.52-13.04-0.76C253.28,59.34,255.04,62.98,256.53,66"/>
	<path d="M301.23,78.67c6.85,0,8.59-1.98,8.59-1.98V66.3h8.28c1.44-7.99-0.72-13.29-1.32-14.3h-30.21
		c-0.61,1.01-2.77,6.31-1.33,14.3h8.17v10.39C293.42,76.69,294.38,78.67,301.23,78.67 M47.94,177.12h18.88
		c6.06,0,7.81-2.03,7.81-5.85c0-3.81-1.84-5.6-8.21-5.6H47.94V177.12L47.94,177.12z M66.19,154.45c5.5,0,7.41-0.9,7.41-4.86
		c0-3.44-1.59-4.94-7.33-4.94H47.94v9.8H66.19z M32.33,132.61h35.05c16.16,0,21.1,8,21.1,15.33c0,6.43-2.23,9.64-7.81,12.04
		c5.58,2.01,9.08,5.22,9.08,12.94c0,9.48-5.09,16.23-22.31,16.23H32.33V132.61L32.33,132.61z M108.33,132.61h52.02v11.13h-36.4
		v10.78h27.23v11.14h-27.23v12.12h37.84v11.38h-53.46L108.33,132.61z M179.89,132.61h15.61v44.88h31.85v11.67h-47.46L179.89,132.61z
		 M239.16,179.56l10.27-8.58c4.22,4.64,11.01,7.83,20.39,7.83c8.53,0,11.88-1.63,11.88-5.29c0-4.04-3.11-4.71-14.03-6.14
		c-11.88-1.56-26.29-3.95-26.29-18.09c0-12.12,10.37-17.73,25.98-17.73c13.54,0,21.67,3.45,27.96,9.73l-9.63,8.59
		c-2.72-3.28-8.29-6.95-17.76-6.95c-8.3,0-11.55,1.5-11.55,5.08c0,3.82,3.26,4.65,14.75,5.91c12.42,1.42,25.95,4.48,25.95,18.18
		c0,12.33-8.52,18.41-27,18.41C254.93,190.51,245.69,186.23,239.16,179.56 M309.51,144.28v-11.67h53.77v11.67h-18.56v44.88H329.1
		v-44.88H309.51z"/>
	<path class="st0" d="M399.77,146l-8.21,21.69h16.41L399.77,146z M383.45,189.16h-15.14l22.78-56.54h18.65l22.93,56.54h-16.49
		l-3.98-10.55h-24.77L383.45,189.16L383.45,189.16z"/>
	<path d="M448.54,132.61h52.01v11.13h-36.4v12.28h28.83v11.14h-28.83v22h-15.61L448.54,132.61z M518.81,132.61h52.01v11.13h-36.41
		v12.28h28.85v11.14h-28.85v22h-15.6L518.81,132.61z M200.87,226.51h22.24v5.07h-15.57v4.9h11.65v5.08h-11.65v5.51h16.18v5.18
		h-22.85V226.51z M225.69,226.51h7.6l6.16,9.46l5.79-9.46h7.01l-9.77,14.98v10.76h-6.67v-10.82L225.69,226.51z M254.84,226.51h22.24
		v5.07h-15.57v4.9h11.65v5.08h-11.65v5.51h16.18v5.18h-22.85L254.84,226.51z M280.45,226.51h7.19l4.56,18.15l5.01-18.15h5.55
		l5.37,18.45l4.33-18.45H319l-6.98,25.74h-7.84l-4.35-16.18l-4.43,16.18h-7.8L280.45,226.51z M322.37,226.51h22.24v5.07h-15.56v4.9
		h11.64v5.08h-11.64v5.51h16.17v5.18h-22.85V226.51z M354.45,252.25h-6.47l9.74-25.74h7.97l9.81,25.74h-7.05l-1.71-4.8h-10.59
		L354.45,252.25z M361.43,232.6l-3.51,9.88h7.02L361.43,232.6L361.43,232.6z M0,0"/>
</g>
</svg>
