<svg version="1.1" id="Livello_1" xmlns="http://www.w3.org/2000/svg" x="0" y="0" viewBox="0 0 498.55 127.96" xml:space="preserve"><style>.st0{fill:#cd1719}</style><path class="st0" d="M18.42 95.74v13.73h10.34v-2.68h-7.38v-2.87h6.4v-2.7h-6.4v-2.78h7.28v-2.7zM54.59 95.74l-3.31 5.52-3.23-5.52h-3.5l5.23 8.33v5.4h2.99v-5.46l5.21-8.27zM74.38 95.74v13.73h10.36v-2.68h-7.38v-2.87h6.4v-2.7h-6.4v-2.78h7.28v-2.7zM109.94 95.71l-3.05 9.34-2.82-9.31h-3.19l4.64 13.84h2.6l3.06-8.98 3.07 8.98h2.61l4.63-13.84h-3.13l-2.81 9.31-3.04-9.34zM138.24 95.74v13.73h10.35v-2.68h-7.38v-2.87h6.4v-2.7h-6.4v-2.78h7.28v-2.7zM170.44 95.65l-5.82 13.82h3.05l1.24-3.07h5.74l1.25 3.07h3.13l-5.82-13.82h-2.77zm1.33 3.63l1.81 4.45h-3.62l1.81-4.45zM195.65 95.74h6.22c1.72 0 3.06.49 3.95 1.39.77.77 1.17 1.85 1.17 3.14v.04c0 2.22-1.19 3.62-2.91 4.26l3.32 4.9h-3.5l-2.91-4.4h-2.35v4.4h-2.99V95.74zm6.01 6.68c1.46 0 2.3-.79 2.3-1.95v-.04c0-1.29-.9-1.96-2.35-1.96h-2.97v3.95h3.02zM243.65 107.48l1.76-2.15c1.23 1.02 2.51 1.67 4.06 1.67 1.22 0 1.95-.49 1.95-1.29v-.04c0-.76-.46-1.15-2.72-1.74-2.74-.71-4.51-1.47-4.51-4.2v-.04c0-2.49 1.98-4.14 4.75-4.14 1.98 0 3.67.62 5.05 1.74l-1.55 2.28c-1.2-.84-2.38-1.36-3.54-1.36-1.14 0-1.74.54-1.74 1.21v.04c0 .9.57 1.19 2.92 1.8 2.76.73 4.31 1.72 4.31 4.12v.04c0 2.73-2.05 4.26-4.99 4.26-2.05 0-4.12-.73-5.75-2.2M271.67 95.74h3v13.73h-3zM301.72 95.74v8.46l-6.36-8.46h-2.77v13.73h2.96v-8.72l6.57 8.72h2.54V95.74zM321.86 102.65v-.04c0-3.9 2.92-7.11 7.09-7.11 2.56 0 4.09.87 5.35 2.13l-1.89 2.22c-1.05-.97-2.12-1.56-3.48-1.56-2.28 0-3.94 1.93-3.94 4.28v.04c0 2.36 1.61 4.32 3.94 4.32 1.55 0 2.51-.63 3.57-1.61l1.91 1.94c-1.4 1.52-2.96 2.46-5.57 2.46-4.01 0-6.98-3.12-6.98-7.07M351.33 95.74v13.73h10.34v-2.68h-7.38v-2.87h6.41v-2.7h-6.41v-2.78h7.28v-2.7zM401.96 95.65l-3.9 1.17.62 2.47 2.36-.58v10.76H404V95.65zM421.71 108.09l1.58-2.3c.99.81 1.82 1.17 2.96 1.17 1.68 0 2.56-1.27 2.76-3.11-.66.57-1.57.94-2.76.94-2.95 0-4.85-1.65-4.85-4.43v-.04c0-2.77 2.12-4.81 5.18-4.81 1.83 0 2.89.45 3.92 1.49.97.98 1.61 2.48 1.61 5.18v.04c0 4.46-2.08 7.49-5.94 7.49-1.97 0-3.3-.66-4.46-1.62m7.37-7.86v-.04c0-1.21-.9-2.09-2.39-2.09-1.47 0-2.31.86-2.31 2.08v.04c0 1.22.89 2.06 2.37 2.06 1.47 0 2.33-.87 2.33-2.05M448.44 107.66l1.81-2.18c1.02.94 2.04 1.49 3.25 1.49 1.39 0 2.26-.69 2.26-1.9v-.04c0-1.18-.99-1.87-2.41-1.87-.85 0-1.63.23-2.27.51l-1.72-1.17.39-6.77h8.34v2.64h-5.78l-.16 2.38c.55-.14 1.03-.23 1.79-.23 2.64 0 4.75 1.29 4.75 4.4v.03c0 2.9-2.03 4.75-5.16 4.75-2.17.02-3.77-.77-5.09-2.04M477.04 108.24c-1-1-1.61-2.48-1.61-5.2V103c0-4.23 1.9-7.5 5.95-7.5 1.84 0 3.04.55 4.24 1.52l-1.56 2.33c-.9-.69-1.61-1.1-2.78-1.1-1.68 0-2.54 1.37-2.73 3.18.68-.45 1.47-.88 2.81-.88 2.7 0 4.77 1.51 4.77 4.38v.04c0 2.8-2.23 4.75-5.18 4.75-1.76 0-2.97-.51-3.91-1.48m6.12-3.13v-.04c0-1.15-.89-2.01-2.37-2.01-1.47 0-2.32.83-2.32 1.99v.03c0 1.17.89 2.05 2.37 2.05 1.47 0 2.32-.84 2.32-2.02M468.28 17.59c12.48 45.99 17.5 63.95 17.75 64.9h-19.4L464 73.62h-28.27l-6.07 8.87h-22.52c-22.03 0-30.9-14.65-23.18-36.29h8.38c4.44 0 6.57-1.87 7.9-5.96 1.16-3.57.64-6.13-5.58-6.13h-13.33l-17.74 48.38h-89.42c-22 0-30.88-14.65-23.17-36.29h8.38c4.43 0 6.58-1.87 7.9-5.96 1.14-3.57.65-6.13-5.6-6.13h-13.29l-17.75 48.38H202.5c-22 0-30.87-14.65-23.16-36.29h8.39c4.43 0 6.58-1.87 7.9-5.96 1.13-3.57.65-6.13-5.58-6.13h-13.32l-17.75 48.38H128.9l-2.61-8.87h-28.3l-6.09 8.87H52.47c-24.16 0-39.28-8.87-32.37-36.8 4.26-17.38 18.07-28.1 41.92-28.1h28.92l-6.09 16.68H62.33c-7.39 0-18.41 1.2-21.7 14.14-2.78 11.41-.17 17.04 15.46 17.04h25.8l30.72-47.86h18.26l12.8 48.38 19.07-48.38h24.16c10.19 0 17.27 0 23.17 3.58 6.74 4.25 8.72 11.92 6.43 19.08-.84 2.73-3.45 7.84-5.61 10.22-6.39 6.97-13.79 7.83-16.26 7.83-.51 6.81 3.12 7.67 10.19 7.67h11.5l18.09-48.38h24.14c10.2 0 17.26 0 23.18 3.58 6.74 4.25 8.72 11.92 6.4 19.08-.8 2.73-3.45 7.84-5.58 10.22-6.41 6.97-13.79 7.83-16.27 7.83-.5 6.81 3.12 7.67 10.18 7.67h12.35l18.07-48.38h48.81l-6.23 16.18h-28.27l-3.46 9.02h23.99l-5.07 14.47h-23.7l-3.29 8.71h39.62l18.07-48.38h24.16c10.19 0 17.27 0 23.18 3.58 6.72 4.25 8.7 11.92 6.4 19.08-.83 2.73-3.45 7.84-5.58 10.22-6.42 6.97-13.81 7.83-16.28 7.83-.48 6.81 3.13 7.67 10.2 7.67h10.19l31.55-48.38h17.11zM105.55 60.51h18.89L119.2 39.9h-1.33l-12.32 20.61zm337.75 0h18.89l-5.25-20.62h-1.33L443.3 60.51z"/></svg>