<svg xmlns="http://www.w3.org/2000/svg" viewBox="0 0 242.2 64.09"><path d="M14.85 37.42c0 12.02 9.6 18.5 18.62 18.5 8.12 0 13.14-5.2 14.3-6.54.17-.19.36-.44.36-.44l-3.63-3.98s-.23.29-.42.48c-1.05 1.1-5.07 4.83-10.95 4.83-7.13 0-12.29-5.47-12.29-12.98 0-6.76 4.26-13.58 12.39-13.58 4.96 0 8.35 3.07 9.39 4.15.24.23.48.54.48.54l4.02-3.7s-.23-.31-.46-.57c-1.26-1.45-5.83-6.01-13.47-6.01-8.88 0-18.34 6.77-18.34 19.3zM160.27 18.88h-2.02v36.03h5.99V30.6c.65.68 23.77 24.5 23.77 24.5h1.93V18.96h-6.11v23.88c-.66-.68-23.46-23.96-23.46-23.96h-.1zM228.85 19.01h-18.19v35.94h19.9v-5.42h-14.19V38.07h10.4v-5.46h-10.4v-8.15h12.68v-5.45h-.2zM105.19 19.01H99.7v35.94h18.06v-5.64h-12.38v-30.3h-.19zM137.23 19.01h-5.29v35.94h5.49V19.01zM80.94 19.01H62.76v35.94h19.89v-5.42H68.46V38.07h10.41v-5.46H68.46v-8.15h12.68v-5.45h-.2zM74.96 5.93l-8.32 6.16 2.25 2.9 8.99-5.31-2.76-3.86z"/></svg>