<svg version="1.1" id="Слой_1" xmlns="http://www.w3.org/2000/svg" x="0" y="0" viewBox="0 0 595.28 125.89" xml:space="preserve"><style>.st0{fill:#292824}</style><path class="st0" d="M127.01 12.1H66.94c-.09 0-1.61.06-1.61.06-.78 0-1.59.35-1.59 1.12 0 .62.72 1.13 1.6 1.13 8.24 0 11.19 3.18 11.19 9.25v75.82c0 6.07-2.93 9.25-11.18 9.25-1.1 0-1.6.79-1.6 1.41 0 .77.8 1.12 1.58 1.12h61.95c73.53.02 72.46-99.16-.27-99.16m-1.32 94.68h-10.45c-6.95-.48-9.73-3.82-9.73-9.52V15.95h19.9c11.19 0 20.52 8.63 20.52 19.13v52.57c0 10.5-9.05 19.13-20.24 19.13M264.66 111.37c3.39.13 3.08-2.63.54-2.63-7.93 0-10.86-3.19-10.86-9.25l-.05-75.55c0-6.07 2.94-9.25 11.19-9.25 2.01 0 2.71-2.93-.84-2.78h-50.26c-3.55-.15-2.85 2.78-.84 2.78 8.24 0 11.19 3.18 11.19 9.25l-.05 75.55c0 6.07-2.93 9.25-10.86 9.25-2.54 0-2.86 2.75.54 2.63h50.3zM374.29 111.37c4.56.28 3.73-2.63 1.76-2.63-8.24 0-11.19-3.19-11.19-9.25 0 0-.01-71.44 0-71.67.41-5.32 2.22-9.13 8.77-11.72 16.91 2.68 30.14 9.93 38.52 17.09v-3.51L397.97 11.9h-95.88l-14.18 17.78v3.51c8.37-7.16 21.61-14.41 38.52-17.09 6.55 2.59 8.36 6.4 8.77 11.72.01.23 0 71.67 0 71.67 0 6.07-2.95 9.25-11.19 9.25-1.96 0-2.82 2.85 1.76 2.63h48.52zM546.37 108.75c-6.72 0-10-2.5-13.95-8.37L478.95 12H437c-2.41 0-2.03 2.24-.4 2.24 2.51 0 5.03.4 6.92 1.33 5.02 2.45 8 6.23 11.99 12.24l3.18 5.31s-32.43 63.1-32.73 63.65c-2.29 4.24-4.18 7.18-6.26 9.16-1.64 1.56-4.2 2.81-8.11 2.81-1.88 0-2.75 2.63 1.04 2.63H437c.83 0 1.28-.01 1.95-.1 1.68-.24 1.99-2.46-.34-2.52-4.47-.13-8.46-4.37-4.28-13.13.08-.18 7.93-16.39 7.93-16.39h45.33c2.79 5.24 6.94 12.27 9.73 17.89.41.88.82 1.68 1.18 2.43 2.5 6.06-1.27 9.16-6.25 9.19-2.02.01-2.59 2.63.71 2.63h53.23c2.42 0 2.35-2.62.18-2.62m-82.51-70.18l20.81 35.23h-39.41l18.6-35.23z"/></svg>