<svg version="1.1" id="Слой_1" xmlns="http://www.w3.org/2000/svg" x="0" y="0" viewBox="0 0 417 135.89" xml:space="preserve"><style>.st0{fill-rule:evenodd;clip-rule:evenodd;fill:#171816}</style><path class="st0" d="M46.64 14.46H12v101.52h43.08c27.44 0 47.06-19.12 47.06-49.28 0-37.29-24.09-52.24-55.5-52.24z"/><path d="M48.13 85.56h-2.11V46.24h2.11c12.42 0 19.99 6.06 19.99 20.33 0 13.33-8.69 18.99-19.99 18.99z" fill-rule="evenodd" clip-rule="evenodd" fill="#fff"/><path class="st0" d="M169.84 63.88l29.3-49.42h-37.12l-16.39 32.58c-1.86 3.64-3.97 7.27-4.72 11.44h-.75l.75-44.03h-33.15v101.52h33.15l-.75-42.55h.75c.75 4.18 3.73 7.94 5.71 11.85l16.14 30.7h39.48l-32.4-52.09zM209.99 14.46h32.65l30.54 56.28h.99c-1.37-8.48-2.86-17.23-2.86-25.85V14.46h32.53v101.52h-32.53L241.4 62.66h-.99c1.12 7 2.11 13.6 2.11 20.33v32.99h-32.53V14.46zM348.53 14.46l10.43 26.53h.99c.99-3.23 1.86-6.46 3.11-9.56l6.7-16.96H408l-32.03 57.77V116h-33.28V72.22l-32.65-57.77h38.49v.01z"/></svg>