<svg version="1.1" id="Layer_1" xmlns="http://www.w3.org/2000/svg" x="0" y="0" viewBox="0 0 396 126" xml:space="preserve"><style>.st0{fill:#2c2524}</style><path class="st0" d="M369.32 116.36c-2.46 0-4.46-2-4.46-4.46V13.03c0-2.46 2-4.46 4.46-4.46h9.81c2.46 0 4.46 2 4.46 4.46v98.87c0 2.46-2 4.46-4.46 4.46h-9.81zM170.26 20.31c0 2.46-2 4.46-4.46 4.46h-49.97v28.01h42.85c2.46 0 4.46 2 4.46 4.46v7.2c0 2.46-1.99 4.46-4.46 4.46h-42.85v30.84h49.79c2.46 0 4.46 2 4.46 4.46v7.71c0 2.46-1.99 4.46-4.46 4.46h-64.86c-2.46 0-4.46-2-4.46-4.46V13.03c0-2.46 1.99-4.46 4.46-4.46h65.04c2.46 0 4.46 2 4.46 4.46v7.28zM13 13.03c0-2.46 2-4.46 4.46-4.46h64.68c2.46 0 4.46 2 4.46 4.46v7.17c0 2.46-2 4.46-4.46 4.46h-50.7v27.88h34.21c2.46 0 4.46 2 4.46 4.46v7.76c0 2.46-2 4.46-4.46 4.46H31.43v42.69c0 2.46-1.99 4.46-4.46 4.46h-9.52c-2.46 0-4.46-2-4.46-4.46V13.03zM201.59 43.9v68c0 2.46-2 4.46-4.46 4.46h-9.82c-2.46 0-4.46-2-4.46-4.46V13.03c0-2.46 2-4.46 4.46-4.46h9.74c3.2 0 4.89.5 6.18 2.88l37.91 68.53V13.03c0-2.46 1.99-4.46 4.46-4.46h9.67c2.46 0 4.46 2 4.46 4.46v98.87c0 2.46-2 4.46-4.46 4.46h-9.37c-3.2 0-4.89-.5-6.18-2.88L201.59 43.9zM301.71 8.57h-23.07c-2.46 0-4.46 2-4.46 4.46v98.87c0 2.46 2 4.46 4.46 4.46h23.07c42.37 0 51.26-29.04 51.26-53.39 0-33.05-20.12-54.4-51.26-54.4zm3.98 91.63H292.9V24.87h8.5c21.07 0 33.65 14.27 33.65 38.17.01 25.63-17.17 37.16-29.36 37.16z"/></svg>