<svg version="1.1" id="Слой_1" xmlns="http://www.w3.org/2000/svg" xmlns:xlink="http://www.w3.org/1999/xlink" x="0" y="0" viewBox="0 0 198.07 40.09" xml:space="preserve"><style>.st2{clip-path:url(#SVGID_6_)}.st3{clip-path:url(#SVGID_8_)}</style><defs><path id="SVGID_1_" d="M399.71 577.97V-17.31H-19.81v595.28"/></defs><clipPath id="SVGID_2_"><use xlink:href="#SVGID_1_" overflow="visible"/></clipPath><path d="M21.14 21.85h-5.23v-3.4h9.07v11.59h-1.82l-.88-2.67c-1.64 2.05-4.05 3.26-6.99 3.26-6.02 0-9.6-4.35-9.6-11.16 0-6.78 4.2-11.21 10.27-11.21 4.08 0 7.34 1.97 8.63 5.52l-3.2 1.85c-.82-2.47-2.67-3.96-5.52-3.96-4.26 0-6.22 3.2-6.22 7.81 0 4.49 1.88 7.87 6.08 7.81 2.49-.03 4.7-1.64 5.4-4.32v-1.12z" clip-path="url(#SVGID_2_)"/><path d="M29.38 8.85h3.93v21.19h-3.93z"/><defs><path id="SVGID_3_" d="M399.71 577.97V-17.31H-19.81v595.28"/></defs><clipPath id="SVGID_4_"><use xlink:href="#SVGID_3_" overflow="visible"/></clipPath><path d="M51.83 21.85H46.6v-3.4h9.07v11.59h-1.82l-.88-2.67c-1.64 2.05-4.05 3.26-6.99 3.26-6.02 0-9.6-4.35-9.6-11.16 0-6.78 4.2-11.21 10.27-11.21 4.08 0 7.34 1.97 8.63 5.52l-3.2 1.85c-.82-2.47-2.67-3.96-5.52-3.96-4.26 0-6.22 3.2-6.22 7.81 0 4.49 1.88 7.87 6.08 7.81 2.49-.03 4.7-1.64 5.4-4.32v-1.12z" clip-path="url(#SVGID_4_)"/><path d="M60.06 8.85h3.93v21.19h-3.93z"/><g><defs><path id="SVGID_5_" d="M399.71 577.97V-17.31H-19.81v595.28"/></defs><clipPath id="SVGID_6_"><use xlink:href="#SVGID_5_" overflow="visible"/></clipPath><path class="st2" d="M72.5 29.4h2.69c3.75 0 5.51-1.76 5.51-5.06 0-3.08-1.32-5.26-5.93-5.26H72.5V29.4zm1.95-19.92H72.5v8.92h2.21c3.05 0 4.67-1.59 4.67-4.64 0-2.77-1.4-4.28-4.93-4.28m.12-.64c4.95 0 7.8 1.57 7.8 4.73 0 2.8-2.91 4.48-5.26 5.04v.03c3.08.34 6.68 1.93 6.8 5.15.14 3.97-3.33 6.27-8.45 6.27h-8.64v-.62l2.77-.08V9.53l-2.77-.08v-.61h7.75zM94.16 25.57l.06-4.61c-1.65 1.71-5.29 2.71-5.29 5.26 0 1.62.98 2.94 2.52 2.94 1.31-.01 2.68-1.07 2.71-3.59m1.09 4.82c-.5-.39-1.06-1.34-1.09-2.8-.64 1.85-2.15 2.8-3.89 2.8-2.32 0-4.2-1.54-4.2-3.72 0-2.21 1.65-2.74 4.73-4.11 2.29-1.04 3.41-1.76 3.41-3.27 0-1.82-1.29-2.88-2.71-2.88-1.9 0-3.05 1.23-2.71 4.42-1.29.45-2.88-.06-2.88-1.01 0-.84.78-1.43 1.73-2.1 1.57-1.12 3.1-2.04 5.12-2.04 2.01 0 4.08.67 3.97 4.17-.08 2.15-.11 4.61-.11 5.96 0 1.71.14 2.69.56 3.1l1.9-.5.14.53-3.97 1.45zM109.27 19.03l-3.05-1.34c-.31.25-1.2 1.59-1.2 2.8v8.84l2.97.08v.62h-7.66v-.62l2.18-.08v-9.99c0-.45-.06-.5-.45-.7l-1.73-.9v-.2l4.7-2.1v3.72c.62-2.38 2.29-3.44 3.75-3.44 2.56.01 1.83 3.03.49 3.31M124.59 24.96c-.84 3.69-3.08 5.43-6.18 5.43-3.97 0-7.02-2.96-7.02-7.33 0-4.31 3.41-7.33 7.52-7.33 2.43 0 4.76 1.12 4.76 2.99 0 1.12-1.01 1.59-2.38 1.34-.48-2.63-1.57-3.72-3.33-3.72-1.99 0-3.66 1.71-3.75 5.2-.08 3.8 1.99 7.41 5.31 7.41 1.73 0 3.92-.89 4.7-4.11l.37.12zM128.85 20.26h5.88c.98 0 1.09-.08 1.09-.61 0-1.46-.81-3.44-2.99-3.44-1.97-.01-3.54 1.36-3.98 4.05m10.29 4.7c-.84 3.69-3.08 5.43-6.21 5.43-3.97 0-7.02-2.74-7.02-7.27 0-4.48 3.13-7.39 6.85-7.39 2.18 0 5.4 1.03 6.13 5.12h-10.1c-.03.34-.06.67-.06 1.04 0 3.97 2.01 7.08 5.34 7.08 1.73 0 3.92-.89 4.7-4.11l.37.1z"/></g><path d="M144.72 29.32l2.18.09v.61h-6.88v-.61l2.18-.09V8.9l-2.18-.08V8.2h4.7z"/><g><defs><path id="SVGID_7_" d="M399.71 577.97V-17.31H-19.81v595.28"/></defs><clipPath id="SVGID_8_"><use xlink:href="#SVGID_7_" overflow="visible"/></clipPath><path class="st3" d="M159.72 24.79c0-3.19-1.82-8.48-5.26-8.48-1.68 0-3.75.98-3.75 5.01 0 3.19 1.82 8.48 5.26 8.48 1.68-.01 3.75-.99 3.75-5.01m2.79-1.63c0 4.08-3.13 7.22-7.33 7.22-4.36 0-7.27-3.47-7.27-7.44 0-4.08 3.13-7.22 7.33-7.22 4.36 0 7.27 3.47 7.27 7.44M177.28 29.32l2.18.08v.61h-6.88v-.61l2.18-.08v-8.06c0-3.08-1.37-4.14-3.1-4.14s-3.08 1.06-3.08 4.14v8.06l2.18.08v.61h-6.88v-.61l2.18-.08v-9.99c0-.45 0-.5-.45-.73l-1.74-.87v-.2l4.7-2.1v3.64c.62-2.24 2.24-3.36 4.42-3.36 2.38 0 4.28 1.31 4.28 5.2v8.41zM188.95 25.57l.06-4.61c-1.65 1.71-5.29 2.71-5.29 5.26 0 1.62.98 2.94 2.52 2.94 1.31-.01 2.68-1.07 2.71-3.59m1.09 4.81c-.5-.39-1.06-1.34-1.09-2.8-.64 1.85-2.15 2.8-3.89 2.8-2.32 0-4.2-1.54-4.2-3.72 0-2.21 1.65-2.74 4.73-4.11 2.29-1.04 3.41-1.76 3.41-3.27 0-1.82-1.29-2.88-2.71-2.88-1.9 0-3.05 1.23-2.71 4.42-1.29.45-2.88-.06-2.88-1.01 0-.84.78-1.43 1.73-2.1 1.57-1.12 3.1-2.04 5.12-2.04 2.01 0 4.08.67 3.97 4.17-.08 2.15-.11 4.61-.11 5.96 0 1.71.14 2.68.56 3.1l1.9-.5.14.53-3.97 1.45z"/></g></svg>