<svg xmlns="http://www.w3.org/2000/svg" viewBox="0 0 443.96 56.97"><path d="M416.54 24.52l12.85-16.61h10.02L420.3 31.37V48.6h-7.92V31.37l-19.1-23.46h10.02l12.84 16.61zM372.5 24.52h-22.85V7.89h-7.9V48.6h7.9v-17h22.85v17h7.89V7.89h-7.89zM254.24 35.71h-.19l-25.57-27.8h-6.9V48.6h7.32V20.68h.16L254.9 48.6h6.69V7.91h-7.35zM166.46 48.6h34.06v-7.06h-26.16v-9.96h18.78v-7.06h-18.78v-9.65h26.16V7.91h-34.06zM126.87 38.47h-.21L114.02 7.91h-9.14l18.56 40.69h6.57l18.56-40.69h-9.14zM79.13 7.91h7.89V48.6h-7.89zM35.19 33.52h13.53v7.08c-1.9.64-5.25 1.48-10.69 1.48-9.66 0-15-4.68-15-13.83 0-9.14 5.37-13.84 15-13.84 9.8 0 14.83 2.93 17.62 5.16V11.4c-3.11-2.46-10.1-4.29-17.62-4.29-11.23 0-23.82 4.44-23.82 21.12 0 16.69 12.58 21.13 23.82 21.13 6.83 0 13.98-1.52 18.44-4.25V26.46H35.19v7.06zM289.19 28.24c0 9.14 5.37 13.82 15 13.82 9.8 0 14.84-2.94 17.62-5.16v8.17c-3.11 2.46-10.09 4.29-17.62 4.29-11.24 0-23.82-4.43-23.82-21.12s12.58-21.12 23.82-21.12c7.53 0 14.51 1.84 17.62 4.29v8.17c-2.79-2.23-7.82-5.16-17.62-5.16-9.63 0-15 4.68-15 13.82z"/></svg>