<svg xmlns="http://www.w3.org/2000/svg" viewBox="0 0 276.66 110"><path d="M191.19 88.83c3.36 0 4 2.99 4 5.68 0 2.7-.64 5.67-4 5.67s-4-2.97-4-5.67c0-2.69.64-5.68 4-5.68m0 13.71c5.16 0 7.5-3.49 7.5-8.03s-2.34-8.03-7.5-8.03c-5.17 0-7.5 3.49-7.5 8.03s2.34 8.03 7.5 8.03m-35.78-9.41h2.89c1.21 0 2.27-.74 2.27-1.92 0-1.12-.79-2-2.13-2h-3.02v3.92zm0 6.69h2.94c1.39 0 2.69-.58 2.69-2.23 0-1.72-1.24-2.15-2.69-2.15h-2.94v4.38zm3.48 2.33h-6.75V86.87h6.59c3.21 0 5.29 1.26 5.29 3.96 0 1.87-1.65 3.19-2.92 3.34 1.79.14 3.61 1.47 3.61 3.76.01 2.75-2.74 4.22-5.82 4.22m-51.64-13.24c3.28 0 3.89 2.98 3.89 5.61 0 2.62-.61 5.6-3.89 5.6-3.27 0-3.89-2.98-3.89-5.6 0-2.63.62-5.61 3.89-5.61m0 13.56c5.12 0 7.43-3.45 7.43-7.95s-2.32-7.96-7.43-7.96c-5.12 0-7.43 3.45-7.43 7.96 0 4.5 2.31 7.95 7.43 7.95M261.89 91.2h-3.23c0-1.48-.87-2.61-2.66-2.61-1.77 0-2.57.9-2.57 1.95 0 1.15.78 1.59 2.6 2.17.79.23 1.56.43 2.37.67 2.35.68 4.14 1.99 4.14 4.35 0 3.02-2.9 4.76-6.07 4.76-4.13 0-6.57-1.9-6.57-5.23h3.24c0 1.68.87 3.09 3.33 3.09.98 0 2.57-.52 2.57-2.18 0-1.23-.7-1.77-2.78-2.34-.56-.16-1.7-.53-2.38-.71-2.12-.61-3.67-1.78-3.67-3.93 0-3 3.05-4.7 5.86-4.7 2.82.01 5.82 1.69 5.82 4.71m-32.11 0c0-3.02-2.98-4.7-5.8-4.7-2.83 0-5.87 1.7-5.87 4.7 0 2.15 1.55 3.32 3.68 3.93.67.18 1.8.55 2.37.71 2.07.57 2.79 1.11 2.79 2.34 0 1.67-1.61 2.18-2.57 2.18-2.46 0-3.34-1.42-3.34-3.09h-3.25c0 3.33 2.45 5.23 6.58 5.23 3.15 0 6.05-1.74 6.05-4.76 0-2.36-1.79-3.67-4.13-4.35-.8-.23-1.58-.43-2.37-.67-1.81-.58-2.6-1.03-2.6-2.17 0-1.06.8-1.95 2.57-1.95 1.78 0 2.67 1.13 2.67 2.61h3.22zM78.11 96.5h-2.96v-2.49h6.22v7.14c-1.16.51-3.18 1.16-6.28 1.16-3.65 0-7.73-1.85-7.73-7.8 0-5.96 4.26-7.81 7.39-7.81 3.98 0 6.61 1.92 6.61 4.89h-3.32c0-1.34-1.21-2.57-3.14-2.57-2.87 0-4.07 2.09-4.07 5.49 0 3.37 1.31 5.47 4.41 5.47 1.25 0 2.06-.19 2.88-.46V96.5zm-32.45-9.48v8.13c0 2.53-.08 4.79-3.27 4.79s-3.27-2.26-3.27-4.79v-8.13h-3.36v9.38c0 3.98 2.95 5.91 6.62 5.91 3.68 0 6.62-1.93 6.62-5.91v-9.38h-3.34zM7.33 102H4.07V87.02h3.26v5.92h6.22v-5.92h3.3V102H13.6v-6.57H7.33V102zm117.41-48.75c0 13.85-7.97 25.41-27.35 25.41-19.39 0-27.92-11.55-27.92-25.41V9.29h14.02v43.09c0 8.31 2.93 16.16 13.9 16.16s13.33-7.85 13.33-16.16V9.29h14.02v43.96zM2.67 76.74V9.29h13.82v25.89h27.8V9.29H58.1v67.45H44.28V45.51h-27.8v31.23H2.67zM195.3 26.6l-11.96 4.92c-1.43-5.51-5.73-15.82-17.02-15.82-13.58 0-19.22 14.86-19.22 26.83 0 12.73 4.99 26.83 19.14 26.84 9.57 0 16.81-9.35 16.81-19.38H166.8v-9.97h29.07v36.9H184.2v-5.89c-4.5 5.12-13.9 7.63-18.8 7.63-21.15 0-33.04-13.07-33.04-36.12 0-21.29 13.58-36.12 33.95-36.12 13.89 0 23.83 7.05 28.99 20.18m62.3 15.94c0 12.28-5.79 27.64-19.72 27.64s-19.71-15.36-19.71-27.64c0-12.28 5.78-27.65 19.71-27.65 13.93-.01 19.72 15.36 19.72 27.65m15.07 0c0-21.29-13.9-37.05-34.78-37.05-20.88 0-34.78 15.76-34.78 37.05 0 21.44 13.9 37.05 34.78 37.05 20.88-.01 34.78-15.61 34.78-37.05" fill="#b61f29"/></svg>