<svg xmlns="http://www.w3.org/2000/svg" viewBox="0 0 899.73 155.75"><path d="M532.85 118.63c-8.95 7.53-20.08 11.57-32.19 11.57-28.37 0-50.52-22.92-50.52-52.16 0-28.81 21.61-51.94 49.21-52.6 10.37.33 17.35 2.51 24.99 7.75v10.04h5.24V18.89h-5.24v4.58c-7.75-3.06-15.71-4.69-23.68-4.69-34.16 0-61.87 26.52-61.87 59.04s27.72 58.93 61.87 58.93c13.31 0 25.97-5.02 35.79-14.19l.87-.87-3.6-3.93-.87.87zM382.48 25.77h5.13l-18.88 47.69-23.78-47.69h5.01v-5.24h-22.47v5.24h5.23l27.72 56.74v47.58h-7.09v5.24h26.84v-5.24h-7.96V82.73l22.69-56.96h5.02v-5.24h-17.46zM124.63 25.77h4.91v-5.24h-21.61v5.24h5.35v104.32h-5.35v5.24h21.72v-5.24h-5.02zM277.4 80.55l-25.75-60.02h-13.54v5.24h5.68v104.32h-5.68v5.24h18.01v-5.24h-5.24V44.87l24.66 58.48 24.45-61.54v88.28h-5.68v5.24h22.15v-5.24h-5.02V25.77h5.02v-5.24H301.3zM184.64 80.55l-25.75-60.02h-13.53v5.24h5.78v104.32h-5.78v5.24h17.9v-5.24h-5.13V44.87l24.66 58.48 24.44-61.54v88.28h-4.47l-.66.11-.43.76v4.37h21.93v-5.24h-4.91V25.77h5.02v-5.24h-15.17zM607.82 25.77h5.13v-5.24h-22.37v5.24h5.67v25.21h-33.6V25.77h5.01v-5.24h-22.15v5.24h5.57v104.32h-5.57v5.24h22.15v-5.24h-5.01V57.31h33.6v72.78h-5.67v5.24h22.37v-5.24h-5.13zM69.85 25.77h5.67v79.99c0 19.31-12.99 24.66-19.86 24.88-6.33-.11-18.66-5.02-19.75-22.37l-.11-1.31-11.13 1.53.22 1.2c.76 5.02 2.29 9.49 4.69 13.64 3.27 5.46 12.88 13.53 26.08 13.53 16.26 0 24.55-11.24 26.08-13.53 5.02-7.86 5.46-17.13 5.46-27.61V25.66h5.02v-5.13H69.85v5.24zM681.26 18.89c-34.16 0-61.87 26.52-61.87 59.04s27.72 59.04 61.87 59.04 61.87-26.41 61.87-59.04-27.82-59.04-61.87-59.04m-.33 111.31c-28.15 0-50.2-22.92-50.2-52.27 0-14.08 5.24-27.28 14.73-37.1s22.15-15.28 35.79-15.28c27.94 0 50.52 23.68 50.52 52.82.02 29.02-22.35 51.83-50.84 51.83M813.19 18.89c-34.16 0-61.87 26.52-61.87 59.04s27.72 59.04 61.87 59.04 61.87-26.41 61.87-59.04-27.71-59.04-61.87-59.04m.22 111.31c-28.04-.11-50.85-23.57-50.85-52.27 0-14.08 5.24-27.28 14.73-37.1 9.49-9.93 22.26-15.28 35.79-15.28 27.94 0 50.52 23.68 50.52 52.92.11 28.81-21.93 51.51-50.19 51.73"/></svg>