<?xml version="1.0" encoding="utf-8"?>
<!-- Generator: Adobe Illustrator 24.1.3, SVG Export Plug-In . SVG Version: 6.00 Build 0)  -->
<svg version="1.1" id="Layer_1" xmlns="http://www.w3.org/2000/svg" xmlns:xlink="http://www.w3.org/1999/xlink" x="0px" y="0px"
	 viewBox="0 0 68.04 38.43" style="enable-background:new 0 0 68.04 38.43;" xml:space="preserve">
<g>
	<g>
		<polygon points="46.41,37.42 48.8,37.42 48.8,20.44 46.41,20.44 46.41,37.42 		"/>
		<path d="M25.36,23.81v1.6h2.28v-1.99c-0.24-2.57-2.02-3.18-3.34-3.18c-1.32,0-3.41,0.67-3.41,3.56s0.02,3.43,2.62,5.24
			c1.63,1.13,2.05,1.85,2.1,2.82c0,0,0.04,1.45,0,2.15c-0.12,2.29-2.41,1.73-2.41,0.17c0-0.85,0-2.49,0-2.49h-2.32v2.47
			c0,2.17,1.45,3.44,3.53,3.47c1.2,0.02,3.53-0.46,3.58-3.42v-2.99c-0.12-2.17-1.45-3.01-2.48-3.78c-1.03-0.77-2.3-1.29-2.37-2.49
			V23.8c0-2.12,2.2-2.09,2.21,0"/>
	</g>
	<polygon points="3.26,37.43 3.26,26.96 5.04,37.43 6.67,37.43 8.47,26.96 8.47,37.43 10.85,37.43 10.85,20.45 8.21,20.45 
		5.87,29.86 3.52,20.45 0.88,20.45 0.88,37.43 3.26,37.43 	"/>
	<polygon points="37.72,20.44 40.11,20.44 40.11,27.76 42.51,27.76 42.51,20.44 44.9,20.44 44.9,37.42 42.51,37.42 42.51,29.88 
		40.11,29.88 40.11,37.42 37.72,37.42 37.72,20.44 	"/>
	<path d="M61.73,33.2c0,1.59,0.69,2.11,1.28,2.11c0.59,0,1.28-0.52,1.28-2.11v-8.54c0-1.6-0.69-2.11-1.28-2.11
		c-0.59,0-1.28,0.52-1.28,2.11V33.2z M59.34,24.67c0-1.61,0.76-4.43,3.67-4.43c2.91,0,3.66,2.73,3.66,4.43v8.54
		c0,1.7-0.78,4.43-3.66,4.43c-2.87,0-3.67-2.74-3.67-4.43V24.67z"/>
	<path d="M14.63,33.2c0,1.59,0.69,2.11,1.28,2.11s1.28-0.52,1.28-2.11v-8.54c0-1.6-0.69-2.11-1.28-2.11s-1.28,0.52-1.28,2.11V33.2z
		 M12.24,24.67c0-1.61,0.76-4.43,3.67-4.43c2.91,0,3.66,2.73,3.66,4.43v8.54c0,1.7-0.78,4.43-3.66,4.43c-2.88,0-3.67-2.74-3.67-4.43
		V24.67z"/>
	<path d="M36.38,31.66v1.54c0,2.04-0.64,4.43-3.51,4.43S29.2,34.9,29.2,33.2v-8.54c0-1.61,0.76-4.43,3.67-4.43
		c2.91,0,3.39,2.36,3.39,4.43v1.36h-2.17v-1.36c0-1.45-0.45-2.11-1.21-2.11c-0.57,0-1.28,0.45-1.28,2.11v8.54
		c0,1.3,0.49,2.11,1.28,2.11c0.67,0,1.21-0.51,1.21-2.11v-1.54H36.38z"/>
	<polygon points="42.57,17.99 36.12,17.99 36.12,1.23 38.62,1.23 38.62,15.48 42.57,15.48 42.57,17.99 	"/>
	<path d="M45.76,13.7c0,1.25,0.42,1.88,1.28,1.88c0.85,0,1.28-0.63,1.28-1.88l-0.02-8.59c0-1.25-0.42-1.88-1.25-1.88
		c-0.84,0-1.26,0.63-1.28,1.88V13.7z M43.34,5.06c-0.06-1.08,0.25-2.15,0.86-3.04c0.66-0.83,1.68-1.29,2.74-1.23
		c1.08-0.06,2.13,0.4,2.83,1.23c0.65,0.87,0.98,1.95,0.93,3.04v8.69c0.05,1.08-0.26,2.14-0.88,3.01c-1.4,1.54-3.79,1.65-5.33,0.24
		c-0.08-0.08-0.16-0.16-0.24-0.24c-0.6-0.74-0.91-1.75-0.91-3.01V5.06L43.34,5.06z"/>
	<polyline points="55.12,12.96 56.93,1.33 59.41,1.33 56.35,18.09 53.84,18.09 50.8,1.33 53.26,1.33 55.07,12.96 	"/>
	<polygon points="67.16,15.56 62.69,15.56 62.69,10.64 65.91,10.64 65.91,8.14 62.69,8.14 62.69,3.82 66.89,3.82 66.89,1.32 
		60.18,1.32 60.18,18.07 67.16,18.07 67.16,15.56 	"/>
	<polygon points="52.83,37.46 52.83,27 55.77,37.46 57.86,37.46 57.86,20.71 55.52,20.71 55.52,29.43 52.99,20.71 50.46,20.71 
		50.46,37.46 52.83,37.46 	"/>
</g>
</svg>
