<svg xmlns="http://www.w3.org/2000/svg" viewBox="0 0 1115 131"><path d="M380.11 89.72c-13.89 0-24.96-7.67-24.96-22.92 0-13.6 10.3-23.11 24.57-23.11 11.07 0 17.85 3.23 24.75 9.63l8.56-8.56c-9.13-8.26-19.23-12.43-33.31-12.43-20.3 0-37.59 13.4-37.59 34.48 0 21.75 14.86 34.67 37.88 34.67 12.72 0 24.47-4.08 35.55-14.28l-9.03-8.35c-7.87 7.28-15.35 10.87-26.42 10.87zM738.27 89.72c-13.89 0-24.96-7.67-24.96-22.92 0-13.6 10.3-23.11 24.57-23.11 11.07 0 17.85 3.23 24.75 9.63l8.56-8.56c-9.13-8.26-19.23-12.43-33.31-12.43-20.3 0-37.59 13.4-37.59 34.48 0 21.75 14.86 34.67 37.88 34.67 12.72 0 24.47-4.08 35.55-14.28l-9.03-8.35c-7.87 7.28-15.35 10.87-26.42 10.87zM1054.56 60.01c-15.44-1.26-19.91-3.4-19.91-7.96 0-4.57 4.86-8.64 15.73-8.55 11.95.1 20.22 2.98 28.13 8.08l8.48-8.76c-9.61-6.8-20.59-10.49-35.74-10.49-18.55 0-29.13 9.13-29.13 20.1 0 12.04 9.03 16.7 28.84 18.55 17.29 1.65 24.57 2.62 24.57 8.84 0 5.63-6.6 10.1-19.13 10.1-12.34 0-23.7-4.18-31.08-10.98l-8.74 9.71c11.26 9.03 23.7 12.82 40.69 12.82 19.62 0 31.27-9.71 31.27-21.66.01-13.39-10.67-17.76-33.98-19.8zM547.07 67.58v4.45c0 11.64-5.14 16.95-18.23 16.95-11.56 0-17.46-4.28-17.46-15.84v-7.53h-12.5s-.02 5.7-.02 10.24c0 17.11 11.2 25.63 29.38 25.63 22.09 0 32.02-8.39 32.02-30.47V33.69h-13.18v33.89zM165.9 33.69l-33.02 66.43h13.47l7.62-15.45h34.91l7.56 15.45h13.86l-33.22-66.43H165.9zm-6.21 39.38l11.79-23.91 11.71 23.91h-23.5zM626.82 33.69l-33.02 66.43h13.47l7.62-15.45h34.91l7.56 15.45h13.86L638 33.69h-11.18zm-6.21 39.38l11.79-23.91 11.71 23.91h-23.5zM63.14 71.97L40.29 33.69H26.45v66.43h11.74V53.74l24.58 39.92 24.3-39.33v45.79h12.26V33.69H86.49zM843.81 32.33c-21.27 0-38.95 13.6-38.95 33.99-.19 22.63 16.12 35.35 38.65 35.16 21.37.19 39.24-13.4 39.04-35.16.01-19.81-17.47-33.99-38.74-33.99zm-.29 57.4c-14.18 0-25.84-7.96-25.64-23.41 0-14.47 10.88-22.63 26.03-22.63s25.64 8.45 25.64 22.63c.19 15.44-11.85 23.41-26.03 23.41zM975.65 64.67c5.6-2.82 7.89-7.34 7.89-13.4 0-10.39-8.45-17.58-25.06-17.58h-38.46v66.43h37.2c16.12 0 29.72-4.56 29.72-20.69 0-7.53-4-12.26-11.29-14.76zm-44.17-20.39h26.32c9.71 0 13.6 2.72 13.6 7.77 0 4.66-3.69 8.45-13.89 8.45h-26.03V44.28zm27.88 44.57h-27.87V70.98h27.68c11.07 0 15.64 2.62 15.64 8.55-.01 5.73-3.51 9.32-15.45 9.32zM306.17 54.59c0-12.01-7.81-20.91-26.22-20.91h-36.61v66.43h12.27v-24.4h23.28l13.62 24.4h14.53l-15.61-26.64c7.75-2.47 14.74-8.28 14.74-18.88zm-28.68 8.88h-21.85v-17.7h21.85c10.88 0 14.94 2.29 14.94 8.84 0 5.89-3.97 8.86-14.94 8.86z"/></svg>