<?xml version="1.0" encoding="utf-8"?>
<!-- Generator: Adobe Illustrator 24.1.3, SVG Export Plug-In . SVG Version: 6.00 Build 0)  -->
<svg version="1.1" id="Layer_1" xmlns="http://www.w3.org/2000/svg" xmlns:xlink="http://www.w3.org/1999/xlink" x="0px" y="0px"
	 viewBox="0 0 153.1 28.41" style="enable-background:new 0 0 153.1 28.41;" xml:space="preserve">
<g>
	<polyline points="67.67,3.77 63.6,3.77 63.6,12.29 61.09,12.29 61.09,3.77 57.03,3.77 57.03,1.45 67.67,1.45 67.67,3.77 	"/>
	<polyline points="81.08,1.45 81.08,12.29 78.57,12.29 78.57,7.24 73.31,7.24 73.31,12.29 70.8,12.29 70.8,1.45 73.31,1.45 
		73.31,4.92 78.57,4.92 78.57,1.45 81.08,1.45 	"/>
	<polyline points="94.88,9.97 94.88,12.29 85.67,12.29 85.67,1.45 94.79,1.45 94.79,3.74 88.15,3.74 88.15,5.62 92.53,5.62 
		92.53,7.9 88.15,7.9 88.15,9.97 94.88,9.97 	"/>
	<path d="M1.29,15.91h2.2l3.22,4.9c0.24,0.37,0.45,0.67,0.67,1.05c0.22-0.38,0.42-0.68,0.67-1.05l3.23-4.9h2.03v10.84h-2.4v-5.38
		c0-0.32,0-0.64,0.01-0.93c-0.15,0.26-0.33,0.54-0.52,0.84l-3.07,4.65l-3.12-4.7c-0.19-0.3-0.36-0.57-0.51-0.87
		c0.03,0.31,0.03,0.61,0.03,0.93v5.47H1.29V15.91"/>
	<path d="M25.7,24.3h-5.59l-1.23,2.45h-2.63l5.58-10.84h2.24l5.58,10.84h-2.7L25.7,24.3 M24.58,22.06l-1.27-2.51
		c-0.15-0.3-0.3-0.6-0.41-0.86c-0.11,0.26-0.26,0.56-0.41,0.86l-1.25,2.51H24.58z"/>
	<path d="M38.13,22.85h-3.16v3.9h-2.51V15.91h6.9c2.74,0,4.3,1.25,4.3,3.45c0,1.68-1.01,2.88-2.76,3.31l2.82,4.08h-2.96L38.13,22.85
		 M34.96,20.59h4.43c1.23,0,1.7-0.42,1.7-1.2c0-0.76-0.45-1.2-1.7-1.2h-4.43V20.59z"/>
	<path d="M46.42,21.34c0-3.33,2.61-5.63,6.49-5.63c2.17,0,3.9,0.61,5.47,1.88l-1.69,1.83c-1.24-0.98-2.31-1.43-3.79-1.43
		c-2.44,0-3.92,1.38-3.92,3.35c0,1.96,1.52,3.3,3.92,3.3c1.72,0,2.92-0.53,4.26-1.76l1.69,1.64c-1.54,1.62-3.48,2.44-5.94,2.44
		C48.83,26.96,46.42,24.76,46.42,21.34"/>
	<path d="M67.24,21.89v-0.71h2.51v0.41c0,1.95,1.02,3.05,2.85,3.05c1.74,0,2.6-0.95,2.6-2.4v-6.33h2.51v6.53
		c0,2.9-1.71,4.51-5.15,4.51C69.13,26.96,67.24,25.19,67.24,21.89"/>
	<path d="M89.43,24.3h-5.59l-1.23,2.45h-2.63l5.58-10.84h2.24l5.57,10.84h-2.7L89.43,24.3 M88.31,22.06l-1.27-2.51
		c-0.15-0.3-0.3-0.6-0.41-0.86c-0.11,0.26-0.26,0.56-0.41,0.86l-1.25,2.51H88.31z"/>
	<path d="M94.83,21.34c0-3.33,2.6-5.63,6.49-5.63c2.17,0,3.9,0.61,5.47,1.88l-1.69,1.83c-1.24-0.98-2.32-1.43-3.79-1.43
		c-2.44,0-3.92,1.38-3.92,3.35c0,1.96,1.52,3.3,3.92,3.3c1.72,0,2.92-0.53,4.26-1.76l1.69,1.64c-1.54,1.62-3.48,2.44-5.94,2.44
		C97.25,26.96,94.83,24.76,94.83,21.34"/>
	<path d="M109.77,21.36c0-3.31,2.52-5.64,6.14-5.64c3.63,0,6.15,2.3,6.15,5.64c0,3.34-2.52,5.6-6.15,5.6
		C112.3,26.96,109.77,24.7,109.77,21.36 M119.5,21.36c0-2.01-1.46-3.36-3.59-3.36c-2.13,0-3.59,1.36-3.59,3.36
		c0,2.02,1.43,3.29,3.59,3.29C118.07,24.64,119.5,23.36,119.5,21.36"/>
	<path d="M137.34,23.35c0,2.2-1.65,3.41-4.63,3.41h-7.2V15.91h7.53c2.43,0,3.76,1.06,3.76,2.96c0,0.84-0.27,1.54-0.87,2.07
		C136.84,21.48,137.34,22.23,137.34,23.35 M127.97,18.14v1.92h4.84c1,0,1.46-0.3,1.46-0.96c0-0.64-0.48-0.97-1.46-0.97H127.97z
		 M134.8,23.35c0-0.67-0.51-1.04-1.6-1.04h-5.24v2.2h5.22C134.35,24.51,134.8,24.06,134.8,23.35"/>
	<path d="M139.67,24.85l1.41-1.88c1.59,1.13,3.13,1.73,5.14,1.73c1.91,0,3.01-0.4,3.01-1.19c0-0.83-1.27-0.97-3.05-1.12l-0.49-0.04
		c-2.35-0.19-5.05-0.7-5.05-3.3c0-1.61,1.23-3.34,5.32-3.34c1.89,0,3.94,0.55,5.32,1.61l-1.31,1.92c-1.24-0.86-2.67-1.32-4.21-1.32
		c-1.69,0-2.55,0.41-2.55,1.05c0,0.72,1.32,0.88,2.93,1.02l0.49,0.04c2.55,0.22,5.18,0.68,5.18,3.34c0,2.18-1.93,3.59-5.66,3.59
		C143.47,26.96,141.25,26.15,139.67,24.85"/>
</g>
</svg>
