<svg xmlns="http://www.w3.org/2000/svg" xmlns:xlink="http://www.w3.org/1999/xlink" viewBox="0 0 635.89 158.14"><defs><path id="a" d="M-103-487.86h841.89V646H-103z"/></defs><clipPath id="b"><use xlink:href="#a" overflow="visible"/></clipPath><path d="M603.15 126.38c4.42 0 7.91-3.48 7.91-7.91 0-4.42-3.48-7.91-7.91-7.91-4.42 0-7.91 3.48-7.91 7.91.01 4.42 3.49 7.91 7.91 7.91m-6.98-32.3c0-20.24-11.79-33.1-32.3-33.1-18.23 0-32.03 15.01-32.03 33.1 0 18.49 13.27 32.57 32.03 32.57 18.23 0 32.3-14.34 32.3-32.57m-51.46-4.69c0-11.93 4.56-24.39 18.23-24.39 16.22 0 20.37 19.97 20.37 34.31 0 9.92-4.96 23.32-16.89 23.32-16.35 0-21.71-20.24-21.71-33.24m-13.56-57.76h-2.68c-1.07 10.18-12.46-.94-30.82-.94-28.41 0-50.39 20.51-50.39 49.32 0 31.63 23.99 47.44 50.66 47.44 9.38 0 24.93-2.95 37.93-21.04l-2.28-2.14c-8.44 10.45-18.76 18.23-34.44 18.23-21.31 0-35.51-16.89-35.51-44.63 0-21.17 11.12-42.21 35.38-42.21 16.08 0 28.14 10.45 31.76 25.86h2.68l-2.29-29.89zM384.94 47.31c0-5.9 3.35-11.79 10.45-11.79 8.31 0 10.32 5.9 10.32 10.86 0 10.18-7.51 15.68-16.08 20.77-2.95-6.71-4.69-13.54-4.69-19.84m30.15 18.22v2.68c4.69 0 7.91 1.47 7.91 6.57 0 7.5-8.71 20.5-12.87 26-6.97-8.04-15.54-22.25-18.9-29.62 14.07-8.31 22.25-14.2 22.25-25.06 0-9.25-7.51-14.61-16.75-14.61-14.74 0-23.59 9.11-23.59 23.05 0 6.16 2.01 12.6 4.69 18.36-14.21 6.84-28.81 16.08-28.81 32.7 0 13.94 11.93 21.04 24.52 21.04 13.13 0 22.11-4.29 30.82-12.73 6.83 7.1 15.14 12.73 25.06 12.73 8.04 0 15.81-7.64 20.1-13.8l-2.01-1.74c0 .13-.13.13-.13.27-3.49 4.69-7.64 6.16-11.93 6.16-7.91 0-16.48-6.57-22.51-13.4 3.62-3.62 10.72-15.68 13.4-20.5 3.75-6.7 6.97-15.28 16.08-15.41v-2.68h-27.33zm-52.26 33.24c0-10.59 7.51-16.89 16.75-21.98 5.23 10.99 13.27 25.46 21.84 34.04-5.36 4.96-11.66 8.31-18.49 8.31-11.93 0-20.1-8.58-20.1-20.37M251.3 35.52c9.11 0 12.2 2.68 22.65 17.15l19.57 27.07-24.66 29.21c-7.91 9.38-12.06 13.13-19.03 13.67v2.68h31.9v-2.68c-5.63 0-10.32-.94-10.32-4.29 0-2.68 2.14-5.49 8.85-13.67l17.02-20.64 12.6 17.56c5.36 7.5 10.32 14.74 10.32 16.62 0 3.22-4.15 4.15-11.12 4.42v2.68h41.81v-2.68c-7.37 0-12.06-5.9-19.3-15.68l-25.06-33.91 20.91-24.39c7.77-9.11 11.79-13.13 20.37-13.13h.94v-2.68h-33.77v2.68c2.41 0 9.92.13 9.92 4.02 0 3.62-6.84 11.66-14.47 20.51l-7.1 8.04-11.83-15.95c-4.56-6.17-8.04-10.32-8.04-13.13 0-3.48 5.76-3.48 10.32-3.48v-2.68H251.3v2.68zm-107.24 89.79h30.69v-2.68h-1.07c-8.44 0-9.65-2.81-9.65-5.63 0-3.75 6.83-17.69 8.31-22.11h40.34c2.28 4.96 9.25 17.42 9.25 21.98 0 2.55-1.74 5.76-9.38 5.76h-1.34v2.68h39.54v-2.68c-7.91 0-11.53-5.23-14.34-11.26l-37.4-79.87h-3.35l-38.06 79.47c-3.89 8.17-5.76 11.26-13.53 11.66v2.68zm48.38-74.52l17.69 38.46h-35.11l17.42-38.46zM24.83 35.52c12.19 0 12.86 5.23 12.86 17.42v50.93c0 13.54 0 18.36-12.86 18.76v2.68h31.76v-2.68c-12.87-.4-12.87-5.23-12.87-18.76V50.26h.27l35.65 75.05h2.28l35.38-78.13h.27v59.37c0 10.05-.54 16.08-13 16.08v2.68h40.61v-2.68c-13-.4-13.8-4.56-13.8-16.08V48.78c0-10.45 3.22-13.27 13.8-13.27v-2.68h-27.21l-33.1 70.49-33.24-70.48h-26.8v2.68z" clip-path="url(#b)"/></svg>