<svg version="1.1" id="Livello_1" xmlns="http://www.w3.org/2000/svg" x="0" y="0" viewBox="0 0 460.43 119.55" xml:space="preserve"><style>.st0{fill:#231f20}</style><path class="st0" d="M76.01 20.43L62.8 48.22 46.87 20.43H18.34v10.8h7.25v52.46h-7.25v10.89h26.04V83.61h-6.83V54.23L57.54 88.8l19.54-42.99v37.73h-6.92v11.04h37.28V83.54h-7.34V31.23h7.19v-10.8zM111.95 31.38h7.66v52.16h-7.36v11.08h37.27V83.54h-7.34V31.23h7.49v-10.8h-37.72zM405.81 20.43v10.95h7.67v52.16h-7.36v11.08h37.27V83.54h-7.34V31.23h7.49v-10.8zM304.18 17.71c-18.28 0-32.31 17.79-32.31 39.75 0 21.95 14.04 38.56 32.31 38.56 18.28 0 32.46-16.61 32.46-38.56 0-21.96-14.19-39.75-32.46-39.75m.15 64.32c-3.92 0-8.57-9.02-8.57-25.25 0-14.88 4.65-24.8 8.57-24.8s8.87 8.72 8.87 24.8c-.01 17.29-4.96 25.25-8.87 25.25M375.27 31.23h7.36v22.28l-19.09-33.08h-26.18v10.8h6.8v52.19h-6.8V94.7h26.33V83.42h-7.66V53.51l22.5 41.19h15.97V31.23h6.92v-10.8h-26.15zM268.18 66.27s-2.8-8.85-14.45-13.48c0 0-18.55-7.33-19.09-14.56 0 0-.75-8.09 8.63-7.44 0 0 10.79.22 11 11.11v1.62h11.65v-23.2h-11.33v3.9c-4.66-4.91-12.51-6.24-16.17-6.34-.29-.01-.59-.01-.88-.01h-.1c-4.81.03-9.98 1.21-14.56 4.73 0 0-13.59 8.85-8.52 24.92 0 0 2.16 8.41 12.4 13.7 0 0 10.25 5.72 13.92 7.12 0 0 10.68 4.96 4.85 11.76 0 0-5.07 5.18-13.48-1.4 0 0-6.15-4.21-7.98-11h-9.28v26.86h10.79v-3.78s16.83 12.19 33.12 2.05c-.01-.02 16.49-9.84 9.48-26.56M207.77 66.27s-2.8-8.85-14.45-13.48c0 0-18.55-7.33-19.09-14.56 0 0-.75-8.09 8.63-7.44 0 0 10.79.22 11 11.11v1.62h11.65v-23.2h-11.33v3.9c-4.66-4.91-12.51-6.24-16.17-6.34-.29-.01-.59-.01-.88-.01h-.1c-4.81.03-9.98 1.21-14.56 4.73 0 0-13.59 8.85-8.52 24.92 0 0 2.16 8.41 12.4 13.7 0 0 10.25 5.72 13.92 7.12 0 0 10.68 4.96 4.85 11.76 0 0-5.07 5.18-13.48-1.4 0 0-6.15-4.21-7.98-11h-9.28v26.86h10.79v-3.78s16.83 12.19 33.12 2.05c-.01-.02 16.5-9.84 9.48-26.56"/></svg>