<svg xmlns="http://www.w3.org/2000/svg" viewBox="0 0 402.33 126.99"><path d="M287.97 15.32v94.77h-13.33V15.32h13.33zM157.11 34.15v8.92l12.71-.04V31.95c-1.34-14.33-11.28-17.77-18.63-17.77-7.36 0-19.01 3.73-19.01 19.88s.11 19.16 14.62 29.24c9.09 6.31 11.47 10.32 11.75 15.76 0 0 .21 8.05 0 12-.7 12.76-13.46 9.66-13.47.96-.01-4.78 0-13.91 0-13.91h-12.9v13.82c0 12.04 8.03 19.21 19.68 19.4 6.69.11 19.68-2.58 19.97-19.11v-16.7c-.65-12.23-8.12-16.82-13.86-21.12-5.73-4.3-12.88-7.27-13.19-13.86v-6.5c-.08-11.84 12.3-11.65 12.33.11zM20.43 110.13V15.37h14.76l13.1 52.52 13.09-52.52h14.76v94.76H62.8V51.72l-10.03 58.41h-9.09l-9.91-58.41v58.41H20.43zM226.1 110.1h13.34V68.03h13.42v42.07h13.33V15.31h-13.33V56.2h-13.42V15.31H226.1v94.79zM296.82 15.31h13.75l14.9 49.09V15.34h13.33v94.76h-11.21l-17.41-57.23v57.23h-13.36V15.31zM346.8 38.91c0-8.97 4.25-24.72 20.48-24.72 16.05 0 20.42 15.22 20.42 24.72v47.65c0 9.47-4.37 24.75-20.42 24.75-16.29 0-20.48-15.28-20.48-24.75V38.91zm13.33 47.65c0 8.85 3.87 11.8 7.14 11.8 3.27 0 7.14-2.92 7.14-11.8V38.91c0-8.91-3.87-11.8-7.14-11.8-3.28 0-7.14 2.89-7.14 11.8v47.65zM83.87 38.91c0-8.97 4.25-24.72 20.47-24.72 16.05 0 20.42 15.22 20.42 24.72v47.65c0 9.47-4.37 24.75-20.42 24.75-16.29 0-20.47-15.28-20.47-24.75V38.91zM97.2 86.56c0 8.85 3.87 11.8 7.14 11.8 3.28 0 7.14-2.92 7.14-11.8V38.91c0-8.91-3.86-11.8-7.14-11.8-3.27 0-7.14 2.89-7.14 11.8v47.65zM218.66 77.96l.01 8.6c0 11.36-3.57 24.75-19.62 24.75-16.29 0-20.47-15.28-20.47-24.75V38.91c0-8.97 4.25-24.72 20.47-24.72 16.05 0 18.91 13.16 18.91 24.72v7.61h-12.12v-7.61c0-7.99-2.51-11.8-6.76-11.8-3.19 0-7.14 2.51-7.14 11.8v47.65c0 7.28 2.71 11.8 7.14 11.8 3.75 0 6.76-2.83 6.76-11.8v-8.59l12.82-.01z"/></svg>