<svg xmlns="http://www.w3.org/2000/svg" viewBox="0 0 516 128"><path d="M30 109.31V19h11.79l35.25 78.52L110.4 19h12.29v90.31h-7.65V27.03l-35.12 82.28h-5.89L37.78 28.78v80.52H30v.01zm142.16 0V70.55L139.17 19h9.91l27.47 43.52L203.64 19h8.65l-31.98 50.92v39.38h-8.15v.01zm57.92 0V19h8.03v40.01L282.9 19h10.38l-46.29 41.26 50.06 49.04h-10.64l-48.3-47.41v47.41h-8.03v.01zm88.1 0V19h8.15v90.31h-8.15zm55.08 0V26.27h-28.85V19h65.97v7.27h-28.72v83.03h-8.4v.01zm31.93 0L440.31 19h9.91l35.49 90.31h-8.91l-9.53-24.71h-44.15l-9.53 24.71h-8.4zm20.32-31.49h39.26l-19.69-51.55-19.57 51.55z"/><path d="M30 109.31h7.78V28.78l36.24 80.53h5.9l35.12-82.28v82.28h7.65V19H110.4L77.04 97.52 41.79 19H30v90.31zM172.16 109.31h8.15V69.92L212.29 19h-8.65l-27.09 43.52L149.08 19h-9.91l32.99 51.55v38.76zM230.08 109.31h8.03V61.9l48.3 47.41h10.63l-50.05-49.05L293.28 19H282.9l-44.79 40.01V19h-8.03v90.31zM318.18 109.31h8.15V19h-8.15v90.31zM373.26 109.31h8.4V26.27h28.72V19h-65.97v7.27h28.85v83.04z"/><path d="M405.19 109.31h8.4l9.53-24.71h44.15l9.53 24.71h8.91L450.22 19h-9.91l-35.12 90.31zm20.32-31.49l19.57-51.55 19.69 51.55h-39.26z" fill-rule="evenodd" clip-rule="evenodd"/></svg>