<svg version="1.1" id="Слой_1" xmlns="http://www.w3.org/2000/svg" x="0" y="0" viewBox="0 0 1138 273.89" xml:space="preserve"><style>.st0,.st1{fill-rule:evenodd;clip-rule:evenodd;fill:#171816}.st1{fill:#fff}</style><path class="st0" d="M55.99 170.14s10.61-7.71 28.95-24.12c18.33-16.4 33.76-39.55 33.76-67.05 0-27.49-13.99-42.45-27.01-42.45-17.37 0-42.93 18.81-54.51 60.78-11.57 41.96-4.82 90.69-.48 111.91s12.06 28.46 17.37 29.92c5.31 1.45 10.61-1.46 10.61-7.25s-4.82-16.39-6.27-28.94c-1.46-12.53-2.42-32.8-2.42-32.8zM228.2 153.26s-6.27 15.44-9.17 23.64c-2.89 8.2-9.65 24.61-11.09 27.5-1.45 2.89-3.86 5.79-6.27 5.79s-6.27-2.89-9.17-8.2c-2.9-5.31-12.06-30.87-13.51-35.69-1.45-4.83-7.72-22.19-16.4-27.02-8.68-4.82-19.78-5.78-28.94-1.45-9.17 4.34-28.94 26.05-28.94 58.37s20.26 38.11 34.73 38.11c14.47 0 36.66-24.6 36.66-24.6s10.61 20.73 27.01 20.73c16.4 0 26.53-24.6 28.95-29.9 2.41-5.31 3.86-4.82 5.79-1.93 1.93 2.89 11.09 22.18 25.08 22.18 13.99 0 22.67-15.91 26.53-21.22 3.86-5.3 5.31-9.64 9.65-9.64 4.34 0 8.2 3.37 11.1 8.68 2.9 5.3 11.09 26.53 38.59 26.53 22.19 0 32.32-21.24 32.32-21.24s12.54 15.44 37.14 15.44 29.43-11.57 30.39-14.47c.97-2.89-1.93-8.2-6.27-8.2s-6.27 1.94-8.68 4.34c-2.41 2.42-7.72 4.83-15.44 4.83s-16.88-2.89-23.15-10.13c-6.27-7.25-8.2-12.54-8.2-12.54s10.13-30.87 10.13-61.27c0-30.39-10.13-54.03-28.46-54.03-13.51 0-30.39 10.61-30.39 46.79s17.85 55.96 20.26 59.33c2.41 3.38 10.61 13.51 10.61 13.51s-4.82 23.15-20.26 23.15c-15.44 0-32.32-27.49-37.63-36.17-5.31-8.69-10.13-19.79-15.92-19.79-5.79 0-8.68 9.17-9.17 10.62-.48 1.45-13.02 25.56-15.44 28.95-2.41 3.37-5.31 8.19-8.68 8.19-3.38 0-8.68-4.34-12.06-12.53-3.38-8.2-6.76-20.75-7.72-25.58-.97-4.82-1.93-14.47-6.76-14.47-4.81.01-7.22 3.39-7.22 3.39zM594.82 95.37s2.41-.48 1.93-4.82c-.48-4.34-12.02-16.14-28.95-18.81-18.33-2.89-22.91 8.97-19.78 15.92 4.34 9.65 25.57 34.25 30.39 39.56 4.82 5.31 26.75 31.65 32.32 44.37 6.76 15.44 9.65 30.39-1.93 44.86-11.58 14.48-42.94 1.45-52.58-4.34-9.65-5.79-23.64-19.78-23.64-19.78s-4.82-5.31-1.45-10.13c3.38-4.82 10.13.97 10.13.97s12.54 10.13 19.78 14.95c7.24 4.83 14.96 8.2 23.16 7.72 8.2-.49 16.88-6.28 15.43-16.4-1.45-10.13-9.64-25.56-20.74-38.59-11.09-13.03-33.77-33.77-42.93-51.14-9.17-17.37-5.31-19.3-5.31-21.22 0-1.93 6.75-22.67 33.77-21.71 27.01.96 49.2 17.85 50.17 30.87.96 13.02-10.61 14.95-13.51 14.95-2.9 0-7.24-1.45-7.24-1.45-.95-2.4.98-5.78.98-5.78zM650.29 169.66l-8.2-11.57s-3.38-6.76-7.23-4.34c-3.86 2.4-4.34 5.3-2.89 11.1 1.45 5.79 11.09 50.65 11.09 50.65s3.38 4.34 6.27 4.34c2.9 0 5.79-5.31 8.2-11.59 2.42-6.27 9.17-27.01 15.44-27.01s13.02 13.51 15.44 16.88c2.41 3.38 10.13 16.4 10.13 16.4s3.38 5.31 7.24 5.31c3.86 0 7.72-3.86 10.13-7.23 2.41-3.38 9.16-14.48 11.58-21.24 2.41-6.74 7.71-18.33 13.02-18.33s17.85 20.27 21.22 25.58c3.13 4.91 13.99 23.63 21.23 23.63 8.68 0 10.13-8.19 13.02-14.47 2.89-6.27 7.72-24.12 15.92-24.12s13.99 10.62 17.85 14.47c3.86 3.86 12.54 23.64 26.05 23.64 13.51 0 25.57-16.88 29.43-20.75 3.86-3.85 7.23-6.74 7.23-6.74s13.03 32.8 34.74 32.8 15.44-18.82 29.43-18.82 9.17 10.14 19.29 10.14c3.86 0 13.99-16.88 17.85-21.71 3.86-4.82 18.33-21.7 25.08-21.7 6.76 0 16.4 11.1 18.34 13.02 1.93 1.94 21.71 24.12 25.08 27.01 3.38 2.89 17.37 12.06 27.98 11.59 10.61-.49 19.78-4.35 25.09-6.76 5.3-2.42 7.72-7.23 6.27-11.1-1.45-3.86-5.31-3.86-7.72-2.42-2.41 1.45-12.54 5.31-22.19 5.31-9.65 0-17.36-5.79-22.19-11.1-4.82-5.31-37.14-38.59-37.14-38.59s-4.35-6.76-11.1-6.76c-6.76 0-15.44 8.2-19.78 12.05-4.34 3.86-20.75 20.27-27.02 20.27s-10.61-5.31-10.61-16.4c0-11.1.48-52.58-.48-57.88-.96-5.31-4.34-22.67-13.98-22.19-9.65.48-6.27 22.19-6.27 22.19s0 64.16-1.45 71.87c-1.45 7.72-6.75 17.36-12.54 17.36-5.79 0-11.1-5.79-16.88-18.33-5.79-12.54-9.65-37.14-10.13-45.82-.48-8.69 0-11.1 0-11.1s12.06-5.79 17.85-7.24c5.79-1.45 11.1-2.41 12.06-4.82.96-2.41 1.93-7.23.48-10.61-1.45-3.38-5.31-4.34-7.72-3.86-2.42.48-19.3 3.37-19.3 3.37l-13.03-19.3s-2.41-5.79-6.75-5.79-7.72 2.41-6.76 10.61c.97 8.2 7.24 54.51 5.31 69.95-1.93 15.44-15.44 41.97-28.94 41.97-13.51 0-34.25-43.42-36.18-47.28-1.93-3.86-4.34-11.1-9.65-11.1-5.3 0-11.57 18.33-13.99 24.12-2.41 5.79-9.64 25.09-14.95 25.09-11.57 0-31.84-40.03-31.84-40.03s-4.34-11.59-11.58-11.59c-7.23 0-10.13 11.1-12.06 14.96-1.92 3.86-12.06 32.32-19.29 32.32-7.24 0-13.03-10.61-17.85-18.33-4.83-7.71-12.06-26.53-16.88-26.53-4.82 0-7.23 9.17-10.13 14.96-2.92 5.8-5.81 11.59-10.64 11.59 0 0 4.83 0 0 0zM810.68 77.04s-1.93-7.72-6.03-10.13c-4.1-2.41-7.24-2.89-10.37-2.17-3.14.72-6.03 5.55-5.79 8.44.24 2.9 1.21 7 2.42 9.65 1.21 2.65 4.82 6.03 8.44 7.24 3.62 1.2 7.96.96 9.65-1.69 1.68-2.65 2.65-7.24 1.68-11.34 0 0 .97 4.1 0 0z"/><path class="st1" d="M53.57 153.26s7.24-3.85 18.33-14.47c11.1-10.61 26.05-25.56 31.35-47.27 5.31-21.71 1.45-41.97-11.58-41.97-13.02 0-31.84 14.96-37.14 41.97-5.3 27.01-.96 61.74-.96 61.74zM375.81 167.25s6.27-22.67 6.27-44.86c0-22.19-3.37-45.34-13.51-45.34-10.13 0-17.36 20.26-17.36 30.39s4.34 26.05 11.09 38.59c6.76 12.54 13.51 21.22 13.51 21.22zM149.09 145.54s16.4 1.93 16.4 36.18-20.74 36.66-24.6 36.66c-3.86 0-17.37-1.45-17.37-26.05 0-24.59 9.65-46.79 25.57-46.79 0 0-15.92 0 0 0z"/></svg>