<svg version="1.1" id="Layer_1" xmlns="http://www.w3.org/2000/svg" x="0" y="0" viewBox="0 0 612 147.96" xml:space="preserve"><style>.st0{fill:#12100b}</style><path class="st0" d="M12.93 30.34h13.31v6.51h.2c3.35-5.42 8.87-7.89 15.18-7.89 15.97 0 23.17 12.91 23.17 27.41 0 13.61-7.49 26.32-22.38 26.32-6.11 0-11.93-2.66-15.28-7.69h-.2v24.25h-14V30.34zm37.85 25.63c0-8.08-3.25-16.46-12.22-16.46-9.17 0-12.12 8.18-12.12 16.46 0 8.28 3.15 16.17 12.22 16.17 9.16-.01 12.12-7.89 12.12-16.17zM87.55 22.45h-14V10.92h14v11.53zm-14 7.89h14V81.3h-14V30.34zM110.13 59.22c.39 8.87 4.73 12.91 12.52 12.91 5.62 0 10.15-3.45 11.04-6.6h12.32c-3.94 12.03-12.32 17.15-23.86 17.15-16.07 0-26.03-11.04-26.03-26.81 0-15.28 10.55-26.91 26.03-26.91 17.35 0 25.73 14.59 24.74 30.26h-36.76zm22.77-8.87c-1.28-7.1-4.34-10.84-11.14-10.84-8.87 0-11.43 6.9-11.63 10.84h22.77zM155.18 30.34h13.31v9.46h.2c2.56-6.41 9.46-10.85 16.26-10.85.99 0 2.17.2 3.06.49v13.01c-1.28-.3-3.35-.49-5.03-.49-10.25 0-13.8 7.39-13.8 16.36V81.3h-14V30.34zM193.52 30.34h13.31v9.46h.2c2.56-6.41 9.46-10.85 16.26-10.85.99 0 2.17.2 3.06.49v13.01c-1.28-.3-3.35-.49-5.03-.49-10.25 0-13.8 7.39-13.8 16.36V81.3h-14V30.34zM241.65 59.22c.4 8.87 4.73 12.91 12.52 12.91 5.62 0 10.15-3.45 11.04-6.6h12.32c-3.94 12.03-12.32 17.15-23.86 17.15-16.07 0-26.03-11.04-26.03-26.81 0-15.28 10.55-26.91 26.03-26.91 17.35 0 25.73 14.59 24.74 30.26h-36.76zm22.77-8.87c-1.28-7.1-4.34-10.84-11.14-10.84-8.87 0-11.43 6.9-11.63 10.84h22.77zM348.81 48.28c-.89-5.72-4.54-8.77-10.35-8.77-8.97 0-11.93 9.07-11.93 16.56 0 7.3 2.86 16.07 11.63 16.07 6.51 0 10.25-4.14 11.14-10.35h13.51c-1.77 13.51-11.14 20.9-24.55 20.9-15.38 0-25.73-10.84-25.73-26.12 0-15.87 9.46-27.6 26.02-27.6 12.03 0 23.07 6.31 23.95 19.32h-13.69v-.01zM370.1 46.01c.79-13.11 12.52-17.05 23.96-17.05 10.15 0 22.38 2.27 22.38 14.49v26.52c0 4.63.49 9.27 1.77 11.34h-14.2c-.49-1.58-.89-3.25-.99-4.93-4.44 4.63-10.95 6.31-17.16 6.31-9.66 0-17.35-4.83-17.35-15.28 0-11.53 8.68-14.29 17.35-15.48 8.58-1.28 16.56-.99 16.56-6.7 0-6.01-4.14-6.9-9.07-6.9-5.32 0-8.77 2.17-9.27 7.69H370.1v-.01zm32.33 10.35c-2.36 2.07-7.3 2.17-11.63 2.96-4.34.89-8.28 2.37-8.28 7.49 0 5.22 4.04 6.51 8.57 6.51 10.94 0 11.34-8.68 11.34-11.73v-5.23zM427.28 30.34h13.31v9.46h.2c2.56-6.41 9.47-10.85 16.27-10.85.99 0 2.17.2 3.06.49v13.01c-1.28-.3-3.35-.49-5.03-.49-10.26 0-13.8 7.39-13.8 16.36V81.3h-14V30.34h-.01zM500.24 74.8h-.2c-3.25 5.52-8.97 7.89-15.48 7.89-15.38 0-22.87-13.21-22.87-27.31 0-13.7 7.59-26.42 22.58-26.42 6.01 0 11.93 2.56 15.18 7.59h-.1.2V10.92h14V81.3h-13.31v-6.5zm-12.22-35.29c-9.17 0-12.32 7.89-12.32 16.27 0 7.98 3.65 16.36 12.32 16.36 9.27 0 12.03-8.08 12.03-16.46-.01-8.29-2.96-16.17-12.03-16.17zM538.49 22.45h-14V10.92h14v11.53zm-14 7.89h14V81.3h-14V30.34zM549.53 30.34h13.31v7.1h.3c3.55-5.72 9.66-8.48 15.58-8.48 14.89 0 18.63 8.38 18.63 21V81.3h-14V52.52c0-8.38-2.47-12.52-8.97-12.52-7.59 0-10.84 4.24-10.84 14.59V81.3h-14V30.34h-.01zM252.86 111.33h11.81c6.53 0 9.06 4.14 9.06 8.4 0 4.25-2.53 8.4-9.06 8.4h-6.05v9.39h-5.76v-26.19zm5.76 12.32h4.47c2.68 0 5.06-.59 5.06-3.92 0-3.34-2.38-3.93-5.06-3.93h-4.47v7.85zM281.76 111.33h5.9l9.79 26.18h-5.98l-1.98-5.83h-9.79l-2.05 5.83h-5.83l9.94-26.18zm-.55 16.07H288l-3.3-9.61h-.07l-3.42 9.61zM299.73 111.33h14.12c4.69 0 7.66 3.27 7.66 7.22 0 3.08-1.24 5.39-4.14 6.56v.07c2.83.73 3.63 3.48 3.81 6.13.11 1.65.08 4.73 1.1 6.2h-5.76c-.7-1.65-.62-4.18-.92-6.27-.41-2.75-1.47-3.96-4.36-3.96h-5.76v10.23h-5.76v-26.18h.01zm5.75 11.85h6.31c2.57 0 3.96-1.1 3.96-3.74 0-2.53-1.39-3.63-3.96-3.63h-6.31v7.37zM326.2 111.33h5.76v26.19h-5.76v-26.19zM340.94 128.82c0 3.48 2.71 4.84 5.79 4.84 2.02 0 5.1-.59 5.1-3.27 0-2.82-3.92-3.3-7.77-4.33-3.89-1.03-7.81-2.53-7.81-7.45 0-5.35 5.06-7.92 9.79-7.92 5.46 0 10.49 2.38 10.49 8.44h-5.57c-.18-3.15-2.42-3.96-5.17-3.96-1.83 0-3.96.77-3.96 2.97 0 2.02 1.25 2.27 7.81 3.96 1.91.48 7.78 1.69 7.78 7.63 0 4.81-3.78 8.4-10.89 8.4-5.8 0-11.22-2.86-11.15-9.32h5.56v.01z"/></svg>