<svg xmlns="http://www.w3.org/2000/svg" viewBox="0 0 595.28 160"><path fill="#ce2226" d="M63.796 44.283l14.769-14.76 14.76 14.768-14.769 14.76z"/><path fill="#9e6bab" d="M80.927 61.414l14.769-14.76 14.76 14.768-14.769 14.76z"/><path fill="#1d71b8" d="M98.05 78.54l14.77-14.76 14.76 14.76-14.76 14.77z"/><path fill="#f39200" d="M46.668 61.416l14.769-14.76 14.76 14.768-14.768 14.76z"/><path fill="#97978b" d="M63.792 78.533l14.768-14.76 14.76 14.769-14.768 14.76z"/><path fill="#35b6b4" d="M80.92 95.67l14.77-14.76 14.76 14.76-14.76 14.77z"/><path fill="#fcdd05" d="M29.534 78.543l14.76-14.769 14.768 14.76-14.76 14.769z"/><path fill="#b8d584" d="M46.66 95.67l14.77-14.76L76.2 95.67l-14.77 14.77z"/><path fill="#49b170" d="M63.794 112.793L78.56 98.031l14.762 14.766-14.766 14.762z"/><g><path d="M277.61 36.78h15.91v83.49h-15.91zM179.89 78.64c-2.75 1.68-6.22 2.63-11.13 2.63h-14.47V50.78h14.6c4.17 0 7.77.83 10.28 2.27 4.42 2.38 7.06 6.82 7.06 12.68-.01 5.73-2.27 10.28-6.34 12.91m8.61-38.02c-4.91-2.41-10.53-3.84-19.15-3.84h-31.34v83.49h16.27V95.26h15.06c7.42 0 13.52-1.31 19.03-4.18 8.37-4.43 14.7-12.54 14.7-25.48.02-11.23-5-20.21-14.57-24.98M325.82 107.83c-6.35 0-10.42-2.5-10.42-7.77 0-7.9 6.94-9.45 13.03-9.45h14.12c-.23 9.92-5.74 17.22-16.73 17.22m2.74-52.39c-8.5 0-14.84 1.56-23.34 4.92v15.78c8.14-4.67 14.71-7.66 22.73-7.66 10.17 0 14.36 4.79 14.48 10.88h-16.87c-13.74 0-26.19 6.47-26.19 21.31 0 10.88 7.66 20.7 23.32 20.7 8.62 0 14.47-3.84 19.63-9.09v8.01h15.67V81.51c-.01-16.61-11.14-26.07-29.43-26.07M404.14 55.68c-9.8 0-15.06 2.37-21.05 8.96v-8.11h-15.78v63.74h15.78V88.21c0-11.96 5.27-17.46 21.05-17.46V55.68zM437.45 107.72c-10.52 0-17.35-8.62-17.35-19.28 0-10.64 6.83-19.25 17.35-19.25 10.53 0 17.23 8.6 17.23 19.25s-6.94 19.28-17.23 19.28m0-52.28c-19.62 0-33.6 14.85-33.6 33 0 18.91 14.47 32.91 33.6 32.91 19.14 0 33.49-14.24 33.49-32.91 0-18.53-14.11-33-33.49-33M477.04 36.78h16.15v13.04h-16.15zM477.16 56.53h15.92v63.74h-15.92zM532.89 107.72c-9.81 0-17.34-7.91-17.34-19.28 0-10.64 6.94-19.36 17.34-19.36 10.52 0 17.58 8.72 17.58 19.36-.01 10.65-6.82 19.28-17.58 19.28m16.97-70.94v27.75c-4.9-5.26-10.41-9.09-19.38-9.09-19.13 0-31.2 15.31-31.2 33 0 17.6 11.95 32.91 31.2 32.91 8.6 0 14.47-3.84 19.63-9.09v8.01h15.67V36.78h-15.92zM237.89 107.72c-10.41 0-17.34-8.5-17.34-19.28 0-10.64 6.82-19.25 17.34-19.25 10.53 0 17.23 8.6 17.23 19.25s-6.94 19.28-17.23 19.28m0-52.28c-19.61 0-33.61 14.85-33.61 33 0 18.91 14.48 32.91 33.61 32.91 19.15 0 33.48-14.24 33.48-32.91 0-18.42-13.99-33-33.48-33"/></g></svg>