<svg xmlns="http://www.w3.org/2000/svg" viewBox="0 0 1644.09 595.28"><path d="M176.99 100.38c-11.81-20.47-25.98-32.28-51.18-32.28-26.38 0-49.21 18.9-49.21 46.06 0 25.59 26.38 37.4 46.45 46.45l19.69 8.67C181.32 186.2 214 205.5 214 252.74c0 51.97-41.73 91.73-93.31 91.73-47.64 0-83.07-30.71-92.52-76.77l32.28-9.05c4.33 30.32 27.56 55.12 59.45 55.12 31.89 0 61.02-24.41 61.02-57.87 0-34.65-27.17-46.46-54.72-59.06l-18.11-7.87c-34.65-15.75-64.57-33.47-64.57-75.98 0-46.06 38.97-75.59 83.07-75.59 33.07 0 61.02 16.93 76.77 46.06l-26.37 16.92zM376.98 255.1l-35.82 84.25h-36.22L441.95 28.33l133.46 311.02H538.8l-35.04-84.25H376.98zm64.18-149.61l-50.79 118.9h100.39l-49.6-118.9zm277.9-32.28v88.19h98.82v30.71h-98.82v147.24h-33.07V42.5h135.04v30.71H719.06zm254.91 266.14H940.9V42.5h33.07v296.85zm173.74-30.71h81.89v30.71h-114.96V42.5h33.07v266.14zm467.87-117.32c0 85.43-70.08 153.15-154.72 153.15-84.65 0-154.73-67.72-154.73-153.15 0-85.04 70.08-153.93 154.73-153.93 84.64 0 154.72 68.89 154.72 153.93m-276.38-.39c0 66.93 54.33 122.84 121.65 122.84 67.32 0 121.65-55.9 121.65-122.84 0-67.32-53.54-122.83-121.65-122.83-68.11-.01-121.65 55.51-121.65 122.83M216.13 521.25h-.17l-14.34 42.81h-8.34l23.94-67.57 14.18 51.07 30.35-51.07 2.54 67.57h-8.34l-.79-42.81h-.17l-26.43 44.19-12.43-44.19zm81.86 26.56l-9.97 16.25h-8.68l41.65-67.57 20.25 67.57h-8.68l-4.82-16.25h-29.75zm20.2-33.61l-15.67 26.22h23.04l-7.37-26.22zm51.49-14.96h13.42c19.86 0 34.7 10.49 31.29 32.06-3.5 22.09-21.35 32.76-41.81 32.76h-13.15l10.25-64.82zm-1.01 57.43h2.84c16.51 0 31.76-6.19 34.74-25.02 2.99-18.91-10.31-25.02-26.82-25.02h-2.84l-7.92 50.04zm74.78-57.43h34.82l-1.17 7.39h-26.74l-2.87 18.14h25.96l-1.17 7.39h-25.96l-3.88 24.5h26.74l-1.17 7.39h-34.82l10.26-64.81zm99.87 64.82h-8.08l10.26-64.82h8.08l-10.26 64.82zm38.28-67.92l40.59 50.98 7.58-47.88h8.08l-10.69 67.48-40.59-50.98-7.65 48.31h-8.08l10.76-67.91zm122.85 67.92h-8.08l10.26-64.82h8.08l-10.26 64.82zm41.23 0h-8.08l9.09-57.43H731.3l1.17-7.39h38.86l-1.17 7.39h-15.39l-9.09 57.43zm41.49-16.25l-9.97 16.25h-8.68l41.65-67.57 20.25 67.57h-8.68l-4.82-16.25h-29.75zm20.2-33.61l-15.67 26.22h23.04l-7.37-26.22zm50.81 42.47h19.69l-1.17 7.39h-27.77l10.26-64.82h8.08l-9.09 57.43zm33.43-57.43h9.29l11.52 27.68 20.29-27.68H942l-26.95 36.62-4.46 28.2h-8.08l4.46-28.2-15.36-36.62zm112.8 0h13.41c19.86 0 34.7 10.49 31.28 32.06-3.5 22.09-21.35 32.76-41.81 32.76h-13.15l10.27-64.82zm-1.01 57.43h2.84c16.51 0 31.76-6.19 34.74-25.02 2.99-18.91-10.31-25.02-26.82-25.02h-2.84l-7.92 50.04zm73.03-8.86l-9.97 16.25h-8.68l41.65-67.57 20.25 67.57H1111l-4.82-16.25h-29.75zm20.2-33.61l-15.67 26.22H1104l-7.37-26.22zm50.81 42.47h19.69l-1.17 7.39h-27.77l10.26-64.82h8.08l-9.09 57.43zm94.84-50.04l5.64-7.39h14.53l-10.26 64.82h-7.74l9.09-57.43h-11.26zm49.03 54.76l20.97-23.3-.15-.17c-2.04.95-4.23 1.2-6.47 1.2-10.74 0-17.3-9.63-15.67-19.94 1.88-11.86 13-21.32 24.78-21.32 11.18 0 20.11 9.29 18.3 20.72-1.02 6.45-5.18 12.04-9.76 17.11l-26.8 29.75-5.2-4.05zm34.02-42.73c1.09-6.88-4.04-13.58-11.09-13.58-7.74 0-15.25 6.19-16.42 13.58-1.23 7.74 4.9 13.58 11.6 13.58 8.26.01 14.79-6.53 15.91-13.58m43.47 7.74c6.96 0 13.13-2.58 14.37-10.4 1.03-6.53-3.06-11.09-9.51-11.09-5.84 0-10.47 3.7-12.21 9.28h-7.99c3.23-10.66 10.92-16.33 21.58-16.33 10.32 0 17.69 6.62 15.98 17.45-1.01 6.36-4.58 11.52-10.57 14.62 5.88 3.01 7.76 9.11 6.65 16.08-1.92 12.12-12.19 19.43-23.8 19.43-10.14 0-18.2-6.71-17.02-17.37h7.82c-.23 6.36 4.73 10.32 10.92 10.32 7.22 0 13.28-5.67 14.4-12.72 1.31-8.26-3.59-13.15-11.68-12.55l1.06-6.72zm82.09 21.15l-1.12 7.05h-7.4l-1.5 9.46h-7.74l1.5-9.46h-31.98l48.92-58.12-8.09 51.07h7.41zm-10.9-26.74h-.17l-22.46 26.74h18.4l4.23-26.74z"/></svg>