<svg xmlns="http://www.w3.org/2000/svg" viewBox="0 0 486.18 155.89"><path d="M23.99 52.94c0 3.21 5.44 5.17 5.44 5.17s43.62 17.75 71.28 38.81v18.25c-39-29.13-84.64-45.99-84.64-45.99s-4.14-1.46-5.42-2.25c-1.22-.75-1.65-2.56-1.68-4.2V44.64c0-2.59 5.54-7.17 5.54-7.17 12.75-11.25 25.51-13.5 41.5-13.5 25 0 44.75 14.25 44.75 14.25l-.08 17s-19.92-14.9-44.67-14.9c-23.51 0-32.02 8.28-32.02 12.62zm51.07 60.6s-6.68 2.15-18.55 2.15c-18.62 0-35.86-9.31-47.49-16.34v18.59s19.13 13.97 47.71 13.97c20.91 0 35.23-7.62 35.23-7.62s-4.96-3.63-9.02-6.25-7.88-4.5-7.88-4.5zm172.22 16.15h17.23V26.73h-17.23v102.96zm35.69-88.31h31.82v88.31h17.42V41.38h31.73V26.73h-80.97v14.65zM452.4 26.73v46.22h-53.58V26.73H381.6v102.96h17.22V87.95h53.58v41.74h17.23V26.73H452.4zM173.09 80.17l-37.13-53.44h-17.1v102.95h17.13V53.72l37.1 54.23 37.2-54.21v75.94h17.06V26.73h-17.07l-37.19 53.44z"/></svg>