<svg version="1.1" id="Logo" xmlns="http://www.w3.org/2000/svg" x="0" y="0" viewBox="0 0 212.6 25.51" xml:space="preserve"><style>.st2{fill-rule:evenodd;clip-rule:evenodd}.st2,.st3{fill:#0c1c49}</style><path fill-rule="evenodd" clip-rule="evenodd" fill="#d3072a" d="M101.16 10.04h8.3v5.41h-8.3z"/><path fill-rule="evenodd" clip-rule="evenodd" fill="#fff" d="M92.87 10.06h8.3v5.4h-8.3z"/><path class="st2" d="M92.87 7.36h16.59v2.69H92.87zM92.87 15.44h16.59v2.7H92.87z"/><path class="st3" d="M15.73 8.75H12v9.4h-1.55v-9.4H6.71V7.36h9.02v1.39zM27.2 7.22c3.56 0 5.81 2.53 5.81 5.54 0 2.91-2.18 5.54-5.84 5.54-3.53 0-5.76-2.61-5.76-5.54 0-2.99 2.29-5.54 5.79-5.54zm0 9.65c2.42 0 4.21-1.76 4.21-4.11 0-2.37-1.79-4.11-4.21-4.11-2.4 0-4.19 1.74-4.19 4.11-.01 2.35 1.78 4.11 4.19 4.11zM50.34 18.15h-1.55v-8.4h-.03l-3.32 4.18h-.25l-3.32-4.18h-.03v8.4h-1.55V7.36h1.46l3.58 4.43 3.59-4.43h1.44v10.79zM69.17 18.15h-1.55v-8.4h-.03l-3.32 4.18h-.25L60.7 9.75h-.03v8.4H59.1V7.36h1.46l3.58 4.43 3.59-4.43h1.44v10.79zM83.58 7.36h1.87l-4 5.09v5.69H79.9v-5.71l-4-5.08h1.87l2.89 3.72 2.92-3.71zM127.38 18.15h-1.55v-4.7h-6.04v4.7h-1.55V7.36h1.55v4.7h6.04v-4.7h1.55v10.79zM135.36 18.15h-1.55V7.36h1.55v10.79zM143.27 16.76h4.87v1.39h-6.42V7.36h1.55v9.4zM158.35 8.75h-4.21v2.99h4.21v1.39h-4.21v5.01h-1.55V7.36h5.76v1.39zM165.33 18.15h-1.55V7.36h1.55v10.79zM180.09 17.41c-1.44.63-2.61.89-4.11.89-3.31 0-5.74-2.31-5.74-5.47 0-3.18 2.5-5.6 5.79-5.6 1.27 0 2.15.21 3.84.92V9.7c-1.27-.7-2.58-1.06-3.88-1.06-2.34 0-4.16 1.79-4.16 4.13 0 2.4 1.8 4.1 4.37 4.1.84 0 1.6-.19 2.34-.43v-2.21h-2.07v-1.39h3.62v4.57zM192.11 8.75h-4.57v3.26h4.41v1.39h-4.41v3.35h4.71v1.39h-6.27V7.36h6.12v1.39zM200.27 7.36c2.18 0 3.54 1.16 3.54 3.02 0 1.25-.65 2.18-1.8 2.64.98.65 1.58 1.64 2.4 2.99.46.74.73 1.11 1.47 2.13h-1.85l-1.42-2.21c-1.42-2.21-2.07-2.47-2.86-2.47h-.65v4.68h-1.55V7.36h2.72zm-1.17 4.72h1c1.66 0 2.14-.85 2.12-1.76-.02-1.01-.62-1.63-2.12-1.63h-1v3.39z"/></svg>