<svg version="1.1" id="Слой_1" xmlns="http://www.w3.org/2000/svg" x="0" y="0" viewBox="0 0 595.28 39.89" xml:space="preserve"><style>.st0{fill-rule:evenodd;clip-rule:evenodd;fill:#010303}</style><path class="st0" d="M62.18 12.16h1.77l-7.33 16.08h-.59L48.7 12.16h1.79l5.83 12.92 5.86-12.92zM84.54 28.09h1.64V12.16h-1.64v15.93zM107.51 20.1c0-4.76 3.75-8.09 8.26-8.09 2.77 0 5.1 1.23 6.55 3.16l-1.25 1c-1.08-1.57-2.92-2.6-5.29-2.6-3.9 0-6.45 2.77-6.45 6.55s2.55 6.55 6.45 6.55c2.35 0 4.17-1.01 5.27-2.55l1.23 1.03c-1.45 1.89-3.75 3.09-6.5 3.09-4.56 0-8.27-3.38-8.27-8.14zM148.7 28.09h-1.64V13.66h-5.59v-1.5h12.82v1.5h-5.59v14.43zM188.17 20.13c0-3.78-2.55-6.55-6.45-6.55-3.9 0-6.45 2.77-6.45 6.55s2.55 6.55 6.45 6.55c3.9-.01 6.45-2.78 6.45-6.55zm-14.71 0c0-4.68 3.65-8.12 8.26-8.12 4.61 0 8.26 3.43 8.26 8.12 0 4.73-3.73 8.11-8.26 8.11-4.53 0-8.26-3.38-8.26-8.11zM216.22 13.65h-3.26v5.76h3.31c2.53 0 3.46-1.45 3.46-2.94-.01-1.59-1.04-2.82-3.51-2.82zm1.57 7.11l5.15 7.33h-1.96l-5.05-7.18h-2.97v7.18h-1.64V12.16h5.35c2.42 0 4.78 1.3 4.78 4.31-.01 1.84-1.14 3.75-3.66 4.29zM244.61 28.09h1.64V12.16h-1.64v15.93zM270.35 28.09h-1.79l7.36-16.08h.58l7.33 16.08h-1.79l-5.83-12.92-5.86 12.92zM307.79 26.6h3.31c2.21 0 3.46-1.52 3.46-3.07 0-1.64-1.11-2.94-3.51-2.94h-3.26v6.01zm3.06-12.94h-3.06v5.44h2.87c1.69 0 3.28-.91 3.28-2.77 0-1.77-1.42-2.67-3.09-2.67zm-4.71 14.43V12.16h4.73c3.06 0 4.8 2.04 4.8 4.17 0 1.55-.91 3.16-2.45 3.41 1.89.34 3.04 1.84 3.04 3.8 0 2.23-1.33 4.56-5.59 4.56h-4.53v-.01zM349.76 28.09h-9V12.16h9v1.5h-7.35v5.44h6.81v1.49h-6.81v6.01h7.35v1.49zM371.77 20.1c0-4.76 3.76-8.09 8.26-8.09 2.77 0 5.1 1.23 6.55 3.16l-1.25 1c-1.08-1.57-2.92-2.6-5.3-2.6-3.9 0-6.45 2.77-6.45 6.55s2.55 6.55 6.45 6.55c2.35 0 4.17-1.01 5.27-2.55l1.23 1.03c-1.45 1.89-3.75 3.09-6.5 3.09-4.55 0-8.26-3.38-8.26-8.14zM420.73 28.09h-2.11l-7.25-7.74-1.64 1.62v6.12h-1.64V12.16h1.64v7.65l7.72-7.65h2.16l-7.14 7.08 8.26 8.85zM455.06 28.09h-1.65v-7.5h-9.7v7.5h-1.65V12.16h1.65v6.94h9.7v-6.94h1.65v15.93zM478.3 28.09h-1.79l7.36-16.08h.58l7.33 16.08h-1.79l-5.83-12.92-5.86 12.92zM521.33 25.08l5.56-13.07h.59L534 28.09h-1.72l-5.1-12.85-5.51 13.02h-.61l-5.57-13.02-5.1 12.85h-1.74l6.52-16.08h.56l5.6 13.07z"/></svg>