<?xml version="1.0" encoding="utf-8"?><svg xmlns="http://www.w3.org/2000/svg" xmlns:xlink="http://www.w3.org/1999/xlink"><symbol id="Belstaff" viewBox="0 0 595.28 261.79" xml:space="preserve" xmlns="http://www.w3.org/2000/svg"><style>.aast0{fill:#293240}</style><path class="aast0" d="M256.53 66c1.79 3.64 2.86 4 10.8 4.42-2.68 1.01-8.77 3.27-11.46 4.35.47.95 3.65 4.58 6.92 7.64 1.15 1.07 2.92 1.73 5.72 1.71 3.31-.01 6.33-.05 6.33-.05s-5.36 4.53-7.09 6.03c3.52 2.11 6.08 3.64 8.65 4.95 3.44 1.76 5.02 1.2 11.1-2.39-.79 2.2-4.52 12.49-4.96 13.73h12.94l2.24-6.83s.03 6.69 0 6.83h7.68c-.03-.15 0-6.83 0-6.83l2.23 6.83h13c-.43-1.24-4.17-11.53-4.95-13.73 6.09 3.59 7.65 4.15 11.09 2.39 2.57-1.31 5.11-2.84 8.65-4.95-1.74-1.5-7.1-6.03-7.1-6.03s3.01.04 6.34.05c2.79.01 4.57-.65 5.71-1.71 3.27-3.06 6.45-6.69 6.92-7.64-2.68-1.08-8.77-3.34-11.45-4.35 7.93-.42 9.01-.78 10.79-4.42 1.49-3.02 3.24-6.66 4.77-11.1-4.18.24-9.84.78-13.04.76 4.44-3.26 8.02-4.63 8.43-8.07.9-7.26 1.08-16.15 1.08-16.15l-15.85 10.69s2.16-2.88 3.87-5.49c3.28-5.02 4.23-8.59-3.87-22.13-.29.46-8.07 13.48-8.04 13.49 2.24-6.34 2.88-10.9 1.95-13.86-.96-2.98-7.99-6.86-11.67-7.81-.02.59-3.43 34.49-3.43 34.49h-.02c7.67 3.51 13.01 11.25 13.01 20.23 0 12.29-9.96 22.25-22.24 22.25-12.29 0-22.24-9.96-22.24-22.25 0-8.97 5.32-16.71 12.97-20.22l.02-.01s-3.41-33.9-3.43-34.49c-3.67.95-10.71 4.83-11.67 7.81-.94 2.96-.29 7.52 1.94 13.86.03-.01-7.8-13.15-8.02-13.49-8.12 13.54-7.17 17.12-3.89 22.13 1.71 2.6 3.89 5.49 3.89 5.49l-15.86-10.69s.18 8.89 1.07 16.15c.42 3.44 3.99 4.81 8.44 8.07-3.2.03-8.86-.52-13.04-.76 1.52 4.44 3.28 8.08 4.77 11.1"/><path class="aast0" d="M301.23 78.67c6.85 0 8.59-1.98 8.59-1.98V66.3h8.28c1.44-7.99-.72-13.29-1.32-14.3h-30.21c-.61 1.01-2.77 6.31-1.33 14.3h8.17v10.39c.01 0 .97 1.98 7.82 1.98M47.94 177.12h18.88c6.06 0 7.81-2.03 7.81-5.85 0-3.81-1.84-5.6-8.21-5.6H47.94v11.45zm18.25-22.67c5.5 0 7.41-.9 7.41-4.86 0-3.44-1.59-4.94-7.33-4.94H47.94v9.8h18.25zm-33.86-21.84h35.05c16.16 0 21.1 8 21.1 15.33 0 6.43-2.23 9.64-7.81 12.04 5.58 2.01 9.08 5.22 9.08 12.94 0 9.48-5.09 16.23-22.31 16.23H32.33v-56.54zm76 0h52.02v11.13h-36.4v10.78h27.23v11.14h-27.23v12.12h37.84v11.38h-53.46v-56.55zm71.56 0h15.61v44.88h31.85v11.67h-47.46v-56.55zm59.27 46.95l10.27-8.58c4.22 4.64 11.01 7.83 20.39 7.83 8.53 0 11.88-1.63 11.88-5.29 0-4.04-3.11-4.71-14.03-6.14-11.88-1.56-26.29-3.95-26.29-18.09 0-12.12 10.37-17.73 25.98-17.73 13.54 0 21.67 3.45 27.96 9.73l-9.63 8.59c-2.72-3.28-8.29-6.95-17.76-6.95-8.3 0-11.55 1.5-11.55 5.08 0 3.82 3.26 4.65 14.75 5.91 12.42 1.42 25.95 4.48 25.95 18.18 0 12.33-8.52 18.41-27 18.41-15.15 0-24.39-4.28-30.92-10.95m70.35-35.28v-11.67h53.77v11.67h-18.56v44.88H329.1v-44.88h-19.59zm90.26 1.72l-8.21 21.69h16.41l-8.2-21.69zm-16.32 43.16h-15.14l22.78-56.54h18.65l22.93 56.54h-16.49l-3.98-10.55h-24.77l-3.98 10.55zm65.09-56.55h52.01v11.13h-36.4v12.28h28.83v11.14h-28.83v22h-15.61v-56.55zm70.27 0h52.01v11.13h-36.41v12.28h28.85v11.14h-28.85v22h-15.6v-56.55zm-317.94 93.9h22.24v5.07h-15.57v4.9h11.65v5.08h-11.65v5.51h16.18v5.18h-22.85v-25.74zm24.82 0h7.6l6.16 9.46 5.79-9.46h7.01l-9.77 14.98v10.76h-6.67v-10.82l-10.12-14.92zm29.15 0h22.24v5.07h-15.57v4.9h11.65v5.08h-11.65v5.51h16.18v5.18h-22.85v-25.74zm25.61 0h7.19l4.56 18.15 5.01-18.15h5.55l5.37 18.45 4.33-18.45H319l-6.98 25.74h-7.84l-4.35-16.18-4.43 16.18h-7.8l-7.15-25.74zm41.92 0h22.24v5.07h-15.56v4.9h11.64v5.08h-11.64v5.51h16.17v5.18h-22.85v-25.74zm32.08 25.74h-6.47l9.74-25.74h7.97l9.81 25.74h-7.05l-1.71-4.8h-10.59l-1.7 4.8zm6.98-19.65l-3.51 9.88h7.02l-3.51-9.88zM0 0"/></symbol><symbol viewBox="0 0 498.55 127.96" id="CARRERA" xmlns="http://www.w3.org/2000/svg"><path d="M18.42 95.74v13.73h10.34v-2.68h-7.38v-2.87h6.4v-2.7h-6.4v-2.78h7.28v-2.7H18.42zm36.17 0l-3.31 5.52-3.23-5.52h-3.5l5.23 8.33v5.4h2.99v-5.46l5.21-8.27h-3.39zm19.79 0v13.73h10.36v-2.68h-7.38v-2.87h6.4v-2.7h-6.4v-2.78h7.28v-2.7H74.38zm35.56-.03l-3.05 9.34-2.82-9.31h-3.19l4.64 13.84h2.6l3.06-8.98 3.07 8.98h2.61l4.63-13.84h-3.13l-2.81 9.31-3.04-9.34h-2.57zm28.3.03v13.73h10.35v-2.68h-7.38v-2.87h6.4v-2.7h-6.4v-2.78h7.28v-2.7h-10.25zm32.2-.09l-5.82 13.82h3.05l1.24-3.07h5.74l1.25 3.07h3.13l-5.82-13.82h-2.77zm1.33 3.63l1.81 4.45h-3.62l1.81-4.45zm23.88-3.54h6.22c1.72 0 3.06.49 3.95 1.39.77.77 1.17 1.85 1.17 3.14v.04c0 2.22-1.19 3.62-2.91 4.26l3.32 4.9h-3.5l-2.91-4.4h-2.35v4.4h-2.99V95.74zm6.01 6.68c1.46 0 2.3-.79 2.3-1.95v-.04c0-1.29-.9-1.96-2.35-1.96h-2.97v3.95h3.02zm41.99 5.06l1.76-2.15c1.23 1.02 2.51 1.67 4.06 1.67 1.22 0 1.95-.49 1.95-1.29v-.04c0-.76-.46-1.15-2.72-1.74-2.74-.71-4.51-1.47-4.51-4.2v-.04c0-2.49 1.98-4.14 4.75-4.14 1.98 0 3.67.62 5.05 1.74l-1.55 2.28c-1.2-.84-2.38-1.36-3.54-1.36-1.14 0-1.74.54-1.74 1.21v.04c0 .9.57 1.19 2.92 1.8 2.76.73 4.31 1.72 4.31 4.12v.04c0 2.73-2.05 4.26-4.99 4.26-2.05 0-4.12-.73-5.75-2.2m28.02-11.74h3v13.73h-3V95.74zm30.05 0v8.46l-6.36-8.46h-2.77v13.73h2.96v-8.72l6.57 8.72h2.54V95.74h-2.94zm20.14 6.91v-.04c0-3.9 2.92-7.11 7.09-7.11 2.56 0 4.09.87 5.35 2.13l-1.89 2.22c-1.05-.97-2.12-1.56-3.48-1.56-2.28 0-3.94 1.93-3.94 4.28v.04c0 2.36 1.61 4.32 3.94 4.32 1.55 0 2.51-.63 3.57-1.61l1.91 1.94c-1.4 1.52-2.96 2.46-5.57 2.46-4.01 0-6.98-3.12-6.98-7.07m29.47-6.91v13.73h10.34v-2.68h-7.38v-2.87h6.41v-2.7h-6.41v-2.78h7.28v-2.7h-10.24zm50.63-.09l-3.9 1.17.62 2.47 2.36-.58v10.76H404V95.65h-2.04zm19.75 12.44l1.58-2.3c.99.81 1.82 1.17 2.96 1.17 1.68 0 2.56-1.27 2.76-3.11-.66.57-1.57.94-2.76.94-2.95 0-4.85-1.65-4.85-4.43v-.04c0-2.77 2.12-4.81 5.18-4.81 1.83 0 2.89.45 3.92 1.49.97.98 1.61 2.48 1.61 5.18v.04c0 4.46-2.08 7.49-5.94 7.49-1.97 0-3.3-.66-4.46-1.62m7.37-7.86v-.04c0-1.21-.9-2.09-2.39-2.09-1.47 0-2.31.86-2.31 2.08v.04c0 1.22.89 2.06 2.37 2.06 1.47 0 2.33-.87 2.33-2.05m19.36 7.43l1.81-2.18c1.02.94 2.04 1.49 3.25 1.49 1.39 0 2.26-.69 2.26-1.9v-.04c0-1.18-.99-1.87-2.41-1.87-.85 0-1.63.23-2.27.51l-1.72-1.17.39-6.77h8.34v2.64h-5.78l-.16 2.38c.55-.14 1.03-.23 1.79-.23 2.64 0 4.75 1.29 4.75 4.4v.03c0 2.9-2.03 4.75-5.16 4.75-2.17.02-3.77-.77-5.09-2.04m28.6.58c-1-1-1.61-2.48-1.61-5.2V103c0-4.23 1.9-7.5 5.95-7.5 1.84 0 3.04.55 4.24 1.52l-1.56 2.33c-.9-.69-1.61-1.1-2.78-1.1-1.68 0-2.54 1.37-2.73 3.18.68-.45 1.47-.88 2.81-.88 2.7 0 4.77 1.51 4.77 4.38v.04c0 2.8-2.23 4.75-5.18 4.75-1.76 0-2.97-.51-3.91-1.48m6.12-3.13v-.04c0-1.15-.89-2.01-2.37-2.01-1.47 0-2.32.83-2.32 1.99v.03c0 1.17.89 2.05 2.37 2.05 1.47 0 2.32-.84 2.32-2.02m-14.88-87.52c12.48 45.99 17.5 63.95 17.75 64.9h-19.4L464 73.62h-28.27l-6.07 8.87h-22.52c-22.03 0-30.9-14.65-23.18-36.29h8.38c4.44 0 6.57-1.87 7.9-5.96 1.16-3.57.64-6.13-5.58-6.13h-13.33l-17.74 48.38h-89.42c-22 0-30.88-14.65-23.17-36.29h8.38c4.43 0 6.58-1.87 7.9-5.96 1.14-3.57.65-6.13-5.6-6.13h-13.29l-17.75 48.38H202.5c-22 0-30.87-14.65-23.16-36.29h8.39c4.43 0 6.58-1.87 7.9-5.96 1.13-3.57.65-6.13-5.58-6.13h-13.32l-17.75 48.38H128.9l-2.61-8.87h-28.3l-6.09 8.87H52.47c-24.16 0-39.28-8.87-32.37-36.8 4.26-17.38 18.07-28.1 41.92-28.1h28.92l-6.09 16.68H62.33c-7.39 0-18.41 1.2-21.7 14.14-2.78 11.41-.17 17.04 15.46 17.04h25.8l30.72-47.86h18.26l12.8 48.38 19.07-48.38h24.16c10.19 0 17.27 0 23.17 3.58 6.74 4.25 8.72 11.92 6.43 19.08-.84 2.73-3.45 7.84-5.61 10.22-6.39 6.97-13.79 7.83-16.26 7.83-.51 6.81 3.12 7.67 10.19 7.67h11.5l18.09-48.38h24.14c10.2 0 17.26 0 23.18 3.58 6.74 4.25 8.72 11.92 6.4 19.08-.8 2.73-3.45 7.84-5.58 10.22-6.41 6.97-13.79 7.83-16.27 7.83-.5 6.81 3.12 7.67 10.18 7.67h12.35l18.07-48.38h48.81l-6.23 16.18h-28.27l-3.46 9.02h23.99l-5.07 14.47h-23.7l-3.29 8.71h39.62l18.07-48.38h24.16c10.19 0 17.27 0 23.18 3.58 6.72 4.25 8.7 11.92 6.4 19.08-.83 2.73-3.45 7.84-5.58 10.22-6.42 6.97-13.81 7.83-16.28 7.83-.48 6.81 3.13 7.67 10.2 7.67h10.19l31.55-48.38h17.11zM105.55 60.51h18.89L119.2 39.9h-1.33l-12.32 20.61zm337.75 0h18.89l-5.25-20.62h-1.33L443.3 60.51z"/></symbol><symbol viewBox="0 0 242.2 64.09" id="Celine" xmlns="http://www.w3.org/2000/svg"><path d="M14.85 37.42c0 12.02 9.6 18.5 18.62 18.5 8.12 0 13.14-5.2 14.3-6.54.17-.19.36-.44.36-.44l-3.63-3.98s-.23.29-.42.48c-1.05 1.1-5.07 4.83-10.95 4.83-7.13 0-12.29-5.47-12.29-12.98 0-6.76 4.26-13.58 12.39-13.58 4.96 0 8.35 3.07 9.39 4.15.24.23.48.54.48.54l4.02-3.7s-.23-.31-.46-.57c-1.26-1.45-5.83-6.01-13.47-6.01-8.88 0-18.34 6.77-18.34 19.3zm145.42-18.54h-2.02v36.03h5.99V30.6c.65.68 23.77 24.5 23.77 24.5h1.93V18.96h-6.11v23.88c-.66-.68-23.46-23.96-23.46-23.96h-.1zm68.58.13h-18.19v35.94h19.9v-5.42h-14.19V38.07h10.4v-5.46h-10.4v-8.15h12.68v-5.45h-.2zm-123.66 0H99.7v35.94h18.06v-5.64h-12.38v-30.3h-.19zm32.04 0h-5.29v35.94h5.49V19.01h-.2zm-56.29 0H62.76v35.94h19.89v-5.42H68.46V38.07h10.41v-5.46H68.46v-8.15h12.68v-5.45h-.2zM74.96 5.93l-8.32 6.16 2.25 2.9 8.99-5.31-2.76-3.86-.16.11z"/></symbol><symbol viewBox="0 0 396 126" id="FENDI" xmlns="http://www.w3.org/2000/svg"><path d="M369.32 116.36c-2.46 0-4.46-2-4.46-4.46V13.03c0-2.46 2-4.46 4.46-4.46h9.81c2.46 0 4.46 2 4.46 4.46v98.87c0 2.46-2 4.46-4.46 4.46h-9.81zM170.26 20.31c0 2.46-2 4.46-4.46 4.46h-49.97v28.01h42.85c2.46 0 4.46 2 4.46 4.46v7.2c0 2.46-1.99 4.46-4.46 4.46h-42.85v30.84h49.79c2.46 0 4.46 2 4.46 4.46v7.71c0 2.46-1.99 4.46-4.46 4.46h-64.86c-2.46 0-4.46-2-4.46-4.46V13.03c0-2.46 1.99-4.46 4.46-4.46h65.04c2.46 0 4.46 2 4.46 4.46v7.28zM13 13.03c0-2.46 2-4.46 4.46-4.46h64.68c2.46 0 4.46 2 4.46 4.46v7.17c0 2.46-2 4.46-4.46 4.46h-50.7v27.88h34.21c2.46 0 4.46 2 4.46 4.46v7.76c0 2.46-2 4.46-4.46 4.46H31.43v42.69c0 2.46-1.99 4.46-4.46 4.46h-9.52c-2.46 0-4.46-2-4.46-4.46L13 13.03zM201.59 43.9v68c0 2.46-2 4.46-4.46 4.46h-9.82c-2.46 0-4.46-2-4.46-4.46V13.03c0-2.46 2-4.46 4.46-4.46h9.74c3.2 0 4.89.5 6.18 2.88l37.91 68.53V13.03c0-2.46 1.99-4.46 4.46-4.46h9.67c2.46 0 4.46 2 4.46 4.46v98.87c0 2.46-2 4.46-4.46 4.46h-9.37c-3.2 0-4.89-.5-6.18-2.88L201.59 43.9zM301.71 8.57h-23.07c-2.46 0-4.46 2-4.46 4.46v98.87c0 2.46 2 4.46 4.46 4.46h23.07c42.37 0 51.26-29.04 51.26-53.39 0-33.05-20.12-54.4-51.26-54.4zm3.98 91.63H292.9V24.87h8.5c21.07 0 33.65 14.27 33.65 38.17.01 25.63-17.17 37.16-29.36 37.16z"/></symbol><symbol id="GIGIBarselona" viewBox="0 0 198.07 40.09" xml:space="preserve" xmlns="http://www.w3.org/2000/svg"><style>.aest0{fill:#293240}</style><path class="aest0" d="M21.14 21.85h-5.23v-3.4h9.07v11.59h-1.82l-.88-2.67c-1.64 2.05-4.05 3.26-6.99 3.26-6.02 0-9.6-4.35-9.6-11.16 0-6.78 4.2-11.21 10.27-11.21 4.08 0 7.34 1.97 8.63 5.52l-3.2 1.85c-.82-2.47-2.67-3.96-5.52-3.96-4.26 0-6.22 3.2-6.22 7.81 0 4.49 1.88 7.87 6.08 7.81 2.49-.03 4.7-1.64 5.4-4.32v-1.12h.01zm8.24-13h3.93v21.19h-3.93V8.85zm22.45 13H46.6v-3.4h9.07v11.59h-1.82l-.88-2.67c-1.64 2.05-4.05 3.26-6.99 3.26-6.02 0-9.6-4.35-9.6-11.16 0-6.78 4.2-11.21 10.27-11.21 4.08 0 7.34 1.97 8.63 5.52l-3.2 1.85c-.82-2.47-2.67-3.96-5.52-3.96-4.26 0-6.22 3.2-6.22 7.81 0 4.49 1.88 7.87 6.08 7.81 2.49-.03 4.7-1.64 5.4-4.32v-1.12h.01zm8.23-13h3.93v21.19h-3.93V8.85zM72.5 29.4h2.69c3.75 0 5.51-1.76 5.51-5.06 0-3.08-1.32-5.26-5.93-5.26H72.5V29.4zm1.95-19.92H72.5v8.92h2.21c3.05 0 4.67-1.59 4.67-4.64 0-2.77-1.4-4.28-4.93-4.28m.12-.64c4.95 0 7.8 1.57 7.8 4.73 0 2.8-2.91 4.48-5.26 5.04v.03c3.08.34 6.68 1.93 6.8 5.15.14 3.97-3.33 6.27-8.45 6.27h-8.64v-.62l2.77-.08V9.53l-2.77-.08v-.61h7.75zm19.59 16.73l.06-4.61c-1.65 1.71-5.29 2.71-5.29 5.26 0 1.62.98 2.94 2.52 2.94 1.31-.01 2.68-1.07 2.71-3.59m1.09 4.82c-.5-.39-1.06-1.34-1.09-2.8-.64 1.85-2.15 2.8-3.89 2.8-2.32 0-4.2-1.54-4.2-3.72 0-2.21 1.65-2.74 4.73-4.11 2.29-1.04 3.41-1.76 3.41-3.27 0-1.82-1.29-2.88-2.71-2.88-1.9 0-3.05 1.23-2.71 4.42-1.29.45-2.88-.06-2.88-1.01 0-.84.78-1.43 1.73-2.1 1.57-1.12 3.1-2.04 5.12-2.04 2.01 0 4.08.67 3.97 4.17-.08 2.15-.11 4.61-.11 5.96 0 1.71.14 2.69.56 3.1l1.9-.5.14.53-3.97 1.45zm14.02-11.36l-3.05-1.34c-.31.25-1.2 1.59-1.2 2.8v8.84l2.97.08v.62h-7.66v-.62l2.18-.08v-9.99c0-.45-.06-.5-.45-.7l-1.73-.9v-.2l4.7-2.1v3.72c.62-2.38 2.29-3.44 3.75-3.44 2.56.01 1.83 3.03.49 3.31m15.32 5.93c-.84 3.69-3.08 5.43-6.18 5.43-3.97 0-7.02-2.96-7.02-7.33 0-4.31 3.41-7.33 7.52-7.33 2.43 0 4.76 1.12 4.76 2.99 0 1.12-1.01 1.59-2.38 1.34-.48-2.63-1.57-3.72-3.33-3.72-1.99 0-3.66 1.71-3.75 5.2-.08 3.8 1.99 7.41 5.31 7.41 1.73 0 3.92-.89 4.7-4.11l.37.12zm4.26-4.7h5.88c.98 0 1.09-.08 1.09-.61 0-1.46-.81-3.44-2.99-3.44-1.97-.01-3.54 1.36-3.98 4.05m10.29 4.7c-.84 3.69-3.08 5.43-6.21 5.43-3.97 0-7.02-2.74-7.02-7.27 0-4.48 3.13-7.39 6.85-7.39 2.18 0 5.4 1.03 6.13 5.12h-10.1c-.03.34-.06.67-.06 1.04 0 3.97 2.01 7.08 5.34 7.08 1.73 0 3.92-.89 4.7-4.11l.37.1zm5.58 4.36l2.18.09v.61h-6.88v-.61l2.18-.09V8.9l-2.18-.08V8.2h4.7v21.12zm15-4.53c0-3.19-1.82-8.48-5.26-8.48-1.68 0-3.75.98-3.75 5.01 0 3.19 1.82 8.48 5.26 8.48 1.68-.01 3.75-.99 3.75-5.01m2.79-1.63c0 4.08-3.13 7.22-7.33 7.22-4.36 0-7.27-3.47-7.27-7.44 0-4.08 3.13-7.22 7.33-7.22 4.36 0 7.27 3.47 7.27 7.44m14.77 6.16l2.18.08v.61h-6.88v-.61l2.18-.08v-8.06c0-3.08-1.37-4.14-3.1-4.14s-3.08 1.06-3.08 4.14v8.06l2.18.08v.61h-6.88v-.61l2.18-.08v-9.99c0-.45 0-.5-.45-.73l-1.74-.87v-.2l4.7-2.1v3.64c.62-2.24 2.24-3.36 4.42-3.36 2.38 0 4.28 1.31 4.28 5.2v8.41h.01zm11.67-3.75l.06-4.61c-1.65 1.71-5.29 2.71-5.29 5.26 0 1.62.98 2.94 2.52 2.94 1.31-.01 2.68-1.07 2.71-3.59m1.09 4.81c-.5-.39-1.06-1.34-1.09-2.8-.64 1.85-2.15 2.8-3.89 2.8-2.32 0-4.2-1.54-4.2-3.72 0-2.21 1.65-2.74 4.73-4.11 2.29-1.04 3.41-1.76 3.41-3.27 0-1.82-1.29-2.88-2.71-2.88-1.9 0-3.05 1.23-2.71 4.42-1.29.45-2.88-.06-2.88-1.01 0-.84.78-1.43 1.73-2.1 1.57-1.12 3.1-2.04 5.12-2.04 2.01 0 4.08.67 3.97 4.17-.08 2.15-.11 4.61-.11 5.96 0 1.71.14 2.68.56 3.1l1.9-.5.14.53-3.97 1.45z"/></symbol><symbol viewBox="0 0 443.96 56.97" id="GIVENCHY" xmlns="http://www.w3.org/2000/svg"><path d="M416.54 24.52l12.85-16.61h10.02L420.3 31.37V48.6h-7.92V31.37l-19.1-23.46h10.02l12.84 16.61h.4zm-44.04 0h-22.85V7.89h-7.9V48.6h7.9v-17h22.85v17h7.89V7.89h-7.89v16.63zM254.24 35.71h-.19l-25.57-27.8h-6.9V48.6h7.32V20.68h.16L254.9 48.6h6.69V7.91h-7.35v27.8zM166.46 48.6h34.06v-7.06h-26.16v-9.96h18.78v-7.06h-18.78v-9.65h26.16V7.91h-34.06V48.6zm-39.59-10.13h-.21L114.02 7.91h-9.14l18.56 40.69h6.57l18.56-40.69h-9.14l-12.56 30.56zM79.13 7.91h7.89V48.6h-7.89V7.91zM35.19 33.52h13.53v7.08c-1.9.64-5.25 1.48-10.69 1.48-9.66 0-15-4.68-15-13.83 0-9.14 5.37-13.84 15-13.84 9.8 0 14.83 2.93 17.62 5.16V11.4c-3.11-2.46-10.1-4.29-17.62-4.29-11.23 0-23.82 4.44-23.82 21.12 0 16.69 12.58 21.13 23.82 21.13 6.83 0 13.98-1.52 18.44-4.25V26.46H35.19v7.06zm254-5.28c0 9.14 5.37 13.82 15 13.82 9.8 0 14.84-2.94 17.62-5.16v8.17c-3.11 2.46-10.09 4.29-17.62 4.29-11.24 0-23.82-4.43-23.82-21.12s12.58-21.12 23.82-21.12c7.53 0 14.51 1.84 17.62 4.29v8.17c-2.79-2.23-7.82-5.16-17.62-5.16-9.63 0-15 4.68-15 13.82z"/></symbol><symbol viewBox="0 0 276.66 110" id="HUGO" xmlns="http://www.w3.org/2000/svg"><path d="M191.19 88.83c3.36 0 4 2.99 4 5.68 0 2.7-.64 5.67-4 5.67s-4-2.97-4-5.67c0-2.69.64-5.68 4-5.68m0 13.71c5.16 0 7.5-3.49 7.5-8.03s-2.34-8.03-7.5-8.03c-5.17 0-7.5 3.49-7.5 8.03s2.34 8.03 7.5 8.03m-35.78-9.41h2.89c1.21 0 2.27-.74 2.27-1.92 0-1.12-.79-2-2.13-2h-3.02l-.01 3.92zm0 6.69h2.94c1.39 0 2.69-.58 2.69-2.23 0-1.72-1.24-2.15-2.69-2.15h-2.94v4.38zm3.48 2.33h-6.75V86.87h6.59c3.21 0 5.29 1.26 5.29 3.96 0 1.87-1.65 3.19-2.92 3.34 1.79.14 3.61 1.47 3.61 3.76.01 2.75-2.74 4.22-5.82 4.22m-51.64-13.24c3.28 0 3.89 2.98 3.89 5.61 0 2.62-.61 5.6-3.89 5.6-3.27 0-3.89-2.98-3.89-5.6 0-2.63.62-5.61 3.89-5.61m0 13.56c5.12 0 7.43-3.45 7.43-7.95s-2.32-7.96-7.43-7.96c-5.12 0-7.43 3.45-7.43 7.96 0 4.5 2.31 7.95 7.43 7.95M261.89 91.2h-3.23c0-1.48-.87-2.61-2.66-2.61-1.77 0-2.57.9-2.57 1.95 0 1.15.78 1.59 2.6 2.17.79.23 1.56.43 2.37.67 2.35.68 4.14 1.99 4.14 4.35 0 3.02-2.9 4.76-6.07 4.76-4.13 0-6.57-1.9-6.57-5.23h3.24c0 1.68.87 3.09 3.33 3.09.98 0 2.57-.52 2.57-2.18 0-1.23-.7-1.77-2.78-2.34-.56-.16-1.7-.53-2.38-.71-2.12-.61-3.67-1.78-3.67-3.93 0-3 3.05-4.7 5.86-4.7 2.82.01 5.82 1.69 5.82 4.71m-32.11 0c0-3.02-2.98-4.7-5.8-4.7-2.83 0-5.87 1.7-5.87 4.7 0 2.15 1.55 3.32 3.68 3.93.67.18 1.8.55 2.37.71 2.07.57 2.79 1.11 2.79 2.34 0 1.67-1.61 2.18-2.57 2.18-2.46 0-3.34-1.42-3.34-3.09h-3.25c0 3.33 2.45 5.23 6.58 5.23 3.15 0 6.05-1.74 6.05-4.76 0-2.36-1.79-3.67-4.13-4.35-.8-.23-1.58-.43-2.37-.67-1.81-.58-2.6-1.03-2.6-2.17 0-1.06.8-1.95 2.57-1.95 1.78 0 2.67 1.13 2.67 2.61h3.22v-.01zM78.11 96.5h-2.96v-2.49h6.22v7.14c-1.16.51-3.18 1.16-6.28 1.16-3.65 0-7.73-1.85-7.73-7.8 0-5.96 4.26-7.81 7.39-7.81 3.98 0 6.61 1.92 6.61 4.89h-3.32c0-1.34-1.21-2.57-3.14-2.57-2.87 0-4.07 2.09-4.07 5.49 0 3.37 1.31 5.47 4.41 5.47 1.25 0 2.06-.19 2.88-.46V96.5h-.01zm-32.45-9.48v8.13c0 2.53-.08 4.79-3.27 4.79s-3.27-2.26-3.27-4.79v-8.13h-3.36v9.38c0 3.98 2.95 5.91 6.62 5.91 3.68 0 6.62-1.93 6.62-5.91v-9.38h-3.34zM7.33 102H4.07V87.02h3.26v5.92h6.22v-5.92h3.3V102H13.6v-6.57H7.33V102zm117.41-48.75c0 13.85-7.97 25.41-27.35 25.41-19.39 0-27.92-11.55-27.92-25.41V9.29h14.02v43.09c0 8.31 2.93 16.16 13.9 16.16s13.33-7.85 13.33-16.16V9.29h14.02v43.96zM2.67 76.74V9.29h13.82v25.89h27.8V9.29H58.1v67.45H44.28V45.51h-27.8v31.23H2.67zM195.3 26.6l-11.96 4.92c-1.43-5.51-5.73-15.82-17.02-15.82-13.58 0-19.22 14.86-19.22 26.83 0 12.73 4.99 26.83 19.14 26.84 9.57 0 16.81-9.35 16.81-19.38H166.8v-9.97h29.07v36.9H184.2v-5.89c-4.5 5.12-13.9 7.63-18.8 7.63-21.15 0-33.04-13.07-33.04-36.12 0-21.29 13.58-36.12 33.95-36.12 13.89 0 23.83 7.05 28.99 20.18m62.3 15.94c0 12.28-5.79 27.64-19.72 27.64s-19.71-15.36-19.71-27.64 5.78-27.65 19.71-27.65c13.93-.01 19.72 15.36 19.72 27.65m15.07 0c0-21.29-13.9-37.05-34.78-37.05s-34.78 15.76-34.78 37.05c0 21.44 13.9 37.05 34.78 37.05 20.88-.01 34.78-15.61 34.78-37.05"/></symbol><symbol viewBox="0 0 773.12 148.53" id="JUICYCOUTURE" xmlns="http://www.w3.org/2000/svg"><path d="M240.02 107.68l-13.26-5.83V60.03l13.12 7.27 6.88-10-17.28-9.74c-5.26 5.03-10.59 8.75-15.98 11.17v37.8c0 3.68-.36 6.38-1.07 8.11-.5 1.24-1.52 2.39-3.09 3.46v1.3c4.32.87 7.97 1.84 10.94 2.94 2.97 1.1 6.55 2.8 10.75 5.12l16.24-11.95-.48-2.8-6.77 4.97zm32.42-44.02v-1.47c0-3.34-.56-5.97-1.68-7.89-1.12-1.92-3.57-4.16-7.35-6.75l-13.83 11.43 1.82 2.08c.39-.37.67-.64.85-.82 1.18-1.19 2.14-1.78 2.88-1.78.91 0 1.77.62 2.55 1.84 1 1.58 1.51 4.57 1.51 8.95v31.46c0 2.59-.18 4.6-.55 6.02-.37 1.43-1.05 2.98-2.05 4.64-.37.62-1.3 1.67-2.81 3.16-3.15 3.07-4.72 6.23-4.72 9.48 0 3.29 1.36 6.13 4.1 8.53 2.73 2.39 6.62 3.59 11.69 3.59 4.84 0 8.85-1.05 12.03-3.14 2.07-1.3 3.1-2.62 3.1-3.96 0-.75-.26-1.36-.79-1.82-.53-.46-1.23-.69-2.11-.69-.79 0-1.47.21-2.04.63-.57.41-1.25 1.3-2.04 2.66s-1.6 2.25-2.44 2.67c-1.71.87-3.89 1.31-6.52 1.31-3.65 0-6.58-.95-8.79-2.85-2.21-1.9-3.32-3.97-3.32-6.19 0-1.31.31-2.49.93-3.54.83-1.44 2.24-2.93 4.22-4.45.92-.74 3.71-2.51 8.38-5.3 10.68-6.31 18.42-11.4 23.22-15.3 4.8-3.89 8.31-8.03 10.56-12.41 2.24-4.38 3.36-8.77 3.36-13.17 0-8.18-3.42-15.86-10.26-23.04l-19.9 16.12zm13.22 26.27c-2.62 4.84-7.02 9.48-13.22 13.92V66.93l10.08-8.17c4.71 5.65 7.06 11.43 7.06 17.34 0 4.38-1.31 8.99-3.92 13.83zm-81.91-64.72h-8.31l-3.38 14.03h2.86l8.83-14.03zm-2.54 81.49c-.4.23-.83.35-1.31.35-.67 0-1.33-.57-1.96-1.71-.63-1.14-.95-3.6-.95-7.38V62.1l4.94-5.07-11.56-9.48-11.56 9.48 4.94 5.07v36.67c0 5.52.51 9.39 1.54 11.6 1.03 2.21 3.33 4.57 6.91 7.06L206.36 106l-1.69-2.08c-1.76 1.54-2.91 2.46-3.46 2.78zM74.62 79.33c1.04 9.38 3.23 24.56 3.23 29.41 0 3.55-1.06 6.4-3.18 8.57-2.12 2.16-4.88 3.25-8.28 3.25-1.75 0-4.43-.61-8.05-1.83-2.53-.86-4.82-1.29-6.87-1.29-4.89 0-8.81 1.61-11.78 4.85-1.83 2.05-3.32 5.24-4.45 9.57l2.47 1.17c.74-1.87 1.53-3.09 2.37-3.67 1.23-.84 2.81-1.27 4.73-1.27 2.28 0 5.23.74 8.88 2.24 2.67 1.04 4.61 1.7 5.82 2 1.2.29 2.6.44 4.18.44 5.7 0 12.29-2.47 19.79-7.41 8.82-5.95 15.18-12.85 19.06-20.72 2.94-5.99 4.41-15.04 4.41-27.15 0-3.93-.03-7.74-.09-11.41-.12-6.95-.17-11.78-.17-14.5 0-5.42 1.04-10.44 3.14-15.05 2.1-4.61 5.98-10 11.67-16.17l-2.47-2.16c-3.17 2.27-6.18 3.87-9.02 4.81-2.84.95-6.29 1.42-10.32 1.42-4.3 0-10.22-.82-17.77-2.45-9.42-2-16.11-3-20.05-3-6.3 0-11.62 1.98-15.95 5.95-4.35 3.96-6.52 8.32-6.52 13.07 0 3.27.88 5.89 2.63 7.88 1.75 1.98 3.78 2.98 6.07 2.98 1.77 0 3.23-.58 4.38-1.76 1.14-1.18 1.72-2.63 1.72-4.38 0-1.57-.52-2.89-1.57-3.95s-2.31-1.6-3.79-1.6c-.7 0-1.49.22-2.39.65-.89.43-1.56.65-1.99.65-.48 0-.89-.17-1.21-.53-.32-.36-.49-.82-.49-1.4 0-1.87 1.06-3.7 3.2-5.5 2.13-1.8 5.04-2.7 8.74-2.7 2.83 0 6.87.91 12.14 2.73 5.27 1.82 10.05 2.73 14.36 2.73 4.18 0 9.38-.99 15.6-2.96-6.78 4.45-11.68 8.27-14.7 11.46-3.02 3.19-5.1 6.28-6.22 9.25-1.13 2.97-1.77 6.96-1.94 11.95l.68 15.83zM98.16 42.6c-2.98 6.83-4.47 14.71-4.47 23.63l.26 29.81c0 5.69-.84 10.38-2.51 14.08-1.68 3.7-3.97 6.71-6.89 9.02-2.11 1.66-5.54 3.5-10.31 5.52 4.08-3.28 6.73-6.37 7.98-9.26 1.76-3.98 2.64-9.54 2.64-16.68l-.26-29.07c0-8.66.97-15.5 2.92-20.52 1.95-5.01 4.84-9.42 8.69-13.23 2.89-2.8 7.4-5.71 13.54-8.73-5.7 5.56-9.56 10.71-11.59 15.43zm74.34 63.93c-.85 0-1.64-.59-2.35-1.77-1.12-1.7-1.68-4.54-1.68-8.52v-34.4l5.2-4.81-11.82-9.48-11.56 9.48 4.94 4.81v35.79l-11.87 8.93c-2.55-1.82-4.15-3.33-4.81-4.52-.66-1.19-.99-3.07-.99-5.63V61.84l4.94-4.81-12.08-9.48-15.46 12.73 1.69 2.08c1.84-1.56 3.22-2.34 4.14-2.34 1.22 0 2.2.61 2.91 1.84.41.7.61 2.19.61 4.46v32.41c0 4.12.65 7.43 1.96 9.94 1.31 2.52 4.07 5.44 8.3 8.76 7.05-6.15 13.93-11.52 20.66-16.11.08 4.3.65 7.44 1.71 9.42 1.05 1.98 3.3 4.2 6.73 6.69l14.16-10.65-1.69-2.08c-1.81 1.22-3.01 1.83-3.64 1.83zm250.71-47.8v36.15c0 3.56-.3 6.08-.91 7.57-.43 1.15-1.48 2.41-3.12 3.82l.66 1.3c3.97 0 7.52.58 10.66 1.73 4.15 1.51 9.38 4.22 15.71 8.14 2.05-1.86 4.19-3.42 6.42-4.68 2.93-1.69 7.67-3.85 14.23-6.49V57.43c-9.17-2.34-16.83-5.63-22.99-9.87-5.73 4.8-12.61 8.53-20.66 11.17zm30.4 48.06l-17.15-7.01V58.73c2.23.4 4.14.89 5.71 1.47 2.23.8 6.04 2.48 11.43 5.02v41.57zm174.81-.26c-.86 0-1.64-.59-2.36-1.77-1.12-1.7-1.68-4.54-1.68-8.52v-34.4l5.2-4.81-11.82-9.48-11.56 9.48 4.94 4.81v35.79l-11.87 8.93c-2.55-1.82-4.15-3.33-4.81-4.52-.66-1.19-.98-3.07-.98-5.63V61.84l4.93-4.81-12.08-9.48-15.46 12.73 1.69 2.08c1.84-1.56 3.22-2.34 4.14-2.34 1.23 0 2.2.61 2.91 1.84.41.7.61 2.19.61 4.46v32.41c0 4.12.65 7.43 1.96 9.94 1.31 2.52 4.07 5.44 8.3 8.76 7.05-6.15 13.93-11.52 20.65-16.11.09 4.3.65 7.44 1.71 9.42 1.05 1.98 3.3 4.2 6.73 6.69l14.16-10.65-1.69-2.08c-1.78 1.22-2.99 1.83-3.62 1.83zM662.94 58l8.18 10.08 10-8.7-10-11.82-14.68 12.73c0-2.29-.44-4.09-1.32-5.39-1.36-2.08-3.91-4.52-7.64-7.34l-13.64 11.95 1.69 2.08c1.72-2.08 3.07-3.12 4.06-3.12.9 0 1.72.57 2.48 1.7.75 1.13 1.13 3.4 1.13 6.81V94.1c0 3.95-.29 6.61-.89 8.01-.59 1.4-1.85 2.78-3.78 4.16v1.3c2.89.76 5.54 1.83 7.98 3.19 2.43 1.36 5.44 3.59 9.04 6.69l17.02-13.51-1.56-2.08-6.75 5.46-7.8-5.46V63.63l6.48-5.63zm66.67 10.96l-18.45-21.4c-7.36 3.77-12.04 6.12-14.04 7.05-2.75 1.24-6.21 2.62-10.38 4.12v37.7c0 4.31-.25 7.11-.74 8.4-.49 1.3-1.46 2.38-2.9 3.26v1.3c5.12 1.04 9.07 2.06 11.85 3.07 2.78 1 6.32 2.67 10.62 4.99L727 102.38l-1.56-2.08-10.28 7.27-15.18-5.72V89.64l29.63-20.68zm-29.62-13.47l.92-.29 16.53 17.87-17.46 12.19V55.49zM555.33 32.23h-1.88l-18.12 22.58v2.88h6.23v37.82c0 3.08-.38 5.44-1.14 7.06-.58 1.28-1.76 2.51-3.54 3.7v1.3c6.34 1.73 12.01 5.02 17.02 9.87l13.9-11.43-1.56-2.08-4.16 3.38-7.28-5.72v-43.9h13.25v-7.27H554.8l.53-18.19zm-27.6 74.3c-.85 0-1.64-.59-2.35-1.77-1.12-1.7-1.68-4.54-1.68-8.52v-34.4l5.2-4.81-11.82-9.48-11.56 9.48 4.93 4.81v35.79l-11.87 8.93c-2.55-1.82-4.15-3.33-4.81-4.52-.66-1.19-.99-3.07-.99-5.63V61.84l4.94-4.81-12.08-9.48-15.46 12.73 1.69 2.08c1.84-1.56 3.22-2.34 4.14-2.34 1.23 0 2.2.61 2.91 1.84.41.7.61 2.19.61 4.46v32.41c0 4.12.65 7.43 1.96 9.94 1.31 2.52 4.07 5.44 8.3 8.76 7.05-6.15 13.93-11.52 20.65-16.11.09 4.3.65 7.44 1.71 9.42 1.05 1.98 3.3 4.2 6.73 6.69l14.16-10.65-1.69-2.08c-1.79 1.22-3 1.83-3.62 1.83zm-128.27-3.76c-5.17 2.16-10.9 3.25-17.18 3.25l-2.48-.07-.78-74.55c9.07 4.46 17.21 7.07 24.42 7.84l10.91-10-1.17-2.47h-1.49c-5.01 0-9.38-.4-13.09-1.21-3.72-.8-8.82-2.57-15.29-5.29L355.12 43.4v29.44c0 6.57-.26 10.59-.78 12.06-.53 1.47-2.09 3.28-4.7 5.42-6.05-7.8-9.07-16.31-9.07-25.51 0-7.58 2.06-14.6 6.18-21.06 3.2-5.01 8.07-9.72 14.6-14.13l-1.69-1.82c-9.92 5.98-17.09 12.13-21.53 18.45-5.65 8.07-8.48 16.84-8.48 26.3 0 7.68 2.01 15.13 6.03 22.38 4.01 7.24 9.57 12.8 16.66 16.68 7.1 3.88 14.66 5.82 22.69 5.82 5.41 0 10.87-.93 16.37-2.78 5.5-1.86 10.2-4.34 14.11-7.44 3.91-3.1 7.89-7.44 11.95-13.03l-1.95-1.95c-5.53 4.87-10.89 8.38-16.05 10.54zm-36.84-1.42c-4-2.06-7.74-5.02-11.24-8.89 5.72-4.74 10.19-8.96 13.38-12.66 1.57-1.83 2.58-3.55 3.02-5.16.39-1.22.59-3.68.59-7.38V37.49l7.54-6.18.78 74.18c-5.39-.69-10.07-2.07-14.07-4.14zM734.15 48.5c.31-.13.58-.32.82-.55.24-.23.42-.51.56-.84.14-.33.2-.72.2-1.16 0-.92-.27-1.61-.79-2.1-.53-.48-1.37-.72-2.53-.72h-3.92v10.19h1.26V48.8h2.11l2.87 4.52h1.47l-3.03-4.52c.34-.07.67-.17.98-.3zm-2.74-.78h-1.66v-3.51h2.3c.31 0 .62.02.9.07s.54.14.77.27c.23.13.41.31.54.53.13.22.2.51.2.87 0 .42-.09.76-.26 1-.18.24-.41.42-.69.53-.29.11-.61.18-.98.2-.37.03-.74.04-1.12.04zm8.41-2.94a8.832 8.832 0 00-1.86-2.81c-.79-.8-1.72-1.42-2.8-1.87-1.07-.45-2.23-.67-3.48-.67s-2.41.23-3.48.67a8.545 8.545 0 00-2.8 1.87c-.79.8-1.41 1.73-1.86 2.81-.45 1.07-.67 2.22-.67 3.46 0 1.25.22 2.4.67 3.47a8.59 8.59 0 001.86 2.78c.79.79 1.72 1.41 2.8 1.86 1.07.45 2.23.67 3.48.67s2.41-.23 3.48-.67a8.678 8.678 0 002.8-1.86c.79-.79 1.41-1.72 1.86-2.78.45-1.06.68-2.22.68-3.47 0-1.23-.22-2.39-.68-3.46zm-1.27 6.42c-.38.92-.9 1.71-1.56 2.39-.66.68-1.45 1.21-2.35 1.61-.91.39-1.89.59-2.94.59-1.07 0-2.06-.2-2.97-.59-.91-.39-1.69-.93-2.35-1.61a7.303 7.303 0 01-1.55-2.39c-.37-.91-.55-1.9-.55-2.96s.18-2.04.55-2.96c.37-.91.89-1.71 1.55-2.39.66-.68 1.45-1.21 2.35-1.61.9-.39 1.89-.59 2.97-.59a7.317 7.317 0 015.29 2.2c.66.68 1.18 1.47 1.56 2.39.38.92.57 1.9.57 2.96-.01 1.06-.19 2.04-.57 2.96z"/></symbol><symbol viewBox="0 0 899.73 155.75" id="Jimmy-Choo" xmlns="http://www.w3.org/2000/svg"><path d="M532.85 118.63c-8.95 7.53-20.08 11.57-32.19 11.57-28.37 0-50.52-22.92-50.52-52.16 0-28.81 21.61-51.94 49.21-52.6 10.37.33 17.35 2.51 24.99 7.75v10.04h5.24V18.89h-5.24v4.58c-7.75-3.06-15.71-4.69-23.68-4.69-34.16 0-61.87 26.52-61.87 59.04s27.72 58.93 61.87 58.93c13.31 0 25.97-5.02 35.79-14.19l.87-.87-3.6-3.93-.87.87zM382.48 25.77h5.13l-18.88 47.69-23.78-47.69h5.01v-5.24h-22.47v5.24h5.23l27.72 56.74v47.58h-7.09v5.24h26.84v-5.24h-7.96V82.73l22.69-56.96h5.02v-5.24h-17.46v5.24zm-257.85 0h4.91v-5.24h-21.61v5.24h5.35v104.32h-5.35v5.24h21.72v-5.24h-5.02V25.77zM277.4 80.55l-25.75-60.02h-13.54v5.24h5.68v104.32h-5.68v5.24h18.01v-5.24h-5.24V44.87l24.66 58.48 24.45-61.54v88.28h-5.68v5.24h22.15v-5.24h-5.02V25.77h5.02v-5.24H301.3l-23.9 60.02zm-92.76 0l-25.75-60.02h-13.53v5.24h5.78v104.32h-5.78v5.24h17.9v-5.24h-5.13V44.87l24.66 58.48 24.44-61.54v88.28h-4.47l-.66.11-.43.76v4.37h21.93v-5.24h-4.91V25.77h5.02v-5.24h-15.17l-23.9 60.02zm423.18-54.78h5.13v-5.24h-22.37v5.24h5.67v25.21h-33.6V25.77h5.01v-5.24h-22.15v5.24h5.57v104.32h-5.57v5.24h22.15v-5.24h-5.01V57.31h33.6v72.78h-5.67v5.24h22.37v-5.24h-5.13V25.77zm-537.97 0h5.67v79.99c0 19.31-12.99 24.66-19.86 24.88-6.33-.11-18.66-5.02-19.75-22.37l-.11-1.31-11.13 1.53.22 1.2c.76 5.02 2.29 9.49 4.69 13.64 3.27 5.46 12.88 13.53 26.08 13.53 16.26 0 24.55-11.24 26.08-13.53 5.02-7.86 5.46-17.13 5.46-27.61V25.66h5.02v-5.13H69.85v5.24zm611.41-6.88c-34.16 0-61.87 26.52-61.87 59.04s27.72 59.04 61.87 59.04 61.87-26.41 61.87-59.04-27.82-59.04-61.87-59.04m-.33 111.31c-28.15 0-50.2-22.92-50.2-52.27 0-14.08 5.24-27.28 14.73-37.1s22.15-15.28 35.79-15.28c27.94 0 50.52 23.68 50.52 52.82.02 29.02-22.35 51.83-50.84 51.83M813.19 18.89c-34.16 0-61.87 26.52-61.87 59.04s27.72 59.04 61.87 59.04 61.87-26.41 61.87-59.04-27.71-59.04-61.87-59.04m.22 111.31c-28.04-.11-50.85-23.57-50.85-52.27 0-14.08 5.24-27.28 14.73-37.1 9.49-9.93 22.26-15.28 35.79-15.28 27.94 0 50.52 23.68 50.52 52.92.11 28.81-21.93 51.51-50.19 51.73"/></symbol><symbol viewBox="0 0 853.14 383.74" id="Levis" xmlns="http://www.w3.org/2000/svg"><path d="M748.59 40.51c2.08-.3 3.86-.59 5.64-1.19 1.78-.59 2.97-1.78 3.86-3.27.89-1.49 1.49-3.56 1.49-6.24 0-2.38-.59-4.16-1.19-5.35-.89-1.19-2.08-2.38-3.27-2.97-1.49-.59-2.97-1.19-4.75-1.49-.89 0-1.49-.3-2.38-.3h-16.93v21.39h10.99c2.38-.58 4.46-.58 6.54-.58zm-39.51 38.92c4.16 4.46 9.21 8.02 15.15 10.4 5.94 2.38 12.18 3.86 19.01 3.86 6.83 0 12.77-1.19 18.72-3.86 5.64-2.38 10.69-5.94 15.15-10.4 4.16-4.46 7.72-9.51 10.1-15.74 2.38-5.94 3.56-12.48 3.56-19.61 0-6.83-1.19-13.37-3.56-19.31-.89-2.08-1.78-3.86-2.67-5.64H768.2c1.78 2.97 2.67 6.54 2.67 10.69 0 5.94-1.78 10.4-5.05 13.37-3.27 2.97-7.72 4.46-12.77 5.05l19.31 29.71h-11.29l-18.42-29.11h-10.99v29.11h-10.99V19.13h-18.72c-.89 1.78-1.78 3.56-2.67 5.64-2.38 5.94-3.56 12.48-3.56 19.31 0 7.13 1.19 13.67 3.56 19.61 2.08 6.23 5.35 11.28 9.8 15.74zM302.4 134.69c-14.56 0-22.28 11.29-22.58 23.17h46.94c.29-13.67-8.62-23.17-24.36-23.17zM795.23 19.42c.3.59.89 1.49 1.19 2.08 2.97 7.13 4.75 14.56 4.75 22.58 0 8.32-1.49 16.04-4.75 23.17-2.97 7.13-7.13 13.07-12.48 18.42-5.35 5.05-11.29 9.21-18.42 12.18-7.13 2.97-14.56 4.46-22.28 4.46-8.02 0-15.45-1.49-22.58-4.46-7.13-2.97-13.37-6.83-18.42-12.18-5.35-5.05-9.51-11.29-12.48-18.42-2.97-7.13-4.75-14.85-4.75-23.17 0-8.02 1.49-15.74 4.75-22.58.3-.89.59-1.49 1.19-2.08H5.63l81.1 345.19c169.92-109.32 333.31-4.16 339.85-.3 6.54-3.86 169.92-109.02 339.85.3l81.1-345.19h-52.3zm-567.1 209.44H117.62V113.59h49.91v83.77h60.9v31.49h-.3zm149.13-47.83h-97.14c0 15.15 12.77 26.44 29.71 26.44 10.1 0 19.31-3.27 25.84-12.48h38.62c-12.77 29.11-37.13 37.43-70.7 37.43-43.67 0-74.27-23.47-74.27-60.9 0-39.81 30.3-60.9 74.27-60.9 49.31 0 73.97 31.79 73.97 62.68-.3 2.38-.01 5.05-.3 7.73zm90.01 48.12h-41.89L362.7 113.59h56.44l35.95 70.11.89 2.08.89-2.08 33.57-70.11h34.16l-57.33 115.56zm110.51-.29h-48.13V113.3h48.13v115.56zm35.94-101.01l-14.56 15.74h-5.94l6.54-17.23h-13.37v-22.87h27.03v24.36h.3zm62.98 104.27c-51.39 0-60.6-29.71-60.6-36.84h37.13c0 4.46 5.94 9.51 10.69 11.59 4.16 1.78 8.61 2.08 12.77 2.08 10.4 0 19.01-2.67 19.01-8.61 0-7.43-8.91-8.91-18.42-10.4-26.44-3.86-63.28-8.32-63.28-37.73 0-27.63 30-41.59 61.79-41.59 51.1 0 64.46 28.22 64.46 36.54h-37.43c0-2.38-1.78-7.13-7.13-9.8-3.86-2.08-9.51-3.56-14.85-3.56-13.96 0-21.98 2.97-21.98 9.51 0 5.35 7.13 8.02 17.53 9.8 26.74 4.46 68.03 6.24 68.03 38.92.01 16.03-14.25 40.09-67.72 40.09z"/></symbol><symbol id="LoveMoschino" viewBox="0 0 771.75 437.23" xml:space="preserve" xmlns="http://www.w3.org/2000/svg"><style>.akst0{fill:#2d333c}</style><path class="akst0" d="M518.35 413.23h25.53v-181.5h-25.53v181.5zM293.29 267.79v17.08h24.32v-21.22c-2.56-27.46-21.57-34.04-35.67-34.04-14.1 0-36.41 7.13-36.41 38.07s.23 36.68 28 56.01c17.39 12.08 21.96 19.75 22.5 30.17 0 0 .43 15.49 0 22.97-1.32 24.44-25.76 18.51-25.79 1.82V352h-24.75v26.45c0 23.24 15.49 36.79 37.69 37.14 12.82.19 37.69-4.96 38.23-36.6v-31.95c-1.24-23.24-15.49-32.22-26.53-40.44-11.04-8.21-24.63-13.79-25.33-26.57V267.6c0-22.7 23.55-22.35 23.63 0M57.07 413.3V301.41L76.08 413.3h17.39l19.21-111.89V413.3h25.53V231.81h-28.24L84.88 332.39l-25.1-100.58H31.54V413.3h25.53zM425.4 231.69h25.52v78.32h25.72v-78.32h25.52v181.54h-25.52v-80.57h-25.72v80.57H425.4V231.69zm256.67 136.45c0 16.96 7.4 22.58 13.67 22.58s13.67-5.58 13.67-22.58v-91.25c0-17.08-7.4-22.58-13.67-22.58s-13.67 5.54-13.67 22.58v91.25zm-25.52-91.25c0-17.16 8.13-47.33 39.2-47.33 31.06 0 39.08 29.16 39.08 47.33v91.25c0 18.13-8.37 47.41-39.08 47.41s-39.2-29.28-39.2-47.41v-91.25zm-477.98 91.25c0 16.96 7.4 22.58 13.67 22.58s13.67-5.58 13.67-22.58v-91.25c0-17.08-7.4-22.58-13.67-22.58s-13.67 5.54-13.67 22.58v91.25zm-25.53-91.25c0-17.16 8.13-47.33 39.2-47.33s39.12 29.16 39.12 47.33v91.25c0 18.13-8.37 47.41-39.12 47.41s-39.2-29.28-39.2-47.41v-91.25zm258.11 74.79v16.46c0 21.77-6.82 47.41-37.57 47.41s-39.2-29.28-39.2-47.41v-91.25c0-17.16 8.13-47.33 39.2-47.33s36.21 25.21 36.21 47.33v14.56h-23.24v-14.56c0-15.49-4.8-22.58-12.94-22.58-6.12 0-13.67 4.8-13.67 22.58v91.25c0 13.94 5.19 22.58 13.67 22.58 7.17 0 12.94-5.42 12.94-22.58v-16.46h24.6zm66.11-146.21h-68.98V26.38h26.8v152.29h42.18v26.8zm34.08-45.86c0 13.4 4.54 20.1 13.63 20.1s13.63-6.7 13.63-20.1l-.23-91.79c0-13.4-4.47-20.1-13.4-20.1s-13.48 6.7-13.63 20.1v91.79zm-25.79-92.33a52.528 52.528 0 019.18-32.46 34.865 34.865 0 0129.28-13.13c11.59-.64 22.8 4.23 30.25 13.13a50.383 50.383 0 019.92 32.46v92.95a51.074 51.074 0 01-9.41 32.22c-15.02 16.44-40.52 17.59-56.96 2.57-.89-.82-1.75-1.67-2.57-2.57-6.46-7.93-9.68-18.67-9.68-32.22l-.01-92.95zm125.87 84.47l19.37-124.29h26.53l-32.73 179.1h-26.8l-32.5-179.1h26.3l19.33 124.29m129.28 27.81h-47.87v-52.6h34.47V100.2h-34.47V54.03h44.89V27.27h-71.69v179.09h74.67v-26.8zM586.91 413.69V301.83l31.49 111.86h22.34V234.6h-25.06v93.26l-27.03-93.26h-27.03v179.09h25.29z"/></symbol><symbol viewBox="0 0 1115 131" id="MARCJACOBS" xmlns="http://www.w3.org/2000/svg"><path d="M380.11 89.72c-13.89 0-24.96-7.67-24.96-22.92 0-13.6 10.3-23.11 24.57-23.11 11.07 0 17.85 3.23 24.75 9.63l8.56-8.56c-9.13-8.26-19.23-12.43-33.31-12.43-20.3 0-37.59 13.4-37.59 34.48 0 21.75 14.86 34.67 37.88 34.67 12.72 0 24.47-4.08 35.55-14.28l-9.03-8.35c-7.87 7.28-15.35 10.87-26.42 10.87zm358.16 0c-13.89 0-24.96-7.67-24.96-22.92 0-13.6 10.3-23.11 24.57-23.11 11.07 0 17.85 3.23 24.75 9.63l8.56-8.56c-9.13-8.26-19.23-12.43-33.31-12.43-20.3 0-37.59 13.4-37.59 34.48 0 21.75 14.86 34.67 37.88 34.67 12.72 0 24.47-4.08 35.55-14.28l-9.03-8.35c-7.87 7.28-15.35 10.87-26.42 10.87zm316.29-29.71c-15.44-1.26-19.91-3.4-19.91-7.96 0-4.57 4.86-8.64 15.73-8.55 11.95.1 20.22 2.98 28.13 8.08l8.48-8.76c-9.61-6.8-20.59-10.49-35.74-10.49-18.55 0-29.13 9.13-29.13 20.1 0 12.04 9.03 16.7 28.84 18.55 17.29 1.65 24.57 2.62 24.57 8.84 0 5.63-6.6 10.1-19.13 10.1-12.34 0-23.7-4.18-31.08-10.98l-8.74 9.71c11.26 9.03 23.7 12.82 40.69 12.82 19.62 0 31.27-9.71 31.27-21.66.01-13.39-10.67-17.76-33.98-19.8zm-507.49 7.57v4.45c0 11.64-5.14 16.95-18.23 16.95-11.56 0-17.46-4.28-17.46-15.84v-7.53h-12.5s-.02 5.7-.02 10.24c0 17.11 11.2 25.63 29.38 25.63 22.09 0 32.02-8.39 32.02-30.47V33.69h-13.18v33.89h-.01zM165.9 33.69l-33.02 66.43h13.47l7.62-15.45h34.91l7.56 15.45h13.86l-33.22-66.43H165.9zm-6.21 39.38l11.79-23.91 11.71 23.91h-23.5zm467.13-39.38l-33.02 66.43h13.47l7.62-15.45h34.91l7.56 15.45h13.86L638 33.69h-11.18zm-6.21 39.38l11.79-23.91 11.71 23.91h-23.5zm-557.47-1.1L40.29 33.69H26.45v66.43h11.74V53.74l24.58 39.92 24.3-39.33v45.79h12.26V33.69H86.49L63.14 71.97zm780.67-39.64c-21.27 0-38.95 13.6-38.95 33.99-.19 22.63 16.12 35.35 38.65 35.16 21.37.19 39.24-13.4 39.04-35.16.01-19.81-17.47-33.99-38.74-33.99zm-.29 57.4c-14.18 0-25.84-7.96-25.64-23.41 0-14.47 10.88-22.63 26.03-22.63s25.64 8.45 25.64 22.63c.19 15.44-11.85 23.41-26.03 23.41zm132.13-25.06c5.6-2.82 7.89-7.34 7.89-13.4 0-10.39-8.45-17.58-25.06-17.58h-38.46v66.43h37.2c16.12 0 29.72-4.56 29.72-20.69 0-7.53-4-12.26-11.29-14.76zm-44.17-20.39h26.32c9.71 0 13.6 2.72 13.6 7.77 0 4.66-3.69 8.45-13.89 8.45h-26.03V44.28zm27.88 44.57h-27.87V70.98h27.68c11.07 0 15.64 2.62 15.64 8.55-.01 5.73-3.51 9.32-15.45 9.32zM306.17 54.59c0-12.01-7.81-20.91-26.22-20.91h-36.61v66.43h12.27v-24.4h23.28l13.62 24.4h14.53l-15.61-26.64c7.75-2.47 14.74-8.28 14.74-18.88zm-28.68 8.88h-21.85v-17.7h21.85c10.88 0 14.94 2.29 14.94 8.84 0 5.89-3.97 8.86-14.94 8.86z"/></symbol><symbol viewBox="0 0 635.89 158.14" id="MAXCo" xmlns="http://www.w3.org/2000/svg"><defs><path id="ama" d="M-103-487.86h841.89V646H-103z"/></defs><clipPath id="amb"><use xlink:href="#ama" overflow="visible"/></clipPath><path d="M603.15 126.38c4.42 0 7.91-3.48 7.91-7.91 0-4.42-3.48-7.91-7.91-7.91-4.42 0-7.91 3.48-7.91 7.91.01 4.42 3.49 7.91 7.91 7.91m-6.98-32.3c0-20.24-11.79-33.1-32.3-33.1-18.23 0-32.03 15.01-32.03 33.1 0 18.49 13.27 32.57 32.03 32.57 18.23 0 32.3-14.34 32.3-32.57m-51.46-4.69c0-11.93 4.56-24.39 18.23-24.39 16.22 0 20.37 19.97 20.37 34.31 0 9.92-4.96 23.32-16.89 23.32-16.35 0-21.71-20.24-21.71-33.24m-13.56-57.76h-2.68c-1.07 10.18-12.46-.94-30.82-.94-28.41 0-50.39 20.51-50.39 49.32 0 31.63 23.99 47.44 50.66 47.44 9.38 0 24.93-2.95 37.93-21.04l-2.28-2.14c-8.44 10.45-18.76 18.23-34.44 18.23-21.31 0-35.51-16.89-35.51-44.63 0-21.17 11.12-42.21 35.38-42.21 16.08 0 28.14 10.45 31.76 25.86h2.68l-2.29-29.89zM384.94 47.31c0-5.9 3.35-11.79 10.45-11.79 8.31 0 10.32 5.9 10.32 10.86 0 10.18-7.51 15.68-16.08 20.77-2.95-6.71-4.69-13.54-4.69-19.84m30.15 18.22v2.68c4.69 0 7.91 1.47 7.91 6.57 0 7.5-8.71 20.5-12.87 26-6.97-8.04-15.54-22.25-18.9-29.62 14.07-8.31 22.25-14.2 22.25-25.06 0-9.25-7.51-14.61-16.75-14.61-14.74 0-23.59 9.11-23.59 23.05 0 6.16 2.01 12.6 4.69 18.36-14.21 6.84-28.81 16.08-28.81 32.7 0 13.94 11.93 21.04 24.52 21.04 13.13 0 22.11-4.29 30.82-12.73 6.83 7.1 15.14 12.73 25.06 12.73 8.04 0 15.81-7.64 20.1-13.8l-2.01-1.74c0 .13-.13.13-.13.27-3.49 4.69-7.64 6.16-11.93 6.16-7.91 0-16.48-6.57-22.51-13.4 3.62-3.62 10.72-15.68 13.4-20.5 3.75-6.7 6.97-15.28 16.08-15.41v-2.68l-27.33-.01zm-52.26 33.24c0-10.59 7.51-16.89 16.75-21.98 5.23 10.99 13.27 25.46 21.84 34.04-5.36 4.96-11.66 8.31-18.49 8.31-11.93 0-20.1-8.58-20.1-20.37M251.3 35.52c9.11 0 12.2 2.68 22.65 17.15l19.57 27.07-24.66 29.21c-7.91 9.38-12.06 13.13-19.03 13.67v2.68h31.9v-2.68c-5.63 0-10.32-.94-10.32-4.29 0-2.68 2.14-5.49 8.85-13.67l17.02-20.64 12.6 17.56c5.36 7.5 10.32 14.74 10.32 16.62 0 3.22-4.15 4.15-11.12 4.42v2.68h41.81v-2.68c-7.37 0-12.06-5.9-19.3-15.68l-25.06-33.91 20.91-24.39c7.77-9.11 11.79-13.13 20.37-13.13h.94v-2.68h-33.77v2.68c2.41 0 9.92.13 9.92 4.02 0 3.62-6.84 11.66-14.47 20.51l-7.1 8.04-11.83-15.95c-4.56-6.17-8.04-10.32-8.04-13.13 0-3.48 5.76-3.48 10.32-3.48v-2.68H251.3v2.68zm-107.24 89.79h30.69v-2.68h-1.07c-8.44 0-9.65-2.81-9.65-5.63 0-3.75 6.83-17.69 8.31-22.11h40.34c2.28 4.96 9.25 17.42 9.25 21.98 0 2.55-1.74 5.76-9.38 5.76h-1.34v2.68h39.54v-2.68c-7.91 0-11.53-5.23-14.34-11.26l-37.4-79.87h-3.35l-38.06 79.47c-3.89 8.17-5.76 11.26-13.53 11.66v2.68h-.01zm48.38-74.52l17.69 38.46h-35.11l17.42-38.46zM24.83 35.52c12.19 0 12.86 5.23 12.86 17.42v50.93c0 13.54 0 18.36-12.86 18.76v2.68h31.76v-2.68c-12.87-.4-12.87-5.23-12.87-18.76V50.26h.27l35.65 75.05h2.28l35.38-78.13h.27v59.37c0 10.05-.54 16.08-13 16.08v2.68h40.61v-2.68c-13-.4-13.8-4.56-13.8-16.08V48.78c0-10.45 3.22-13.27 13.8-13.27v-2.68h-27.21l-33.1 70.49-33.24-70.48h-26.8v2.68z" clip-path="url(#amb)"/></symbol><symbol id="MAXMARA" viewBox="0 0 171.2 40.75" xml:space="preserve" xmlns="http://www.w3.org/2000/svg"><style>.anst0,.anst1{fill:#2a3241;stroke:#2a3241;stroke-width:.3973;stroke-miterlimit:3.8636}.anst1{fill-rule:evenodd;clip-rule:evenodd}</style><path class="anst0" d="M41.04 4.17c.08.32-.24.65-.57.73-1.21.4-2.91.16-3.64 1.54l-.08 2.02.32 25.92c.49 2.03 2.83 1.7 4.13 2.67.16.16.08.49-.08.73-.57.49-1.54.16-2.26.24-3.72-.16-7.6 0-11.32 0-.24 0-.65-.08-.73-.49.24-1.46 1.94-.97 2.91-1.54.97-.32.97-1.38 1.05-2.19.16-6.72.16-13.69-.16-20.33-.16-.16.08-.57-.24-.57l-.4.65c-2.91 7.61-5.74 15.39-8.74 23.01-.16.32-.4.81-.89.89-.65 0-.65-.73-.97-1.13-2.99-7.78-6.31-15.39-9.79-22.92-.16-.08-.24-.08-.4.08-.4 6.64-.57 13.93.08 20.66.16.73.4 1.38 1.13 1.7 1.13.81 2.83.32 3.8 1.38.08.32 0 .73-.4.89-1.86.16-3.96 0-5.9 0l-6.07.16c-.42-.08-.82-.08-1.07-.49-.16-.41.16-.73.49-.89 1.46-.57 3.48-.32 4.29-1.94l.24-1.38c.08-8.75.57-17.42 1.54-25.84-.08-.49 0-1.05-.4-1.38-1.38-.81-3.08-.89-4.54-1.54-.16-.16-.16-.49 0-.73.73-.48 1.7-.24 2.59-.32l5.82.08c.65 0 1.13.41 1.54.89 3.32 7.05 6.39 14.26 9.71 21.3.16.16.24.49.57.4l.32-.49c2.59-6.97 5.18-13.93 7.68-20.98.49-1.22 1.7-1.46 2.91-1.3 2.43.16 4.69-.16 7.04 0 .16.1.41.26.49.51zm101.51 11.5c.16.89-.08 2.11.32 3 .16.24.4 0 .57-.08 1.7-1.62 3.72-3.32 6.15-2.43.81.24 1.54 1.22 1.7 2.11.08.89-.16 1.78-.65 2.43-.49.57-1.21.89-1.94.89-1.86 0-3.56-3.4-5.26-.81-.4.49-.49 1.05-.57 1.7l-.16 11.1c.08.65.24 1.3.97 1.62.97.49 2.18.65 3.4.89.32.08.57.49.32.81l-.4.32-4.04-.16-7.12.57c-.4 0-.89 0-.97-.41-.08-.73.73-.73 1.13-.97.65-.16 1.38-.41 1.86-1.05.32-.73.4-1.54.4-2.43l.16-9.72c.16-1.46-.81-2.59-2.02-3.24-.24-.24-.24-.49 0-.81 1.78-1.05 3.56-2.27 5.26-3.81.33-.25.81.07.89.48zm18.37 10.61c-2.27.49-4.53 2.51-4.85 4.78-.16 1.3-.08 2.67 1.05 3.56.49.32 1.05.49 1.7.41.97-.32 2.18-.89 2.51-2.03.49-1.94.73-4.13.4-6.24-.09-.32-.49-.48-.81-.48zm4.61-8.34c.65 1.21.49 2.84.49 4.29l.08 11.5c.16.57.32 1.13.97 1.3.32.16.89 0 .97.49-.24.89-1.13 1.54-1.86 1.78-1.38.24-2.59-.16-3.48-1.13-.48-.32-.73-1.3-1.46-.97-2.18 1.38-4.29 3.48-7.2 2.75-1.21-.41-2.18-1.62-2.43-2.92-.49-2.43.4-4.78 2.51-6.32 1.86-1.78 4.21-2.51 6.47-3.65.49-.24.97-.73 1.13-1.22.16-2.02.24-4.21-.89-5.83-.89-.81-2.18-.81-3.24-.65-3.48.97-1.7 7.21-6.31 5.83-.41-.24-.57-.73-.49-1.21.89-3.08 4.13-5.43 7.04-6.08 2.76-.64 6-.48 7.7 2.04zm-37.8 8.34c-2.26.49-4.53 2.51-4.85 4.78-.16 1.3-.08 2.67 1.05 3.56.49.32 1.05.49 1.7.41.97-.32 2.18-.89 2.51-2.03.49-1.94.73-4.13.41-6.24-.1-.32-.5-.48-.82-.48zm4.61-8.34c.65 1.21.49 2.84.49 4.29l.08 11.5c.16.57.32 1.13.97 1.3.32.16.89 0 .97.49-.24.89-1.13 1.54-1.86 1.78-1.38.24-2.59-.16-3.48-1.13-.49-.32-.73-1.3-1.46-.97-2.18 1.38-4.29 3.48-7.2 2.75-1.21-.41-2.18-1.62-2.43-2.92-.49-2.43.4-4.78 2.51-6.32 1.86-1.78 4.21-2.51 6.47-3.65.49-.24.97-.73 1.13-1.22.16-2.02.24-4.21-.89-5.83-.89-.81-2.18-.81-3.24-.65-3.48.97-1.7 7.21-6.31 5.83-.4-.24-.57-.73-.48-1.21.89-3.08 4.13-5.43 7.04-6.08 2.75-.64 5.99-.48 7.69 2.04z"/><path class="anst1" d="M50.1 26.93c-1.21.4-2.51.97-3.4 2.02-1.21 1.3-1.7 3.32-1.13 5.02.32.65.89 1.46 1.7 1.46 1.38.16 2.59-.57 3.24-1.7.57-1.94.57-4.21.49-6.32-.09-.4-.5-.56-.9-.48zm5.91 10.61c-1.05.49-2.51.32-3.4-.32-.89-.32-1.05-1.78-2.1-1.46-2.35 1.54-5.02 3.89-8.01 2.19-1.78-1.13-1.78-3.4-1.46-5.26 1.38-3.89 5.58-5.67 8.9-7.13 1.94-1.13.97-3.56.89-5.35a2.86 2.86 0 00-1.86-2.19c-1.05-.24-2.26-.08-3.07.57-1.78 1.7-1.29 5.75-4.77 5.35-.4-.08-.81-.4-.89-.89.16-2.35 2.18-4.21 4.13-5.43 2.67-1.62 7.12-2.19 9.79.08 1.78 1.94.97 5.18 1.13 7.78l.08 8.83c.08.57.4 1.05.89 1.21.4 0 .89.08.97.57 0 .18-.16.45-.33.7-.27.36-.89.75-.89.75z"/><path class="anst1" d="M57.65 36.49c1.32 0 2.39-1.05 3.44-2.19 1.7-1.7 3.48-3.56 4.61-5.51l-.08-.65c-1.78-2.75-3.4-5.59-5.66-8.1-.81-.81-1.94-1.13-2.83-1.7-.08-.16-.32-.49-.08-.65l.4-.24c3.07.16 5.82-.24 8.9-.08.4.08.81.08 1.05.49 0 1.13-2.18.89-1.46 2.27.97 1.54 1.86 3 2.91 4.46.16.24.49 0 .65-.08.97-1.62 2.75-3 2.75-4.94-.08-.97-2.26-1.05-.97-2.03 2.43-.08 4.85.08 7.28-.08.24 0 .49.24.57.49-.24 1.21-1.7.89-2.51 1.46-2.51 1.7-4.45 3.97-6.15 6.4-.24 1.54 1.05 2.67 1.78 3.89 1.7 2.19 3.07 4.54 5.26 6.48 1.7.49 3.64 0 5.02-.97.57-.73.49-1.78.65-2.67-.08-5.83.32-11.42.73-17.17.24-2.92.73-5.75.73-8.75-.57-1.46-2.35-1.22-3.56-1.7-.57-.16-1.21-.16-1.46-.73-.08-.32.16-.57.4-.73 2.67-.16 5.58-.08 8.25-.08.57.16 1.21.49 1.46 1.05l9.71 21.3c.08.16.32.49.57.32l.24-.32 7.77-21.14c.24-.49.73-1.05 1.38-1.21 2.1-.16 4.29-.08 6.55-.24.81.16 2.1-.32 2.59.57.08.32-.16.65-.48.73-1.29.57-3.16.16-3.8 1.7-.08 9.32.16 18.31.24 27.7.08.57.32 1.13.89 1.54.97.49 2.1.81 3.24 1.13.32.16.24.65.16.89l-.49.32c-4.53-.16-9.14.16-13.59 0-.24 0-.49-.16-.49-.41.08-1.46 1.86-.97 2.75-1.54.4-.08.81-.49 1.05-.89.24-3.08.24-6.16.24-9.32.08-4.46-.08-8.67-.24-12.96 0-.08-.08-.16-.16-.16-.49.32-.57 1.05-.89 1.54l-4.69 12.8c-.07.33-.17.46-.32.89l-3.32 8.51c-.24.32-.32.89-.81.97-.41.08-.73-.16-.89-.57-3.07-7.94-6.47-15.8-9.95-23.57-.4-.16-.32.32-.4.57-.49 6.8-.49 13.93.08 20.9.89 1.7 2.91 1.62 4.53 2.03.32.24.41.65.32.97-.4.65-1.21.32-1.86.4-5.58-.24-11.24.16-16.99.08-1.21-.16-2.43.24-3.48-.24-.24-.16-.24-.49-.16-.73.4-.65 1.38-.73 1.38-1.54.08-1.05-.73-1.62-1.13-2.51-.65-.89-1.21-1.78-2.1-2.51-.32-.08-.57.08-.81.24-.89 1.22-1.78 2.35-2.35 3.56-.16.4-.24.89 0 1.29.32.81 1.78.97 1.38 2.03-1.05.49-2.18.16-3.4.24l-4.41.16c-.4 0-.66-.55-.46-1.01.07-.21.23-.45.52-.45z"/></symbol><symbol viewBox="0 0 460.43 119.55" id="MISSONI" xmlns="http://www.w3.org/2000/svg"><path d="M76.01 20.43L62.8 48.22 46.87 20.43H18.34v10.8h7.25v52.46h-7.25v10.89h26.04V83.61h-6.83V54.23L57.54 88.8l19.54-42.99v37.73h-6.92v11.04h37.28V83.54h-7.34V31.23h7.19v-10.8H76.01zm35.94 10.95h7.66v52.16h-7.36v11.08h37.27V83.54h-7.34V31.23h7.49v-10.8h-37.72v10.95zm293.86-10.95v10.95h7.67v52.16h-7.36v11.08h37.27V83.54h-7.34V31.23h7.49v-10.8h-37.73zm-101.63-2.72c-18.28 0-32.31 17.79-32.31 39.75 0 21.95 14.04 38.56 32.31 38.56 18.28 0 32.46-16.61 32.46-38.56 0-21.96-14.19-39.75-32.46-39.75m.15 64.32c-3.92 0-8.57-9.02-8.57-25.25 0-14.88 4.65-24.8 8.57-24.8s8.87 8.72 8.87 24.8c-.01 17.29-4.96 25.25-8.87 25.25m70.94-50.8h7.36v22.28l-19.09-33.08h-26.18v10.8h6.8v52.19h-6.8V94.7h26.33V83.42h-7.66V53.51l22.5 41.19h15.97V31.23h6.92v-10.8h-26.15v10.8zM268.18 66.27s-2.8-8.85-14.45-13.48c0 0-18.55-7.33-19.09-14.56 0 0-.75-8.09 8.63-7.44 0 0 10.79.22 11 11.11v1.62h11.65v-23.2h-11.33v3.9c-4.66-4.91-12.51-6.24-16.17-6.34-.29-.01-.59-.01-.88-.01h-.1c-4.81.03-9.98 1.21-14.56 4.73 0 0-13.59 8.85-8.52 24.92 0 0 2.16 8.41 12.4 13.7 0 0 10.25 5.72 13.92 7.12 0 0 10.68 4.96 4.85 11.76 0 0-5.07 5.18-13.48-1.4 0 0-6.15-4.21-7.98-11h-9.28v26.86h10.79v-3.78s16.83 12.19 33.12 2.05c-.01-.02 16.49-9.84 9.48-26.56m-60.41 0s-2.8-8.85-14.45-13.48c0 0-18.55-7.33-19.09-14.56 0 0-.75-8.09 8.63-7.44 0 0 10.79.22 11 11.11v1.62h11.65v-23.2h-11.33v3.9c-4.66-4.91-12.51-6.24-16.17-6.34-.29-.01-.59-.01-.88-.01h-.1c-4.81.03-9.98 1.21-14.56 4.73 0 0-13.59 8.85-8.52 24.92 0 0 2.16 8.41 12.4 13.7 0 0 10.25 5.72 13.92 7.12 0 0 10.68 4.96 4.85 11.76 0 0-5.07 5.18-13.48-1.4 0 0-6.15-4.21-7.98-11h-9.28v26.86h10.79v-3.78s16.83 12.19 33.12 2.05c-.01-.02 16.5-9.84 9.48-26.56"/></symbol><symbol viewBox="0 0 402.33 126.99" id="MOSCHINO" xmlns="http://www.w3.org/2000/svg"><path d="M287.97 15.32v94.77h-13.33V15.32h13.33zM157.11 34.15v8.92l12.71-.04V31.95c-1.34-14.33-11.28-17.77-18.63-17.77-7.36 0-19.01 3.73-19.01 19.88s.11 19.16 14.62 29.24c9.09 6.31 11.47 10.32 11.75 15.76 0 0 .21 8.05 0 12-.7 12.76-13.46 9.66-13.47.96-.01-4.78 0-13.91 0-13.91h-12.9v13.82c0 12.04 8.03 19.21 19.68 19.4 6.69.11 19.68-2.58 19.97-19.11v-16.7c-.65-12.23-8.12-16.82-13.86-21.12-5.73-4.3-12.88-7.27-13.19-13.86v-6.5c-.08-11.84 12.3-11.65 12.33.11zM20.43 110.13V15.37h14.76l13.1 52.52 13.09-52.52h14.76v94.76H62.8V51.72l-10.03 58.41h-9.09l-9.91-58.41v58.41H20.43zm205.67-.03h13.34V68.03h13.42v42.07h13.33V15.31h-13.33V56.2h-13.42V15.31H226.1v94.79zm70.72-94.79h13.75l14.9 49.09V15.34h13.33v94.76h-11.21l-17.41-57.23v57.23h-13.36V15.31zm49.98 23.6c0-8.97 4.25-24.72 20.48-24.72 16.05 0 20.42 15.22 20.42 24.72v47.65c0 9.47-4.37 24.75-20.42 24.75-16.29 0-20.48-15.28-20.48-24.75V38.91zm13.33 47.65c0 8.85 3.87 11.8 7.14 11.8 3.27 0 7.14-2.92 7.14-11.8V38.91c0-8.91-3.87-11.8-7.14-11.8-3.28 0-7.14 2.89-7.14 11.8v47.65zM83.87 38.91c0-8.97 4.25-24.72 20.47-24.72 16.05 0 20.42 15.22 20.42 24.72v47.65c0 9.47-4.37 24.75-20.42 24.75-16.29 0-20.47-15.28-20.47-24.75V38.91zM97.2 86.56c0 8.85 3.87 11.8 7.14 11.8 3.28 0 7.14-2.92 7.14-11.8V38.91c0-8.91-3.86-11.8-7.14-11.8-3.27 0-7.14 2.89-7.14 11.8v47.65zm121.46-8.6l.01 8.6c0 11.36-3.57 24.75-19.62 24.75-16.29 0-20.47-15.28-20.47-24.75V38.91c0-8.97 4.25-24.72 20.47-24.72 16.05 0 18.91 13.16 18.91 24.72v7.61h-12.12v-7.61c0-7.99-2.51-11.8-6.76-11.8-3.19 0-7.14 2.51-7.14 11.8v47.65c0 7.28 2.71 11.8 7.14 11.8 3.75 0 6.76-2.83 6.76-11.8v-8.59l12.82-.01z"/></symbol><symbol id="M_MISSONI" viewBox="0 0 722.91 544.21" xml:space="preserve" xmlns="http://www.w3.org/2000/svg"><style>.aqst0{fill:#293240}</style><path class="aqst0" d="M361.45 18.54c-198.63 0-354.33 76.4-354.33 183.35s155.7 186.26 354.33 186.26 354.33-79.31 354.33-186.26S560.08 18.54 361.45 18.54zm-.72 348.51c-176.07 0-331.78-70.58-331.78-165.16S184.65 38.91 360.73 38.91 692.5 106.58 692.5 201.16 536.8 367.05 360.73 367.05z"/><path class="aqst0" d="M360.73 166.97L309.8 78.2h-93.13v42.2h23.28v162.98h-23.28v42.2h84.4v-42.2h-24.01v-92.4l65.48 110.59 61.11-139.69v121.5h-18.91v42.2h120.78v-42.2h-23.29V120.4h23.29V78.2H403.65l-42.92 88.77zM153.37 493.65l-29.83-54.57h-15.28v83.67h18.19v-42.92l24.01 42.92h6.55l23.28-42.92v42.92h18.19v-83.67H183.2l-29.83 54.57zm63.3-54.57h18.92v83.67h-18.92v-83.67zm53.84 21.83c0-5.09 4.37-8 10.91-8 8 0 15.28 3.64 17.46 13.1h16.01c-1.46-16.73-14.55-27.65-33.47-27.65-16.73 0-29.83 10.19-29.83 23.28.73 32.01 46.56 20.37 46.56 37.83 0 6.55-5.82 10.91-13.1 10.91-9.46 0-19.64-4.37-21.1-17.46h-16.01c.73 22.55 17.46 32.74 36.38 32.74s32.74-10.19 32.74-26.19c.01-32.74-46.55-22.55-46.55-38.56zm77.12 0c0-5.09 4.37-8 10.91-8 8 0 15.28 3.64 17.46 13.1h16.01c-1.46-16.73-14.55-27.65-33.47-27.65-16.73 0-29.83 10.19-29.83 23.28.73 32.01 46.57 20.37 46.57 37.83 0 6.55-5.82 10.91-13.1 10.91-9.46 0-19.64-4.37-21.1-17.46h-16.01c.73 22.55 17.46 32.74 36.38 32.74s32.74-10.19 32.74-26.19c.73-32.74-46.56-22.55-46.56-38.56zm100.41-24.01c-26.92 0-44.38 20.37-44.38 43.65s17.46 43.65 44.38 43.65 44.38-20.37 44.38-43.65-17.46-43.65-44.38-43.65zm0 71.3c-15.28 0-25.47-10.91-25.47-26.92s10.19-26.92 25.47-26.92 25.47 10.91 25.47 26.92c-.01 16.01-10.19 26.92-25.47 26.92zm111.32-17.46l-38.57-51.66h-15.27v83.67h18.18v-50.93l38.57 50.93h15.28v-83.67h-18.19v51.66zm36.38-51.66h18.92v83.67h-18.92v-83.67z"/></symbol><symbol viewBox="0 0 612 147.96" id="PIERRE_CARDIN" xmlns="http://www.w3.org/2000/svg"><path d="M12.93 30.34h13.31v6.51h.2c3.35-5.42 8.87-7.89 15.18-7.89 15.97 0 23.17 12.91 23.17 27.41 0 13.61-7.49 26.32-22.38 26.32-6.11 0-11.93-2.66-15.28-7.69h-.2v24.25h-14V30.34zm37.85 25.63c0-8.08-3.25-16.46-12.22-16.46-9.17 0-12.12 8.18-12.12 16.46s3.15 16.17 12.22 16.17c9.16-.01 12.12-7.89 12.12-16.17zm36.77-33.52h-14V10.92h14v11.53zm-14 7.89h14V81.3h-14V30.34zm36.58 28.88c.39 8.87 4.73 12.91 12.52 12.91 5.62 0 10.15-3.45 11.04-6.6h12.32c-3.94 12.03-12.32 17.15-23.86 17.15-16.07 0-26.03-11.04-26.03-26.81 0-15.28 10.55-26.91 26.03-26.91 17.35 0 25.73 14.59 24.74 30.26h-36.76zm22.77-8.87c-1.28-7.1-4.34-10.84-11.14-10.84-8.87 0-11.43 6.9-11.63 10.84h22.77zm22.28-20.01h13.31v9.46h.2c2.56-6.41 9.46-10.85 16.26-10.85.99 0 2.17.2 3.06.49v13.01c-1.28-.3-3.35-.49-5.03-.49-10.25 0-13.8 7.39-13.8 16.36V81.3h-14V30.34zm38.34 0h13.31v9.46h.2c2.56-6.41 9.46-10.85 16.26-10.85.99 0 2.17.2 3.06.49v13.01c-1.28-.3-3.35-.49-5.03-.49-10.25 0-13.8 7.39-13.8 16.36V81.3h-14V30.34zm48.13 28.88c.4 8.87 4.73 12.91 12.52 12.91 5.62 0 10.15-3.45 11.04-6.6h12.32c-3.94 12.03-12.32 17.15-23.86 17.15-16.07 0-26.03-11.04-26.03-26.81 0-15.28 10.55-26.91 26.03-26.91 17.35 0 25.73 14.59 24.74 30.26h-36.76zm22.77-8.87c-1.28-7.1-4.34-10.84-11.14-10.84-8.87 0-11.43 6.9-11.63 10.84h22.77zm84.39-2.07c-.89-5.72-4.54-8.77-10.35-8.77-8.97 0-11.93 9.07-11.93 16.56 0 7.3 2.86 16.07 11.63 16.07 6.51 0 10.25-4.14 11.14-10.35h13.51c-1.77 13.51-11.14 20.9-24.55 20.9-15.38 0-25.73-10.84-25.73-26.12 0-15.87 9.46-27.6 26.02-27.6 12.03 0 23.07 6.31 23.95 19.32h-13.69v-.01zm21.29-2.27c.79-13.11 12.52-17.05 23.96-17.05 10.15 0 22.38 2.27 22.38 14.49v26.52c0 4.63.49 9.27 1.77 11.34h-14.2c-.49-1.58-.89-3.25-.99-4.93-4.44 4.63-10.95 6.31-17.16 6.31-9.66 0-17.35-4.83-17.35-15.28 0-11.53 8.68-14.29 17.35-15.48 8.58-1.28 16.56-.99 16.56-6.7 0-6.01-4.14-6.9-9.07-6.9-5.32 0-8.77 2.17-9.27 7.69l-13.98-.01c0 .01 0 0 0 0zm32.33 10.35c-2.36 2.07-7.3 2.17-11.63 2.96-4.34.89-8.28 2.37-8.28 7.49 0 5.22 4.04 6.51 8.57 6.51 10.94 0 11.34-8.68 11.34-11.73v-5.23zm24.85-26.02h13.31v9.46h.2c2.56-6.41 9.47-10.85 16.27-10.85.99 0 2.17.2 3.06.49v13.01c-1.28-.3-3.35-.49-5.03-.49-10.26 0-13.8 7.39-13.8 16.36V81.3h-14V30.34h-.01zm72.96 44.46h-.2c-3.25 5.52-8.97 7.89-15.48 7.89-15.38 0-22.87-13.21-22.87-27.31 0-13.7 7.59-26.42 22.58-26.42 6.01 0 11.93 2.56 15.18 7.59h-.1.2V10.92h14V81.3h-13.31v-6.5zm-12.22-35.29c-9.17 0-12.32 7.89-12.32 16.27 0 7.98 3.65 16.36 12.32 16.36 9.27 0 12.03-8.08 12.03-16.46-.01-8.29-2.96-16.17-12.03-16.17zm50.47-17.06h-14V10.92h14v11.53zm-14 7.89h14V81.3h-14V30.34zm25.04 0h13.31v7.1h.3c3.55-5.72 9.66-8.48 15.58-8.48 14.89 0 18.63 8.38 18.63 21V81.3h-14V52.52c0-8.38-2.47-12.52-8.97-12.52-7.59 0-10.84 4.24-10.84 14.59V81.3h-14V30.34h-.01zm-296.67 80.99h11.81c6.53 0 9.06 4.14 9.06 8.4 0 4.25-2.53 8.4-9.06 8.4h-6.05v9.39h-5.76v-26.19zm5.76 12.32h4.47c2.68 0 5.06-.59 5.06-3.92 0-3.34-2.38-3.93-5.06-3.93h-4.47v7.85zm23.14-12.32h5.9l9.79 26.18h-5.98l-1.98-5.83h-9.79l-2.05 5.83h-5.83l9.94-26.18zm-.55 16.07H288l-3.3-9.61h-.07l-3.42 9.61zm18.52-16.07h14.12c4.69 0 7.66 3.27 7.66 7.22 0 3.08-1.24 5.39-4.14 6.56v.07c2.83.73 3.63 3.48 3.81 6.13.11 1.65.08 4.73 1.1 6.2h-5.76c-.7-1.65-.62-4.18-.92-6.27-.41-2.75-1.47-3.96-4.36-3.96h-5.76v10.23h-5.76v-26.18h.01zm5.75 11.85h6.31c2.57 0 3.96-1.1 3.96-3.74 0-2.53-1.39-3.63-3.96-3.63h-6.31v7.37zm20.72-11.85h5.76v26.19h-5.76v-26.19zm14.74 17.49c0 3.48 2.71 4.84 5.79 4.84 2.02 0 5.1-.59 5.1-3.27 0-2.82-3.92-3.3-7.77-4.33-3.89-1.03-7.81-2.53-7.81-7.45 0-5.35 5.06-7.92 9.79-7.92 5.46 0 10.49 2.38 10.49 8.44h-5.57c-.18-3.15-2.42-3.96-5.17-3.96-1.83 0-3.96.77-3.96 2.97 0 2.02 1.25 2.27 7.81 3.96 1.91.48 7.78 1.69 7.78 7.63 0 4.81-3.78 8.4-10.89 8.4-5.8 0-11.22-2.86-11.15-9.32h5.56v.01z"/></symbol><symbol viewBox="0 0 1644.09 595.28" id="Safilo" xmlns="http://www.w3.org/2000/svg"><path d="M176.99 100.38c-11.81-20.47-25.98-32.28-51.18-32.28-26.38 0-49.21 18.9-49.21 46.06 0 25.59 26.38 37.4 46.45 46.45l19.69 8.67C181.32 186.2 214 205.5 214 252.74c0 51.97-41.73 91.73-93.31 91.73-47.64 0-83.07-30.71-92.52-76.77l32.28-9.05c4.33 30.32 27.56 55.12 59.45 55.12s61.02-24.41 61.02-57.87c0-34.65-27.17-46.46-54.72-59.06l-18.11-7.87c-34.65-15.75-64.57-33.47-64.57-75.98 0-46.06 38.97-75.59 83.07-75.59 33.07 0 61.02 16.93 76.77 46.06l-26.37 16.92zM376.98 255.1l-35.82 84.25h-36.22L441.95 28.33l133.46 311.02H538.8l-35.04-84.25H376.98zm64.18-149.61l-50.79 118.9h100.39l-49.6-118.9zm277.9-32.28v88.19h98.82v30.71h-98.82v147.24h-33.07V42.5h135.04v30.71H719.06zm254.91 266.14H940.9V42.5h33.07v296.85zm173.74-30.71h81.89v30.71h-114.96V42.5h33.07v266.14zm467.87-117.32c0 85.43-70.08 153.15-154.72 153.15-84.65 0-154.73-67.72-154.73-153.15 0-85.04 70.08-153.93 154.73-153.93 84.64 0 154.72 68.89 154.72 153.93m-276.38-.39c0 66.93 54.33 122.84 121.65 122.84 67.32 0 121.65-55.9 121.65-122.84 0-67.32-53.54-122.83-121.65-122.83-68.11-.01-121.65 55.51-121.65 122.83M216.13 521.25h-.17l-14.34 42.81h-8.34l23.94-67.57 14.18 51.07 30.35-51.07 2.54 67.57h-8.34l-.79-42.81h-.17l-26.43 44.19-12.43-44.19zm81.86 26.56l-9.97 16.25h-8.68l41.65-67.57 20.25 67.57h-8.68l-4.82-16.25h-29.75zm20.2-33.61l-15.67 26.22h23.04l-7.37-26.22zm51.49-14.96h13.42c19.86 0 34.7 10.49 31.29 32.06-3.5 22.09-21.35 32.76-41.81 32.76h-13.15l10.25-64.82zm-1.01 57.43h2.84c16.51 0 31.76-6.19 34.74-25.02 2.99-18.91-10.31-25.02-26.82-25.02h-2.84l-7.92 50.04zm74.78-57.43h34.82l-1.17 7.39h-26.74l-2.87 18.14h25.96l-1.17 7.39h-25.96l-3.88 24.5h26.74l-1.17 7.39h-34.82l10.26-64.81zm99.87 64.82h-8.08l10.26-64.82h8.08l-10.26 64.82zm38.28-67.92l40.59 50.98 7.58-47.88h8.08l-10.69 67.48-40.59-50.98-7.65 48.31h-8.08l10.76-67.91zm122.85 67.92h-8.08l10.26-64.82h8.08l-10.26 64.82zm41.23 0h-8.08l9.09-57.43H731.3l1.17-7.39h38.86l-1.17 7.39h-15.39l-9.09 57.43zm41.49-16.25l-9.97 16.25h-8.68l41.65-67.57 20.25 67.57h-8.68l-4.82-16.25h-29.75zm20.2-33.61l-15.67 26.22h23.04l-7.37-26.22zm50.81 42.47h19.69l-1.17 7.39h-27.77l10.26-64.82h8.08l-9.09 57.43zm33.43-57.43h9.29l11.52 27.68 20.29-27.68H942l-26.95 36.62-4.46 28.2h-8.08l4.46-28.2-15.36-36.62zm112.8 0h13.41c19.86 0 34.7 10.49 31.28 32.06-3.5 22.09-21.35 32.76-41.81 32.76h-13.15l10.27-64.82zm-1.01 57.43h2.84c16.51 0 31.76-6.19 34.74-25.02 2.99-18.91-10.31-25.02-26.82-25.02h-2.84l-7.92 50.04zm73.03-8.86l-9.97 16.25h-8.68l41.65-67.57 20.25 67.57H1111l-4.82-16.25h-29.75zm20.2-33.61l-15.67 26.22H1104l-7.37-26.22zm50.81 42.47h19.69l-1.17 7.39h-27.77l10.26-64.82h8.08l-9.09 57.43zm94.84-50.04l5.64-7.39h14.53l-10.26 64.82h-7.74l9.09-57.43h-11.26zm49.03 54.76l20.97-23.3-.15-.17c-2.04.95-4.23 1.2-6.47 1.2-10.74 0-17.3-9.63-15.67-19.94 1.88-11.86 13-21.32 24.78-21.32 11.18 0 20.11 9.29 18.3 20.72-1.02 6.45-5.18 12.04-9.76 17.11l-26.8 29.75-5.2-4.05zm34.02-42.73c1.09-6.88-4.04-13.58-11.09-13.58-7.74 0-15.25 6.19-16.42 13.58-1.23 7.74 4.9 13.58 11.6 13.58 8.26.01 14.79-6.53 15.91-13.58m43.47 7.74c6.96 0 13.13-2.58 14.37-10.4 1.03-6.53-3.06-11.09-9.51-11.09-5.84 0-10.47 3.7-12.21 9.28h-7.99c3.23-10.66 10.92-16.33 21.58-16.33 10.32 0 17.69 6.62 15.98 17.45-1.01 6.36-4.58 11.52-10.57 14.62 5.88 3.01 7.76 9.11 6.65 16.08-1.92 12.12-12.19 19.43-23.8 19.43-10.14 0-18.2-6.71-17.02-17.37h7.82c-.23 6.36 4.73 10.32 10.92 10.32 7.22 0 13.28-5.67 14.4-12.72 1.31-8.26-3.59-13.15-11.68-12.55l1.06-6.72zm82.09 21.15l-1.12 7.05h-7.4l-1.5 9.46h-7.74l1.5-9.46h-31.98l48.92-58.12-8.09 51.07h7.41zm-10.9-26.74h-.17l-22.46 26.74h18.4l4.23-26.74z"/></symbol><symbol viewBox="0 0 486.18 155.89" id="Smith" xmlns="http://www.w3.org/2000/svg"><path d="M23.99 52.94c0 3.21 5.44 5.17 5.44 5.17s43.62 17.75 71.28 38.81v18.25c-39-29.13-84.64-45.99-84.64-45.99s-4.14-1.46-5.42-2.25c-1.22-.75-1.65-2.56-1.68-4.2V44.64c0-2.59 5.54-7.17 5.54-7.17 12.75-11.25 25.51-13.5 41.5-13.5 25 0 44.75 14.25 44.75 14.25l-.08 17s-19.92-14.9-44.67-14.9c-23.51 0-32.02 8.28-32.02 12.62zm51.07 60.6s-6.68 2.15-18.55 2.15c-18.62 0-35.86-9.31-47.49-16.34v18.59s19.13 13.97 47.71 13.97c20.91 0 35.23-7.62 35.23-7.62s-4.96-3.63-9.02-6.25-7.88-4.5-7.88-4.5zm172.22 16.15h17.23V26.73h-17.23v102.96zm35.69-88.31h31.82v88.31h17.42V41.38h31.73V26.73h-80.97v14.65zM452.4 26.73v46.22h-53.58V26.73H381.6v102.96h17.22V87.95h53.58v41.74h17.23V26.73H452.4zM173.09 80.17l-37.13-53.44h-17.1v102.95h17.13V53.72l37.1 54.23 37.2-54.21v75.94h17.06V26.73h-17.07l-37.19 53.44z"/></symbol><symbol viewBox="0 0 595.28 125.89" id="dita" xmlns="http://www.w3.org/2000/svg"><path d="M127.01 12.1H66.94c-.09 0-1.61.06-1.61.06-.78 0-1.59.35-1.59 1.12 0 .62.72 1.13 1.6 1.13 8.24 0 11.19 3.18 11.19 9.25v75.82c0 6.07-2.93 9.25-11.18 9.25-1.1 0-1.6.79-1.6 1.41 0 .77.8 1.12 1.58 1.12h61.95c73.53.02 72.46-99.16-.27-99.16m-1.32 94.68h-10.45c-6.95-.48-9.73-3.82-9.73-9.52V15.95h19.9c11.19 0 20.52 8.63 20.52 19.13v52.57c0 10.5-9.05 19.13-20.24 19.13m138.97 4.59c3.39.13 3.08-2.63.54-2.63-7.93 0-10.86-3.19-10.86-9.25l-.05-75.55c0-6.07 2.94-9.25 11.19-9.25 2.01 0 2.71-2.93-.84-2.78h-50.26c-3.55-.15-2.85 2.78-.84 2.78 8.24 0 11.19 3.18 11.19 9.25l-.05 75.55c0 6.07-2.93 9.25-10.86 9.25-2.54 0-2.86 2.75.54 2.63h50.3zm109.63 0c4.56.28 3.73-2.63 1.76-2.63-8.24 0-11.19-3.19-11.19-9.25 0 0-.01-71.44 0-71.67.41-5.32 2.22-9.13 8.77-11.72 16.91 2.68 30.14 9.93 38.52 17.09v-3.51L397.97 11.9h-95.88l-14.18 17.78v3.51c8.37-7.16 21.61-14.41 38.52-17.09 6.55 2.59 8.36 6.4 8.77 11.72.01.23 0 71.67 0 71.67 0 6.07-2.95 9.25-11.19 9.25-1.96 0-2.82 2.85 1.76 2.63h48.52zm172.08-2.62c-6.72 0-10-2.5-13.95-8.37L478.95 12H437c-2.41 0-2.03 2.24-.4 2.24 2.51 0 5.03.4 6.92 1.33 5.02 2.45 8 6.23 11.99 12.24l3.18 5.31s-32.43 63.1-32.73 63.65c-2.29 4.24-4.18 7.18-6.26 9.16-1.64 1.56-4.2 2.81-8.11 2.81-1.88 0-2.75 2.63 1.04 2.63H437c.83 0 1.28-.01 1.95-.1 1.68-.24 1.99-2.46-.34-2.52-4.47-.13-8.46-4.37-4.28-13.13.08-.18 7.93-16.39 7.93-16.39h45.33c2.79 5.24 6.94 12.27 9.73 17.89.41.88.82 1.68 1.18 2.43 2.5 6.06-1.27 9.16-6.25 9.19-2.02.01-2.59 2.63.71 2.63h53.23c2.42 0 2.35-2.62.18-2.62m-82.51-70.18l20.81 35.23h-39.41l18.6-35.23z"/></symbol><symbol id="dkny" viewBox="0 0 417 135.89" xml:space="preserve" xmlns="http://www.w3.org/2000/svg"><style>.avst0{fill-rule:evenodd;clip-rule:evenodd;fill:#293240}</style><path class="avst0" d="M46.64 14.46H12v101.52h43.08c27.44 0 47.06-19.12 47.06-49.28 0-37.29-24.09-52.24-55.5-52.24z"/><path d="M48.13 85.56h-2.11V46.24h2.11c12.42 0 19.99 6.06 19.99 20.33 0 13.33-8.69 18.99-19.99 18.99z" fill-rule="evenodd" clip-rule="evenodd"/><path class="avst0" d="M169.84 63.88l29.3-49.42h-37.12l-16.39 32.58c-1.86 3.64-3.97 7.27-4.72 11.44h-.75l.75-44.03h-33.15v101.52h33.15l-.75-42.55h.75c.75 4.18 3.73 7.94 5.71 11.85l16.14 30.7h39.48l-32.4-52.09zm40.15-49.42h32.65l30.54 56.28h.99c-1.37-8.48-2.86-17.23-2.86-25.85V14.46h32.53v101.52h-32.53L241.4 62.66h-.99c1.12 7 2.11 13.6 2.11 20.33v32.99h-32.53V14.46zm138.54 0l10.43 26.53h.99c.99-3.23 1.86-6.46 3.11-9.56l6.7-16.96H408l-32.03 57.77V116h-33.28V72.22l-32.65-57.77 38.49.01c0-.01 0 0 0 0z"/></symbol><symbol id="havaianas" viewBox="0 0 1200.77 244.88" xml:space="preserve" xmlns="http://www.w3.org/2000/svg"><style>.awst0{fill:#2a3241}</style><path class="awst0" d="M1035.05 208.4c-4.2-3.69-10.1-8.45-12.61-10.79-1.22-1.15-1.91-2.4-1.74-4.32 1.57-16.87 8.65-92.89 8.84-94.91.65-7.23-1.31-12.51-6.76-18.34-5.67-6.06-12-12.91-13.06-13.96-5.59-5.57-13.23-8.47-21.87-8.5-11.39-.05-30.56-.81-32.32-.85-7.76-.17-12.78.98-19.76 5.35-6.01 3.77-13.22 8.37-14.47 9.24-4.21 2.98-6.61 6.06-7.37 10.54-1.19 7.06-3.13 18.34-3.38 20.02-.76 5.08 1.32 7.23 5.53 7.01 1.43-.07 13.55-.89 20.49-1.3 4.21-.23 6.19-1.42 7.89-6.53.41-1.23 4.07-11.77 6.06-17.48 1.48-4 3.26-5.12 6.76-5.74 4.72-.84 10.95-1.64 12.2-1.79 3.64-.43 5.97-.05 8.99 1.94 1.28.84 8.95 6.2 9.95 6.92 1.33.96 3.89 3.65 3.9 7.51 0 1.54.33 23.95.33 23.95s-.07 3.78-4.55 2.34c-6.37-2.08-22.64-7.66-29.84-6.23-4.77.95-13.01 4.07-15.38 5.09-4.99 2.18-12.4 5.49-20.23 9.37-8.28 4.1-11.03 6.71-12.38 7.92-5.1 4.68-5.34 10.96-5.7 16.77-.57 9.44-1.98 29.96-1.93 31.47.23 7.01 2.53 13.13 8.74 17.87 8.51 6.48 19.92 15.01 21.73 16.42 5.73 4.43 16.6 4.49 21.62 1.93 11.02-5.63 34.38-17.73 34.89-18.02.59-.33 1.44-.27 1.8.9.24.75.41 1.31.57 1.93.31 1.16 1.33 2.63 2.49 3.61 5.2 4.38 16.01 13.69 16.73 14.29 3.74 3.21 7.4 3.17 10.72 1.35 8.29-4.51 12.72-7.3 13.4-7.68 3.97-2.22 2.77-4.63-.28-7.3m-43.18-62.45c0 1.47.05 20.87.08 28.08.01 2.95-.96 5.49-3.59 6.85-1.89.99-15.79 8.14-23.42 12.07-2.98 1.55-7.1 1.59-9.95.19-1.98-.98-8.41-4.39-12.03-6.16-3.07-1.47-4.8-4.66-5.41-8.68-.32-2.22-1.02-14.59-1.46-21.98-.37-2.81.53-7.42 3.41-9.73 1.55-1.26 7.58-4.46 10.71-6.25 4.16-2.37 9.14-4.3 12.01-5.42 4.24-1.67 8.14-1.23 16.55 1.04 2.12.57 8.88 2.33 10.32 3.23 2.46 1.81 2.77 4.68 2.78 6.76m-243.73 68.09c-1.22-2.01-4.26-6.94-7.11-14.87-.46-1.3-1.34-4.86-1.23-6.77 1.02-16.78 3.3-91.6 3.41-93.62.41-7.2 1.44-12.81-4.12-18.6-5.79-6.02-12.52-13.18-13.59-14.22-5.24-5.1-10.4-6.72-19.48-6.74-11.27-.04-33.4-.74-35.15-.78-7.66-.17-6.98-.36-14.05 3.43-6.85 3.66-16.19 10.77-18.82 12.26-4.37 2.49-5.82 5.67-6.42 10.13-.84 6.12-2.8 13.03-3.56 19.55-.57 5.05 1.54 7.2 5.69 6.97 1.4-.08 13.35-.89 20.18-1.3 4.17-.23 6.54-1.24 8.07-6.33.36-1.23 3.95-10.61 5.75-16.29 1.32-3.97 3.49-6.73 6.98-7.21 5.67-.77 6.77-1.23 10.36-1.65 6.87-.83 8.13-.07 10.36 1.1 1.36.69 5.73 3.95 9.91 6.68 2.78 1.83 5.09 3.8 4.88 9.48-.06 1.52.51 14.52.3 16.95-.21 2.44 1.62 8.87-3.03 8.31-5.72-.69-11.83-4.5-23.39-6.07-1.95-.27-6.54-1.02-10.32.22-5.49 1.81-15.08 5.53-16.18 6.01-9.03 3.87-10.87 4.94-22.51 10.88-7.64 3.88-11.3 8.52-12.27 16.89-1.1 9.45-2.08 33.44-2.18 34.96-.52 8.38 3.21 15.12 9.51 19.84 8.61 6.44 18.24 13.75 20.6 15.44 5.71 4.07 14.93 5.83 22.59 1.81 10.71-5.6 32.16-16.38 32.63-16.67.57-.32 2.61-1.83 3.01-.68.25.76 1.18 3.17 1.37 3.8.34 1.15 1.81 2.58 2.88 3.66 5.53 5.6 9.98 10.48 14.35 15.06 10.22 10.68 11.62 11.58 24.02 14.51 13.42 3.18 14.32 3.39 16.89 3.84 2.57.45 4.7 2.08 23.95-.88 19.25-2.98 20.46-3.41 22.46-3.76 1.99-.35 9.77-1.02 12.95-13.97 3.18-12.93 4.94-20.16 5.39-22.88.44-2.7 2.94-8.06-5.11-7.64-8.04.42-11.81.68-13.94.9-4.46.44-7.06 1.28-8.15 9.19-1.26 9.02-.63 14.34-8.97 17.95-8.22 3.55-11.01 4.1-15.04 4.56-7.22.85-9.07 1.11-15.94-.31-9.34-1.92-13-4.82-17.93-13.14m-38.28-66.12c-.16 5.78.07 22.52 0 24.88-.16 4.96-.26 8.09-3.99 9.79-1.91.85-13.93 7.27-21.34 11.19-3.62 1.91-7.68 2.83-12.33.51-4.33-2.18-6.02-2.7-11.31-5.85-3.63-2.03-5.63-5.29-5.89-9.35-.32-5.06-1.12-17.37-1.34-21.93-.23-4.52.98-7.77 6.46-11.18 2.49-1.53 12.96-6.72 16.48-8.41 4.39-2.12 10.67-2.37 13.21-1.85 2.14.44 12.39 3.34 15.89 4.38 3.16.95 4.25 4.73 4.16 7.82m-404.55 60.49c-4.2-3.69-10.08-8.45-12.61-10.8-1.22-1.14-1.92-2.4-1.73-4.32 1.57-16.85 8.65-92.88 8.83-94.91.65-7.23-1.31-12.51-6.76-18.33-5.67-6.06-12.01-12.9-13.07-13.95-5.58-5.59-13.23-8.49-21.86-8.52-11.38-.03-30.55-.81-32.33-.85-7.76-.17-12.77.98-19.75 5.35-6.01 3.78-13.22 8.37-14.46 9.24-4.21 2.97-6.62 6.05-7.38 10.54-1.19 7.05-3.12 18.34-3.37 20.02-.76 5.09 1.32 7.24 5.53 7.02 1.42-.08 13.55-.88 20.48-1.3 4.22-.23 6.19-1.42 7.89-6.53.42-1.25 4.07-11.78 6.06-17.49 1.48-4 3.26-5.12 6.76-5.74 4.72-.84 10.96-1.65 12.19-1.79 3.64-.43 5.97-.05 9 1.94 1.27.83 8.95 6.21 9.94 6.92 1.34.94 3.88 3.65 3.9 7.51 0 1.53.33 23.95.33 23.95s-.08 3.78-4.55 2.33c-6.37-2.08-22.63-7.65-29.84-6.23-4.77.94-13 4.05-15.37 5.08-4.99 2.18-12.41 5.49-20.24 9.37-8.28 4.11-11.03 6.71-12.38 7.93-5.11 4.68-5.34 10.95-5.69 16.77-.59 9.44-1.99 29.95-1.94 31.47.24 7 2.52 13.13 8.74 17.87 8.52 6.48 19.92 15.01 21.73 16.41 5.74 4.44 16.61 4.5 21.62 1.94 11.04-5.64 34.4-17.73 34.89-18.02.59-.33 1.45-.26 1.81.9.25.76.41 1.31.57 1.94.3 1.16 1.32 2.63 2.49 3.62 5.2 4.38 16.02 13.69 16.73 14.29 3.74 3.2 7.39 3.16 10.72 1.34 8.28-4.52 12.72-7.31 13.4-7.68 4.8-2.68 3.42-4.05-.28-7.29m-43.18-62.46c0 1.49.06 20.87.09 28.08 0 2.94-.97 5.49-3.61 6.85-1.9.99-15.79 8.13-23.42 12.07-2.97 1.53-7.09 1.6-9.94.18-1.97-.98-8.4-4.39-12.03-6.14-3.06-1.49-4.81-4.67-5.41-8.69-.32-2.2-1.02-14.59-1.46-21.97-.37-2.82.53-7.42 3.41-9.74 1.56-1.26 7.59-4.46 10.72-6.26 4.15-2.36 9.14-4.29 12-5.41 4.24-1.66 8.15-1.23 16.56 1.04 2.12.58 8.88 2.34 10.3 3.23 2.48 1.83 2.78 4.69 2.79 6.76m299.35 62.4c-4.21-3.69-10.09-8.45-12.61-10.78-1.22-1.14-1.92-2.4-1.74-4.33l8.84-94.92c.64-7.23-1.31-12.51-6.76-18.33-5.67-6.06-12.01-12.9-13.06-13.96-5.59-5.58-13.24-8.47-21.87-8.51-11.39-.05-30.56-.81-32.33-.85-7.75-.17-12.78.98-19.76 5.36-6.01 3.77-13.23 8.35-14.47 9.24-4.21 2.98-6.61 6.05-7.38 10.54-1.19 7.04-3.13 18.33-3.37 20.01-.77 5.08 1.31 7.24 5.52 7.01 1.42-.07 13.55-.88 20.48-1.28 4.21-.24 6.19-1.42 7.9-6.54.41-1.24 4.05-11.78 6.05-17.49 1.47-3.99 3.26-5.12 6.75-5.73 4.72-.82 10.96-1.64 12.19-1.79 3.65-.43 5.97-.03 9 1.94 1.28.83 8.95 6.2 9.95 6.92 1.33.96 3.88 3.65 3.9 7.51.01 1.54.34 23.95.34 23.95s-.09 3.79-4.55 2.33c-6.37-2.07-22.64-7.64-29.84-6.22-4.77.95-13.01 4.07-15.38 5.09-4.99 2.17-12.4 5.49-20.22 9.38-8.28 4.09-11.04 6.7-12.37 7.92-5.12 4.67-5.35 10.96-5.71 16.76-.58 9.44-1.99 29.96-1.93 31.48.23 7 2.52 13.12 8.74 17.86 8.51 6.48 19.92 15.02 21.73 16.42 5.74 4.43 16.6 4.5 21.61 1.94 11.04-5.64 34.4-17.73 34.89-18.02.59-.33 1.44-.26 1.81.9.24.76.4 1.3.56 1.94.31 1.17 1.33 2.63 2.49 3.62 5.21 4.37 16.02 13.68 16.73 14.29 3.74 3.21 7.38 3.16 10.72 1.34 8.28-4.51 12.72-7.31 13.41-7.68 3.99-2.24 2.79-4.64-.26-7.32M518.3 145.9c.01 1.48.06 20.86.08 28.08.01 2.95-.96 5.49-3.6 6.85-1.89.99-15.79 8.15-23.42 12.07-2.97 1.53-7.09 1.58-9.95.17-1.97-.98-8.4-4.39-12.02-6.13-3.07-1.49-4.81-4.66-5.41-8.69-.32-2.21-1.02-14.59-1.46-21.98-.37-2.82.53-7.42 3.41-9.73 1.55-1.26 7.59-4.47 10.72-6.25 4.16-2.36 9.14-4.3 12-5.42 4.24-1.66 8.15-1.23 16.56 1.04 2.11.57 8.88 2.33 10.31 3.23 2.46 1.82 2.77 4.69 2.78 6.76m-128.81 62.27c.98-3.59 31.91-111.56 40.18-140.47 1.55-5.39-.61-9.44-4.82-9.58-3.24-.11-9.94 0-14 .15-4.01.15-7.57 2.98-8.56 6.35-6.81 23.24-31.18 106.97-32.2 110.09-1.18 3.63-3.93 3.32-4.55.26-.63-3.06-19.07-107.24-19.73-110.15-.8-3.54-1.84-6.18-8.2-6.37-7.58-.25-19.06-.49-22.82-.54-5.81-.07-9.39 1.21-8 6.43 1.19 4.55 28.88 115.63 36.11 144.67 1.1 4.38 5.71 6.45 10.13 5.89 3.84-.49 8.01-1.03 10.15-1.44 4.62-.84 8.42-.47 12.84.57 1.66.39 3.63.8 5.46 1.18 3.07.63 6.88-2.85 8.01-7.04m184.15-99.72c.06 5.42.2 74.92.24 98.62.02 4.91 2.83 7.89 7.23 8.01 4.4.11 5.53.06 11.07.23s8.07-2.77 8.51-7.67c2.1-24.42 8.44-97.61 8.73-100.9.34-3.94-2.22-6.73-6.11-6.68-6.99.07-17.49.19-21.31.19-5.95 0-8.42 1.65-8.36 8.2M128.7 68.23c-1.62 0-20.25.23-27.29.47-7.03.26-12.01 1.91-16.31 5.48-2.69 2.24-8.94 10.08-9.67 10.88-.54.57-1.58 2.47-2.72 2.23-1.28-.26-1.31-1.51-1.12-3.7.84-9.96 3.43-50.97 4.19-63.96.4-4.42-1.49-7.86-6.47-7.86-1.94 0-21.04.64-28.99.64-4.33 0-6.93 3.06-6.87 7.29.03 2.02 2.22 166.06 2.59 192.07.03 2.2 1.27 3.38 3.63 3.34 1.82-.02 15.08-.15 21.09-.22 1.8 0 3.07-1.41 3.07-2.71 0-1.08 4.01-66.18 5.05-88.13.29-7.67 2.97-17.16 6.27-19.87 3.31-2.69 10.4-8.22 13.46-10.44 3.06-2.21 5.35-2.28 7.87-2.3 3.47 0 9.35.15 12.32.24 3.92.12 3.96.45 7.24 2.77 1.63 1.14 3.97 2.85 6.01 4.41 3.39 2.58 4.97 4.7 4.9 9.55-.01 1.03 2.02 78.38 2.37 97.34 0 5.21.83 9.16 6.1 9.16 1.37 0 9.39.08 14.79.08 4.95 0 5.29-4.09 5.68-8.65.11-1.27 4.02-78.17 5.78-97.96.67-8.31-.83-12.34-4.76-17.79-.96-1.33-6.9-8.99-11.88-15.67-4.75-6.44-7.05-6.72-16.33-6.69"/><path class="awst0" d="M856.13 66.63c-9.64 0-22.92.72-27.76 1.01-7.36.43-10.67 2.28-14.09 6.28-3.6 4.22-8.77 9.75-9.68 10.59-4.88 4.43-5.39 2.61-5.2-2.38.11-2.94.87-11.43 1.16-15.12.5-6.5-3.58-8.11-8.85-8.15-6.35-.05-14.09-.11-17.38-.11-10.35 0-12.34-.2-12.34 12.35 0 9.22.43 105.53.5 135.1.01 5.53 3.5 8.72 7.26 8.72s12.99-.15 15.79-.15c2.78 0 5.95-3.44 6.33-8.93 1.61-23.26 5.58-86.43 5.94-90.22.42-4.69 2.54-8.16 5.33-10.37 4.99-3.94 11.73-8.87 13.92-10.88 2.38-2.16 5.11-2.85 8.35-2.85 5.3 0 8.82.14 12.23.28 2.8.13 4.98.58 7.4 2 2.7 1.6 6.56 6.29 7.83 7.58 2.19 2.25 3.27 3.2 3.27 7.44 0 20.91 1.6 91.85 1.6 96.84 0 5.99 2.18 8.99 5.37 9.12 4.43.19 10.49.15 12.61.15 3.66 0 5.79-2.57 6.32-7.16 2.49-21.66 8.21-87.98 8.99-95.23 1.28-12.16-.86-14.73-6.71-22.02-6.29-7.86-11.67-14.44-16.08-19.26-3.37-3.66-7.68-4.63-12.11-4.63m-284.69 2.9c0 11.72 9.45 21.21 21.12 21.21 11.65 0 21.12-9.5 21.12-21.21s-9.47-21.21-21.12-21.21c-11.67-.01-21.12 9.5-21.12 21.21m562.66-10.07c8.13 1.69 7.67 1.25 11.55 6 3.4 4.18 4.77 5.74 6.57 8.21 1.66 2.27 2.1 2.69 4.34 5.91 1.61 2.32.73 4.22-3.68 6.71-2.31 1.29-13.42 7.22-15.78 8.25-2.2.98-5.17 1.58-6.92-1.88-3.73-7.4-3.68-8.4-6.81-9.71-3.36-1.41-12.28-5.17-15.09-6.3-5.48-2.2-9.11-3.23-13.63-.78-3.66 1.98-12.34 6.99-14.87 8.4-3.91 2.18-4.44 3.46-4.11 7.95.35 4.83.61 8.57.9 11.1.9 7.72 1.98 9.27 11.82 12.06 7.01 1.98 35.53 9.76 44.1 12.05 15.19 4.04 16.21 3.82 19.43 8.67 2.81 4.24 11.36 18.65 13.05 21.47 3.09 5.18 2.72 9.71 1.12 15.49-1.34 4.8-5.31 18.95-6.75 23.95-2.92 10.2-3.72 11.05-9.81 14.1-5.05 2.53-26.39 11.22-30.27 12.76-11.2 4.46-8.14 5.32-21.13 1.98-10.78-2.78-26.76-6.98-36.18-9.52-4.73-1.29-8.88-5.03-14.19-9.85-2.71-2.44-10.52-9.65-13.94-13.1-1.5-1.5-1.15-4.97 1.04-6.16 3.08-1.69 15.19-8.01 18.56-9.7 4.15-2.09 7.12-3.26 10.78 1.23 2.56 3.12 5.82 6.47 7.9 8.82 2.45 2.76 2.19 2.34 5.23 3.91 4.94 2.54 7.07 3.88 14.2 7.34 8.25 4.02 9.05 3.24 15.12.48 4.67-2.12 13.35-6.47 17.28-8.68 3.29-1.83 9.32-3.48 10.34-9.4.82-4.76-1.17-8.5-2.68-12.32-.88-2.27-2.5-6.43-3.68-9.03-2.69-5.88-3.44-6.89-9.79-9.02-3.9-1.31-36.14-9.83-46.79-12.67-18.45-4.92-18.63-6.14-21.83-15.27-3.11-8.93-6.89-18.42-8.72-24.67-1.04-3.58.39-5.58 5.66-16.1 4.47-8.87 3.76-7.25 5.52-10.6 1.21-2.34 2.93-2.41 12.77-7.06 4.19-1.98 19.99-9.09 23.91-10.78 3.93-1.69 6.02-2.24 9.91-1.49 6.87 1.35 29.85 6.07 35.55 7.25"/></symbol><symbol id="m-missoni" viewBox="0 0 56.96 41.86" xml:space="preserve" xmlns="http://www.w3.org/2000/svg"><style>.axst0{fill:#293240}</style><path class="axst0" d="M28.48 1.09C12.94 1.09.75 7.07.75 15.44s12.18 14.58 27.73 14.58c15.54 0 27.73-6.21 27.73-14.58 0-8.38-12.18-14.35-27.73-14.35zm-.05 27.27c-13.78 0-25.96-5.52-25.96-12.92S14.65 2.68 28.43 2.68s25.96 5.3 25.96 12.7S42.2 28.36 28.43 28.36z"/><path class="axst0" d="M28.43 12.7l-3.99-6.94h-7.29v3.3h1.82v12.75h-1.82v3.3h6.61v-3.3h-1.88v-7.23L27 23.23l4.78-10.93v9.51H30.3v3.3h9.46v-3.3h-1.83V9.06h1.83v-3.3h-7.98zM12.2 38.27L9.86 34H8.67v6.54h1.42v-3.36l1.88 3.36h.51l1.82-3.36v3.36h1.43V34h-1.2zM17.15 34h1.48v6.55h-1.48zm4.22 1.7c0-.4.34-.63.85-.63.63 0 1.2.28 1.37 1.02h1.25c-.11-1.31-1.14-2.16-2.62-2.16-1.31 0-2.33.8-2.33 1.82.06 2.51 3.64 1.59 3.64 2.96 0 .51-.46.85-1.02.85-.74 0-1.54-.34-1.65-1.37H19.6c.06 1.77 1.37 2.56 2.85 2.56s2.56-.8 2.56-2.05c0-2.54-3.64-1.74-3.64-3zm6.03 0c0-.4.34-.63.85-.63.63 0 1.2.28 1.37 1.02h1.25c-.11-1.31-1.14-2.16-2.62-2.16-1.31 0-2.33.8-2.33 1.82.06 2.51 3.64 1.59 3.64 2.96 0 .51-.46.85-1.02.85-.74 0-1.54-.34-1.65-1.37h-1.25c.06 1.77 1.37 2.56 2.85 2.56s2.56-.8 2.56-2.05c.05-2.54-3.65-1.74-3.65-3zm7.86-1.87c-2.11 0-3.47 1.59-3.47 3.42 0 1.82 1.37 3.42 3.47 3.42s3.47-1.59 3.47-3.42c0-1.83-1.37-3.42-3.47-3.42zm0 5.58c-1.2 0-1.99-.85-1.99-2.11 0-1.25.8-2.11 1.99-2.11s1.99.85 1.99 2.11c0 1.25-.8 2.11-1.99 2.11zm8.71-1.37L40.95 34h-1.19v6.54h1.42v-3.98l3.02 3.98h1.19V34h-1.42zM46.82 34h1.48v6.55h-1.48z"/></symbol><symbol id="marc-jacobs" viewBox="0 0 153.1 28.41" xml:space="preserve" xmlns="http://www.w3.org/2000/svg"><style>.ayst0{fill:#293240}</style><path class="ayst0" d="M67.67 3.77H63.6v8.52h-2.51V3.77h-4.06V1.45h10.64v2.32m13.41-2.32v10.84h-2.51V7.24h-5.26v5.05H70.8V1.45h2.51v3.47h5.26V1.45h2.51m13.8 8.52v2.32h-9.21V1.45h9.12v2.29h-6.64v1.88h4.38V7.9h-4.38v2.07h6.73M1.29 15.91h2.2l3.22 4.9c.24.37.45.67.67 1.05.22-.38.42-.68.67-1.05l3.23-4.9h2.03v10.84h-2.4v-5.38c0-.32 0-.64.01-.93-.15.26-.33.54-.52.84l-3.07 4.65-3.12-4.7c-.19-.3-.36-.57-.51-.87.03.31.03.61.03.93v5.47H1.29V15.91M25.7 24.3h-5.59l-1.23 2.45h-2.63l5.58-10.84h2.24l5.58 10.84h-2.7L25.7 24.3m-1.12-2.24l-1.27-2.51c-.15-.3-.3-.6-.41-.86-.11.26-.26.56-.41.86l-1.25 2.51h3.34zm13.55.79h-3.16v3.9h-2.51V15.91h6.9c2.74 0 4.3 1.25 4.3 3.45 0 1.68-1.01 2.88-2.76 3.31l2.82 4.08h-2.96l-2.63-3.9m-3.17-2.26h4.43c1.23 0 1.7-.42 1.7-1.2 0-.76-.45-1.2-1.7-1.2h-4.43v2.4zm11.46.75c0-3.33 2.61-5.63 6.49-5.63 2.17 0 3.9.61 5.47 1.88l-1.69 1.83c-1.24-.98-2.31-1.43-3.79-1.43-2.44 0-3.92 1.38-3.92 3.35 0 1.96 1.52 3.3 3.92 3.3 1.72 0 2.92-.53 4.26-1.76l1.69 1.64c-1.54 1.62-3.48 2.44-5.94 2.44-4.08 0-6.49-2.2-6.49-5.62m20.82.55v-.71h2.51v.41c0 1.95 1.02 3.05 2.85 3.05 1.74 0 2.6-.95 2.6-2.4v-6.33h2.51v6.53c0 2.9-1.71 4.51-5.15 4.51-3.43.01-5.32-1.76-5.32-5.06m22.19 2.41h-5.59l-1.23 2.45h-2.63l5.58-10.84h2.24l5.57 10.84h-2.7l-1.24-2.45m-1.12-2.24l-1.27-2.51c-.15-.3-.3-.6-.41-.86-.11.26-.26.56-.41.86l-1.25 2.51h3.34zm6.52-.72c0-3.33 2.6-5.63 6.49-5.63 2.17 0 3.9.61 5.47 1.88l-1.69 1.83c-1.24-.98-2.32-1.43-3.79-1.43-2.44 0-3.92 1.38-3.92 3.35 0 1.96 1.52 3.3 3.92 3.3 1.72 0 2.92-.53 4.26-1.76l1.69 1.64c-1.54 1.62-3.48 2.44-5.94 2.44-4.07 0-6.49-2.2-6.49-5.62m14.94.02c0-3.31 2.52-5.64 6.14-5.64 3.63 0 6.15 2.3 6.15 5.64s-2.52 5.6-6.15 5.6c-3.61 0-6.14-2.26-6.14-5.6m9.73 0c0-2.01-1.46-3.36-3.59-3.36s-3.59 1.36-3.59 3.36c0 2.02 1.43 3.29 3.59 3.29 2.16-.01 3.59-1.29 3.59-3.29m17.84 1.99c0 2.2-1.65 3.41-4.63 3.41h-7.2V15.91h7.53c2.43 0 3.76 1.06 3.76 2.96 0 .84-.27 1.54-.87 2.07.91.54 1.41 1.29 1.41 2.41m-9.37-5.21v1.92h4.84c1 0 1.46-.3 1.46-.96 0-.64-.48-.97-1.46-.97l-4.84.01zm6.83 5.21c0-.67-.51-1.04-1.6-1.04h-5.24v2.2h5.22c1.17 0 1.62-.45 1.62-1.16m4.87 1.5l1.41-1.88c1.59 1.13 3.13 1.73 5.14 1.73 1.91 0 3.01-.4 3.01-1.19 0-.83-1.27-.97-3.05-1.12l-.49-.04c-2.35-.19-5.05-.7-5.05-3.3 0-1.61 1.23-3.34 5.32-3.34 1.89 0 3.94.55 5.32 1.61l-1.31 1.92a7.298 7.298 0 00-4.21-1.32c-1.69 0-2.55.41-2.55 1.05 0 .72 1.32.88 2.93 1.02l.49.04c2.55.22 5.18.68 5.18 3.34 0 2.18-1.93 3.59-5.66 3.59-2.68 0-4.9-.81-6.48-2.11"/></symbol><symbol id="mykita" viewBox="0 0 516 128" xml:space="preserve" xmlns="http://www.w3.org/2000/svg"><style>.azst0{fill:#293240}</style><path class="azst0" d="M30 109.31V19h11.79l35.25 78.52L110.4 19h12.29v90.31h-7.65V27.03l-35.12 82.28h-5.89L37.78 28.78v80.52H30v.01zm142.16 0V70.55L139.17 19h9.91l27.47 43.52L203.64 19h8.65l-31.98 50.92v39.38l-8.15.01c0-.01 0 0 0 0zm57.92 0V19h8.03v40.01L282.9 19h10.38l-46.29 41.26 50.06 49.04h-10.64l-48.3-47.41v47.41l-8.03.01zm88.1 0V19h8.15v90.31h-8.15zm55.08 0V26.27h-28.85V19h65.97v7.27h-28.72v83.03l-8.4.01c0-.01 0 0 0 0zm31.93 0L440.31 19h9.91l35.49 90.31h-8.91l-9.53-24.71h-44.15l-9.53 24.71h-8.4zm20.32-31.49h39.26l-19.69-51.55-19.57 51.55z"/><path class="azst0" d="M30 109.31h7.78V28.78l36.24 80.53h5.9l35.12-82.28v82.28h7.65V19H110.4L77.04 97.52 41.79 19H30v90.31zm142.16 0h8.15V69.92L212.29 19h-8.65l-27.09 43.52L149.08 19h-9.91l32.99 51.55v38.76zm57.92 0h8.03V61.9l48.3 47.41h10.63l-50.05-49.05L293.28 19H282.9l-44.79 40.01V19h-8.03v90.31zm88.1 0h8.15V19h-8.15v90.31zm55.08 0h8.4V26.27h28.72V19h-65.97v7.27h28.85v83.04z"/><path d="M405.19 109.31h8.4l9.53-24.71h44.15l9.53 24.71h8.91L450.22 19h-9.91l-35.12 90.31zm20.32-31.49l19.57-51.55 19.69 51.55h-39.26z" fill-rule="evenodd" clip-rule="evenodd"/></symbol><symbol viewBox="0 0 1138 273.89" id="paul-smith" xmlns="http://www.w3.org/2000/svg"><path d="M55.99 170.14s10.61-7.71 28.95-24.12c18.33-16.4 33.76-39.55 33.76-67.05 0-27.49-13.99-42.45-27.01-42.45-17.37 0-42.93 18.81-54.51 60.78-11.57 41.96-4.82 90.69-.48 111.91s12.06 28.46 17.37 29.92c5.31 1.45 10.61-1.46 10.61-7.25s-4.82-16.39-6.27-28.94c-1.46-12.53-2.42-32.8-2.42-32.8zm172.21-16.88s-6.27 15.44-9.17 23.64c-2.89 8.2-9.65 24.61-11.09 27.5-1.45 2.89-3.86 5.79-6.27 5.79s-6.27-2.89-9.17-8.2-12.06-30.87-13.51-35.69c-1.45-4.83-7.72-22.19-16.4-27.02-8.68-4.82-19.78-5.78-28.94-1.45-9.17 4.34-28.94 26.05-28.94 58.37s20.26 38.11 34.73 38.11 36.66-24.6 36.66-24.6 10.61 20.73 27.01 20.73 26.53-24.6 28.95-29.9c2.41-5.31 3.86-4.82 5.79-1.93 1.93 2.89 11.09 22.18 25.08 22.18 13.99 0 22.67-15.91 26.53-21.22 3.86-5.3 5.31-9.64 9.65-9.64s8.2 3.37 11.1 8.68c2.9 5.3 11.09 26.53 38.59 26.53 22.19 0 32.32-21.24 32.32-21.24s12.54 15.44 37.14 15.44 29.43-11.57 30.39-14.47c.97-2.89-1.93-8.2-6.27-8.2s-6.27 1.94-8.68 4.34c-2.41 2.42-7.72 4.83-15.44 4.83s-16.88-2.89-23.15-10.13c-6.27-7.25-8.2-12.54-8.2-12.54s10.13-30.87 10.13-61.27c0-30.39-10.13-54.03-28.46-54.03-13.51 0-30.39 10.61-30.39 46.79s17.85 55.96 20.26 59.33c2.41 3.38 10.61 13.51 10.61 13.51s-4.82 23.15-20.26 23.15-32.32-27.49-37.63-36.17c-5.31-8.69-10.13-19.79-15.92-19.79s-8.68 9.17-9.17 10.62c-.48 1.45-13.02 25.56-15.44 28.95-2.41 3.37-5.31 8.19-8.68 8.19-3.38 0-8.68-4.34-12.06-12.53-3.38-8.2-6.76-20.75-7.72-25.58-.97-4.82-1.93-14.47-6.76-14.47-4.81.01-7.22 3.39-7.22 3.39zm366.62-57.89s2.41-.48 1.93-4.82-12.02-16.14-28.95-18.81c-18.33-2.89-22.91 8.97-19.78 15.92 4.34 9.65 25.57 34.25 30.39 39.56s26.75 31.65 32.32 44.37c6.76 15.44 9.65 30.39-1.93 44.86-11.58 14.48-42.94 1.45-52.58-4.34-9.65-5.79-23.64-19.78-23.64-19.78s-4.82-5.31-1.45-10.13c3.38-4.82 10.13.97 10.13.97s12.54 10.13 19.78 14.95c7.24 4.83 14.96 8.2 23.16 7.72 8.2-.49 16.88-6.28 15.43-16.4-1.45-10.13-9.64-25.56-20.74-38.59-11.09-13.03-33.77-33.77-42.93-51.14-9.17-17.37-5.31-19.3-5.31-21.22 0-1.93 6.75-22.67 33.77-21.71 27.01.96 49.2 17.85 50.17 30.87.96 13.02-10.61 14.95-13.51 14.95s-7.24-1.45-7.24-1.45c-.95-2.4.98-5.78.98-5.78zm55.47 74.29l-8.2-11.57s-3.38-6.76-7.23-4.34c-3.86 2.4-4.34 5.3-2.89 11.1 1.45 5.79 11.09 50.65 11.09 50.65s3.38 4.34 6.27 4.34c2.9 0 5.79-5.31 8.2-11.59 2.42-6.27 9.17-27.01 15.44-27.01s13.02 13.51 15.44 16.88c2.41 3.38 10.13 16.4 10.13 16.4s3.38 5.31 7.24 5.31 7.72-3.86 10.13-7.23c2.41-3.38 9.16-14.48 11.58-21.24 2.41-6.74 7.71-18.33 13.02-18.33s17.85 20.27 21.22 25.58c3.13 4.91 13.99 23.63 21.23 23.63 8.68 0 10.13-8.19 13.02-14.47 2.89-6.27 7.72-24.12 15.92-24.12s13.99 10.62 17.85 14.47c3.86 3.86 12.54 23.64 26.05 23.64s25.57-16.88 29.43-20.75c3.86-3.85 7.23-6.74 7.23-6.74s13.03 32.8 34.74 32.8 15.44-18.82 29.43-18.82 9.17 10.14 19.29 10.14c3.86 0 13.99-16.88 17.85-21.71 3.86-4.82 18.33-21.7 25.08-21.7 6.76 0 16.4 11.1 18.34 13.02 1.93 1.94 21.71 24.12 25.08 27.01 3.38 2.89 17.37 12.06 27.98 11.59 10.61-.49 19.78-4.35 25.09-6.76 5.3-2.42 7.72-7.23 6.27-11.1-1.45-3.86-5.31-3.86-7.72-2.42-2.41 1.45-12.54 5.31-22.19 5.31-9.65 0-17.36-5.79-22.19-11.1-4.82-5.31-37.14-38.59-37.14-38.59s-4.35-6.76-11.1-6.76c-6.76 0-15.44 8.2-19.78 12.05-4.34 3.86-20.75 20.27-27.02 20.27s-10.61-5.31-10.61-16.4c0-11.1.48-52.58-.48-57.88-.96-5.31-4.34-22.67-13.98-22.19-9.65.48-6.27 22.19-6.27 22.19s0 64.16-1.45 71.87c-1.45 7.72-6.75 17.36-12.54 17.36s-11.1-5.79-16.88-18.33c-5.79-12.54-9.65-37.14-10.13-45.82-.48-8.69 0-11.1 0-11.1s12.06-5.79 17.85-7.24 11.1-2.41 12.06-4.82c.96-2.41 1.93-7.23.48-10.61s-5.31-4.34-7.72-3.86c-2.42.48-19.3 3.37-19.3 3.37l-13.03-19.3s-2.41-5.79-6.75-5.79-7.72 2.41-6.76 10.61c.97 8.2 7.24 54.51 5.31 69.95s-15.44 41.97-28.94 41.97c-13.51 0-34.25-43.42-36.18-47.28s-4.34-11.1-9.65-11.1c-5.3 0-11.57 18.33-13.99 24.12-2.41 5.79-9.64 25.09-14.95 25.09-11.57 0-31.84-40.03-31.84-40.03s-4.34-11.59-11.58-11.59c-7.23 0-10.13 11.1-12.06 14.96-1.92 3.86-12.06 32.32-19.29 32.32-7.24 0-13.03-10.61-17.85-18.33-4.83-7.71-12.06-26.53-16.88-26.53s-7.23 9.17-10.13 14.96c-2.92 5.8-5.81 11.59-10.64 11.59 0 0 4.83 0 0 0zm160.39-92.62s-1.93-7.72-6.03-10.13c-4.1-2.41-7.24-2.89-10.37-2.17-3.14.72-6.03 5.55-5.79 8.44.24 2.9 1.21 7 2.42 9.65 1.21 2.65 4.82 6.03 8.44 7.24 3.62 1.2 7.96.96 9.65-1.69 1.68-2.65 2.65-7.24 1.68-11.34 0 0 .97 4.1 0 0z" fill-rule="evenodd" clip-rule="evenodd"/><path d="M53.57 153.26s7.24-3.85 18.33-14.47c11.1-10.61 26.05-25.56 31.35-47.27 5.31-21.71 1.45-41.97-11.58-41.97-13.02 0-31.84 14.96-37.14 41.97s-.96 61.74-.96 61.74zm322.24 13.99s6.27-22.67 6.27-44.86-3.37-45.34-13.51-45.34c-10.13 0-17.36 20.26-17.36 30.39s4.34 26.05 11.09 38.59c6.76 12.54 13.51 21.22 13.51 21.22zm-226.72-21.71s16.4 1.93 16.4 36.18-20.74 36.66-24.6 36.66-17.37-1.45-17.37-26.05c0-24.59 9.65-46.79 25.57-46.79 0 0-15.92 0 0 0z" fill-rule="evenodd" clip-rule="evenodd"/></symbol><symbol id="pierre-cardin" viewBox="0 0 119.21 27.09" xml:space="preserve" xmlns="http://www.w3.org/2000/svg"><style>.bbst0{fill:#293240}</style><path class="bbst0" d="M1 4.68h2.67v1.3h.04C4.38 4.9 5.49 4.4 6.75 4.4c3.21 0 4.65 2.6 4.65 5.5 0 2.73-1.5 5.28-4.49 5.28-1.23 0-2.39-.53-3.06-1.54h-.04v4.86H1V4.68zm7.59 5.14c0-1.62-.65-3.3-2.45-3.3-1.84 0-2.43 1.64-2.43 3.3s.63 3.24 2.45 3.24c1.84 0 2.43-1.57 2.43-3.24zm7.37-6.72h-2.81V.79h2.81V3.1zm-2.8 1.58h2.81V14.9h-2.81V4.68zm7.33 5.8c.08 1.78.95 2.59 2.51 2.59 1.13 0 2.04-.69 2.21-1.32h2.47c-.79 2.41-2.47 3.44-4.78 3.44-3.22 0-5.22-2.22-5.22-5.38 0-3.07 2.12-5.4 5.22-5.4 3.48 0 5.16 2.93 4.96 6.07h-7.37zm4.57-1.78c-.25-1.43-.87-2.18-2.23-2.18-1.78 0-2.29 1.38-2.33 2.18h4.56zm4.47-4.02h2.67v1.89h.04c.52-1.28 1.9-2.18 3.26-2.18.2 0 .43.04.61.1V7.1c-.26-.06-.67-.1-1.01-.1-2.06 0-2.77 1.48-2.77 3.28v4.61h-2.81l.01-10.21zm7.69 0h2.67v1.89h.04c.51-1.28 1.9-2.18 3.27-2.18.19 0 .43.04.61.1V7.1c-.26-.06-.67-.1-1.01-.1-2.05 0-2.77 1.48-2.77 3.28v4.61h-2.81V4.68zm9.65 5.8c.08 1.78.95 2.59 2.51 2.59 1.13 0 2.04-.69 2.21-1.32h2.47c-.79 2.41-2.47 3.44-4.79 3.44-3.22 0-5.22-2.22-5.22-5.38 0-3.07 2.12-5.4 5.22-5.4 3.48 0 5.16 2.93 4.96 6.07h-7.36zm4.57-1.78c-.25-1.43-.87-2.18-2.23-2.18-1.78 0-2.29 1.38-2.33 2.18h4.56zm16.92-.42c-.18-1.15-.91-1.76-2.07-1.76-1.8 0-2.39 1.82-2.39 3.32 0 1.46.57 3.22 2.33 3.22 1.31 0 2.06-.83 2.24-2.07h2.71c-.36 2.71-2.23 4.19-4.92 4.19-3.08 0-5.16-2.18-5.16-5.24 0-3.18 1.9-5.54 5.22-5.54 2.42 0 4.63 1.27 4.81 3.88h-2.77zm4.27-.45c.16-2.63 2.51-3.42 4.81-3.42 2.03 0 4.48.46 4.48 2.91v5.32c0 .93.1 1.86.36 2.27h-2.85c-.1-.32-.18-.65-.2-.99-.89.93-2.2 1.26-3.44 1.26-1.94 0-3.48-.97-3.48-3.06 0-2.31 1.74-2.87 3.48-3.1 1.72-.26 3.32-.2 3.32-1.35 0-1.21-.83-1.38-1.82-1.38-1.07 0-1.76.44-1.86 1.54h-2.8zm6.49 2.07c-.47.42-1.46.44-2.33.6-.87.18-1.66.47-1.66 1.5 0 1.05.81 1.3 1.72 1.3 2.2 0 2.27-1.74 2.27-2.35V9.9zm4.98-5.22h2.67v1.89h.04c.51-1.28 1.9-2.18 3.26-2.18.2 0 .43.04.61.1V7.1c-.26-.06-.67-.1-1.01-.1-2.06 0-2.77 1.48-2.77 3.28v4.61h-2.8V4.68zm14.63 8.92h-.04c-.65 1.11-1.8 1.58-3.1 1.58-3.08 0-4.59-2.65-4.59-5.48 0-2.75 1.52-5.3 4.53-5.3 1.21 0 2.39.52 3.04 1.52h-.02.04V.79h2.81V14.9h-2.67v-1.3zm-2.45-7.08c-1.84 0-2.47 1.58-2.47 3.26 0 1.6.73 3.28 2.47 3.28 1.85 0 2.41-1.62 2.41-3.3 0-1.66-.59-3.24-2.41-3.24zm10.13-3.42h-2.81V.79h2.81V3.1zm-2.82 1.58h2.81V14.9h-2.81V4.68zm5.03 0h2.67V6.1h.06c.71-1.15 1.94-1.7 3.12-1.7 2.99 0 3.74 1.68 3.74 4.21v6.29h-2.81V9.13c0-1.68-.49-2.51-1.8-2.51-1.52 0-2.17.85-2.17 2.92v5.36h-2.81V4.68zm-59.5 16.25h2.37c1.31 0 1.81.83 1.81 1.68s-.51 1.69-1.81 1.69h-1.21v1.88h-1.16v-5.25zm1.15 2.47h.9c.54 0 1.02-.12 1.02-.79s-.48-.79-1.02-.79h-.9v1.58zm4.65-2.47h1.18l1.96 5.25h-1.2l-.4-1.17H54.5l-.41 1.17h-1.17l2-5.25zm-.12 3.22h1.36l-.66-1.93h-.02l-.68 1.93zm3.72-3.22h2.83c.94 0 1.54.65 1.54 1.45 0 .62-.25 1.08-.83 1.32v.01c.57.15.73.7.76 1.23.02.33.02.95.22 1.24h-1.15c-.14-.33-.13-.84-.18-1.26-.08-.55-.29-.79-.88-.79h-1.15v2.05h-1.16v-5.25zm1.15 2.37h1.26c.51 0 .79-.22.79-.75 0-.51-.28-.73-.79-.73h-1.26v1.48zm4.16-2.37h1.15v5.25h-1.15zm2.96 3.5c0 .7.55.97 1.16.97.4 0 1.02-.12 1.02-.66 0-.57-.78-.66-1.56-.87-.78-.21-1.57-.51-1.57-1.49 0-1.08 1.02-1.59 1.97-1.59 1.1 0 2.1.48 2.1 1.69h-1.12c-.04-.63-.48-.8-1.04-.8-.37 0-.79.15-.79.6 0 .41.25.46 1.57.79.38.1 1.56.34 1.56 1.53 0 .96-.75 1.68-2.18 1.68-1.16 0-2.25-.57-2.24-1.87h1.12v.02z"/></symbol><symbol id="polaroid" viewBox="0 0 595.28 160" xml:space="preserve" xmlns="http://www.w3.org/2000/svg"><style>.bcst0{fill:#293240}</style><path class="bcst0" d="M63.8 44.28l14.77-14.76 14.76 14.77-14.77 14.76L63.8 44.28zm17.13 17.13L95.7 46.65l14.76 14.77-14.77 14.76-14.76-14.77zm17.12 17.13l14.77-14.76 14.76 14.76-14.76 14.77-14.77-14.77zM46.67 61.42l14.77-14.76L76.2 61.42 61.43 76.18 46.67 61.42zm17.12 17.11l14.77-14.76 14.76 14.77L78.55 93.3 63.79 78.53zm17.13 17.14l14.77-14.76 14.76 14.76-14.76 14.77-14.77-14.77zM29.53 78.54l14.76-14.77 14.77 14.76L44.3 93.3 29.53 78.54zm17.13 17.13l14.77-14.76L76.2 95.67l-14.77 14.77-14.77-14.77zm17.13 17.12l14.77-14.76 14.76 14.77-14.77 14.76-14.76-14.77zm213.82-76.01h15.91v83.49h-15.91V36.78zm-97.72 41.86c-2.75 1.68-6.22 2.63-11.13 2.63h-14.47V50.78h14.6c4.17 0 7.77.83 10.28 2.27 4.42 2.38 7.06 6.82 7.06 12.68-.01 5.73-2.27 10.28-6.34 12.91m8.61-38.02c-4.91-2.41-10.53-3.84-19.15-3.84h-31.34v83.49h16.27V95.26h15.06c7.42 0 13.52-1.31 19.03-4.18 8.37-4.43 14.7-12.54 14.7-25.48.02-11.23-5-20.21-14.57-24.98m137.32 67.21c-6.35 0-10.42-2.5-10.42-7.77 0-7.9 6.94-9.45 13.03-9.45h14.12c-.23 9.92-5.74 17.22-16.73 17.22m2.74-52.39c-8.5 0-14.84 1.56-23.34 4.92v15.78c8.14-4.67 14.71-7.66 22.73-7.66 10.17 0 14.36 4.79 14.48 10.88h-16.87c-13.74 0-26.19 6.47-26.19 21.31 0 10.88 7.66 20.7 23.32 20.7 8.62 0 14.47-3.84 19.63-9.09v8.01h15.67V81.51c-.01-16.61-11.14-26.07-29.43-26.07m75.58.24c-9.8 0-15.06 2.37-21.05 8.96v-8.11h-15.78v63.74h15.78V88.21c0-11.96 5.27-17.46 21.05-17.46V55.68zm33.31 52.04c-10.52 0-17.35-8.62-17.35-19.28 0-10.64 6.83-19.25 17.35-19.25 10.53 0 17.23 8.6 17.23 19.25s-6.94 19.28-17.23 19.28m0-52.28c-19.62 0-33.6 14.85-33.6 33 0 18.91 14.47 32.91 33.6 32.91 19.14 0 33.49-14.24 33.49-32.91 0-18.53-14.11-33-33.49-33m39.59-18.66h16.15v13.04h-16.15V36.78zm.12 19.75h15.92v63.74h-15.92V56.53zm55.73 51.19c-9.81 0-17.34-7.91-17.34-19.28 0-10.64 6.94-19.36 17.34-19.36 10.52 0 17.58 8.72 17.58 19.36-.01 10.65-6.82 19.28-17.58 19.28m16.97-70.94v27.75c-4.9-5.26-10.41-9.09-19.38-9.09-19.13 0-31.2 15.31-31.2 33 0 17.6 11.95 32.91 31.2 32.91 8.6 0 14.47-3.84 19.63-9.09v8.01h15.67V36.78h-15.92zm-311.97 70.94c-10.41 0-17.34-8.5-17.34-19.28 0-10.64 6.82-19.25 17.34-19.25 10.53 0 17.23 8.6 17.23 19.25s-6.94 19.28-17.23 19.28m0-52.28c-19.61 0-33.61 14.85-33.61 33 0 18.91 14.48 32.91 33.61 32.91 19.15 0 33.48-14.24 33.48-32.91 0-18.42-13.99-33-33.48-33"/></symbol><symbol id="tfn-logo-footer" viewBox="0 0 613.96 299.89" xml:space="preserve" xmlns="http://www.w3.org/2000/svg"><style>.bdst1{fill:#fff}</style><path d="M608.41 204.77H73.86L5.54 284.7H540.1z"/><path class="bdst1" d="M63.68 15.19v35.29h63.7v117.77h40.55V50.48h45.12l35.3-35.29zm446.04 0v112.2l-96.04-112.2-47.36 47.4v105.66h42.01V73.62l86.13 94.63h55.81V15.19z"/><path class="bdst1" d="M279.69 50.43h82.03l35.24-35.24H264.79l-35.6 35.59v117.47h40.35v-56.62h40.17l33.31-33.31h-73.48V60.66zM223.63 259.26c-2.4-1.3-4.29-3.1-5.66-5.4-1.37-2.3-2.05-4.88-2.05-7.73 0-2.85.68-5.42 2.05-7.73 1.37-2.3 3.25-4.1 5.66-5.4 2.4-1.3 5.09-1.95 8.08-1.95s5.68.65 8.08 1.95c2.4 1.3 4.29 3.09 5.66 5.38s2.05 4.87 2.05 7.75-.68 5.46-2.05 7.75c-1.37 2.29-3.25 4.08-5.66 5.38-2.4 1.3-5.09 1.95-8.08 1.95-2.98 0-5.68-.65-8.08-1.95zm13.36-4.15c1.56-.88 2.79-2.11 3.68-3.68s1.34-3.34 1.34-5.3c0-1.95-.45-3.72-1.34-5.3a9.527 9.527 0 00-3.68-3.69c-1.57-.88-3.32-1.32-5.28-1.32-1.95 0-3.71.44-5.28 1.32s-2.79 2.11-3.68 3.69c-.89 1.58-1.34 3.34-1.34 5.3 0 1.95.45 3.72 1.34 5.3.89 1.58 2.12 2.8 3.68 3.68 1.56.88 3.32 1.32 5.28 1.32 1.96 0 3.71-.43 5.28-1.32zm38.94-22.38c1.88.84 3.33 2.04 4.33 3.6s1.51 3.42 1.51 5.57c0 2.12-.5 3.97-1.51 5.55-1 1.58-2.45 2.78-4.33 3.62-1.89.84-4.1 1.26-6.64 1.26h-6.62v8.46h-5.44v-29.31h12.06c2.54 0 4.75.41 6.64 1.25zm-1.49 13.49c1.23-1 1.84-2.44 1.84-4.31 0-1.87-.61-3.31-1.84-4.31-1.23-1-3.03-1.51-5.4-1.51h-6.37v11.64h6.37c2.37-.01 4.17-.51 5.4-1.51zm23.38-10.14h-9.72v-4.61h24.88v4.61h-9.72v24.71h-5.45v-24.71zm23.22-4.6h5.44v29.31h-5.44v-29.31zm22.87 27.78c-2.39-1.3-4.26-3.09-5.61-5.38-1.36-2.29-2.03-4.87-2.03-7.75 0-2.87.68-5.46 2.05-7.75 1.37-2.29 3.25-4.08 5.63-5.38 2.39-1.3 5.06-1.95 8.02-1.95 2.4 0 4.59.42 6.58 1.26 1.98.84 3.65 2.05 5.02 3.64l-3.52 3.31c-2.12-2.29-4.73-3.43-7.83-3.43-2.01 0-3.81.44-5.4 1.32-1.59.88-2.83 2.1-3.72 3.67-.89 1.56-1.34 3.34-1.34 5.32 0 1.98.45 3.76 1.34 5.32.89 1.56 2.14 2.78 3.72 3.66 1.59.88 3.39 1.32 5.4 1.32 3.1 0 5.71-1.16 7.83-3.48l3.52 3.35a13.3 13.3 0 01-5.05 3.64c-2 .84-4.19 1.26-6.6 1.26-2.95 0-5.62-.65-8.01-1.95zm31.9.99c-2.11-.64-3.78-1.5-5-2.56l1.88-4.23c1.2.95 2.67 1.72 4.42 2.33 1.75.6 3.5.9 5.26.9 2.18 0 3.81-.35 4.88-1.05 1.07-.7 1.61-1.62 1.61-2.77 0-.84-.3-1.53-.9-2.07-.6-.55-1.36-.97-2.28-1.28-.92-.31-2.18-.66-3.77-1.05-2.23-.53-4.04-1.06-5.42-1.59a8.93 8.93 0 01-3.56-2.49c-.99-1.13-1.49-2.66-1.49-4.58 0-1.62.44-3.09 1.32-4.42.88-1.33 2.21-2.38 3.98-3.16 1.77-.78 3.94-1.17 6.51-1.17a21 21 0 015.28.67c1.73.45 3.23 1.09 4.48 1.93l-1.72 4.23c-1.29-.75-2.62-1.33-4.02-1.72-1.4-.39-2.75-.58-4.06-.58-2.15 0-3.75.36-4.79 1.09-1.05.73-1.57 1.69-1.57 2.89 0 .84.3 1.52.9 2.05.6.53 1.36.95 2.28 1.26.92.31 2.18.66 3.77 1.05 2.18.5 3.96 1.03 5.36 1.57 1.4.55 2.59 1.38 3.58 2.49.99 1.12 1.49 2.63 1.49 4.52 0 1.62-.44 3.09-1.32 4.4-.88 1.31-2.21 2.36-4 3.14-1.79.78-3.96 1.17-6.53 1.17-2.27-.01-4.46-.33-6.57-.97z"/></symbol><symbol id="tfn-logo-header" viewBox="0 0 612 290" xml:space="preserve" xmlns="http://www.w3.org/2000/svg"><style>.best1{fill:#293240}.best2{fill:#fff}</style><path d="M606.75 200.2H72.2L3.88 280.13h534.56z"/><path class="best1" d="M62.02 10.62v35.29h63.7v117.77h40.55V45.91h45.12l35.29-35.29zm446.04 0v112.2l-96.04-112.2-47.36 47.4v105.66h42.01V69.05l86.13 94.63h55.81V10.62z"/><path class="best1" d="M278.03 45.86h82.03l35.24-35.24H263.13l-35.6 35.59v117.47h40.35v-56.61h40.17l33.31-33.32h-73.48V56.09z"/><path class="best2" d="M221.97 254.69c-2.4-1.3-4.29-3.1-5.66-5.4-1.37-2.3-2.05-4.88-2.05-7.73 0-2.85.68-5.42 2.05-7.73 1.37-2.3 3.25-4.1 5.66-5.4 2.4-1.3 5.09-1.95 8.08-1.95s5.68.65 8.08 1.95c2.4 1.3 4.29 3.09 5.66 5.38s2.05 4.87 2.05 7.75-.68 5.46-2.05 7.75c-1.37 2.29-3.25 4.08-5.66 5.38-2.4 1.3-5.09 1.95-8.08 1.95s-5.68-.65-8.08-1.95zm13.36-4.14a9.568 9.568 0 003.68-3.68c.89-1.58 1.34-3.34 1.34-5.3 0-1.95-.45-3.72-1.34-5.3a9.527 9.527 0 00-3.68-3.69c-1.57-.88-3.32-1.32-5.28-1.32-1.95 0-3.71.44-5.28 1.32a9.527 9.527 0 00-3.68 3.69c-.89 1.58-1.34 3.35-1.34 5.3 0 1.95.45 3.72 1.34 5.3.89 1.58 2.12 2.8 3.68 3.68 1.56.88 3.32 1.32 5.28 1.32 1.95 0 3.71-.44 5.28-1.32zm38.94-22.39c1.88.84 3.33 2.04 4.33 3.6s1.51 3.42 1.51 5.57c0 2.12-.5 3.97-1.51 5.55-1.01 1.58-2.45 2.78-4.33 3.62-1.89.84-4.1 1.26-6.64 1.26h-6.62v8.46h-5.44v-29.31h12.06c2.54 0 4.75.42 6.64 1.25zm-1.49 13.49c1.23-1 1.84-2.44 1.84-4.31 0-1.87-.61-3.31-1.84-4.31-1.23-1-3.03-1.51-5.4-1.51h-6.37v11.64h6.37c2.37 0 4.17-.51 5.4-1.51zm23.38-10.14h-9.72v-4.61h24.88v4.61h-9.72v24.71h-5.45v-24.71zm23.22-4.6h5.44v29.31h-5.44v-29.31zm22.87 27.78c-2.39-1.3-4.26-3.09-5.61-5.38-1.36-2.29-2.03-4.87-2.03-7.75 0-2.87.68-5.46 2.05-7.75 1.37-2.29 3.25-4.08 5.63-5.38 2.39-1.3 5.06-1.95 8.02-1.95 2.4 0 4.59.42 6.58 1.26 1.98.84 3.65 2.05 5.03 3.64l-3.52 3.31c-2.12-2.29-4.73-3.43-7.83-3.43-2.01 0-3.81.44-5.4 1.32-1.59.88-2.83 2.1-3.73 3.67-.89 1.56-1.34 3.34-1.34 5.32 0 1.98.45 3.76 1.34 5.32.89 1.56 2.14 2.78 3.73 3.66 1.59.88 3.39 1.32 5.4 1.32 3.1 0 5.71-1.16 7.83-3.48l3.52 3.35a13.3 13.3 0 01-5.05 3.64c-2 .84-4.2 1.26-6.6 1.26-2.96 0-5.63-.65-8.02-1.95zm31.9.99c-2.11-.64-3.78-1.5-5-2.56l1.88-4.23c1.2.95 2.67 1.72 4.42 2.33 1.75.6 3.5.9 5.25.9 2.18 0 3.81-.35 4.88-1.05 1.07-.7 1.61-1.62 1.61-2.77 0-.84-.3-1.53-.9-2.07-.6-.55-1.36-.97-2.28-1.28-.92-.31-2.18-.66-3.77-1.05-2.23-.53-4.04-1.06-5.42-1.59a8.93 8.93 0 01-3.56-2.49c-.99-1.13-1.49-2.66-1.49-4.58 0-1.62.44-3.09 1.32-4.42.88-1.33 2.21-2.38 3.98-3.16 1.77-.78 3.94-1.17 6.51-1.17 1.78 0 3.54.23 5.28.67 1.73.45 3.23 1.09 4.48 1.93l-1.72 4.23c-1.29-.75-2.62-1.33-4.02-1.72-1.4-.39-2.75-.58-4.06-.58-2.15 0-3.75.36-4.79 1.09-1.05.73-1.57 1.69-1.57 2.89 0 .84.3 1.52.9 2.05.6.53 1.36.95 2.28 1.26.92.31 2.18.66 3.77 1.05 2.18.5 3.96 1.03 5.36 1.57 1.4.55 2.59 1.38 3.58 2.49.99 1.12 1.49 2.63 1.49 4.52 0 1.62-.44 3.09-1.32 4.4-.88 1.31-2.21 2.36-4 3.14-1.79.78-3.96 1.17-6.54 1.17-2.25-.01-4.44-.33-6.55-.97z"/></symbol><symbol id="tommy-hilfiger" viewBox="0 0 212.6 25.51" xml:space="preserve" xmlns="http://www.w3.org/2000/svg"><style>.bfst0{fill-rule:evenodd;clip-rule:evenodd;fill:#293240}</style><path class="bfst0" d="M101.16 10.04h8.3v5.41h-8.3v-5.41z"/><path class="bfst0" d="M92.87 7.36h16.59v2.69H92.87V7.36zm0 8.08h16.59v2.7H92.87v-2.7z"/><path d="M15.73 8.75H12v9.4h-1.55v-9.4H6.71V7.36h9.02v1.39zM27.2 7.22c3.56 0 5.81 2.53 5.81 5.54 0 2.91-2.18 5.54-5.84 5.54-3.53 0-5.76-2.61-5.76-5.54 0-2.99 2.29-5.54 5.79-5.54zm0 9.65c2.42 0 4.21-1.76 4.21-4.11 0-2.37-1.79-4.11-4.21-4.11-2.4 0-4.19 1.74-4.19 4.11-.01 2.35 1.78 4.11 4.19 4.11zm23.14 1.28h-1.55v-8.4h-.03l-3.32 4.18h-.25l-3.32-4.18h-.03v8.4h-1.55V7.36h1.46l3.58 4.43 3.59-4.43h1.44v10.79h-.02zm18.83 0h-1.55v-8.4h-.03l-3.32 4.18h-.25L60.7 9.75h-.03v8.4H59.1V7.36h1.46l3.58 4.43 3.59-4.43h1.44v10.79zM83.58 7.36h1.87l-4 5.09v5.69H79.9v-5.71l-4-5.08h1.87l2.89 3.72 2.92-3.71zm43.8 10.79h-1.55v-4.7h-6.04v4.7h-1.55V7.36h1.55v4.7h6.04v-4.7h1.55v10.79zm7.98 0h-1.55V7.36h1.55v10.79zm7.91-1.39h4.87v1.39h-6.42V7.36h1.55v9.4zm15.08-8.01h-4.21v2.99h4.21v1.39h-4.21v5.01h-1.55V7.36h5.76v1.39zm6.98 9.4h-1.55V7.36h1.55v10.79zm14.76-.74c-1.44.63-2.61.89-4.11.89-3.31 0-5.74-2.31-5.74-5.47 0-3.18 2.5-5.6 5.79-5.6 1.27 0 2.15.21 3.84.92V9.7c-1.27-.7-2.58-1.06-3.88-1.06-2.34 0-4.16 1.79-4.16 4.13 0 2.4 1.8 4.1 4.37 4.1.84 0 1.6-.19 2.34-.43v-2.21h-2.07v-1.39h3.62v4.57zm12.02-8.66h-4.57v3.26h4.41v1.39h-4.41v3.35h4.71v1.39h-6.27V7.36h6.12v1.39h.01zm8.16-1.39c2.18 0 3.54 1.16 3.54 3.02 0 1.25-.65 2.18-1.8 2.64.98.65 1.58 1.64 2.4 2.99.46.74.73 1.11 1.47 2.13h-1.85l-1.42-2.21c-1.42-2.21-2.07-2.47-2.86-2.47h-.65v4.68h-1.55V7.36h2.72zm-1.17 4.72h1c1.66 0 2.14-.85 2.12-1.76-.02-1.01-.62-1.63-2.12-1.63h-1v3.39z"/></symbol><symbol viewBox="0 0 595.28 39.89" id="victoriabeckham" xmlns="http://www.w3.org/2000/svg"><path d="M62.18 12.16h1.77l-7.33 16.08h-.59L48.7 12.16h1.79l5.83 12.92 5.86-12.92zm22.36 15.93h1.64V12.16h-1.64v15.93zm22.97-7.99c0-4.76 3.75-8.09 8.26-8.09 2.77 0 5.1 1.23 6.55 3.16l-1.25 1c-1.08-1.57-2.92-2.6-5.29-2.6-3.9 0-6.45 2.77-6.45 6.55s2.55 6.55 6.45 6.55c2.35 0 4.17-1.01 5.27-2.55l1.23 1.03c-1.45 1.89-3.75 3.09-6.5 3.09-4.56 0-8.27-3.38-8.27-8.14zm41.19 7.99h-1.64V13.66h-5.59v-1.5h12.82v1.5h-5.59v14.43zm39.47-7.96c0-3.78-2.55-6.55-6.45-6.55s-6.45 2.77-6.45 6.55 2.55 6.55 6.45 6.55c3.9-.01 6.45-2.78 6.45-6.55zm-14.71 0c0-4.68 3.65-8.12 8.26-8.12s8.26 3.43 8.26 8.12c0 4.73-3.73 8.11-8.26 8.11s-8.26-3.38-8.26-8.11zm42.76-6.48h-3.26v5.76h3.31c2.53 0 3.46-1.45 3.46-2.94-.01-1.59-1.04-2.82-3.51-2.82zm1.57 7.11l5.15 7.33h-1.96l-5.05-7.18h-2.97v7.18h-1.64V12.16h5.35c2.42 0 4.78 1.3 4.78 4.31-.01 1.84-1.14 3.75-3.66 4.29zm26.82 7.33h1.64V12.16h-1.64v15.93zm25.74 0h-1.79l7.36-16.08h.58l7.33 16.08h-1.79l-5.83-12.92-5.86 12.92zm37.44-1.49h3.31c2.21 0 3.46-1.52 3.46-3.07 0-1.64-1.11-2.94-3.51-2.94h-3.26v6.01zm3.06-12.94h-3.06v5.44h2.87c1.69 0 3.28-.91 3.28-2.77 0-1.77-1.42-2.67-3.09-2.67zm-4.71 14.43V12.16h4.73c3.06 0 4.8 2.04 4.8 4.17 0 1.55-.91 3.16-2.45 3.41 1.89.34 3.04 1.84 3.04 3.8 0 2.23-1.33 4.56-5.59 4.56l-4.53-.01c0 .01 0 0 0 0zm43.62 0h-9V12.16h9v1.5h-7.35v5.44h6.81v1.49h-6.81v6.01h7.35v1.49zm22.01-7.99c0-4.76 3.76-8.09 8.26-8.09 2.77 0 5.1 1.23 6.55 3.16l-1.25 1c-1.08-1.57-2.92-2.6-5.3-2.6-3.9 0-6.45 2.77-6.45 6.55s2.55 6.55 6.45 6.55c2.35 0 4.17-1.01 5.27-2.55l1.23 1.03c-1.45 1.89-3.75 3.09-6.5 3.09-4.55 0-8.26-3.38-8.26-8.14zm48.96 7.99h-2.11l-7.25-7.74-1.64 1.62v6.12h-1.64V12.16h1.64v7.65l7.72-7.65h2.16l-7.14 7.08 8.26 8.85zm34.33 0h-1.65v-7.5h-9.7v7.5h-1.65V12.16h1.65v6.94h9.7v-6.94h1.65v15.93zm23.24 0h-1.79l7.36-16.08h.58l7.33 16.08h-1.79l-5.83-12.92-5.86 12.92zm43.03-3.01l5.56-13.07h.59L534 28.09h-1.72l-5.1-12.85-5.51 13.02h-.61l-5.57-13.02-5.1 12.85h-1.74l6.52-16.08h.56l5.6 13.07z" fill-rule="evenodd" clip-rule="evenodd"/></symbol></svg>